%TF.GenerationSoftware,KiCad,Pcbnew,10.0.3*%
%TF.CreationDate,2026-05-22T03:26:30+01:00*%
%TF.ProjectId,ProjectKurinda_PCB,50726f6a-6563-4744-9b75-72696e64615f,rev?*%
%TF.SameCoordinates,Original*%
%TF.FileFunction,Plated,1,2,PTH,Drill*%
%TF.FilePolarity,Positive*%
%FSLAX46Y46*%
G04 Gerber Fmt 4.6, Leading zero omitted, Abs format (unit mm)*
G04 Created by KiCad (PCBNEW 10.0.3) date 2026-05-22 03:26:30*
%MOMM*%
%LPD*%
G01*
G04 APERTURE LIST*
%TA.AperFunction,ViaDrill*%
%ADD10C,0.600000*%
%TD*%
%TA.AperFunction,ComponentDrill*%
%ADD11C,0.840000*%
%TD*%
%TA.AperFunction,ComponentDrill*%
%ADD12C,1.000000*%
%TD*%
G04 APERTURE END LIST*
D10*
X60000000Y-125000000D03*
X66650000Y-53000000D03*
X66650000Y-54500000D03*
X67000000Y-60000000D03*
X70000000Y-145000000D03*
X73350000Y-53000000D03*
X73350000Y-54500000D03*
X75000000Y-95000000D03*
X75000000Y-115000000D03*
D11*
%TO.C,U1*%
X62380000Y-48001420D03*
X62380000Y-50640000D03*
X62380000Y-53180000D03*
X62380000Y-55720000D03*
X62380000Y-58260000D03*
X62380000Y-60800000D03*
X62380000Y-63340000D03*
X62380000Y-65880000D03*
X77620000Y-48100000D03*
X77620000Y-50640000D03*
X77620000Y-53180000D03*
X77620000Y-55720000D03*
X77620000Y-58260000D03*
X77620000Y-60800000D03*
X77620000Y-63340000D03*
X77620000Y-65880000D03*
D12*
%TO.C,U5*%
X61110000Y-133000000D03*
%TO.C,U4*%
X62380000Y-78500000D03*
%TO.C,U5*%
X63650000Y-133000000D03*
%TO.C,U4*%
X64920000Y-78500000D03*
%TO.C,U5*%
X66190000Y-133000000D03*
%TO.C,U4*%
X67460000Y-78500000D03*
%TO.C,U2*%
X67460000Y-123000000D03*
%TO.C,U3*%
X67460000Y-139500000D03*
%TO.C,U5*%
X68730000Y-133000000D03*
%TO.C,U4*%
X70000000Y-78500000D03*
%TO.C,U2*%
X70000000Y-123000000D03*
%TO.C,U3*%
X70000000Y-139500000D03*
%TO.C,U5*%
X71270000Y-133000000D03*
%TO.C,U4*%
X72540000Y-78500000D03*
%TO.C,U2*%
X72540000Y-123000000D03*
%TO.C,U3*%
X72540000Y-139500000D03*
%TO.C,U5*%
X73810000Y-133000000D03*
%TO.C,U4*%
X75080000Y-78500000D03*
%TO.C,U5*%
X76350000Y-133000000D03*
%TO.C,U4*%
X77620000Y-78500000D03*
%TO.C,U5*%
X78890000Y-133000000D03*
M02*
