%TF.GenerationSoftware,KiCad,Pcbnew,10.0.4*%
%TF.CreationDate,2026-09-23T12:25:15+01:00*%
%TF.ProjectId,ProjectKurinda_PCB,50726f6a-6563-4744-9b75-72696e64615f,rev?*%
%TF.SameCoordinates,Original*%
%TF.FileFunction,Plated,1,2,PTH,Drill*%
%TF.FilePolarity,Positive*%
%FSLAX46Y46*%
G04 Gerber Fmt 4.6, Leading zero omitted, Abs format (unit mm)*
G04 Created by KiCad (PCBNEW 10.0.4) date 2026-09-23 12:25:15*
%MOMM*%
%LPD*%
G01*
G04 APERTURE LIST*
%TA.AperFunction,ViaDrill*%
%ADD10C,0.500000*%
%TD*%
%TA.AperFunction,ViaDrill*%
%ADD11C,0.600000*%
%TD*%
%TA.AperFunction,ComponentDrill*%
%ADD12C,0.840000*%
%TD*%
%TA.AperFunction,ComponentDrill*%
%ADD13C,1.000000*%
%TD*%
G04 APERTURE END LIST*
D10*
X57500000Y-70000000D03*
X57500000Y-71250000D03*
X57500000Y-72500000D03*
X57500000Y-106250000D03*
X57500000Y-107500000D03*
X57500000Y-108750000D03*
X57500000Y-133750000D03*
X57500000Y-135000000D03*
X57500000Y-136250000D03*
X63750000Y-70000000D03*
X63750000Y-83380000D03*
X65000000Y-70000000D03*
X65000000Y-108540000D03*
X66250000Y-70000000D03*
X66250000Y-105920000D03*
X67500000Y-58500000D03*
X67500000Y-70000000D03*
X67500000Y-103460000D03*
X68750000Y-70000000D03*
X68750000Y-85920000D03*
X70000000Y-70000000D03*
X70000000Y-78300000D03*
X71250000Y-70000000D03*
X71250000Y-91000000D03*
X71250000Y-116500000D03*
X72500000Y-70000000D03*
X72500000Y-100920000D03*
X72500000Y-119190000D03*
X73750000Y-70000000D03*
X73750000Y-80840000D03*
X75000000Y-70000000D03*
X77500000Y-70000000D03*
X81912500Y-52250000D03*
X82500000Y-73750000D03*
X82500000Y-75000000D03*
X82500000Y-76250000D03*
X82500000Y-100000000D03*
X82500000Y-101250000D03*
X82500000Y-102500000D03*
X82500000Y-128750000D03*
X82500000Y-130000000D03*
X82500000Y-131250000D03*
D11*
X66650000Y-53000000D03*
X66650000Y-54500000D03*
X73350000Y-53000000D03*
X73350000Y-54500000D03*
D12*
%TO.C,U1*%
X62380000Y-48001420D03*
X62380000Y-50640000D03*
X62380000Y-53180000D03*
X62380000Y-55720000D03*
X62380000Y-58260000D03*
X62380000Y-60800000D03*
X62380000Y-63340000D03*
X62380000Y-65880000D03*
X77620000Y-48100000D03*
X77620000Y-50640000D03*
X77620000Y-53180000D03*
X77620000Y-55720000D03*
X77620000Y-58260000D03*
X77620000Y-60800000D03*
X77620000Y-63340000D03*
X77620000Y-65880000D03*
D13*
%TO.C,U6*%
X58500000Y-78300000D03*
X58500000Y-80840000D03*
X58500000Y-83380000D03*
X58500000Y-85920000D03*
X58500000Y-88460000D03*
X58500000Y-91000000D03*
%TO.C,U2*%
X59500000Y-121190000D03*
X59500000Y-123730000D03*
X59500000Y-126270000D03*
X59500000Y-128810000D03*
%TO.C,U4*%
X61885000Y-100920000D03*
X61885000Y-103460000D03*
X61885000Y-105920000D03*
X61885000Y-108540000D03*
X61885000Y-111080000D03*
%TO.C,U5*%
X64570000Y-119190000D03*
X64570000Y-121730000D03*
X64570000Y-124270000D03*
X64570000Y-126810000D03*
%TO.C,U3*%
X67460000Y-139500000D03*
X70000000Y-139500000D03*
X72540000Y-139500000D03*
%TO.C,U5*%
X76000000Y-119190000D03*
X76000000Y-121730000D03*
X76000000Y-124270000D03*
X76000000Y-126810000D03*
M02*
