%TF.GenerationSoftware,KiCad,Pcbnew,10.0.3*%
%TF.CreationDate,2026-05-22T03:26:27+01:00*%
%TF.ProjectId,ProjectKurinda_PCB,50726f6a-6563-4744-9b75-72696e64615f,rev?*%
%TF.SameCoordinates,Original*%
%TF.FileFunction,Legend,Top*%
%TF.FilePolarity,Positive*%
%FSLAX46Y46*%
G04 Gerber Fmt 4.6, Leading zero omitted, Abs format (unit mm)*
G04 Created by KiCad (PCBNEW 10.0.3) date 2026-05-22 03:26:27*
%MOMM*%
%LPD*%
G01*
G04 APERTURE LIST*
%ADD10C,0.150000*%
%ADD11C,0.127000*%
%ADD12C,0.100000*%
G04 APERTURE END LIST*
D10*
X79738095Y-67954819D02*
X79738095Y-68764342D01*
X79738095Y-68764342D02*
X79785714Y-68859580D01*
X79785714Y-68859580D02*
X79833333Y-68907200D01*
X79833333Y-68907200D02*
X79928571Y-68954819D01*
X79928571Y-68954819D02*
X80119047Y-68954819D01*
X80119047Y-68954819D02*
X80214285Y-68907200D01*
X80214285Y-68907200D02*
X80261904Y-68859580D01*
X80261904Y-68859580D02*
X80309523Y-68764342D01*
X80309523Y-68764342D02*
X80309523Y-67954819D01*
X81309523Y-68954819D02*
X80738095Y-68954819D01*
X81023809Y-68954819D02*
X81023809Y-67954819D01*
X81023809Y-67954819D02*
X80928571Y-68097676D01*
X80928571Y-68097676D02*
X80833333Y-68192914D01*
X80833333Y-68192914D02*
X80738095Y-68240533D01*
X61857143Y-70431009D02*
X62190476Y-70431009D01*
X62333333Y-70954819D02*
X61857143Y-70954819D01*
X61857143Y-70954819D02*
X61857143Y-69954819D01*
X61857143Y-69954819D02*
X62333333Y-69954819D01*
X62714286Y-70907200D02*
X62857143Y-70954819D01*
X62857143Y-70954819D02*
X63095238Y-70954819D01*
X63095238Y-70954819D02*
X63190476Y-70907200D01*
X63190476Y-70907200D02*
X63238095Y-70859580D01*
X63238095Y-70859580D02*
X63285714Y-70764342D01*
X63285714Y-70764342D02*
X63285714Y-70669104D01*
X63285714Y-70669104D02*
X63238095Y-70573866D01*
X63238095Y-70573866D02*
X63190476Y-70526247D01*
X63190476Y-70526247D02*
X63095238Y-70478628D01*
X63095238Y-70478628D02*
X62904762Y-70431009D01*
X62904762Y-70431009D02*
X62809524Y-70383390D01*
X62809524Y-70383390D02*
X62761905Y-70335771D01*
X62761905Y-70335771D02*
X62714286Y-70240533D01*
X62714286Y-70240533D02*
X62714286Y-70145295D01*
X62714286Y-70145295D02*
X62761905Y-70050057D01*
X62761905Y-70050057D02*
X62809524Y-70002438D01*
X62809524Y-70002438D02*
X62904762Y-69954819D01*
X62904762Y-69954819D02*
X63142857Y-69954819D01*
X63142857Y-69954819D02*
X63285714Y-70002438D01*
X63714286Y-70954819D02*
X63714286Y-69954819D01*
X63714286Y-69954819D02*
X64095238Y-69954819D01*
X64095238Y-69954819D02*
X64190476Y-70002438D01*
X64190476Y-70002438D02*
X64238095Y-70050057D01*
X64238095Y-70050057D02*
X64285714Y-70145295D01*
X64285714Y-70145295D02*
X64285714Y-70288152D01*
X64285714Y-70288152D02*
X64238095Y-70383390D01*
X64238095Y-70383390D02*
X64190476Y-70431009D01*
X64190476Y-70431009D02*
X64095238Y-70478628D01*
X64095238Y-70478628D02*
X63714286Y-70478628D01*
X64619048Y-69954819D02*
X65238095Y-69954819D01*
X65238095Y-69954819D02*
X64904762Y-70335771D01*
X64904762Y-70335771D02*
X65047619Y-70335771D01*
X65047619Y-70335771D02*
X65142857Y-70383390D01*
X65142857Y-70383390D02*
X65190476Y-70431009D01*
X65190476Y-70431009D02*
X65238095Y-70526247D01*
X65238095Y-70526247D02*
X65238095Y-70764342D01*
X65238095Y-70764342D02*
X65190476Y-70859580D01*
X65190476Y-70859580D02*
X65142857Y-70907200D01*
X65142857Y-70907200D02*
X65047619Y-70954819D01*
X65047619Y-70954819D02*
X64761905Y-70954819D01*
X64761905Y-70954819D02*
X64666667Y-70907200D01*
X64666667Y-70907200D02*
X64619048Y-70859580D01*
X65619048Y-70050057D02*
X65666667Y-70002438D01*
X65666667Y-70002438D02*
X65761905Y-69954819D01*
X65761905Y-69954819D02*
X66000000Y-69954819D01*
X66000000Y-69954819D02*
X66095238Y-70002438D01*
X66095238Y-70002438D02*
X66142857Y-70050057D01*
X66142857Y-70050057D02*
X66190476Y-70145295D01*
X66190476Y-70145295D02*
X66190476Y-70240533D01*
X66190476Y-70240533D02*
X66142857Y-70383390D01*
X66142857Y-70383390D02*
X65571429Y-70954819D01*
X65571429Y-70954819D02*
X66190476Y-70954819D01*
X66619048Y-70573866D02*
X67380953Y-70573866D01*
X68428571Y-70859580D02*
X68380952Y-70907200D01*
X68380952Y-70907200D02*
X68238095Y-70954819D01*
X68238095Y-70954819D02*
X68142857Y-70954819D01*
X68142857Y-70954819D02*
X68000000Y-70907200D01*
X68000000Y-70907200D02*
X67904762Y-70811961D01*
X67904762Y-70811961D02*
X67857143Y-70716723D01*
X67857143Y-70716723D02*
X67809524Y-70526247D01*
X67809524Y-70526247D02*
X67809524Y-70383390D01*
X67809524Y-70383390D02*
X67857143Y-70192914D01*
X67857143Y-70192914D02*
X67904762Y-70097676D01*
X67904762Y-70097676D02*
X68000000Y-70002438D01*
X68000000Y-70002438D02*
X68142857Y-69954819D01*
X68142857Y-69954819D02*
X68238095Y-69954819D01*
X68238095Y-69954819D02*
X68380952Y-70002438D01*
X68380952Y-70002438D02*
X68428571Y-70050057D01*
X68761905Y-69954819D02*
X69380952Y-69954819D01*
X69380952Y-69954819D02*
X69047619Y-70335771D01*
X69047619Y-70335771D02*
X69190476Y-70335771D01*
X69190476Y-70335771D02*
X69285714Y-70383390D01*
X69285714Y-70383390D02*
X69333333Y-70431009D01*
X69333333Y-70431009D02*
X69380952Y-70526247D01*
X69380952Y-70526247D02*
X69380952Y-70764342D01*
X69380952Y-70764342D02*
X69333333Y-70859580D01*
X69333333Y-70859580D02*
X69285714Y-70907200D01*
X69285714Y-70907200D02*
X69190476Y-70954819D01*
X69190476Y-70954819D02*
X68904762Y-70954819D01*
X68904762Y-70954819D02*
X68809524Y-70907200D01*
X68809524Y-70907200D02*
X68761905Y-70859580D01*
X70523810Y-70907200D02*
X70666667Y-70954819D01*
X70666667Y-70954819D02*
X70904762Y-70954819D01*
X70904762Y-70954819D02*
X71000000Y-70907200D01*
X71000000Y-70907200D02*
X71047619Y-70859580D01*
X71047619Y-70859580D02*
X71095238Y-70764342D01*
X71095238Y-70764342D02*
X71095238Y-70669104D01*
X71095238Y-70669104D02*
X71047619Y-70573866D01*
X71047619Y-70573866D02*
X71000000Y-70526247D01*
X71000000Y-70526247D02*
X70904762Y-70478628D01*
X70904762Y-70478628D02*
X70714286Y-70431009D01*
X70714286Y-70431009D02*
X70619048Y-70383390D01*
X70619048Y-70383390D02*
X70571429Y-70335771D01*
X70571429Y-70335771D02*
X70523810Y-70240533D01*
X70523810Y-70240533D02*
X70523810Y-70145295D01*
X70523810Y-70145295D02*
X70571429Y-70050057D01*
X70571429Y-70050057D02*
X70619048Y-70002438D01*
X70619048Y-70002438D02*
X70714286Y-69954819D01*
X70714286Y-69954819D02*
X70952381Y-69954819D01*
X70952381Y-69954819D02*
X71095238Y-70002438D01*
X71523810Y-69954819D02*
X71523810Y-70764342D01*
X71523810Y-70764342D02*
X71571429Y-70859580D01*
X71571429Y-70859580D02*
X71619048Y-70907200D01*
X71619048Y-70907200D02*
X71714286Y-70954819D01*
X71714286Y-70954819D02*
X71904762Y-70954819D01*
X71904762Y-70954819D02*
X72000000Y-70907200D01*
X72000000Y-70907200D02*
X72047619Y-70859580D01*
X72047619Y-70859580D02*
X72095238Y-70764342D01*
X72095238Y-70764342D02*
X72095238Y-69954819D01*
X72571429Y-70954819D02*
X72571429Y-69954819D01*
X72571429Y-69954819D02*
X72952381Y-69954819D01*
X72952381Y-69954819D02*
X73047619Y-70002438D01*
X73047619Y-70002438D02*
X73095238Y-70050057D01*
X73095238Y-70050057D02*
X73142857Y-70145295D01*
X73142857Y-70145295D02*
X73142857Y-70288152D01*
X73142857Y-70288152D02*
X73095238Y-70383390D01*
X73095238Y-70383390D02*
X73047619Y-70431009D01*
X73047619Y-70431009D02*
X72952381Y-70478628D01*
X72952381Y-70478628D02*
X72571429Y-70478628D01*
X73571429Y-70431009D02*
X73904762Y-70431009D01*
X74047619Y-70954819D02*
X73571429Y-70954819D01*
X73571429Y-70954819D02*
X73571429Y-69954819D01*
X73571429Y-69954819D02*
X74047619Y-69954819D01*
X75047619Y-70954819D02*
X74714286Y-70478628D01*
X74476191Y-70954819D02*
X74476191Y-69954819D01*
X74476191Y-69954819D02*
X74857143Y-69954819D01*
X74857143Y-69954819D02*
X74952381Y-70002438D01*
X74952381Y-70002438D02*
X75000000Y-70050057D01*
X75000000Y-70050057D02*
X75047619Y-70145295D01*
X75047619Y-70145295D02*
X75047619Y-70288152D01*
X75047619Y-70288152D02*
X75000000Y-70383390D01*
X75000000Y-70383390D02*
X74952381Y-70431009D01*
X74952381Y-70431009D02*
X74857143Y-70478628D01*
X74857143Y-70478628D02*
X74476191Y-70478628D01*
X75476191Y-70954819D02*
X75476191Y-69954819D01*
X75476191Y-69954819D02*
X75809524Y-70669104D01*
X75809524Y-70669104D02*
X76142857Y-69954819D01*
X76142857Y-69954819D02*
X76142857Y-70954819D01*
X76619048Y-70954819D02*
X76619048Y-69954819D01*
X77095238Y-70954819D02*
X77095238Y-69954819D01*
X77095238Y-69954819D02*
X77666666Y-70954819D01*
X77666666Y-70954819D02*
X77666666Y-69954819D01*
X78142857Y-70954819D02*
X78142857Y-69954819D01*
X78238095Y-102954819D02*
X78238095Y-103764342D01*
X78238095Y-103764342D02*
X78285714Y-103859580D01*
X78285714Y-103859580D02*
X78333333Y-103907200D01*
X78333333Y-103907200D02*
X78428571Y-103954819D01*
X78428571Y-103954819D02*
X78619047Y-103954819D01*
X78619047Y-103954819D02*
X78714285Y-103907200D01*
X78714285Y-103907200D02*
X78761904Y-103859580D01*
X78761904Y-103859580D02*
X78809523Y-103764342D01*
X78809523Y-103764342D02*
X78809523Y-102954819D01*
X79238095Y-103050057D02*
X79285714Y-103002438D01*
X79285714Y-103002438D02*
X79380952Y-102954819D01*
X79380952Y-102954819D02*
X79619047Y-102954819D01*
X79619047Y-102954819D02*
X79714285Y-103002438D01*
X79714285Y-103002438D02*
X79761904Y-103050057D01*
X79761904Y-103050057D02*
X79809523Y-103145295D01*
X79809523Y-103145295D02*
X79809523Y-103240533D01*
X79809523Y-103240533D02*
X79761904Y-103383390D01*
X79761904Y-103383390D02*
X79190476Y-103954819D01*
X79190476Y-103954819D02*
X79809523Y-103954819D01*
X62880952Y-127454819D02*
X62880952Y-126454819D01*
X62880952Y-126454819D02*
X63119047Y-126454819D01*
X63119047Y-126454819D02*
X63261904Y-126502438D01*
X63261904Y-126502438D02*
X63357142Y-126597676D01*
X63357142Y-126597676D02*
X63404761Y-126692914D01*
X63404761Y-126692914D02*
X63452380Y-126883390D01*
X63452380Y-126883390D02*
X63452380Y-127026247D01*
X63452380Y-127026247D02*
X63404761Y-127216723D01*
X63404761Y-127216723D02*
X63357142Y-127311961D01*
X63357142Y-127311961D02*
X63261904Y-127407200D01*
X63261904Y-127407200D02*
X63119047Y-127454819D01*
X63119047Y-127454819D02*
X62880952Y-127454819D01*
X63880952Y-127454819D02*
X63880952Y-126454819D01*
X63880952Y-126931009D02*
X64452380Y-126931009D01*
X64452380Y-127454819D02*
X64452380Y-126454819D01*
X64785714Y-126454819D02*
X65357142Y-126454819D01*
X65071428Y-127454819D02*
X65071428Y-126454819D01*
X66214285Y-127454819D02*
X65642857Y-127454819D01*
X65928571Y-127454819D02*
X65928571Y-126454819D01*
X65928571Y-126454819D02*
X65833333Y-126597676D01*
X65833333Y-126597676D02*
X65738095Y-126692914D01*
X65738095Y-126692914D02*
X65642857Y-126740533D01*
X67166666Y-127454819D02*
X66595238Y-127454819D01*
X66880952Y-127454819D02*
X66880952Y-126454819D01*
X66880952Y-126454819D02*
X66785714Y-126597676D01*
X66785714Y-126597676D02*
X66690476Y-126692914D01*
X66690476Y-126692914D02*
X66595238Y-126740533D01*
X68214286Y-126454819D02*
X68785714Y-126454819D01*
X68500000Y-127454819D02*
X68500000Y-126454819D01*
X69928572Y-127454819D02*
X69880953Y-127454819D01*
X69880953Y-127454819D02*
X69785714Y-127407200D01*
X69785714Y-127407200D02*
X69642857Y-127264342D01*
X69642857Y-127264342D02*
X69404762Y-126978628D01*
X69404762Y-126978628D02*
X69309524Y-126835771D01*
X69309524Y-126835771D02*
X69261905Y-126692914D01*
X69261905Y-126692914D02*
X69261905Y-126597676D01*
X69261905Y-126597676D02*
X69309524Y-126502438D01*
X69309524Y-126502438D02*
X69404762Y-126454819D01*
X69404762Y-126454819D02*
X69452381Y-126454819D01*
X69452381Y-126454819D02*
X69547619Y-126502438D01*
X69547619Y-126502438D02*
X69595238Y-126597676D01*
X69595238Y-126597676D02*
X69595238Y-126645295D01*
X69595238Y-126645295D02*
X69547619Y-126740533D01*
X69547619Y-126740533D02*
X69500000Y-126788152D01*
X69500000Y-126788152D02*
X69214286Y-126978628D01*
X69214286Y-126978628D02*
X69166667Y-127026247D01*
X69166667Y-127026247D02*
X69119048Y-127121485D01*
X69119048Y-127121485D02*
X69119048Y-127264342D01*
X69119048Y-127264342D02*
X69166667Y-127359580D01*
X69166667Y-127359580D02*
X69214286Y-127407200D01*
X69214286Y-127407200D02*
X69309524Y-127454819D01*
X69309524Y-127454819D02*
X69452381Y-127454819D01*
X69452381Y-127454819D02*
X69547619Y-127407200D01*
X69547619Y-127407200D02*
X69595238Y-127359580D01*
X69595238Y-127359580D02*
X69738095Y-127169104D01*
X69738095Y-127169104D02*
X69785714Y-127026247D01*
X69785714Y-127026247D02*
X69785714Y-126931009D01*
X70357143Y-127454819D02*
X70357143Y-126454819D01*
X70357143Y-126931009D02*
X70928571Y-126931009D01*
X70928571Y-127454819D02*
X70928571Y-126454819D01*
X72166667Y-127454819D02*
X72166667Y-126788152D01*
X72166667Y-126883390D02*
X72214286Y-126835771D01*
X72214286Y-126835771D02*
X72309524Y-126788152D01*
X72309524Y-126788152D02*
X72452381Y-126788152D01*
X72452381Y-126788152D02*
X72547619Y-126835771D01*
X72547619Y-126835771D02*
X72595238Y-126931009D01*
X72595238Y-126931009D02*
X72595238Y-127454819D01*
X72595238Y-126931009D02*
X72642857Y-126835771D01*
X72642857Y-126835771D02*
X72738095Y-126788152D01*
X72738095Y-126788152D02*
X72880952Y-126788152D01*
X72880952Y-126788152D02*
X72976191Y-126835771D01*
X72976191Y-126835771D02*
X73023810Y-126931009D01*
X73023810Y-126931009D02*
X73023810Y-127454819D01*
X73642857Y-127454819D02*
X73547619Y-127407200D01*
X73547619Y-127407200D02*
X73500000Y-127359580D01*
X73500000Y-127359580D02*
X73452381Y-127264342D01*
X73452381Y-127264342D02*
X73452381Y-126978628D01*
X73452381Y-126978628D02*
X73500000Y-126883390D01*
X73500000Y-126883390D02*
X73547619Y-126835771D01*
X73547619Y-126835771D02*
X73642857Y-126788152D01*
X73642857Y-126788152D02*
X73785714Y-126788152D01*
X73785714Y-126788152D02*
X73880952Y-126835771D01*
X73880952Y-126835771D02*
X73928571Y-126883390D01*
X73928571Y-126883390D02*
X73976190Y-126978628D01*
X73976190Y-126978628D02*
X73976190Y-127264342D01*
X73976190Y-127264342D02*
X73928571Y-127359580D01*
X73928571Y-127359580D02*
X73880952Y-127407200D01*
X73880952Y-127407200D02*
X73785714Y-127454819D01*
X73785714Y-127454819D02*
X73642857Y-127454819D01*
X74833333Y-127454819D02*
X74833333Y-126454819D01*
X74833333Y-127407200D02*
X74738095Y-127454819D01*
X74738095Y-127454819D02*
X74547619Y-127454819D01*
X74547619Y-127454819D02*
X74452381Y-127407200D01*
X74452381Y-127407200D02*
X74404762Y-127359580D01*
X74404762Y-127359580D02*
X74357143Y-127264342D01*
X74357143Y-127264342D02*
X74357143Y-126978628D01*
X74357143Y-126978628D02*
X74404762Y-126883390D01*
X74404762Y-126883390D02*
X74452381Y-126835771D01*
X74452381Y-126835771D02*
X74547619Y-126788152D01*
X74547619Y-126788152D02*
X74738095Y-126788152D01*
X74738095Y-126788152D02*
X74833333Y-126835771D01*
X75738095Y-126788152D02*
X75738095Y-127454819D01*
X75309524Y-126788152D02*
X75309524Y-127311961D01*
X75309524Y-127311961D02*
X75357143Y-127407200D01*
X75357143Y-127407200D02*
X75452381Y-127454819D01*
X75452381Y-127454819D02*
X75595238Y-127454819D01*
X75595238Y-127454819D02*
X75690476Y-127407200D01*
X75690476Y-127407200D02*
X75738095Y-127359580D01*
X76357143Y-127454819D02*
X76261905Y-127407200D01*
X76261905Y-127407200D02*
X76214286Y-127311961D01*
X76214286Y-127311961D02*
X76214286Y-126454819D01*
X77119048Y-127407200D02*
X77023810Y-127454819D01*
X77023810Y-127454819D02*
X76833334Y-127454819D01*
X76833334Y-127454819D02*
X76738096Y-127407200D01*
X76738096Y-127407200D02*
X76690477Y-127311961D01*
X76690477Y-127311961D02*
X76690477Y-126931009D01*
X76690477Y-126931009D02*
X76738096Y-126835771D01*
X76738096Y-126835771D02*
X76833334Y-126788152D01*
X76833334Y-126788152D02*
X77023810Y-126788152D01*
X77023810Y-126788152D02*
X77119048Y-126835771D01*
X77119048Y-126835771D02*
X77166667Y-126931009D01*
X77166667Y-126931009D02*
X77166667Y-127026247D01*
X77166667Y-127026247D02*
X76690477Y-127121485D01*
X58738095Y-100454819D02*
X58738095Y-101264342D01*
X58738095Y-101264342D02*
X58785714Y-101359580D01*
X58785714Y-101359580D02*
X58833333Y-101407200D01*
X58833333Y-101407200D02*
X58928571Y-101454819D01*
X58928571Y-101454819D02*
X59119047Y-101454819D01*
X59119047Y-101454819D02*
X59214285Y-101407200D01*
X59214285Y-101407200D02*
X59261904Y-101359580D01*
X59261904Y-101359580D02*
X59309523Y-101264342D01*
X59309523Y-101264342D02*
X59309523Y-100454819D01*
X60214285Y-100788152D02*
X60214285Y-101454819D01*
X59976190Y-100407200D02*
X59738095Y-101121485D01*
X59738095Y-101121485D02*
X60357142Y-101121485D01*
X62452380Y-75907200D02*
X62595237Y-75954819D01*
X62595237Y-75954819D02*
X62833332Y-75954819D01*
X62833332Y-75954819D02*
X62928570Y-75907200D01*
X62928570Y-75907200D02*
X62976189Y-75859580D01*
X62976189Y-75859580D02*
X63023808Y-75764342D01*
X63023808Y-75764342D02*
X63023808Y-75669104D01*
X63023808Y-75669104D02*
X62976189Y-75573866D01*
X62976189Y-75573866D02*
X62928570Y-75526247D01*
X62928570Y-75526247D02*
X62833332Y-75478628D01*
X62833332Y-75478628D02*
X62642856Y-75431009D01*
X62642856Y-75431009D02*
X62547618Y-75383390D01*
X62547618Y-75383390D02*
X62499999Y-75335771D01*
X62499999Y-75335771D02*
X62452380Y-75240533D01*
X62452380Y-75240533D02*
X62452380Y-75145295D01*
X62452380Y-75145295D02*
X62499999Y-75050057D01*
X62499999Y-75050057D02*
X62547618Y-75002438D01*
X62547618Y-75002438D02*
X62642856Y-74954819D01*
X62642856Y-74954819D02*
X62880951Y-74954819D01*
X62880951Y-74954819D02*
X63023808Y-75002438D01*
X63452380Y-75954819D02*
X63452380Y-74954819D01*
X63452380Y-74954819D02*
X63690475Y-74954819D01*
X63690475Y-74954819D02*
X63833332Y-75002438D01*
X63833332Y-75002438D02*
X63928570Y-75097676D01*
X63928570Y-75097676D02*
X63976189Y-75192914D01*
X63976189Y-75192914D02*
X64023808Y-75383390D01*
X64023808Y-75383390D02*
X64023808Y-75526247D01*
X64023808Y-75526247D02*
X63976189Y-75716723D01*
X63976189Y-75716723D02*
X63928570Y-75811961D01*
X63928570Y-75811961D02*
X63833332Y-75907200D01*
X63833332Y-75907200D02*
X63690475Y-75954819D01*
X63690475Y-75954819D02*
X63452380Y-75954819D01*
X64357142Y-74954819D02*
X64976189Y-74954819D01*
X64976189Y-74954819D02*
X64642856Y-75335771D01*
X64642856Y-75335771D02*
X64785713Y-75335771D01*
X64785713Y-75335771D02*
X64880951Y-75383390D01*
X64880951Y-75383390D02*
X64928570Y-75431009D01*
X64928570Y-75431009D02*
X64976189Y-75526247D01*
X64976189Y-75526247D02*
X64976189Y-75764342D01*
X64976189Y-75764342D02*
X64928570Y-75859580D01*
X64928570Y-75859580D02*
X64880951Y-75907200D01*
X64880951Y-75907200D02*
X64785713Y-75954819D01*
X64785713Y-75954819D02*
X64499999Y-75954819D01*
X64499999Y-75954819D02*
X64404761Y-75907200D01*
X64404761Y-75907200D02*
X64357142Y-75859580D01*
X65595237Y-74954819D02*
X65690475Y-74954819D01*
X65690475Y-74954819D02*
X65785713Y-75002438D01*
X65785713Y-75002438D02*
X65833332Y-75050057D01*
X65833332Y-75050057D02*
X65880951Y-75145295D01*
X65880951Y-75145295D02*
X65928570Y-75335771D01*
X65928570Y-75335771D02*
X65928570Y-75573866D01*
X65928570Y-75573866D02*
X65880951Y-75764342D01*
X65880951Y-75764342D02*
X65833332Y-75859580D01*
X65833332Y-75859580D02*
X65785713Y-75907200D01*
X65785713Y-75907200D02*
X65690475Y-75954819D01*
X65690475Y-75954819D02*
X65595237Y-75954819D01*
X65595237Y-75954819D02*
X65499999Y-75907200D01*
X65499999Y-75907200D02*
X65452380Y-75859580D01*
X65452380Y-75859580D02*
X65404761Y-75764342D01*
X65404761Y-75764342D02*
X65357142Y-75573866D01*
X65357142Y-75573866D02*
X65357142Y-75335771D01*
X65357142Y-75335771D02*
X65404761Y-75145295D01*
X65404761Y-75145295D02*
X65452380Y-75050057D01*
X65452380Y-75050057D02*
X65499999Y-75002438D01*
X65499999Y-75002438D02*
X65595237Y-74954819D01*
X66261904Y-74954819D02*
X66880951Y-74954819D01*
X66880951Y-74954819D02*
X66547618Y-75335771D01*
X66547618Y-75335771D02*
X66690475Y-75335771D01*
X66690475Y-75335771D02*
X66785713Y-75383390D01*
X66785713Y-75383390D02*
X66833332Y-75431009D01*
X66833332Y-75431009D02*
X66880951Y-75526247D01*
X66880951Y-75526247D02*
X66880951Y-75764342D01*
X66880951Y-75764342D02*
X66833332Y-75859580D01*
X66833332Y-75859580D02*
X66785713Y-75907200D01*
X66785713Y-75907200D02*
X66690475Y-75954819D01*
X66690475Y-75954819D02*
X66404761Y-75954819D01*
X66404761Y-75954819D02*
X66309523Y-75907200D01*
X66309523Y-75907200D02*
X66261904Y-75859580D01*
X67833332Y-75954819D02*
X67261904Y-75954819D01*
X67547618Y-75954819D02*
X67547618Y-74954819D01*
X67547618Y-74954819D02*
X67452380Y-75097676D01*
X67452380Y-75097676D02*
X67357142Y-75192914D01*
X67357142Y-75192914D02*
X67261904Y-75240533D01*
X69595237Y-75954819D02*
X69261904Y-75478628D01*
X69023809Y-75954819D02*
X69023809Y-74954819D01*
X69023809Y-74954819D02*
X69404761Y-74954819D01*
X69404761Y-74954819D02*
X69499999Y-75002438D01*
X69499999Y-75002438D02*
X69547618Y-75050057D01*
X69547618Y-75050057D02*
X69595237Y-75145295D01*
X69595237Y-75145295D02*
X69595237Y-75288152D01*
X69595237Y-75288152D02*
X69547618Y-75383390D01*
X69547618Y-75383390D02*
X69499999Y-75431009D01*
X69499999Y-75431009D02*
X69404761Y-75478628D01*
X69404761Y-75478628D02*
X69023809Y-75478628D01*
X69880952Y-74954819D02*
X70452380Y-74954819D01*
X70166666Y-75954819D02*
X70166666Y-74954819D01*
X71357142Y-75859580D02*
X71309523Y-75907200D01*
X71309523Y-75907200D02*
X71166666Y-75954819D01*
X71166666Y-75954819D02*
X71071428Y-75954819D01*
X71071428Y-75954819D02*
X70928571Y-75907200D01*
X70928571Y-75907200D02*
X70833333Y-75811961D01*
X70833333Y-75811961D02*
X70785714Y-75716723D01*
X70785714Y-75716723D02*
X70738095Y-75526247D01*
X70738095Y-75526247D02*
X70738095Y-75383390D01*
X70738095Y-75383390D02*
X70785714Y-75192914D01*
X70785714Y-75192914D02*
X70833333Y-75097676D01*
X70833333Y-75097676D02*
X70928571Y-75002438D01*
X70928571Y-75002438D02*
X71071428Y-74954819D01*
X71071428Y-74954819D02*
X71166666Y-74954819D01*
X71166666Y-74954819D02*
X71309523Y-75002438D01*
X71309523Y-75002438D02*
X71357142Y-75050057D01*
X72547619Y-75954819D02*
X72547619Y-75288152D01*
X72547619Y-75383390D02*
X72595238Y-75335771D01*
X72595238Y-75335771D02*
X72690476Y-75288152D01*
X72690476Y-75288152D02*
X72833333Y-75288152D01*
X72833333Y-75288152D02*
X72928571Y-75335771D01*
X72928571Y-75335771D02*
X72976190Y-75431009D01*
X72976190Y-75431009D02*
X72976190Y-75954819D01*
X72976190Y-75431009D02*
X73023809Y-75335771D01*
X73023809Y-75335771D02*
X73119047Y-75288152D01*
X73119047Y-75288152D02*
X73261904Y-75288152D01*
X73261904Y-75288152D02*
X73357143Y-75335771D01*
X73357143Y-75335771D02*
X73404762Y-75431009D01*
X73404762Y-75431009D02*
X73404762Y-75954819D01*
X74023809Y-75954819D02*
X73928571Y-75907200D01*
X73928571Y-75907200D02*
X73880952Y-75859580D01*
X73880952Y-75859580D02*
X73833333Y-75764342D01*
X73833333Y-75764342D02*
X73833333Y-75478628D01*
X73833333Y-75478628D02*
X73880952Y-75383390D01*
X73880952Y-75383390D02*
X73928571Y-75335771D01*
X73928571Y-75335771D02*
X74023809Y-75288152D01*
X74023809Y-75288152D02*
X74166666Y-75288152D01*
X74166666Y-75288152D02*
X74261904Y-75335771D01*
X74261904Y-75335771D02*
X74309523Y-75383390D01*
X74309523Y-75383390D02*
X74357142Y-75478628D01*
X74357142Y-75478628D02*
X74357142Y-75764342D01*
X74357142Y-75764342D02*
X74309523Y-75859580D01*
X74309523Y-75859580D02*
X74261904Y-75907200D01*
X74261904Y-75907200D02*
X74166666Y-75954819D01*
X74166666Y-75954819D02*
X74023809Y-75954819D01*
X75214285Y-75954819D02*
X75214285Y-74954819D01*
X75214285Y-75907200D02*
X75119047Y-75954819D01*
X75119047Y-75954819D02*
X74928571Y-75954819D01*
X74928571Y-75954819D02*
X74833333Y-75907200D01*
X74833333Y-75907200D02*
X74785714Y-75859580D01*
X74785714Y-75859580D02*
X74738095Y-75764342D01*
X74738095Y-75764342D02*
X74738095Y-75478628D01*
X74738095Y-75478628D02*
X74785714Y-75383390D01*
X74785714Y-75383390D02*
X74833333Y-75335771D01*
X74833333Y-75335771D02*
X74928571Y-75288152D01*
X74928571Y-75288152D02*
X75119047Y-75288152D01*
X75119047Y-75288152D02*
X75214285Y-75335771D01*
X76119047Y-75288152D02*
X76119047Y-75954819D01*
X75690476Y-75288152D02*
X75690476Y-75811961D01*
X75690476Y-75811961D02*
X75738095Y-75907200D01*
X75738095Y-75907200D02*
X75833333Y-75954819D01*
X75833333Y-75954819D02*
X75976190Y-75954819D01*
X75976190Y-75954819D02*
X76071428Y-75907200D01*
X76071428Y-75907200D02*
X76119047Y-75859580D01*
X76738095Y-75954819D02*
X76642857Y-75907200D01*
X76642857Y-75907200D02*
X76595238Y-75811961D01*
X76595238Y-75811961D02*
X76595238Y-74954819D01*
X77500000Y-75907200D02*
X77404762Y-75954819D01*
X77404762Y-75954819D02*
X77214286Y-75954819D01*
X77214286Y-75954819D02*
X77119048Y-75907200D01*
X77119048Y-75907200D02*
X77071429Y-75811961D01*
X77071429Y-75811961D02*
X77071429Y-75431009D01*
X77071429Y-75431009D02*
X77119048Y-75335771D01*
X77119048Y-75335771D02*
X77214286Y-75288152D01*
X77214286Y-75288152D02*
X77404762Y-75288152D01*
X77404762Y-75288152D02*
X77500000Y-75335771D01*
X77500000Y-75335771D02*
X77547619Y-75431009D01*
X77547619Y-75431009D02*
X77547619Y-75526247D01*
X77547619Y-75526247D02*
X77071429Y-75621485D01*
X59238095Y-135954819D02*
X59238095Y-136764342D01*
X59238095Y-136764342D02*
X59285714Y-136859580D01*
X59285714Y-136859580D02*
X59333333Y-136907200D01*
X59333333Y-136907200D02*
X59428571Y-136954819D01*
X59428571Y-136954819D02*
X59619047Y-136954819D01*
X59619047Y-136954819D02*
X59714285Y-136907200D01*
X59714285Y-136907200D02*
X59761904Y-136859580D01*
X59761904Y-136859580D02*
X59809523Y-136764342D01*
X59809523Y-136764342D02*
X59809523Y-135954819D01*
X60190476Y-135954819D02*
X60809523Y-135954819D01*
X60809523Y-135954819D02*
X60476190Y-136335771D01*
X60476190Y-136335771D02*
X60619047Y-136335771D01*
X60619047Y-136335771D02*
X60714285Y-136383390D01*
X60714285Y-136383390D02*
X60761904Y-136431009D01*
X60761904Y-136431009D02*
X60809523Y-136526247D01*
X60809523Y-136526247D02*
X60809523Y-136764342D01*
X60809523Y-136764342D02*
X60761904Y-136859580D01*
X60761904Y-136859580D02*
X60714285Y-136907200D01*
X60714285Y-136907200D02*
X60619047Y-136954819D01*
X60619047Y-136954819D02*
X60333333Y-136954819D01*
X60333333Y-136954819D02*
X60238095Y-136907200D01*
X60238095Y-136907200D02*
X60190476Y-136859580D01*
X62166665Y-135954819D02*
X62404760Y-136954819D01*
X62404760Y-136954819D02*
X62595236Y-136240533D01*
X62595236Y-136240533D02*
X62785712Y-136954819D01*
X62785712Y-136954819D02*
X63023808Y-135954819D01*
X63833331Y-136954819D02*
X63833331Y-136431009D01*
X63833331Y-136431009D02*
X63785712Y-136335771D01*
X63785712Y-136335771D02*
X63690474Y-136288152D01*
X63690474Y-136288152D02*
X63499998Y-136288152D01*
X63499998Y-136288152D02*
X63404760Y-136335771D01*
X63833331Y-136907200D02*
X63738093Y-136954819D01*
X63738093Y-136954819D02*
X63499998Y-136954819D01*
X63499998Y-136954819D02*
X63404760Y-136907200D01*
X63404760Y-136907200D02*
X63357141Y-136811961D01*
X63357141Y-136811961D02*
X63357141Y-136716723D01*
X63357141Y-136716723D02*
X63404760Y-136621485D01*
X63404760Y-136621485D02*
X63499998Y-136573866D01*
X63499998Y-136573866D02*
X63738093Y-136573866D01*
X63738093Y-136573866D02*
X63833331Y-136526247D01*
X64166665Y-136288152D02*
X64547617Y-136288152D01*
X64309522Y-135954819D02*
X64309522Y-136811961D01*
X64309522Y-136811961D02*
X64357141Y-136907200D01*
X64357141Y-136907200D02*
X64452379Y-136954819D01*
X64452379Y-136954819D02*
X64547617Y-136954819D01*
X65261903Y-136907200D02*
X65166665Y-136954819D01*
X65166665Y-136954819D02*
X64976189Y-136954819D01*
X64976189Y-136954819D02*
X64880951Y-136907200D01*
X64880951Y-136907200D02*
X64833332Y-136811961D01*
X64833332Y-136811961D02*
X64833332Y-136431009D01*
X64833332Y-136431009D02*
X64880951Y-136335771D01*
X64880951Y-136335771D02*
X64976189Y-136288152D01*
X64976189Y-136288152D02*
X65166665Y-136288152D01*
X65166665Y-136288152D02*
X65261903Y-136335771D01*
X65261903Y-136335771D02*
X65309522Y-136431009D01*
X65309522Y-136431009D02*
X65309522Y-136526247D01*
X65309522Y-136526247D02*
X64833332Y-136621485D01*
X65738094Y-136954819D02*
X65738094Y-136288152D01*
X65738094Y-136478628D02*
X65785713Y-136383390D01*
X65785713Y-136383390D02*
X65833332Y-136335771D01*
X65833332Y-136335771D02*
X65928570Y-136288152D01*
X65928570Y-136288152D02*
X66023808Y-136288152D01*
X67071428Y-136907200D02*
X67166666Y-136954819D01*
X67166666Y-136954819D02*
X67357142Y-136954819D01*
X67357142Y-136954819D02*
X67452380Y-136907200D01*
X67452380Y-136907200D02*
X67499999Y-136811961D01*
X67499999Y-136811961D02*
X67499999Y-136764342D01*
X67499999Y-136764342D02*
X67452380Y-136669104D01*
X67452380Y-136669104D02*
X67357142Y-136621485D01*
X67357142Y-136621485D02*
X67214285Y-136621485D01*
X67214285Y-136621485D02*
X67119047Y-136573866D01*
X67119047Y-136573866D02*
X67071428Y-136478628D01*
X67071428Y-136478628D02*
X67071428Y-136431009D01*
X67071428Y-136431009D02*
X67119047Y-136335771D01*
X67119047Y-136335771D02*
X67214285Y-136288152D01*
X67214285Y-136288152D02*
X67357142Y-136288152D01*
X67357142Y-136288152D02*
X67452380Y-136335771D01*
X68309523Y-136907200D02*
X68214285Y-136954819D01*
X68214285Y-136954819D02*
X68023809Y-136954819D01*
X68023809Y-136954819D02*
X67928571Y-136907200D01*
X67928571Y-136907200D02*
X67880952Y-136811961D01*
X67880952Y-136811961D02*
X67880952Y-136431009D01*
X67880952Y-136431009D02*
X67928571Y-136335771D01*
X67928571Y-136335771D02*
X68023809Y-136288152D01*
X68023809Y-136288152D02*
X68214285Y-136288152D01*
X68214285Y-136288152D02*
X68309523Y-136335771D01*
X68309523Y-136335771D02*
X68357142Y-136431009D01*
X68357142Y-136431009D02*
X68357142Y-136526247D01*
X68357142Y-136526247D02*
X67880952Y-136621485D01*
X68785714Y-136288152D02*
X68785714Y-136954819D01*
X68785714Y-136383390D02*
X68833333Y-136335771D01*
X68833333Y-136335771D02*
X68928571Y-136288152D01*
X68928571Y-136288152D02*
X69071428Y-136288152D01*
X69071428Y-136288152D02*
X69166666Y-136335771D01*
X69166666Y-136335771D02*
X69214285Y-136431009D01*
X69214285Y-136431009D02*
X69214285Y-136954819D01*
X69642857Y-136907200D02*
X69738095Y-136954819D01*
X69738095Y-136954819D02*
X69928571Y-136954819D01*
X69928571Y-136954819D02*
X70023809Y-136907200D01*
X70023809Y-136907200D02*
X70071428Y-136811961D01*
X70071428Y-136811961D02*
X70071428Y-136764342D01*
X70071428Y-136764342D02*
X70023809Y-136669104D01*
X70023809Y-136669104D02*
X69928571Y-136621485D01*
X69928571Y-136621485D02*
X69785714Y-136621485D01*
X69785714Y-136621485D02*
X69690476Y-136573866D01*
X69690476Y-136573866D02*
X69642857Y-136478628D01*
X69642857Y-136478628D02*
X69642857Y-136431009D01*
X69642857Y-136431009D02*
X69690476Y-136335771D01*
X69690476Y-136335771D02*
X69785714Y-136288152D01*
X69785714Y-136288152D02*
X69928571Y-136288152D01*
X69928571Y-136288152D02*
X70023809Y-136335771D01*
X70642857Y-136954819D02*
X70547619Y-136907200D01*
X70547619Y-136907200D02*
X70500000Y-136859580D01*
X70500000Y-136859580D02*
X70452381Y-136764342D01*
X70452381Y-136764342D02*
X70452381Y-136478628D01*
X70452381Y-136478628D02*
X70500000Y-136383390D01*
X70500000Y-136383390D02*
X70547619Y-136335771D01*
X70547619Y-136335771D02*
X70642857Y-136288152D01*
X70642857Y-136288152D02*
X70785714Y-136288152D01*
X70785714Y-136288152D02*
X70880952Y-136335771D01*
X70880952Y-136335771D02*
X70928571Y-136383390D01*
X70928571Y-136383390D02*
X70976190Y-136478628D01*
X70976190Y-136478628D02*
X70976190Y-136764342D01*
X70976190Y-136764342D02*
X70928571Y-136859580D01*
X70928571Y-136859580D02*
X70880952Y-136907200D01*
X70880952Y-136907200D02*
X70785714Y-136954819D01*
X70785714Y-136954819D02*
X70642857Y-136954819D01*
X71404762Y-136954819D02*
X71404762Y-136288152D01*
X71404762Y-136478628D02*
X71452381Y-136383390D01*
X71452381Y-136383390D02*
X71500000Y-136335771D01*
X71500000Y-136335771D02*
X71595238Y-136288152D01*
X71595238Y-136288152D02*
X71690476Y-136288152D01*
X72785715Y-136954819D02*
X72785715Y-136288152D01*
X72785715Y-136383390D02*
X72833334Y-136335771D01*
X72833334Y-136335771D02*
X72928572Y-136288152D01*
X72928572Y-136288152D02*
X73071429Y-136288152D01*
X73071429Y-136288152D02*
X73166667Y-136335771D01*
X73166667Y-136335771D02*
X73214286Y-136431009D01*
X73214286Y-136431009D02*
X73214286Y-136954819D01*
X73214286Y-136431009D02*
X73261905Y-136335771D01*
X73261905Y-136335771D02*
X73357143Y-136288152D01*
X73357143Y-136288152D02*
X73500000Y-136288152D01*
X73500000Y-136288152D02*
X73595239Y-136335771D01*
X73595239Y-136335771D02*
X73642858Y-136431009D01*
X73642858Y-136431009D02*
X73642858Y-136954819D01*
X74261905Y-136954819D02*
X74166667Y-136907200D01*
X74166667Y-136907200D02*
X74119048Y-136859580D01*
X74119048Y-136859580D02*
X74071429Y-136764342D01*
X74071429Y-136764342D02*
X74071429Y-136478628D01*
X74071429Y-136478628D02*
X74119048Y-136383390D01*
X74119048Y-136383390D02*
X74166667Y-136335771D01*
X74166667Y-136335771D02*
X74261905Y-136288152D01*
X74261905Y-136288152D02*
X74404762Y-136288152D01*
X74404762Y-136288152D02*
X74500000Y-136335771D01*
X74500000Y-136335771D02*
X74547619Y-136383390D01*
X74547619Y-136383390D02*
X74595238Y-136478628D01*
X74595238Y-136478628D02*
X74595238Y-136764342D01*
X74595238Y-136764342D02*
X74547619Y-136859580D01*
X74547619Y-136859580D02*
X74500000Y-136907200D01*
X74500000Y-136907200D02*
X74404762Y-136954819D01*
X74404762Y-136954819D02*
X74261905Y-136954819D01*
X75452381Y-136954819D02*
X75452381Y-135954819D01*
X75452381Y-136907200D02*
X75357143Y-136954819D01*
X75357143Y-136954819D02*
X75166667Y-136954819D01*
X75166667Y-136954819D02*
X75071429Y-136907200D01*
X75071429Y-136907200D02*
X75023810Y-136859580D01*
X75023810Y-136859580D02*
X74976191Y-136764342D01*
X74976191Y-136764342D02*
X74976191Y-136478628D01*
X74976191Y-136478628D02*
X75023810Y-136383390D01*
X75023810Y-136383390D02*
X75071429Y-136335771D01*
X75071429Y-136335771D02*
X75166667Y-136288152D01*
X75166667Y-136288152D02*
X75357143Y-136288152D01*
X75357143Y-136288152D02*
X75452381Y-136335771D01*
X76357143Y-136288152D02*
X76357143Y-136954819D01*
X75928572Y-136288152D02*
X75928572Y-136811961D01*
X75928572Y-136811961D02*
X75976191Y-136907200D01*
X75976191Y-136907200D02*
X76071429Y-136954819D01*
X76071429Y-136954819D02*
X76214286Y-136954819D01*
X76214286Y-136954819D02*
X76309524Y-136907200D01*
X76309524Y-136907200D02*
X76357143Y-136859580D01*
X76976191Y-136954819D02*
X76880953Y-136907200D01*
X76880953Y-136907200D02*
X76833334Y-136811961D01*
X76833334Y-136811961D02*
X76833334Y-135954819D01*
X77738096Y-136907200D02*
X77642858Y-136954819D01*
X77642858Y-136954819D02*
X77452382Y-136954819D01*
X77452382Y-136954819D02*
X77357144Y-136907200D01*
X77357144Y-136907200D02*
X77309525Y-136811961D01*
X77309525Y-136811961D02*
X77309525Y-136431009D01*
X77309525Y-136431009D02*
X77357144Y-136335771D01*
X77357144Y-136335771D02*
X77452382Y-136288152D01*
X77452382Y-136288152D02*
X77642858Y-136288152D01*
X77642858Y-136288152D02*
X77738096Y-136335771D01*
X77738096Y-136335771D02*
X77785715Y-136431009D01*
X77785715Y-136431009D02*
X77785715Y-136526247D01*
X77785715Y-136526247D02*
X77309525Y-136621485D01*
%TO.C,U1*%
D11*
X79000000Y-69350000D02*
X79000000Y-46650000D01*
X79000000Y-69350000D02*
X61000000Y-69350000D01*
X79000000Y-46650000D02*
X74500000Y-46650000D01*
X74500000Y-45350000D02*
X74500000Y-46650000D01*
X74500000Y-45350000D02*
X65500000Y-45350000D01*
X65500000Y-46650000D02*
X61000000Y-46650000D01*
X65500000Y-45350000D02*
X65500000Y-46650000D01*
X61000000Y-69350000D02*
X61000000Y-46650000D01*
%TO.C,U2*%
D12*
X61000000Y-105000000D02*
X63000000Y-105000000D01*
X61000000Y-126000000D02*
X61000000Y-105000000D01*
X63000000Y-102000000D02*
X77000000Y-102000000D01*
X63000000Y-105000000D02*
X63000000Y-102000000D01*
X77000000Y-102000000D02*
X77000000Y-105000000D01*
X77000000Y-105000000D02*
X79000000Y-105000000D01*
X79000000Y-105000000D02*
X79000000Y-126000000D01*
X79000000Y-126000000D02*
X61000000Y-126000000D01*
%TO.C,U4*%
X59000000Y-76500000D02*
X81000000Y-76500000D01*
X81000000Y-99500000D01*
X59000000Y-99500000D01*
X59000000Y-76500000D01*
%TO.C,U3*%
X59500000Y-137500000D02*
X59500000Y-143500000D01*
X59500000Y-137500000D02*
X80500000Y-137500000D01*
X59500000Y-143500000D02*
X63000000Y-146000000D01*
X63000000Y-146000000D02*
X63000000Y-148500000D01*
X63000000Y-148500000D02*
X77000000Y-148500000D01*
X77000000Y-146000000D02*
X77000000Y-148500000D01*
X80500000Y-137500000D02*
X80500000Y-143500000D01*
X80500000Y-143500000D02*
X77000000Y-146000000D01*
%TD*%
M02*
