%TF.GenerationSoftware,KiCad,Pcbnew,10.0.3*%
%TF.CreationDate,2026-05-22T03:26:27+01:00*%
%TF.ProjectId,ProjectKurinda_PCB,50726f6a-6563-4744-9b75-72696e64615f,rev?*%
%TF.SameCoordinates,Original*%
%TF.FileFunction,Copper,L2,Bot*%
%TF.FilePolarity,Positive*%
%FSLAX46Y46*%
G04 Gerber Fmt 4.6, Leading zero omitted, Abs format (unit mm)*
G04 Created by KiCad (PCBNEW 10.0.3) date 2026-05-22 03:26:27*
%MOMM*%
%LPD*%
G01*
G04 APERTURE LIST*
G04 Aperture macros list*
%AMRoundRect*
0 Rectangle with rounded corners*
0 $1 Rounding radius*
0 $2 $3 $4 $5 $6 $7 $8 $9 X,Y pos of 4 corners*
0 Add a 4 corners polygon primitive as box body*
4,1,4,$2,$3,$4,$5,$6,$7,$8,$9,$2,$3,0*
0 Add four circle primitives for the rounded corners*
1,1,$1+$1,$2,$3*
1,1,$1+$1,$4,$5*
1,1,$1+$1,$6,$7*
1,1,$1+$1,$8,$9*
0 Add four rect primitives between the rounded corners*
20,1,$1+$1,$2,$3,$4,$5,0*
20,1,$1+$1,$4,$5,$6,$7,0*
20,1,$1+$1,$6,$7,$8,$9,0*
20,1,$1+$1,$8,$9,$2,$3,0*%
G04 Aperture macros list end*
%TA.AperFunction,ComponentPad*%
%ADD10C,1.600000*%
%TD*%
%TA.AperFunction,ComponentPad*%
%ADD11C,1.700000*%
%TD*%
%TA.AperFunction,SMDPad,CuDef*%
%ADD12RoundRect,0.250000X0.250000X1.500000X-0.250000X1.500000X-0.250000X-1.500000X0.250000X-1.500000X0*%
%TD*%
%TA.AperFunction,SMDPad,CuDef*%
%ADD13RoundRect,0.250001X0.499999X1.449999X-0.499999X1.449999X-0.499999X-1.449999X0.499999X-1.449999X0*%
%TD*%
%TA.AperFunction,ViaPad*%
%ADD14C,1.000000*%
%TD*%
%TA.AperFunction,Conductor*%
%ADD15C,0.500000*%
%TD*%
%TA.AperFunction,Conductor*%
%ADD16C,1.000000*%
%TD*%
G04 APERTURE END LIST*
D10*
%TO.P,U1,G,GND_G*%
%TO.N,GND*%
X77620000Y-50640000D03*
%TO.P,U1,21,GPIO21_21*%
%TO.N,unconnected-(U1-GPIO21-Pad21)*%
X62380000Y-65880000D03*
%TO.P,U1,20,GPIO20_20*%
%TO.N,unconnected-(U1-GPIO20-Pad20)_1*%
X62380000Y-63340000D03*
%TO.P,U1,10,GPIO10_10*%
%TO.N,/RTC_INT*%
X62380000Y-60800000D03*
%TO.P,U1,9,GPIO9_9*%
%TO.N,/SCL*%
X62380000Y-58260000D03*
%TO.P,U1,8,GPIO8_8*%
%TO.N,/SDA*%
X62380000Y-55720000D03*
%TO.P,U1,7,GPIO7_7*%
%TO.N,/DHT_1W*%
X62380000Y-53180000D03*
%TO.P,U1,6,GPIO6_6*%
%TO.N,unconnected-(U1-GPIO6-Pad6)_1*%
X62380000Y-50640000D03*
%TO.P,U1,5V,5V_5V*%
%TO.N,+5V*%
X77620000Y-48100000D03*
%TO.P,U1,5,GPIO5_5*%
%TO.N,unconnected-(U1-GPIO5-Pad5)_1*%
X62380000Y-48001420D03*
%TO.P,U1,4,GPIO4_4*%
%TO.N,unconnected-(U1-GPIO4-Pad4)*%
X77620000Y-55720000D03*
%TO.P,U1,3.3,3V3_3.3*%
%TO.N,+3V3*%
X77620000Y-53180000D03*
%TO.P,U1,3,GPIO3_3*%
%TO.N,unconnected-(U1-GPIO3-Pad3)_1*%
X77620000Y-58260000D03*
%TO.P,U1,2,GPIO2_2*%
%TO.N,unconnected-(U1-GPIO2-Pad2)_1*%
X77620000Y-60800000D03*
%TO.P,U1,1,GPIO1_1*%
%TO.N,unconnected-(U1-GPIO1-Pad1)_1*%
X77620000Y-63340000D03*
%TO.P,U1,0,GPIO0_0*%
%TO.N,/WS_AOUT*%
X77620000Y-65880000D03*
%TD*%
D11*
%TO.P,U5,1,Vcc_1*%
%TO.N,+3V3*%
X78890000Y-133000000D03*
%TO.P,U5,2,GND_2*%
%TO.N,GND*%
X76350000Y-133000000D03*
%TO.P,U5,3,SCL_3*%
%TO.N,/SCL*%
X73810000Y-133000000D03*
%TO.P,U5,4,SDA_4*%
%TO.N,/SDA*%
X71270000Y-133000000D03*
%TO.P,U5,5,XDA_5*%
%TO.N,unconnected-(U5-XDA-Pad5)*%
X68730000Y-133000000D03*
%TO.P,U5,6,XCL_6*%
%TO.N,unconnected-(U5-XCL-Pad6)*%
X66190000Y-133000000D03*
%TO.P,U5,7,AD0_7*%
%TO.N,unconnected-(U5-AD0-Pad7)*%
X63650000Y-133000000D03*
%TO.P,U5,8,INT_8*%
%TO.N,unconnected-(U5-INT-Pad8)*%
X61110000Y-133000000D03*
%TD*%
%TO.P,U2,1,D_1*%
%TO.N,/DHT_1W*%
X67460000Y-123000000D03*
%TO.P,U2,2,Vcc_2*%
%TO.N,+3V3*%
X70000000Y-123000000D03*
%TO.P,U2,3,GND_3*%
%TO.N,GND*%
X72540000Y-123000000D03*
%TD*%
%TO.P,U4,1,Vcc_1*%
%TO.N,+3V3*%
X77620000Y-78500000D03*
%TO.P,U4,2,GND_2*%
%TO.N,GND*%
X75080000Y-78500000D03*
%TO.P,U4,3,SCL_3*%
%TO.N,/SCL*%
X72540000Y-78500000D03*
%TO.P,U4,4,SDA_4*%
%TO.N,/SDA*%
X70000000Y-78500000D03*
%TO.P,U4,5,INT_5*%
%TO.N,/RTC_INT*%
X67460000Y-78500000D03*
%TO.P,U4,6,NC_6*%
%TO.N,unconnected-(U4-NC-Pad6)*%
X64920000Y-78500000D03*
%TO.P,U4,7,32K_7*%
%TO.N,unconnected-(U4-32K-Pad7)*%
X62380000Y-78500000D03*
%TD*%
%TO.P,U3,1,A_1*%
%TO.N,/WS_AOUT*%
X67460000Y-139500000D03*
%TO.P,U3,2,Vcc_2*%
%TO.N,+3V3*%
X70000000Y-139500000D03*
%TO.P,U3,3,GND_3*%
%TO.N,GND*%
X72540000Y-139500000D03*
%TD*%
D12*
%TO.P,J1,1,Pin_1_1*%
%TO.N,+5V*%
X71000000Y-48100000D03*
%TO.P,J1,2,Pin_2_2*%
%TO.N,GND*%
X69000000Y-48100000D03*
D13*
%TO.P,J1,MP*%
%TO.N,N/C*%
X73350000Y-53850000D03*
X66650000Y-53850000D03*
%TD*%
D14*
%TO.N,GND*%
X70000000Y-145000000D03*
X60000000Y-125000000D03*
X75000000Y-115000000D03*
X75000000Y-95000000D03*
X67000000Y-60000000D03*
%TO.N,*%
X73350000Y-53000000D03*
X66650000Y-54500000D03*
X66650000Y-53000000D03*
X73350000Y-54500000D03*
%TD*%
%TO.N,/SCL*%
D15*
X72540000Y-68420000D02*
X72540000Y-78500000D01*
X62380000Y-58260000D02*
X72540000Y-68420000D01*
X65000000Y-86040000D02*
X72540000Y-78500000D01*
X65000000Y-124190000D02*
X65000000Y-86040000D01*
X73810000Y-133000000D02*
X65000000Y-124190000D01*
%TO.N,/SDA*%
X64000000Y-125730000D02*
X71270000Y-133000000D01*
X64000000Y-84500000D02*
X64000000Y-125730000D01*
X70000000Y-78500000D02*
X64000000Y-84500000D01*
%TO.N,+5V*%
D16*
X71000000Y-48100000D02*
X77620000Y-48100000D01*
%TD*%
%TA.AperFunction,Conductor*%
%TO.N,GND*%
G36*
X81003032Y-45500648D02*
G01*
X81336929Y-45517052D01*
X81349037Y-45518245D01*
X81452146Y-45533539D01*
X81676699Y-45566849D01*
X81688617Y-45569219D01*
X82009951Y-45649709D01*
X82021588Y-45653240D01*
X82092806Y-45678722D01*
X82333467Y-45764832D01*
X82344688Y-45769479D01*
X82644163Y-45911120D01*
X82654871Y-45916844D01*
X82938988Y-46087137D01*
X82949103Y-46093895D01*
X83153953Y-46245822D01*
X83215170Y-46291224D01*
X83224576Y-46298944D01*
X83470013Y-46521395D01*
X83478604Y-46529986D01*
X83665755Y-46736475D01*
X83701055Y-46775423D01*
X83708775Y-46784829D01*
X83906102Y-47050893D01*
X83912862Y-47061011D01*
X84067977Y-47319806D01*
X84083148Y-47345116D01*
X84088883Y-47355844D01*
X84158102Y-47502196D01*
X84230514Y-47655297D01*
X84235170Y-47666540D01*
X84346759Y-47978411D01*
X84350292Y-47990055D01*
X84430777Y-48311369D01*
X84433151Y-48323305D01*
X84481754Y-48650962D01*
X84482947Y-48663071D01*
X84499351Y-48996966D01*
X84499500Y-49003051D01*
X84499500Y-145996948D01*
X84499351Y-146003033D01*
X84482947Y-146336928D01*
X84481754Y-146349037D01*
X84433151Y-146676694D01*
X84430777Y-146688630D01*
X84350292Y-147009944D01*
X84346759Y-147021588D01*
X84235170Y-147333459D01*
X84230514Y-147344702D01*
X84088885Y-147644151D01*
X84083148Y-147654883D01*
X83912862Y-147938988D01*
X83906102Y-147949106D01*
X83708775Y-148215170D01*
X83701055Y-148224576D01*
X83478611Y-148470006D01*
X83470006Y-148478611D01*
X83224576Y-148701055D01*
X83215170Y-148708775D01*
X82949106Y-148906102D01*
X82938988Y-148912862D01*
X82654883Y-149083148D01*
X82644151Y-149088885D01*
X82344702Y-149230514D01*
X82333459Y-149235170D01*
X82021588Y-149346759D01*
X82009944Y-149350292D01*
X81688630Y-149430777D01*
X81676694Y-149433151D01*
X81349037Y-149481754D01*
X81336928Y-149482947D01*
X81021989Y-149498419D01*
X81003031Y-149499351D01*
X80996949Y-149499500D01*
X59003051Y-149499500D01*
X58996968Y-149499351D01*
X58976900Y-149498365D01*
X58663071Y-149482947D01*
X58650962Y-149481754D01*
X58323305Y-149433151D01*
X58311369Y-149430777D01*
X57990055Y-149350292D01*
X57978411Y-149346759D01*
X57666540Y-149235170D01*
X57655301Y-149230515D01*
X57355844Y-149088883D01*
X57345121Y-149083150D01*
X57061011Y-148912862D01*
X57050893Y-148906102D01*
X56784829Y-148708775D01*
X56775423Y-148701055D01*
X56736475Y-148665755D01*
X56529986Y-148478604D01*
X56521395Y-148470013D01*
X56298944Y-148224576D01*
X56291224Y-148215170D01*
X56093897Y-147949106D01*
X56087137Y-147938988D01*
X55916844Y-147654871D01*
X55911120Y-147644163D01*
X55769479Y-147344688D01*
X55764829Y-147333459D01*
X55653240Y-147021588D01*
X55649707Y-147009944D01*
X55569219Y-146688617D01*
X55566848Y-146676695D01*
X55553690Y-146587993D01*
X55521743Y-146372619D01*
X56881466Y-146372619D01*
X56881466Y-146439471D01*
X56881466Y-146627381D01*
X56921320Y-146879008D01*
X57000046Y-147121301D01*
X57115705Y-147348297D01*
X57265451Y-147554404D01*
X57445596Y-147734549D01*
X57651703Y-147884295D01*
X57878699Y-147999954D01*
X58120992Y-148078680D01*
X58372619Y-148118534D01*
X58372620Y-148118534D01*
X58627380Y-148118534D01*
X58627381Y-148118534D01*
X58879008Y-148078680D01*
X59121301Y-147999954D01*
X59348297Y-147884295D01*
X59554404Y-147734549D01*
X59734549Y-147554404D01*
X59884295Y-147348297D01*
X59999954Y-147121301D01*
X60078680Y-146879008D01*
X60118534Y-146627381D01*
X60118534Y-146372619D01*
X79881466Y-146372619D01*
X79881466Y-146439471D01*
X79881466Y-146627381D01*
X79921320Y-146879008D01*
X80000046Y-147121301D01*
X80115705Y-147348297D01*
X80265451Y-147554404D01*
X80445596Y-147734549D01*
X80651703Y-147884295D01*
X80878699Y-147999954D01*
X81120992Y-148078680D01*
X81372619Y-148118534D01*
X81372620Y-148118534D01*
X81627380Y-148118534D01*
X81627381Y-148118534D01*
X81879008Y-148078680D01*
X82121301Y-147999954D01*
X82348297Y-147884295D01*
X82554404Y-147734549D01*
X82734549Y-147554404D01*
X82884295Y-147348297D01*
X82999954Y-147121301D01*
X83078680Y-146879008D01*
X83118534Y-146627381D01*
X83118534Y-146372619D01*
X83078680Y-146120992D01*
X82999954Y-145878699D01*
X82884295Y-145651703D01*
X82734549Y-145445596D01*
X82554404Y-145265451D01*
X82348297Y-145115705D01*
X82121301Y-145000046D01*
X81879008Y-144921320D01*
X81627381Y-144881466D01*
X81372619Y-144881466D01*
X81246805Y-144901393D01*
X81120991Y-144921320D01*
X81008574Y-144957846D01*
X80878699Y-145000046D01*
X80878696Y-145000047D01*
X80878694Y-145000048D01*
X80651701Y-145115706D01*
X80651698Y-145115708D01*
X80541149Y-145196027D01*
X80445596Y-145265451D01*
X80445594Y-145265453D01*
X80445593Y-145265453D01*
X80265453Y-145445593D01*
X80265453Y-145445594D01*
X80265451Y-145445596D01*
X80196027Y-145541149D01*
X80115708Y-145651698D01*
X80115706Y-145651701D01*
X80000048Y-145878694D01*
X80000047Y-145878696D01*
X80000046Y-145878699D01*
X79921320Y-146120992D01*
X79881466Y-146372619D01*
X60118534Y-146372619D01*
X60078680Y-146120992D01*
X59999954Y-145878699D01*
X59884295Y-145651703D01*
X59734549Y-145445596D01*
X59554404Y-145265451D01*
X59348297Y-145115705D01*
X59121301Y-145000046D01*
X58879008Y-144921320D01*
X58627381Y-144881466D01*
X58372619Y-144881466D01*
X58246805Y-144901393D01*
X58120991Y-144921320D01*
X58008574Y-144957846D01*
X57878699Y-145000046D01*
X57878696Y-145000047D01*
X57878694Y-145000048D01*
X57651701Y-145115706D01*
X57651698Y-145115708D01*
X57541149Y-145196027D01*
X57445596Y-145265451D01*
X57445594Y-145265453D01*
X57445593Y-145265453D01*
X57265453Y-145445593D01*
X57265453Y-145445594D01*
X57265451Y-145445596D01*
X57196027Y-145541149D01*
X57115708Y-145651698D01*
X57115706Y-145651701D01*
X57000048Y-145878694D01*
X57000047Y-145878696D01*
X57000046Y-145878699D01*
X56921320Y-146120992D01*
X56881466Y-146372619D01*
X55521743Y-146372619D01*
X55518245Y-146349037D01*
X55517052Y-146336927D01*
X55500649Y-146003032D01*
X55500500Y-145996948D01*
X55500500Y-139393713D01*
X66109500Y-139393713D01*
X66109500Y-139606286D01*
X66142753Y-139816239D01*
X66208444Y-140018414D01*
X66304951Y-140207820D01*
X66429890Y-140379786D01*
X66580213Y-140530109D01*
X66752179Y-140655048D01*
X66752181Y-140655049D01*
X66752184Y-140655051D01*
X66941588Y-140751557D01*
X67143757Y-140817246D01*
X67353713Y-140850500D01*
X67353714Y-140850500D01*
X67566286Y-140850500D01*
X67566287Y-140850500D01*
X67776243Y-140817246D01*
X67978412Y-140751557D01*
X68167816Y-140655051D01*
X68189789Y-140639086D01*
X68339786Y-140530109D01*
X68339788Y-140530106D01*
X68339792Y-140530104D01*
X68490104Y-140379792D01*
X68490106Y-140379788D01*
X68490109Y-140379786D01*
X68615048Y-140207820D01*
X68615047Y-140207820D01*
X68615051Y-140207816D01*
X68619514Y-140199054D01*
X68667488Y-140148259D01*
X68735308Y-140131463D01*
X68801444Y-140153999D01*
X68840486Y-140199056D01*
X68844951Y-140207820D01*
X68969890Y-140379786D01*
X69120213Y-140530109D01*
X69292179Y-140655048D01*
X69292181Y-140655049D01*
X69292184Y-140655051D01*
X69481588Y-140751557D01*
X69683757Y-140817246D01*
X69893713Y-140850500D01*
X69893714Y-140850500D01*
X70106286Y-140850500D01*
X70106287Y-140850500D01*
X70316243Y-140817246D01*
X70518412Y-140751557D01*
X70707816Y-140655051D01*
X70729789Y-140639086D01*
X70879786Y-140530109D01*
X70879788Y-140530106D01*
X70879792Y-140530104D01*
X71030104Y-140379792D01*
X71030106Y-140379788D01*
X71030109Y-140379786D01*
X71155048Y-140207820D01*
X71155051Y-140207816D01*
X71159793Y-140198508D01*
X71207763Y-140147711D01*
X71275583Y-140130911D01*
X71341719Y-140153445D01*
X71380763Y-140198500D01*
X71385377Y-140207555D01*
X71510272Y-140379459D01*
X71510276Y-140379464D01*
X71660535Y-140529723D01*
X71660540Y-140529727D01*
X71832442Y-140654620D01*
X72021782Y-140751095D01*
X72223871Y-140816757D01*
X72290000Y-140827231D01*
X72290000Y-139933012D01*
X72347007Y-139965925D01*
X72474174Y-140000000D01*
X72605826Y-140000000D01*
X72732993Y-139965925D01*
X72790000Y-139933012D01*
X72790000Y-140827230D01*
X72856126Y-140816757D01*
X72856129Y-140816757D01*
X73058217Y-140751095D01*
X73247557Y-140654620D01*
X73419459Y-140529727D01*
X73419464Y-140529723D01*
X73569723Y-140379464D01*
X73569727Y-140379459D01*
X73694620Y-140207557D01*
X73791095Y-140018217D01*
X73856757Y-139816129D01*
X73856757Y-139816126D01*
X73867231Y-139750000D01*
X72973012Y-139750000D01*
X73005925Y-139692993D01*
X73040000Y-139565826D01*
X73040000Y-139434174D01*
X73005925Y-139307007D01*
X72973012Y-139250000D01*
X73867231Y-139250000D01*
X73856757Y-139183873D01*
X73856757Y-139183870D01*
X73791095Y-138981782D01*
X73694620Y-138792442D01*
X73569727Y-138620540D01*
X73569723Y-138620535D01*
X73419464Y-138470276D01*
X73419459Y-138470272D01*
X73247557Y-138345379D01*
X73058215Y-138248903D01*
X72856124Y-138183241D01*
X72790000Y-138172768D01*
X72790000Y-139066988D01*
X72732993Y-139034075D01*
X72605826Y-139000000D01*
X72474174Y-139000000D01*
X72347007Y-139034075D01*
X72290000Y-139066988D01*
X72290000Y-138172768D01*
X72289999Y-138172768D01*
X72223875Y-138183241D01*
X72021784Y-138248903D01*
X71832442Y-138345379D01*
X71660540Y-138470272D01*
X71660535Y-138470276D01*
X71510276Y-138620535D01*
X71510272Y-138620540D01*
X71385378Y-138792443D01*
X71380762Y-138801502D01*
X71332784Y-138852295D01*
X71264963Y-138869087D01*
X71198829Y-138846546D01*
X71159794Y-138801493D01*
X71155051Y-138792184D01*
X71155049Y-138792181D01*
X71155048Y-138792179D01*
X71030109Y-138620213D01*
X70879786Y-138469890D01*
X70707820Y-138344951D01*
X70518414Y-138248444D01*
X70518413Y-138248443D01*
X70518412Y-138248443D01*
X70316243Y-138182754D01*
X70316241Y-138182753D01*
X70316240Y-138182753D01*
X70154957Y-138157208D01*
X70106287Y-138149500D01*
X69893713Y-138149500D01*
X69845042Y-138157208D01*
X69683760Y-138182753D01*
X69481585Y-138248444D01*
X69292179Y-138344951D01*
X69120213Y-138469890D01*
X68969890Y-138620213D01*
X68844949Y-138792182D01*
X68840484Y-138800946D01*
X68792509Y-138851742D01*
X68724688Y-138868536D01*
X68658553Y-138845998D01*
X68619516Y-138800946D01*
X68615050Y-138792182D01*
X68490109Y-138620213D01*
X68339786Y-138469890D01*
X68167820Y-138344951D01*
X67978414Y-138248444D01*
X67978413Y-138248443D01*
X67978412Y-138248443D01*
X67776243Y-138182754D01*
X67776241Y-138182753D01*
X67776240Y-138182753D01*
X67614957Y-138157208D01*
X67566287Y-138149500D01*
X67353713Y-138149500D01*
X67305042Y-138157208D01*
X67143760Y-138182753D01*
X66941585Y-138248444D01*
X66752179Y-138344951D01*
X66580213Y-138469890D01*
X66429890Y-138620213D01*
X66304951Y-138792179D01*
X66208444Y-138981585D01*
X66142753Y-139183760D01*
X66109500Y-139393713D01*
X55500500Y-139393713D01*
X55500500Y-132893713D01*
X59759500Y-132893713D01*
X59759500Y-133106286D01*
X59792753Y-133316239D01*
X59858444Y-133518414D01*
X59954951Y-133707820D01*
X60079890Y-133879786D01*
X60230213Y-134030109D01*
X60402179Y-134155048D01*
X60402181Y-134155049D01*
X60402184Y-134155051D01*
X60591588Y-134251557D01*
X60793757Y-134317246D01*
X61003713Y-134350500D01*
X61003714Y-134350500D01*
X61216286Y-134350500D01*
X61216287Y-134350500D01*
X61426243Y-134317246D01*
X61628412Y-134251557D01*
X61817816Y-134155051D01*
X61839789Y-134139086D01*
X61989786Y-134030109D01*
X61989788Y-134030106D01*
X61989792Y-134030104D01*
X62140104Y-133879792D01*
X62140106Y-133879788D01*
X62140109Y-133879786D01*
X62265048Y-133707820D01*
X62265047Y-133707820D01*
X62265051Y-133707816D01*
X62269514Y-133699054D01*
X62317488Y-133648259D01*
X62385308Y-133631463D01*
X62451444Y-133653999D01*
X62490486Y-133699056D01*
X62494951Y-133707820D01*
X62619890Y-133879786D01*
X62770213Y-134030109D01*
X62942179Y-134155048D01*
X62942181Y-134155049D01*
X62942184Y-134155051D01*
X63131588Y-134251557D01*
X63333757Y-134317246D01*
X63543713Y-134350500D01*
X63543714Y-134350500D01*
X63756286Y-134350500D01*
X63756287Y-134350500D01*
X63966243Y-134317246D01*
X64168412Y-134251557D01*
X64357816Y-134155051D01*
X64379789Y-134139086D01*
X64529786Y-134030109D01*
X64529788Y-134030106D01*
X64529792Y-134030104D01*
X64680104Y-133879792D01*
X64680106Y-133879788D01*
X64680109Y-133879786D01*
X64805048Y-133707820D01*
X64805047Y-133707820D01*
X64805051Y-133707816D01*
X64809514Y-133699054D01*
X64857488Y-133648259D01*
X64925308Y-133631463D01*
X64991444Y-133653999D01*
X65030486Y-133699056D01*
X65034951Y-133707820D01*
X65159890Y-133879786D01*
X65310213Y-134030109D01*
X65482179Y-134155048D01*
X65482181Y-134155049D01*
X65482184Y-134155051D01*
X65671588Y-134251557D01*
X65873757Y-134317246D01*
X66083713Y-134350500D01*
X66083714Y-134350500D01*
X66296286Y-134350500D01*
X66296287Y-134350500D01*
X66506243Y-134317246D01*
X66708412Y-134251557D01*
X66897816Y-134155051D01*
X66919789Y-134139086D01*
X67069786Y-134030109D01*
X67069788Y-134030106D01*
X67069792Y-134030104D01*
X67220104Y-133879792D01*
X67220106Y-133879788D01*
X67220109Y-133879786D01*
X67345048Y-133707820D01*
X67345047Y-133707820D01*
X67345051Y-133707816D01*
X67349514Y-133699054D01*
X67397488Y-133648259D01*
X67465308Y-133631463D01*
X67531444Y-133653999D01*
X67570486Y-133699056D01*
X67574951Y-133707820D01*
X67699890Y-133879786D01*
X67850213Y-134030109D01*
X68022179Y-134155048D01*
X68022181Y-134155049D01*
X68022184Y-134155051D01*
X68211588Y-134251557D01*
X68413757Y-134317246D01*
X68623713Y-134350500D01*
X68623714Y-134350500D01*
X68836286Y-134350500D01*
X68836287Y-134350500D01*
X69046243Y-134317246D01*
X69248412Y-134251557D01*
X69437816Y-134155051D01*
X69459789Y-134139086D01*
X69609786Y-134030109D01*
X69609788Y-134030106D01*
X69609792Y-134030104D01*
X69760104Y-133879792D01*
X69760106Y-133879788D01*
X69760109Y-133879786D01*
X69885048Y-133707820D01*
X69885047Y-133707820D01*
X69885051Y-133707816D01*
X69889514Y-133699054D01*
X69937488Y-133648259D01*
X70005308Y-133631463D01*
X70071444Y-133653999D01*
X70110486Y-133699056D01*
X70114951Y-133707820D01*
X70239890Y-133879786D01*
X70390213Y-134030109D01*
X70562179Y-134155048D01*
X70562181Y-134155049D01*
X70562184Y-134155051D01*
X70751588Y-134251557D01*
X70953757Y-134317246D01*
X71163713Y-134350500D01*
X71163714Y-134350500D01*
X71376286Y-134350500D01*
X71376287Y-134350500D01*
X71586243Y-134317246D01*
X71788412Y-134251557D01*
X71977816Y-134155051D01*
X71999789Y-134139086D01*
X72149786Y-134030109D01*
X72149788Y-134030106D01*
X72149792Y-134030104D01*
X72300104Y-133879792D01*
X72300106Y-133879788D01*
X72300109Y-133879786D01*
X72425048Y-133707820D01*
X72425047Y-133707820D01*
X72425051Y-133707816D01*
X72429514Y-133699054D01*
X72477488Y-133648259D01*
X72545308Y-133631463D01*
X72611444Y-133653999D01*
X72650486Y-133699056D01*
X72654951Y-133707820D01*
X72779890Y-133879786D01*
X72930213Y-134030109D01*
X73102179Y-134155048D01*
X73102181Y-134155049D01*
X73102184Y-134155051D01*
X73291588Y-134251557D01*
X73493757Y-134317246D01*
X73703713Y-134350500D01*
X73703714Y-134350500D01*
X73916286Y-134350500D01*
X73916287Y-134350500D01*
X74126243Y-134317246D01*
X74328412Y-134251557D01*
X74517816Y-134155051D01*
X74539789Y-134139086D01*
X74689786Y-134030109D01*
X74689788Y-134030106D01*
X74689792Y-134030104D01*
X74840104Y-133879792D01*
X74840106Y-133879788D01*
X74840109Y-133879786D01*
X74965048Y-133707820D01*
X74965051Y-133707816D01*
X74969793Y-133698508D01*
X75017763Y-133647711D01*
X75085583Y-133630911D01*
X75151719Y-133653445D01*
X75190763Y-133698500D01*
X75195377Y-133707555D01*
X75320272Y-133879459D01*
X75320276Y-133879464D01*
X75470535Y-134029723D01*
X75470540Y-134029727D01*
X75642442Y-134154620D01*
X75831782Y-134251095D01*
X76033871Y-134316757D01*
X76100000Y-134327231D01*
X76100000Y-133433012D01*
X76157007Y-133465925D01*
X76284174Y-133500000D01*
X76415826Y-133500000D01*
X76542993Y-133465925D01*
X76600000Y-133433012D01*
X76600000Y-134327230D01*
X76666126Y-134316757D01*
X76666129Y-134316757D01*
X76868217Y-134251095D01*
X77057557Y-134154620D01*
X77229459Y-134029727D01*
X77229464Y-134029723D01*
X77379723Y-133879464D01*
X77379727Y-133879459D01*
X77504620Y-133707558D01*
X77509232Y-133698507D01*
X77557205Y-133647709D01*
X77625025Y-133630912D01*
X77691161Y-133653447D01*
X77730204Y-133698504D01*
X77734949Y-133707817D01*
X77859890Y-133879786D01*
X78010213Y-134030109D01*
X78182179Y-134155048D01*
X78182181Y-134155049D01*
X78182184Y-134155051D01*
X78371588Y-134251557D01*
X78573757Y-134317246D01*
X78783713Y-134350500D01*
X78783714Y-134350500D01*
X78996286Y-134350500D01*
X78996287Y-134350500D01*
X79206243Y-134317246D01*
X79408412Y-134251557D01*
X79597816Y-134155051D01*
X79619789Y-134139086D01*
X79769786Y-134030109D01*
X79769788Y-134030106D01*
X79769792Y-134030104D01*
X79920104Y-133879792D01*
X79920106Y-133879788D01*
X79920109Y-133879786D01*
X80045048Y-133707820D01*
X80045047Y-133707820D01*
X80045051Y-133707816D01*
X80141557Y-133518412D01*
X80207246Y-133316243D01*
X80240500Y-133106287D01*
X80240500Y-132893713D01*
X80207246Y-132683757D01*
X80141557Y-132481588D01*
X80045051Y-132292184D01*
X80045049Y-132292181D01*
X80045048Y-132292179D01*
X79920109Y-132120213D01*
X79769786Y-131969890D01*
X79597820Y-131844951D01*
X79408414Y-131748444D01*
X79408413Y-131748443D01*
X79408412Y-131748443D01*
X79206243Y-131682754D01*
X79206241Y-131682753D01*
X79206240Y-131682753D01*
X79034283Y-131655518D01*
X78996287Y-131649500D01*
X78783713Y-131649500D01*
X78745717Y-131655518D01*
X78573760Y-131682753D01*
X78371585Y-131748444D01*
X78182179Y-131844951D01*
X78010213Y-131969890D01*
X77859890Y-132120213D01*
X77734949Y-132292182D01*
X77730202Y-132301499D01*
X77682227Y-132352293D01*
X77614405Y-132369087D01*
X77548271Y-132346548D01*
X77509234Y-132301495D01*
X77504622Y-132292444D01*
X77379727Y-132120540D01*
X77379723Y-132120535D01*
X77229464Y-131970276D01*
X77229459Y-131970272D01*
X77057557Y-131845379D01*
X76868215Y-131748903D01*
X76666124Y-131683241D01*
X76600000Y-131672768D01*
X76600000Y-132566988D01*
X76542993Y-132534075D01*
X76415826Y-132500000D01*
X76284174Y-132500000D01*
X76157007Y-132534075D01*
X76100000Y-132566988D01*
X76100000Y-131672768D01*
X76099999Y-131672768D01*
X76033875Y-131683241D01*
X75831784Y-131748903D01*
X75642442Y-131845379D01*
X75470540Y-131970272D01*
X75470535Y-131970276D01*
X75320276Y-132120535D01*
X75320272Y-132120540D01*
X75195378Y-132292443D01*
X75190762Y-132301502D01*
X75142784Y-132352295D01*
X75074963Y-132369087D01*
X75008829Y-132346546D01*
X74969794Y-132301493D01*
X74965051Y-132292184D01*
X74965049Y-132292181D01*
X74965048Y-132292179D01*
X74840109Y-132120213D01*
X74689786Y-131969890D01*
X74517820Y-131844951D01*
X74328414Y-131748444D01*
X74328413Y-131748443D01*
X74328412Y-131748443D01*
X74126243Y-131682754D01*
X74126241Y-131682753D01*
X74126240Y-131682753D01*
X73954283Y-131655518D01*
X73916287Y-131649500D01*
X73703713Y-131649500D01*
X73703708Y-131649500D01*
X73608270Y-131664616D01*
X73538977Y-131655662D01*
X73501191Y-131629824D01*
X65786819Y-123915451D01*
X65753334Y-123854128D01*
X65750500Y-123827770D01*
X65750500Y-122893713D01*
X66109500Y-122893713D01*
X66109500Y-123106286D01*
X66142753Y-123316239D01*
X66208444Y-123518414D01*
X66304951Y-123707820D01*
X66429890Y-123879786D01*
X66580213Y-124030109D01*
X66752179Y-124155048D01*
X66752181Y-124155049D01*
X66752184Y-124155051D01*
X66941588Y-124251557D01*
X67143757Y-124317246D01*
X67353713Y-124350500D01*
X67353714Y-124350500D01*
X67566286Y-124350500D01*
X67566287Y-124350500D01*
X67776243Y-124317246D01*
X67978412Y-124251557D01*
X68167816Y-124155051D01*
X68189789Y-124139086D01*
X68339786Y-124030109D01*
X68339788Y-124030106D01*
X68339792Y-124030104D01*
X68490104Y-123879792D01*
X68490106Y-123879788D01*
X68490109Y-123879786D01*
X68615048Y-123707820D01*
X68615047Y-123707820D01*
X68615051Y-123707816D01*
X68619514Y-123699054D01*
X68667488Y-123648259D01*
X68735308Y-123631463D01*
X68801444Y-123653999D01*
X68840486Y-123699056D01*
X68844951Y-123707820D01*
X68969890Y-123879786D01*
X69120213Y-124030109D01*
X69292179Y-124155048D01*
X69292181Y-124155049D01*
X69292184Y-124155051D01*
X69481588Y-124251557D01*
X69683757Y-124317246D01*
X69893713Y-124350500D01*
X69893714Y-124350500D01*
X70106286Y-124350500D01*
X70106287Y-124350500D01*
X70316243Y-124317246D01*
X70518412Y-124251557D01*
X70707816Y-124155051D01*
X70729789Y-124139086D01*
X70879786Y-124030109D01*
X70879788Y-124030106D01*
X70879792Y-124030104D01*
X71030104Y-123879792D01*
X71030106Y-123879788D01*
X71030109Y-123879786D01*
X71155048Y-123707820D01*
X71155051Y-123707816D01*
X71159793Y-123698508D01*
X71207763Y-123647711D01*
X71275583Y-123630911D01*
X71341719Y-123653445D01*
X71380763Y-123698500D01*
X71385377Y-123707555D01*
X71510272Y-123879459D01*
X71510276Y-123879464D01*
X71660535Y-124029723D01*
X71660540Y-124029727D01*
X71832442Y-124154620D01*
X72021782Y-124251095D01*
X72223871Y-124316757D01*
X72290000Y-124327231D01*
X72290000Y-123433012D01*
X72347007Y-123465925D01*
X72474174Y-123500000D01*
X72605826Y-123500000D01*
X72732993Y-123465925D01*
X72790000Y-123433012D01*
X72790000Y-124327230D01*
X72856126Y-124316757D01*
X72856129Y-124316757D01*
X73058217Y-124251095D01*
X73247557Y-124154620D01*
X73419459Y-124029727D01*
X73419464Y-124029723D01*
X73569723Y-123879464D01*
X73569727Y-123879459D01*
X73694620Y-123707557D01*
X73791095Y-123518217D01*
X73856757Y-123316129D01*
X73856757Y-123316126D01*
X73867231Y-123250000D01*
X72973012Y-123250000D01*
X73005925Y-123192993D01*
X73040000Y-123065826D01*
X73040000Y-122934174D01*
X73005925Y-122807007D01*
X72973012Y-122750000D01*
X73867231Y-122750000D01*
X73856757Y-122683873D01*
X73856757Y-122683870D01*
X73791095Y-122481782D01*
X73694620Y-122292442D01*
X73569727Y-122120540D01*
X73569723Y-122120535D01*
X73419464Y-121970276D01*
X73419459Y-121970272D01*
X73247557Y-121845379D01*
X73058215Y-121748903D01*
X72856124Y-121683241D01*
X72790000Y-121672768D01*
X72790000Y-122566988D01*
X72732993Y-122534075D01*
X72605826Y-122500000D01*
X72474174Y-122500000D01*
X72347007Y-122534075D01*
X72290000Y-122566988D01*
X72290000Y-121672768D01*
X72289999Y-121672768D01*
X72223875Y-121683241D01*
X72021784Y-121748903D01*
X71832442Y-121845379D01*
X71660540Y-121970272D01*
X71660535Y-121970276D01*
X71510276Y-122120535D01*
X71510272Y-122120540D01*
X71385378Y-122292443D01*
X71380762Y-122301502D01*
X71332784Y-122352295D01*
X71264963Y-122369087D01*
X71198829Y-122346546D01*
X71159794Y-122301493D01*
X71155051Y-122292184D01*
X71155049Y-122292181D01*
X71155048Y-122292179D01*
X71030109Y-122120213D01*
X70879786Y-121969890D01*
X70707820Y-121844951D01*
X70518414Y-121748444D01*
X70518413Y-121748443D01*
X70518412Y-121748443D01*
X70316243Y-121682754D01*
X70316241Y-121682753D01*
X70316240Y-121682753D01*
X70154957Y-121657208D01*
X70106287Y-121649500D01*
X69893713Y-121649500D01*
X69845042Y-121657208D01*
X69683760Y-121682753D01*
X69481585Y-121748444D01*
X69292179Y-121844951D01*
X69120213Y-121969890D01*
X68969890Y-122120213D01*
X68844949Y-122292182D01*
X68840484Y-122300946D01*
X68792509Y-122351742D01*
X68724688Y-122368536D01*
X68658553Y-122345998D01*
X68619516Y-122300946D01*
X68615050Y-122292182D01*
X68490109Y-122120213D01*
X68339786Y-121969890D01*
X68167820Y-121844951D01*
X67978414Y-121748444D01*
X67978413Y-121748443D01*
X67978412Y-121748443D01*
X67776243Y-121682754D01*
X67776241Y-121682753D01*
X67776240Y-121682753D01*
X67614957Y-121657208D01*
X67566287Y-121649500D01*
X67353713Y-121649500D01*
X67305042Y-121657208D01*
X67143760Y-121682753D01*
X66941585Y-121748444D01*
X66752179Y-121844951D01*
X66580213Y-121969890D01*
X66429890Y-122120213D01*
X66304951Y-122292179D01*
X66208444Y-122481585D01*
X66142753Y-122683760D01*
X66109500Y-122893713D01*
X65750500Y-122893713D01*
X65750500Y-86402228D01*
X65770185Y-86335189D01*
X65786814Y-86314552D01*
X72231193Y-79870172D01*
X72292514Y-79836689D01*
X72338265Y-79835382D01*
X72433713Y-79850500D01*
X72433715Y-79850500D01*
X72646286Y-79850500D01*
X72646287Y-79850500D01*
X72856243Y-79817246D01*
X73058412Y-79751557D01*
X73247816Y-79655051D01*
X73269789Y-79639086D01*
X73419786Y-79530109D01*
X73419788Y-79530106D01*
X73419792Y-79530104D01*
X73570104Y-79379792D01*
X73570106Y-79379788D01*
X73570109Y-79379786D01*
X73695048Y-79207820D01*
X73695051Y-79207816D01*
X73699793Y-79198508D01*
X73747763Y-79147711D01*
X73815583Y-79130911D01*
X73881719Y-79153445D01*
X73920763Y-79198500D01*
X73925377Y-79207555D01*
X74050272Y-79379459D01*
X74050276Y-79379464D01*
X74200535Y-79529723D01*
X74200540Y-79529727D01*
X74372442Y-79654620D01*
X74561782Y-79751095D01*
X74763871Y-79816757D01*
X74830000Y-79827231D01*
X74830000Y-78933012D01*
X74887007Y-78965925D01*
X75014174Y-79000000D01*
X75145826Y-79000000D01*
X75272993Y-78965925D01*
X75330000Y-78933012D01*
X75330000Y-79827230D01*
X75396126Y-79816757D01*
X75396129Y-79816757D01*
X75598217Y-79751095D01*
X75787557Y-79654620D01*
X75959459Y-79529727D01*
X75959464Y-79529723D01*
X76109723Y-79379464D01*
X76109727Y-79379459D01*
X76234620Y-79207558D01*
X76239232Y-79198507D01*
X76287205Y-79147709D01*
X76355025Y-79130912D01*
X76421161Y-79153447D01*
X76460204Y-79198504D01*
X76464949Y-79207817D01*
X76589890Y-79379786D01*
X76740213Y-79530109D01*
X76912179Y-79655048D01*
X76912181Y-79655049D01*
X76912184Y-79655051D01*
X77101588Y-79751557D01*
X77303757Y-79817246D01*
X77513713Y-79850500D01*
X77513714Y-79850500D01*
X77726286Y-79850500D01*
X77726287Y-79850500D01*
X77936243Y-79817246D01*
X78138412Y-79751557D01*
X78327816Y-79655051D01*
X78349789Y-79639086D01*
X78499786Y-79530109D01*
X78499788Y-79530106D01*
X78499792Y-79530104D01*
X78650104Y-79379792D01*
X78650106Y-79379788D01*
X78650109Y-79379786D01*
X78775048Y-79207820D01*
X78775047Y-79207820D01*
X78775051Y-79207816D01*
X78871557Y-79018412D01*
X78937246Y-78816243D01*
X78970500Y-78606287D01*
X78970500Y-78393713D01*
X78937246Y-78183757D01*
X78871557Y-77981588D01*
X78775051Y-77792184D01*
X78775049Y-77792181D01*
X78775048Y-77792179D01*
X78650109Y-77620213D01*
X78499786Y-77469890D01*
X78327820Y-77344951D01*
X78138414Y-77248444D01*
X78138413Y-77248443D01*
X78138412Y-77248443D01*
X77936243Y-77182754D01*
X77936241Y-77182753D01*
X77936240Y-77182753D01*
X77774957Y-77157208D01*
X77726287Y-77149500D01*
X77513713Y-77149500D01*
X77465042Y-77157208D01*
X77303760Y-77182753D01*
X77101585Y-77248444D01*
X76912179Y-77344951D01*
X76740213Y-77469890D01*
X76589890Y-77620213D01*
X76464949Y-77792182D01*
X76460202Y-77801499D01*
X76412227Y-77852293D01*
X76344405Y-77869087D01*
X76278271Y-77846548D01*
X76239234Y-77801495D01*
X76234622Y-77792444D01*
X76109727Y-77620540D01*
X76109723Y-77620535D01*
X75959464Y-77470276D01*
X75959459Y-77470272D01*
X75787557Y-77345379D01*
X75598215Y-77248903D01*
X75396124Y-77183241D01*
X75330000Y-77172768D01*
X75330000Y-78066988D01*
X75272993Y-78034075D01*
X75145826Y-78000000D01*
X75014174Y-78000000D01*
X74887007Y-78034075D01*
X74830000Y-78066988D01*
X74830000Y-77172768D01*
X74829999Y-77172768D01*
X74763875Y-77183241D01*
X74561784Y-77248903D01*
X74372442Y-77345379D01*
X74200540Y-77470272D01*
X74200535Y-77470276D01*
X74050276Y-77620535D01*
X74050272Y-77620540D01*
X73925378Y-77792443D01*
X73920762Y-77801502D01*
X73872784Y-77852295D01*
X73804963Y-77869087D01*
X73738829Y-77846546D01*
X73699794Y-77801493D01*
X73695051Y-77792184D01*
X73695049Y-77792181D01*
X73695048Y-77792179D01*
X73570109Y-77620213D01*
X73419794Y-77469898D01*
X73419788Y-77469893D01*
X73341615Y-77413097D01*
X73298949Y-77357767D01*
X73290500Y-77312779D01*
X73290500Y-72372619D01*
X79881466Y-72372619D01*
X79881466Y-72439471D01*
X79881466Y-72627381D01*
X79921320Y-72879008D01*
X80000046Y-73121301D01*
X80115705Y-73348297D01*
X80265451Y-73554404D01*
X80445596Y-73734549D01*
X80651703Y-73884295D01*
X80878699Y-73999954D01*
X81120992Y-74078680D01*
X81372619Y-74118534D01*
X81372620Y-74118534D01*
X81627380Y-74118534D01*
X81627381Y-74118534D01*
X81879008Y-74078680D01*
X82121301Y-73999954D01*
X82348297Y-73884295D01*
X82554404Y-73734549D01*
X82734549Y-73554404D01*
X82884295Y-73348297D01*
X82999954Y-73121301D01*
X83078680Y-72879008D01*
X83118534Y-72627381D01*
X83118534Y-72372619D01*
X83078680Y-72120992D01*
X82999954Y-71878699D01*
X82884295Y-71651703D01*
X82734549Y-71445596D01*
X82554404Y-71265451D01*
X82348297Y-71115705D01*
X82121301Y-71000046D01*
X81879008Y-70921320D01*
X81627381Y-70881466D01*
X81372619Y-70881466D01*
X81246805Y-70901393D01*
X81120991Y-70921320D01*
X81008574Y-70957846D01*
X80878699Y-71000046D01*
X80878696Y-71000047D01*
X80878694Y-71000048D01*
X80651701Y-71115706D01*
X80651698Y-71115708D01*
X80541149Y-71196027D01*
X80445596Y-71265451D01*
X80445594Y-71265453D01*
X80445593Y-71265453D01*
X80265453Y-71445593D01*
X80265453Y-71445594D01*
X80265451Y-71445596D01*
X80196027Y-71541149D01*
X80115708Y-71651698D01*
X80115706Y-71651701D01*
X80000048Y-71878694D01*
X80000047Y-71878696D01*
X80000046Y-71878699D01*
X79921320Y-72120992D01*
X79881466Y-72372619D01*
X73290500Y-72372619D01*
X73290500Y-68346079D01*
X73261659Y-68201092D01*
X73261658Y-68201091D01*
X73261658Y-68201087D01*
X73205084Y-68064505D01*
X73172186Y-68015270D01*
X73172185Y-68015268D01*
X73122956Y-67941589D01*
X73122952Y-67941584D01*
X63706473Y-58525105D01*
X63672988Y-58463782D01*
X63671681Y-58418027D01*
X63680500Y-58362352D01*
X63680500Y-58157648D01*
X63648477Y-57955466D01*
X63585220Y-57760781D01*
X63585218Y-57760778D01*
X63585218Y-57760776D01*
X63551503Y-57694607D01*
X63492287Y-57578390D01*
X63484556Y-57567749D01*
X63371971Y-57412786D01*
X63227213Y-57268028D01*
X63061614Y-57147715D01*
X63055006Y-57144348D01*
X62968917Y-57100483D01*
X62918123Y-57052511D01*
X62901328Y-56984690D01*
X62923865Y-56918555D01*
X62968917Y-56879516D01*
X63061610Y-56832287D01*
X63082770Y-56816913D01*
X63227213Y-56711971D01*
X63227215Y-56711968D01*
X63227219Y-56711966D01*
X63371966Y-56567219D01*
X63371968Y-56567215D01*
X63371971Y-56567213D01*
X63424732Y-56494590D01*
X63492287Y-56401610D01*
X63585220Y-56219219D01*
X63648477Y-56024534D01*
X63680500Y-55822352D01*
X63680500Y-55617648D01*
X63654390Y-55452796D01*
X63648477Y-55415465D01*
X63585218Y-55220776D01*
X63551503Y-55154607D01*
X63492287Y-55038390D01*
X63484556Y-55027749D01*
X63371971Y-54872786D01*
X63227213Y-54728028D01*
X63061614Y-54607715D01*
X63055006Y-54604348D01*
X62968917Y-54560483D01*
X62918123Y-54512511D01*
X62901328Y-54444690D01*
X62923865Y-54378555D01*
X62968917Y-54339516D01*
X63061610Y-54292287D01*
X63082770Y-54276913D01*
X63227213Y-54171971D01*
X63227215Y-54171968D01*
X63227219Y-54171966D01*
X63371966Y-54027219D01*
X63371968Y-54027215D01*
X63371971Y-54027213D01*
X63424732Y-53954590D01*
X63492287Y-53861610D01*
X63585220Y-53679219D01*
X63648477Y-53484534D01*
X63680500Y-53282352D01*
X63680500Y-53077648D01*
X63648477Y-52875466D01*
X63585220Y-52680781D01*
X63585218Y-52680778D01*
X63585218Y-52680776D01*
X63551503Y-52614607D01*
X63492287Y-52498390D01*
X63384465Y-52349984D01*
X65399500Y-52349984D01*
X65399500Y-55350015D01*
X65410000Y-55452795D01*
X65410001Y-55452796D01*
X65465186Y-55619335D01*
X65465187Y-55619337D01*
X65557286Y-55768651D01*
X65557289Y-55768655D01*
X65681344Y-55892710D01*
X65681348Y-55892713D01*
X65830662Y-55984812D01*
X65830664Y-55984813D01*
X65830666Y-55984814D01*
X65997203Y-56039999D01*
X66099992Y-56050500D01*
X66099997Y-56050500D01*
X67200003Y-56050500D01*
X67200008Y-56050500D01*
X67302797Y-56039999D01*
X67469334Y-55984814D01*
X67618655Y-55892711D01*
X67742711Y-55768655D01*
X67834814Y-55619334D01*
X67889999Y-55452797D01*
X67900500Y-55350008D01*
X67900500Y-52349992D01*
X67900499Y-52349984D01*
X72099500Y-52349984D01*
X72099500Y-55350015D01*
X72110000Y-55452795D01*
X72110001Y-55452796D01*
X72165186Y-55619335D01*
X72165187Y-55619337D01*
X72257286Y-55768651D01*
X72257289Y-55768655D01*
X72381344Y-55892710D01*
X72381348Y-55892713D01*
X72530662Y-55984812D01*
X72530664Y-55984813D01*
X72530666Y-55984814D01*
X72697203Y-56039999D01*
X72799992Y-56050500D01*
X72799997Y-56050500D01*
X73900003Y-56050500D01*
X73900008Y-56050500D01*
X74002797Y-56039999D01*
X74169334Y-55984814D01*
X74318655Y-55892711D01*
X74442711Y-55768655D01*
X74534814Y-55619334D01*
X74589999Y-55452797D01*
X74600500Y-55350008D01*
X74600500Y-52349992D01*
X74589999Y-52247203D01*
X74534814Y-52080666D01*
X74526824Y-52067713D01*
X74442713Y-51931348D01*
X74442710Y-51931344D01*
X74318655Y-51807289D01*
X74318651Y-51807286D01*
X74169337Y-51715187D01*
X74169335Y-51715186D01*
X74086065Y-51687593D01*
X74002797Y-51660001D01*
X74002795Y-51660000D01*
X73900015Y-51649500D01*
X73900008Y-51649500D01*
X72799992Y-51649500D01*
X72799984Y-51649500D01*
X72697204Y-51660000D01*
X72697203Y-51660001D01*
X72530664Y-51715186D01*
X72530662Y-51715187D01*
X72381348Y-51807286D01*
X72381344Y-51807289D01*
X72257289Y-51931344D01*
X72257286Y-51931348D01*
X72165187Y-52080662D01*
X72165186Y-52080664D01*
X72110001Y-52247203D01*
X72110000Y-52247204D01*
X72099500Y-52349984D01*
X67900499Y-52349984D01*
X67889999Y-52247203D01*
X67834814Y-52080666D01*
X67826824Y-52067713D01*
X67742713Y-51931348D01*
X67742710Y-51931344D01*
X67618655Y-51807289D01*
X67618651Y-51807286D01*
X67469337Y-51715187D01*
X67469335Y-51715186D01*
X67386065Y-51687593D01*
X67302797Y-51660001D01*
X67302795Y-51660000D01*
X67200015Y-51649500D01*
X67200008Y-51649500D01*
X66099992Y-51649500D01*
X66099984Y-51649500D01*
X65997204Y-51660000D01*
X65997203Y-51660001D01*
X65830664Y-51715186D01*
X65830662Y-51715187D01*
X65681348Y-51807286D01*
X65681344Y-51807289D01*
X65557289Y-51931344D01*
X65557286Y-51931348D01*
X65465187Y-52080662D01*
X65465186Y-52080664D01*
X65410001Y-52247203D01*
X65410000Y-52247204D01*
X65399500Y-52349984D01*
X63384465Y-52349984D01*
X63371966Y-52332781D01*
X63227219Y-52188034D01*
X63227213Y-52188028D01*
X63061614Y-52067715D01*
X63055006Y-52064348D01*
X62968917Y-52020483D01*
X62918123Y-51972511D01*
X62901328Y-51904690D01*
X62923865Y-51838555D01*
X62968917Y-51799516D01*
X63061610Y-51752287D01*
X63188632Y-51660001D01*
X63227213Y-51631971D01*
X63227215Y-51631968D01*
X63227219Y-51631966D01*
X63371966Y-51487219D01*
X63371968Y-51487215D01*
X63371971Y-51487213D01*
X63424732Y-51414590D01*
X63492287Y-51321610D01*
X63585220Y-51139219D01*
X63648477Y-50944534D01*
X63680500Y-50742352D01*
X63680500Y-50537648D01*
X63648477Y-50335465D01*
X63601964Y-50192315D01*
X63585220Y-50140781D01*
X63585218Y-50140778D01*
X63585218Y-50140776D01*
X63548311Y-50068343D01*
X63492287Y-49958390D01*
X63477150Y-49937556D01*
X63371971Y-49792786D01*
X63229171Y-49649986D01*
X68000001Y-49649986D01*
X68010494Y-49752697D01*
X68065641Y-49919119D01*
X68065643Y-49919124D01*
X68157684Y-50068345D01*
X68281654Y-50192315D01*
X68430875Y-50284356D01*
X68430880Y-50284358D01*
X68597302Y-50339505D01*
X68597309Y-50339506D01*
X68700019Y-50349999D01*
X68749999Y-50349998D01*
X68750000Y-50349998D01*
X68750000Y-48350000D01*
X68000001Y-48350000D01*
X68000001Y-49649986D01*
X63229171Y-49649986D01*
X63227213Y-49648028D01*
X63061613Y-49527715D01*
X63061612Y-49527714D01*
X63061610Y-49527713D01*
X62879219Y-49434780D01*
X62874878Y-49432568D01*
X62875511Y-49431323D01*
X62826011Y-49391444D01*
X62803937Y-49325153D01*
X62821207Y-49257451D01*
X62872337Y-49209834D01*
X62878263Y-49207127D01*
X62879219Y-49206640D01*
X63061610Y-49113707D01*
X63154590Y-49046152D01*
X63227213Y-48993391D01*
X63227215Y-48993388D01*
X63227219Y-48993386D01*
X63371966Y-48848639D01*
X63371968Y-48848635D01*
X63371971Y-48848633D01*
X63424732Y-48776010D01*
X63492287Y-48683030D01*
X63585220Y-48500639D01*
X63648477Y-48305954D01*
X63680500Y-48103772D01*
X63680500Y-47899068D01*
X63648477Y-47696886D01*
X63585220Y-47502201D01*
X63585218Y-47502198D01*
X63585218Y-47502196D01*
X63507846Y-47350347D01*
X63492287Y-47319810D01*
X63484556Y-47309169D01*
X63371971Y-47154206D01*
X63227213Y-47009448D01*
X63061613Y-46889135D01*
X63061612Y-46889134D01*
X63061610Y-46889133D01*
X63004653Y-46860111D01*
X62879223Y-46796201D01*
X62684534Y-46732942D01*
X62509995Y-46705298D01*
X62482352Y-46700920D01*
X62277648Y-46700920D01*
X62253329Y-46704771D01*
X62075465Y-46732942D01*
X61880776Y-46796201D01*
X61698386Y-46889135D01*
X61532786Y-47009448D01*
X61388028Y-47154206D01*
X61267715Y-47319806D01*
X61174781Y-47502196D01*
X61111522Y-47696885D01*
X61079500Y-47899068D01*
X61079500Y-48103771D01*
X61111522Y-48305954D01*
X61174781Y-48500643D01*
X61225009Y-48599219D01*
X61257543Y-48663071D01*
X61267715Y-48683033D01*
X61388028Y-48848633D01*
X61532786Y-48993391D01*
X61680212Y-49100500D01*
X61698390Y-49113707D01*
X61860425Y-49196268D01*
X61885122Y-49208852D01*
X61884489Y-49210093D01*
X61933996Y-49249987D01*
X61956063Y-49316280D01*
X61938786Y-49383980D01*
X61887650Y-49431592D01*
X61881736Y-49434293D01*
X61698386Y-49527715D01*
X61532786Y-49648028D01*
X61388028Y-49792786D01*
X61267715Y-49958386D01*
X61174781Y-50140776D01*
X61111522Y-50335465D01*
X61079500Y-50537648D01*
X61079500Y-50742351D01*
X61111522Y-50944534D01*
X61174781Y-51139223D01*
X61238691Y-51264653D01*
X61267585Y-51321359D01*
X61267715Y-51321613D01*
X61388028Y-51487213D01*
X61532786Y-51631971D01*
X61653226Y-51719474D01*
X61698390Y-51752287D01*
X61789840Y-51798883D01*
X61791080Y-51799515D01*
X61841876Y-51847490D01*
X61858671Y-51915311D01*
X61836134Y-51981446D01*
X61791080Y-52020485D01*
X61698386Y-52067715D01*
X61532786Y-52188028D01*
X61388028Y-52332786D01*
X61267715Y-52498386D01*
X61174781Y-52680776D01*
X61111522Y-52875465D01*
X61079500Y-53077648D01*
X61079500Y-53282351D01*
X61111522Y-53484534D01*
X61174781Y-53679223D01*
X61267715Y-53861613D01*
X61388028Y-54027213D01*
X61532786Y-54171971D01*
X61687749Y-54284556D01*
X61698390Y-54292287D01*
X61789840Y-54338883D01*
X61791080Y-54339515D01*
X61841876Y-54387490D01*
X61858671Y-54455311D01*
X61836134Y-54521446D01*
X61791080Y-54560485D01*
X61698386Y-54607715D01*
X61532786Y-54728028D01*
X61388028Y-54872786D01*
X61267715Y-55038386D01*
X61174781Y-55220776D01*
X61111522Y-55415465D01*
X61079500Y-55617648D01*
X61079500Y-55822351D01*
X61111522Y-56024534D01*
X61174781Y-56219223D01*
X61267715Y-56401613D01*
X61388028Y-56567213D01*
X61532786Y-56711971D01*
X61687749Y-56824556D01*
X61698390Y-56832287D01*
X61789840Y-56878883D01*
X61791080Y-56879515D01*
X61841876Y-56927490D01*
X61858671Y-56995311D01*
X61836134Y-57061446D01*
X61791080Y-57100485D01*
X61698386Y-57147715D01*
X61532786Y-57268028D01*
X61388028Y-57412786D01*
X61267715Y-57578386D01*
X61174781Y-57760776D01*
X61111522Y-57955465D01*
X61079500Y-58157648D01*
X61079500Y-58362351D01*
X61111522Y-58564534D01*
X61174781Y-58759223D01*
X61267715Y-58941613D01*
X61388028Y-59107213D01*
X61532786Y-59251971D01*
X61687749Y-59364556D01*
X61698390Y-59372287D01*
X61789840Y-59418883D01*
X61791080Y-59419515D01*
X61841876Y-59467490D01*
X61858671Y-59535311D01*
X61836134Y-59601446D01*
X61791080Y-59640485D01*
X61698386Y-59687715D01*
X61532786Y-59808028D01*
X61388028Y-59952786D01*
X61267715Y-60118386D01*
X61174781Y-60300776D01*
X61111522Y-60495465D01*
X61079500Y-60697648D01*
X61079500Y-60902351D01*
X61111522Y-61104534D01*
X61174781Y-61299223D01*
X61267715Y-61481613D01*
X61388028Y-61647213D01*
X61532786Y-61791971D01*
X61687749Y-61904556D01*
X61698390Y-61912287D01*
X61789840Y-61958883D01*
X61791080Y-61959515D01*
X61841876Y-62007490D01*
X61858671Y-62075311D01*
X61836134Y-62141446D01*
X61791080Y-62180485D01*
X61698386Y-62227715D01*
X61532786Y-62348028D01*
X61388028Y-62492786D01*
X61267715Y-62658386D01*
X61174781Y-62840776D01*
X61111522Y-63035465D01*
X61079500Y-63237648D01*
X61079500Y-63442351D01*
X61111522Y-63644534D01*
X61174781Y-63839223D01*
X61267715Y-64021613D01*
X61388028Y-64187213D01*
X61532786Y-64331971D01*
X61687749Y-64444556D01*
X61698390Y-64452287D01*
X61789840Y-64498883D01*
X61791080Y-64499515D01*
X61841876Y-64547490D01*
X61858671Y-64615311D01*
X61836134Y-64681446D01*
X61791080Y-64720485D01*
X61698386Y-64767715D01*
X61532786Y-64888028D01*
X61388028Y-65032786D01*
X61267715Y-65198386D01*
X61174781Y-65380776D01*
X61111522Y-65575465D01*
X61079500Y-65777648D01*
X61079500Y-65982351D01*
X61111522Y-66184534D01*
X61174781Y-66379223D01*
X61267715Y-66561613D01*
X61388028Y-66727213D01*
X61532786Y-66871971D01*
X61687749Y-66984556D01*
X61698390Y-66992287D01*
X61814607Y-67051503D01*
X61880776Y-67085218D01*
X61880778Y-67085218D01*
X61880781Y-67085220D01*
X61985137Y-67119127D01*
X62075465Y-67148477D01*
X62176557Y-67164488D01*
X62277648Y-67180500D01*
X62277649Y-67180500D01*
X62482351Y-67180500D01*
X62482352Y-67180500D01*
X62684534Y-67148477D01*
X62879219Y-67085220D01*
X63061610Y-66992287D01*
X63154590Y-66924732D01*
X63227213Y-66871971D01*
X63227215Y-66871968D01*
X63227219Y-66871966D01*
X63371966Y-66727219D01*
X63371968Y-66727215D01*
X63371971Y-66727213D01*
X63424732Y-66654590D01*
X63492287Y-66561610D01*
X63585220Y-66379219D01*
X63648477Y-66184534D01*
X63680500Y-65982352D01*
X63680500Y-65777648D01*
X63648477Y-65575466D01*
X63585220Y-65380781D01*
X63585218Y-65380778D01*
X63585218Y-65380776D01*
X63551503Y-65314607D01*
X63492287Y-65198390D01*
X63484556Y-65187749D01*
X63371971Y-65032786D01*
X63227213Y-64888028D01*
X63061614Y-64767715D01*
X63055006Y-64764348D01*
X62968917Y-64720483D01*
X62918123Y-64672511D01*
X62901328Y-64604690D01*
X62923865Y-64538555D01*
X62968917Y-64499516D01*
X63061610Y-64452287D01*
X63082770Y-64436913D01*
X63227213Y-64331971D01*
X63227215Y-64331968D01*
X63227219Y-64331966D01*
X63371966Y-64187219D01*
X63371968Y-64187215D01*
X63371971Y-64187213D01*
X63424732Y-64114590D01*
X63492287Y-64021610D01*
X63585220Y-63839219D01*
X63648477Y-63644534D01*
X63680500Y-63442352D01*
X63680500Y-63237648D01*
X63648477Y-63035466D01*
X63585220Y-62840781D01*
X63585218Y-62840778D01*
X63585218Y-62840776D01*
X63551503Y-62774607D01*
X63492287Y-62658390D01*
X63484556Y-62647749D01*
X63371971Y-62492786D01*
X63227213Y-62348028D01*
X63061614Y-62227715D01*
X63055006Y-62224348D01*
X62968917Y-62180483D01*
X62918123Y-62132511D01*
X62901328Y-62064690D01*
X62923865Y-61998555D01*
X62968917Y-61959516D01*
X63061610Y-61912287D01*
X63082770Y-61896913D01*
X63227213Y-61791971D01*
X63227215Y-61791968D01*
X63227219Y-61791966D01*
X63371966Y-61647219D01*
X63371968Y-61647215D01*
X63371971Y-61647213D01*
X63424732Y-61574590D01*
X63492287Y-61481610D01*
X63585220Y-61299219D01*
X63648477Y-61104534D01*
X63680500Y-60902352D01*
X63680500Y-60902345D01*
X63680779Y-60900584D01*
X63710708Y-60837450D01*
X63770019Y-60800518D01*
X63839882Y-60801516D01*
X63890933Y-60832301D01*
X71753181Y-68694549D01*
X71786666Y-68755872D01*
X71789500Y-68782230D01*
X71789500Y-77312779D01*
X71769815Y-77379818D01*
X71738385Y-77413097D01*
X71660211Y-77469893D01*
X71660205Y-77469898D01*
X71509890Y-77620213D01*
X71384949Y-77792182D01*
X71380484Y-77800946D01*
X71332509Y-77851742D01*
X71264688Y-77868536D01*
X71198553Y-77845998D01*
X71159516Y-77800946D01*
X71155050Y-77792182D01*
X71030109Y-77620213D01*
X70879786Y-77469890D01*
X70707820Y-77344951D01*
X70518414Y-77248444D01*
X70518413Y-77248443D01*
X70518412Y-77248443D01*
X70316243Y-77182754D01*
X70316241Y-77182753D01*
X70316240Y-77182753D01*
X70154957Y-77157208D01*
X70106287Y-77149500D01*
X69893713Y-77149500D01*
X69845042Y-77157208D01*
X69683760Y-77182753D01*
X69481585Y-77248444D01*
X69292179Y-77344951D01*
X69120213Y-77469890D01*
X68969890Y-77620213D01*
X68844949Y-77792182D01*
X68840484Y-77800946D01*
X68792509Y-77851742D01*
X68724688Y-77868536D01*
X68658553Y-77845998D01*
X68619516Y-77800946D01*
X68615050Y-77792182D01*
X68490109Y-77620213D01*
X68339786Y-77469890D01*
X68167820Y-77344951D01*
X67978414Y-77248444D01*
X67978413Y-77248443D01*
X67978412Y-77248443D01*
X67776243Y-77182754D01*
X67776241Y-77182753D01*
X67776240Y-77182753D01*
X67614957Y-77157208D01*
X67566287Y-77149500D01*
X67353713Y-77149500D01*
X67305042Y-77157208D01*
X67143760Y-77182753D01*
X66941585Y-77248444D01*
X66752179Y-77344951D01*
X66580213Y-77469890D01*
X66429890Y-77620213D01*
X66304949Y-77792182D01*
X66300484Y-77800946D01*
X66252509Y-77851742D01*
X66184688Y-77868536D01*
X66118553Y-77845998D01*
X66079516Y-77800946D01*
X66075050Y-77792182D01*
X65950109Y-77620213D01*
X65799786Y-77469890D01*
X65627820Y-77344951D01*
X65438414Y-77248444D01*
X65438413Y-77248443D01*
X65438412Y-77248443D01*
X65236243Y-77182754D01*
X65236241Y-77182753D01*
X65236240Y-77182753D01*
X65074957Y-77157208D01*
X65026287Y-77149500D01*
X64813713Y-77149500D01*
X64765042Y-77157208D01*
X64603760Y-77182753D01*
X64401585Y-77248444D01*
X64212179Y-77344951D01*
X64040213Y-77469890D01*
X63889890Y-77620213D01*
X63764949Y-77792182D01*
X63760484Y-77800946D01*
X63712509Y-77851742D01*
X63644688Y-77868536D01*
X63578553Y-77845998D01*
X63539516Y-77800946D01*
X63535050Y-77792182D01*
X63410109Y-77620213D01*
X63259786Y-77469890D01*
X63087820Y-77344951D01*
X62898414Y-77248444D01*
X62898413Y-77248443D01*
X62898412Y-77248443D01*
X62696243Y-77182754D01*
X62696241Y-77182753D01*
X62696240Y-77182753D01*
X62534957Y-77157208D01*
X62486287Y-77149500D01*
X62273713Y-77149500D01*
X62225042Y-77157208D01*
X62063760Y-77182753D01*
X61861585Y-77248444D01*
X61672179Y-77344951D01*
X61500213Y-77469890D01*
X61349890Y-77620213D01*
X61224951Y-77792179D01*
X61128444Y-77981585D01*
X61062753Y-78183760D01*
X61029500Y-78393713D01*
X61029500Y-78606286D01*
X61062753Y-78816239D01*
X61128444Y-79018414D01*
X61224951Y-79207820D01*
X61349890Y-79379786D01*
X61500213Y-79530109D01*
X61672179Y-79655048D01*
X61672181Y-79655049D01*
X61672184Y-79655051D01*
X61861588Y-79751557D01*
X62063757Y-79817246D01*
X62273713Y-79850500D01*
X62273714Y-79850500D01*
X62486286Y-79850500D01*
X62486287Y-79850500D01*
X62696243Y-79817246D01*
X62898412Y-79751557D01*
X63087816Y-79655051D01*
X63109789Y-79639086D01*
X63259786Y-79530109D01*
X63259788Y-79530106D01*
X63259792Y-79530104D01*
X63410104Y-79379792D01*
X63410106Y-79379788D01*
X63410109Y-79379786D01*
X63535048Y-79207820D01*
X63535047Y-79207820D01*
X63535051Y-79207816D01*
X63539514Y-79199054D01*
X63587488Y-79148259D01*
X63655308Y-79131463D01*
X63721444Y-79153999D01*
X63760486Y-79199056D01*
X63764951Y-79207820D01*
X63889890Y-79379786D01*
X64040213Y-79530109D01*
X64212179Y-79655048D01*
X64212181Y-79655049D01*
X64212184Y-79655051D01*
X64401588Y-79751557D01*
X64603757Y-79817246D01*
X64813713Y-79850500D01*
X64813714Y-79850500D01*
X65026286Y-79850500D01*
X65026287Y-79850500D01*
X65236243Y-79817246D01*
X65438412Y-79751557D01*
X65627816Y-79655051D01*
X65649789Y-79639086D01*
X65799786Y-79530109D01*
X65799788Y-79530106D01*
X65799792Y-79530104D01*
X65950104Y-79379792D01*
X65950106Y-79379788D01*
X65950109Y-79379786D01*
X66075048Y-79207820D01*
X66075047Y-79207820D01*
X66075051Y-79207816D01*
X66079514Y-79199054D01*
X66127488Y-79148259D01*
X66195308Y-79131463D01*
X66261444Y-79153999D01*
X66300486Y-79199056D01*
X66304951Y-79207820D01*
X66429890Y-79379786D01*
X66580213Y-79530109D01*
X66752179Y-79655048D01*
X66752181Y-79655049D01*
X66752184Y-79655051D01*
X66941588Y-79751557D01*
X67143757Y-79817246D01*
X67315712Y-79844481D01*
X67378847Y-79874410D01*
X67415778Y-79933722D01*
X67414780Y-80003584D01*
X67383995Y-80054635D01*
X63417050Y-84021580D01*
X63417044Y-84021588D01*
X63367812Y-84095268D01*
X63367813Y-84095269D01*
X63334921Y-84144496D01*
X63334914Y-84144508D01*
X63278342Y-84281086D01*
X63278340Y-84281092D01*
X63249500Y-84426079D01*
X63249500Y-84426082D01*
X63249500Y-125803918D01*
X63249500Y-125803920D01*
X63249499Y-125803920D01*
X63278340Y-125948907D01*
X63278343Y-125948917D01*
X63334914Y-126085492D01*
X63367812Y-126134727D01*
X63367813Y-126134730D01*
X63417046Y-126208414D01*
X63417052Y-126208421D01*
X68653996Y-131445364D01*
X68687481Y-131506687D01*
X68682497Y-131576379D01*
X68640625Y-131632312D01*
X68585713Y-131655518D01*
X68413760Y-131682753D01*
X68211585Y-131748444D01*
X68022179Y-131844951D01*
X67850213Y-131969890D01*
X67699890Y-132120213D01*
X67574949Y-132292182D01*
X67570484Y-132300946D01*
X67522509Y-132351742D01*
X67454688Y-132368536D01*
X67388553Y-132345998D01*
X67349516Y-132300946D01*
X67345050Y-132292182D01*
X67220109Y-132120213D01*
X67069786Y-131969890D01*
X66897820Y-131844951D01*
X66708414Y-131748444D01*
X66708413Y-131748443D01*
X66708412Y-131748443D01*
X66506243Y-131682754D01*
X66506241Y-131682753D01*
X66506240Y-131682753D01*
X66334283Y-131655518D01*
X66296287Y-131649500D01*
X66083713Y-131649500D01*
X66045717Y-131655518D01*
X65873760Y-131682753D01*
X65671585Y-131748444D01*
X65482179Y-131844951D01*
X65310213Y-131969890D01*
X65159890Y-132120213D01*
X65034949Y-132292182D01*
X65030484Y-132300946D01*
X64982509Y-132351742D01*
X64914688Y-132368536D01*
X64848553Y-132345998D01*
X64809516Y-132300946D01*
X64805050Y-132292182D01*
X64680109Y-132120213D01*
X64529786Y-131969890D01*
X64357820Y-131844951D01*
X64168414Y-131748444D01*
X64168413Y-131748443D01*
X64168412Y-131748443D01*
X63966243Y-131682754D01*
X63966241Y-131682753D01*
X63966240Y-131682753D01*
X63794283Y-131655518D01*
X63756287Y-131649500D01*
X63543713Y-131649500D01*
X63505717Y-131655518D01*
X63333760Y-131682753D01*
X63131585Y-131748444D01*
X62942179Y-131844951D01*
X62770213Y-131969890D01*
X62619890Y-132120213D01*
X62494949Y-132292182D01*
X62490484Y-132300946D01*
X62442509Y-132351742D01*
X62374688Y-132368536D01*
X62308553Y-132345998D01*
X62269516Y-132300946D01*
X62265050Y-132292182D01*
X62140109Y-132120213D01*
X61989786Y-131969890D01*
X61817820Y-131844951D01*
X61628414Y-131748444D01*
X61628413Y-131748443D01*
X61628412Y-131748443D01*
X61426243Y-131682754D01*
X61426241Y-131682753D01*
X61426240Y-131682753D01*
X61254283Y-131655518D01*
X61216287Y-131649500D01*
X61003713Y-131649500D01*
X60965717Y-131655518D01*
X60793760Y-131682753D01*
X60591585Y-131748444D01*
X60402179Y-131844951D01*
X60230213Y-131969890D01*
X60079890Y-132120213D01*
X59954951Y-132292179D01*
X59858444Y-132481585D01*
X59792753Y-132683760D01*
X59759500Y-132893713D01*
X55500500Y-132893713D01*
X55500500Y-72372619D01*
X56881466Y-72372619D01*
X56881466Y-72439471D01*
X56881466Y-72627381D01*
X56921320Y-72879008D01*
X57000046Y-73121301D01*
X57115705Y-73348297D01*
X57265451Y-73554404D01*
X57445596Y-73734549D01*
X57651703Y-73884295D01*
X57878699Y-73999954D01*
X58120992Y-74078680D01*
X58372619Y-74118534D01*
X58372620Y-74118534D01*
X58627380Y-74118534D01*
X58627381Y-74118534D01*
X58879008Y-74078680D01*
X59121301Y-73999954D01*
X59348297Y-73884295D01*
X59554404Y-73734549D01*
X59734549Y-73554404D01*
X59884295Y-73348297D01*
X59999954Y-73121301D01*
X60078680Y-72879008D01*
X60118534Y-72627381D01*
X60118534Y-72372619D01*
X60078680Y-72120992D01*
X59999954Y-71878699D01*
X59884295Y-71651703D01*
X59734549Y-71445596D01*
X59554404Y-71265451D01*
X59348297Y-71115705D01*
X59121301Y-71000046D01*
X58879008Y-70921320D01*
X58627381Y-70881466D01*
X58372619Y-70881466D01*
X58246805Y-70901393D01*
X58120991Y-70921320D01*
X58008574Y-70957846D01*
X57878699Y-71000046D01*
X57878696Y-71000047D01*
X57878694Y-71000048D01*
X57651701Y-71115706D01*
X57651698Y-71115708D01*
X57541149Y-71196027D01*
X57445596Y-71265451D01*
X57445594Y-71265453D01*
X57445593Y-71265453D01*
X57265453Y-71445593D01*
X57265453Y-71445594D01*
X57265451Y-71445596D01*
X57196027Y-71541149D01*
X57115708Y-71651698D01*
X57115706Y-71651701D01*
X57000048Y-71878694D01*
X57000047Y-71878696D01*
X57000046Y-71878699D01*
X56921320Y-72120992D01*
X56881466Y-72372619D01*
X55500500Y-72372619D01*
X55500500Y-49003051D01*
X55500649Y-48996967D01*
X55511229Y-48781610D01*
X55517052Y-48663068D01*
X55518245Y-48650962D01*
X55540543Y-48500639D01*
X55566849Y-48323296D01*
X55569218Y-48311385D01*
X55649710Y-47990043D01*
X55653240Y-47978411D01*
X55764835Y-47666525D01*
X55769476Y-47655318D01*
X55911124Y-47355828D01*
X55916840Y-47345136D01*
X56087145Y-47060998D01*
X56093888Y-47050905D01*
X56291232Y-46784818D01*
X56298935Y-46775433D01*
X56503244Y-46550013D01*
X68000000Y-46550013D01*
X68000000Y-47850000D01*
X68750000Y-47850000D01*
X68750000Y-45850000D01*
X69250000Y-45850000D01*
X69250000Y-50349999D01*
X69299972Y-50349999D01*
X69299986Y-50349998D01*
X69402697Y-50339505D01*
X69569119Y-50284358D01*
X69569124Y-50284356D01*
X69718345Y-50192315D01*
X69842317Y-50068343D01*
X69894167Y-49984281D01*
X69946115Y-49937556D01*
X70015077Y-49926333D01*
X70079159Y-49954176D01*
X70105244Y-49984279D01*
X70157288Y-50068656D01*
X70281344Y-50192712D01*
X70430666Y-50284814D01*
X70597203Y-50339999D01*
X70699991Y-50350500D01*
X71300008Y-50350499D01*
X71300016Y-50350498D01*
X71300019Y-50350498D01*
X71356302Y-50344748D01*
X71402797Y-50339999D01*
X71569334Y-50284814D01*
X71718656Y-50192712D01*
X71842712Y-50068656D01*
X71934814Y-49919334D01*
X71989999Y-49752797D01*
X72000500Y-49650009D01*
X72000500Y-49224500D01*
X72020185Y-49157461D01*
X72072989Y-49111706D01*
X72124500Y-49100500D01*
X76744238Y-49100500D01*
X76811277Y-49120185D01*
X76817119Y-49124179D01*
X76938390Y-49212287D01*
X77031630Y-49259795D01*
X77082426Y-49307770D01*
X77099221Y-49375591D01*
X77076684Y-49441725D01*
X77031630Y-49480765D01*
X76938644Y-49528143D01*
X76894077Y-49560523D01*
X76894077Y-49560524D01*
X77555910Y-50222356D01*
X77457886Y-50248622D01*
X77362114Y-50303916D01*
X77283916Y-50382114D01*
X77228622Y-50477886D01*
X77202356Y-50575909D01*
X76540524Y-49914077D01*
X76540523Y-49914077D01*
X76508143Y-49958644D01*
X76415244Y-50140968D01*
X76352009Y-50335582D01*
X76320000Y-50537682D01*
X76320000Y-50742317D01*
X76352009Y-50944417D01*
X76415244Y-51139031D01*
X76508141Y-51321350D01*
X76508147Y-51321359D01*
X76540523Y-51365921D01*
X76540524Y-51365922D01*
X77202356Y-50704089D01*
X77228622Y-50802114D01*
X77283916Y-50897886D01*
X77362114Y-50976084D01*
X77457886Y-51031378D01*
X77555909Y-51057643D01*
X76894076Y-51719474D01*
X76938652Y-51751861D01*
X77031628Y-51799234D01*
X77082425Y-51847208D01*
X77099220Y-51915029D01*
X77076683Y-51981164D01*
X77031630Y-52020203D01*
X76938388Y-52067713D01*
X76772786Y-52188028D01*
X76628028Y-52332786D01*
X76507715Y-52498386D01*
X76414781Y-52680776D01*
X76351522Y-52875465D01*
X76319500Y-53077648D01*
X76319500Y-53282351D01*
X76351522Y-53484534D01*
X76414781Y-53679223D01*
X76507715Y-53861613D01*
X76628028Y-54027213D01*
X76772786Y-54171971D01*
X76927749Y-54284556D01*
X76938390Y-54292287D01*
X77029840Y-54338883D01*
X77031080Y-54339515D01*
X77081876Y-54387490D01*
X77098671Y-54455311D01*
X77076134Y-54521446D01*
X77031080Y-54560485D01*
X76938386Y-54607715D01*
X76772786Y-54728028D01*
X76628028Y-54872786D01*
X76507715Y-55038386D01*
X76414781Y-55220776D01*
X76351522Y-55415465D01*
X76319500Y-55617648D01*
X76319500Y-55822351D01*
X76351522Y-56024534D01*
X76414781Y-56219223D01*
X76507715Y-56401613D01*
X76628028Y-56567213D01*
X76772786Y-56711971D01*
X76927749Y-56824556D01*
X76938390Y-56832287D01*
X77029840Y-56878883D01*
X77031080Y-56879515D01*
X77081876Y-56927490D01*
X77098671Y-56995311D01*
X77076134Y-57061446D01*
X77031080Y-57100485D01*
X76938386Y-57147715D01*
X76772786Y-57268028D01*
X76628028Y-57412786D01*
X76507715Y-57578386D01*
X76414781Y-57760776D01*
X76351522Y-57955465D01*
X76319500Y-58157648D01*
X76319500Y-58362351D01*
X76351522Y-58564534D01*
X76414781Y-58759223D01*
X76507715Y-58941613D01*
X76628028Y-59107213D01*
X76772786Y-59251971D01*
X76927749Y-59364556D01*
X76938390Y-59372287D01*
X77029840Y-59418883D01*
X77031080Y-59419515D01*
X77081876Y-59467490D01*
X77098671Y-59535311D01*
X77076134Y-59601446D01*
X77031080Y-59640485D01*
X76938386Y-59687715D01*
X76772786Y-59808028D01*
X76628028Y-59952786D01*
X76507715Y-60118386D01*
X76414781Y-60300776D01*
X76351522Y-60495465D01*
X76319500Y-60697648D01*
X76319500Y-60902351D01*
X76351522Y-61104534D01*
X76414781Y-61299223D01*
X76507715Y-61481613D01*
X76628028Y-61647213D01*
X76772786Y-61791971D01*
X76927749Y-61904556D01*
X76938390Y-61912287D01*
X77029840Y-61958883D01*
X77031080Y-61959515D01*
X77081876Y-62007490D01*
X77098671Y-62075311D01*
X77076134Y-62141446D01*
X77031080Y-62180485D01*
X76938386Y-62227715D01*
X76772786Y-62348028D01*
X76628028Y-62492786D01*
X76507715Y-62658386D01*
X76414781Y-62840776D01*
X76351522Y-63035465D01*
X76319500Y-63237648D01*
X76319500Y-63442351D01*
X76351522Y-63644534D01*
X76414781Y-63839223D01*
X76507715Y-64021613D01*
X76628028Y-64187213D01*
X76772786Y-64331971D01*
X76927749Y-64444556D01*
X76938390Y-64452287D01*
X77029840Y-64498883D01*
X77031080Y-64499515D01*
X77081876Y-64547490D01*
X77098671Y-64615311D01*
X77076134Y-64681446D01*
X77031080Y-64720485D01*
X76938386Y-64767715D01*
X76772786Y-64888028D01*
X76628028Y-65032786D01*
X76507715Y-65198386D01*
X76414781Y-65380776D01*
X76351522Y-65575465D01*
X76319500Y-65777648D01*
X76319500Y-65982351D01*
X76351522Y-66184534D01*
X76414781Y-66379223D01*
X76507715Y-66561613D01*
X76628028Y-66727213D01*
X76772786Y-66871971D01*
X76927749Y-66984556D01*
X76938390Y-66992287D01*
X77054607Y-67051503D01*
X77120776Y-67085218D01*
X77120778Y-67085218D01*
X77120781Y-67085220D01*
X77225137Y-67119127D01*
X77315465Y-67148477D01*
X77416557Y-67164488D01*
X77517648Y-67180500D01*
X77517649Y-67180500D01*
X77722351Y-67180500D01*
X77722352Y-67180500D01*
X77924534Y-67148477D01*
X78119219Y-67085220D01*
X78301610Y-66992287D01*
X78394590Y-66924732D01*
X78467213Y-66871971D01*
X78467215Y-66871968D01*
X78467219Y-66871966D01*
X78611966Y-66727219D01*
X78611968Y-66727215D01*
X78611971Y-66727213D01*
X78664732Y-66654590D01*
X78732287Y-66561610D01*
X78825220Y-66379219D01*
X78888477Y-66184534D01*
X78920500Y-65982352D01*
X78920500Y-65777648D01*
X78888477Y-65575466D01*
X78825220Y-65380781D01*
X78825218Y-65380778D01*
X78825218Y-65380776D01*
X78791503Y-65314607D01*
X78732287Y-65198390D01*
X78724556Y-65187749D01*
X78611971Y-65032786D01*
X78467213Y-64888028D01*
X78301614Y-64767715D01*
X78295006Y-64764348D01*
X78208917Y-64720483D01*
X78158123Y-64672511D01*
X78141328Y-64604690D01*
X78163865Y-64538555D01*
X78208917Y-64499516D01*
X78301610Y-64452287D01*
X78322770Y-64436913D01*
X78467213Y-64331971D01*
X78467215Y-64331968D01*
X78467219Y-64331966D01*
X78611966Y-64187219D01*
X78611968Y-64187215D01*
X78611971Y-64187213D01*
X78664732Y-64114590D01*
X78732287Y-64021610D01*
X78825220Y-63839219D01*
X78888477Y-63644534D01*
X78920500Y-63442352D01*
X78920500Y-63237648D01*
X78888477Y-63035466D01*
X78825220Y-62840781D01*
X78825218Y-62840778D01*
X78825218Y-62840776D01*
X78791503Y-62774607D01*
X78732287Y-62658390D01*
X78724556Y-62647749D01*
X78611971Y-62492786D01*
X78467213Y-62348028D01*
X78301614Y-62227715D01*
X78295006Y-62224348D01*
X78208917Y-62180483D01*
X78158123Y-62132511D01*
X78141328Y-62064690D01*
X78163865Y-61998555D01*
X78208917Y-61959516D01*
X78301610Y-61912287D01*
X78322770Y-61896913D01*
X78467213Y-61791971D01*
X78467215Y-61791968D01*
X78467219Y-61791966D01*
X78611966Y-61647219D01*
X78611968Y-61647215D01*
X78611971Y-61647213D01*
X78664732Y-61574590D01*
X78732287Y-61481610D01*
X78825220Y-61299219D01*
X78888477Y-61104534D01*
X78920500Y-60902352D01*
X78920500Y-60697648D01*
X78888477Y-60495466D01*
X78825220Y-60300781D01*
X78825218Y-60300778D01*
X78825218Y-60300776D01*
X78791503Y-60234607D01*
X78732287Y-60118390D01*
X78724556Y-60107749D01*
X78611971Y-59952786D01*
X78467213Y-59808028D01*
X78301614Y-59687715D01*
X78295006Y-59684348D01*
X78208917Y-59640483D01*
X78158123Y-59592511D01*
X78141328Y-59524690D01*
X78163865Y-59458555D01*
X78208917Y-59419516D01*
X78301610Y-59372287D01*
X78322770Y-59356913D01*
X78467213Y-59251971D01*
X78467215Y-59251968D01*
X78467219Y-59251966D01*
X78611966Y-59107219D01*
X78611968Y-59107215D01*
X78611971Y-59107213D01*
X78664732Y-59034590D01*
X78732287Y-58941610D01*
X78825220Y-58759219D01*
X78888477Y-58564534D01*
X78920500Y-58362352D01*
X78920500Y-58157648D01*
X78888477Y-57955466D01*
X78825220Y-57760781D01*
X78825218Y-57760778D01*
X78825218Y-57760776D01*
X78791503Y-57694607D01*
X78732287Y-57578390D01*
X78724556Y-57567749D01*
X78611971Y-57412786D01*
X78467213Y-57268028D01*
X78301614Y-57147715D01*
X78295006Y-57144348D01*
X78208917Y-57100483D01*
X78158123Y-57052511D01*
X78141328Y-56984690D01*
X78163865Y-56918555D01*
X78208917Y-56879516D01*
X78301610Y-56832287D01*
X78322770Y-56816913D01*
X78467213Y-56711971D01*
X78467215Y-56711968D01*
X78467219Y-56711966D01*
X78611966Y-56567219D01*
X78611968Y-56567215D01*
X78611971Y-56567213D01*
X78664732Y-56494590D01*
X78732287Y-56401610D01*
X78825220Y-56219219D01*
X78888477Y-56024534D01*
X78920500Y-55822352D01*
X78920500Y-55617648D01*
X78894390Y-55452796D01*
X78888477Y-55415465D01*
X78825218Y-55220776D01*
X78791503Y-55154607D01*
X78732287Y-55038390D01*
X78724556Y-55027749D01*
X78611971Y-54872786D01*
X78467213Y-54728028D01*
X78301614Y-54607715D01*
X78295006Y-54604348D01*
X78208917Y-54560483D01*
X78158123Y-54512511D01*
X78141328Y-54444690D01*
X78163865Y-54378555D01*
X78208917Y-54339516D01*
X78301610Y-54292287D01*
X78322770Y-54276913D01*
X78467213Y-54171971D01*
X78467215Y-54171968D01*
X78467219Y-54171966D01*
X78611966Y-54027219D01*
X78611968Y-54027215D01*
X78611971Y-54027213D01*
X78664732Y-53954590D01*
X78732287Y-53861610D01*
X78825220Y-53679219D01*
X78888477Y-53484534D01*
X78920500Y-53282352D01*
X78920500Y-53077648D01*
X78888477Y-52875466D01*
X78825220Y-52680781D01*
X78825218Y-52680778D01*
X78825218Y-52680776D01*
X78791503Y-52614607D01*
X78732287Y-52498390D01*
X78675133Y-52419723D01*
X78611971Y-52332786D01*
X78467213Y-52188028D01*
X78301611Y-52067713D01*
X78208369Y-52020203D01*
X78157574Y-51972229D01*
X78140779Y-51904407D01*
X78163317Y-51838273D01*
X78208371Y-51799234D01*
X78301346Y-51751861D01*
X78301347Y-51751861D01*
X78345921Y-51719474D01*
X77684090Y-51057643D01*
X77782114Y-51031378D01*
X77877886Y-50976084D01*
X77956084Y-50897886D01*
X78011378Y-50802114D01*
X78037643Y-50704090D01*
X78699474Y-51365921D01*
X78731859Y-51321349D01*
X78824755Y-51139031D01*
X78887990Y-50944417D01*
X78920000Y-50742317D01*
X78920000Y-50537682D01*
X78887990Y-50335582D01*
X78824755Y-50140968D01*
X78731859Y-49958650D01*
X78699474Y-49914077D01*
X78699474Y-49914076D01*
X78037642Y-50575908D01*
X78011378Y-50477886D01*
X77956084Y-50382114D01*
X77877886Y-50303916D01*
X77782114Y-50248622D01*
X77684089Y-50222356D01*
X78345922Y-49560524D01*
X78345921Y-49560523D01*
X78301359Y-49528147D01*
X78301350Y-49528141D01*
X78208369Y-49480765D01*
X78157573Y-49432790D01*
X78140778Y-49364969D01*
X78163315Y-49298835D01*
X78208370Y-49259795D01*
X78301610Y-49212287D01*
X78377072Y-49157461D01*
X78467213Y-49091971D01*
X78467215Y-49091968D01*
X78467219Y-49091966D01*
X78611966Y-48947219D01*
X78611968Y-48947215D01*
X78611971Y-48947213D01*
X78716380Y-48803504D01*
X78732287Y-48781610D01*
X78825220Y-48599219D01*
X78888477Y-48404534D01*
X78920500Y-48202352D01*
X78920500Y-47997648D01*
X78904886Y-47899068D01*
X78888477Y-47795465D01*
X78825218Y-47600776D01*
X78774988Y-47502196D01*
X78732287Y-47418390D01*
X78686848Y-47355848D01*
X78611971Y-47252786D01*
X78467213Y-47108028D01*
X78301613Y-46987715D01*
X78301612Y-46987714D01*
X78301610Y-46987713D01*
X78244653Y-46958691D01*
X78119223Y-46894781D01*
X77924534Y-46831522D01*
X77749995Y-46803878D01*
X77722352Y-46799500D01*
X77517648Y-46799500D01*
X77493329Y-46803351D01*
X77315465Y-46831522D01*
X77120776Y-46894781D01*
X76938386Y-46987715D01*
X76817123Y-47075818D01*
X76751317Y-47099298D01*
X76744238Y-47099500D01*
X72124499Y-47099500D01*
X72057460Y-47079815D01*
X72011705Y-47027011D01*
X72000499Y-46975500D01*
X72000499Y-46549998D01*
X72000498Y-46549981D01*
X71989999Y-46447203D01*
X71989998Y-46447200D01*
X71934814Y-46280666D01*
X71842712Y-46131344D01*
X71718656Y-46007288D01*
X71625888Y-45950069D01*
X71569336Y-45915187D01*
X71569331Y-45915185D01*
X71564901Y-45913717D01*
X71402797Y-45860001D01*
X71402795Y-45860000D01*
X71300010Y-45849500D01*
X70699998Y-45849500D01*
X70699980Y-45849501D01*
X70597203Y-45860000D01*
X70597200Y-45860001D01*
X70430668Y-45915185D01*
X70430663Y-45915187D01*
X70281342Y-46007289D01*
X70157288Y-46131343D01*
X70157285Y-46131347D01*
X70105244Y-46215719D01*
X70053296Y-46262444D01*
X69984334Y-46273665D01*
X69920252Y-46245822D01*
X69894167Y-46215719D01*
X69842315Y-46131654D01*
X69718345Y-46007684D01*
X69569124Y-45915643D01*
X69569119Y-45915641D01*
X69402697Y-45860494D01*
X69402690Y-45860493D01*
X69299986Y-45850000D01*
X69250000Y-45850000D01*
X68750000Y-45850000D01*
X68749999Y-45849999D01*
X68700029Y-45850000D01*
X68700011Y-45850001D01*
X68597302Y-45860494D01*
X68430880Y-45915641D01*
X68430875Y-45915643D01*
X68281654Y-46007684D01*
X68157684Y-46131654D01*
X68065643Y-46280875D01*
X68065641Y-46280880D01*
X68010494Y-46447302D01*
X68010493Y-46447309D01*
X68000000Y-46550013D01*
X56503244Y-46550013D01*
X56521405Y-46529975D01*
X56529975Y-46521405D01*
X56775433Y-46298935D01*
X56784818Y-46291232D01*
X57050905Y-46093888D01*
X57060998Y-46087145D01*
X57345136Y-45916840D01*
X57355828Y-45911124D01*
X57655318Y-45769476D01*
X57666525Y-45764835D01*
X57978412Y-45653239D01*
X57990043Y-45649710D01*
X58311385Y-45569218D01*
X58323296Y-45566849D01*
X58650962Y-45518244D01*
X58663068Y-45517052D01*
X58996967Y-45500648D01*
X59003051Y-45500500D01*
X59065892Y-45500500D01*
X80934108Y-45500500D01*
X80996949Y-45500500D01*
X81003032Y-45500648D01*
G37*
%TD.AperFunction*%
%TD*%
M02*
