%TF.GenerationSoftware,KiCad,Pcbnew,10.0.4*%
%TF.CreationDate,2026-09-23T12:25:02+01:00*%
%TF.ProjectId,ProjectKurinda_PCB,50726f6a-6563-4744-9b75-72696e64615f,rev?*%
%TF.SameCoordinates,Original*%
%TF.FileFunction,Copper,L2,Bot*%
%TF.FilePolarity,Positive*%
%FSLAX46Y46*%
G04 Gerber Fmt 4.6, Leading zero omitted, Abs format (unit mm)*
G04 Created by KiCad (PCBNEW 10.0.4) date 2026-09-23 12:25:02*
%MOMM*%
%LPD*%
G01*
G04 APERTURE LIST*
G04 Aperture macros list*
%AMRoundRect*
0 Rectangle with rounded corners*
0 $1 Rounding radius*
0 $2 $3 $4 $5 $6 $7 $8 $9 X,Y pos of 4 corners*
0 Add a 4 corners polygon primitive as box body*
4,1,4,$2,$3,$4,$5,$6,$7,$8,$9,$2,$3,0*
0 Add four circle primitives for the rounded corners*
1,1,$1+$1,$2,$3*
1,1,$1+$1,$4,$5*
1,1,$1+$1,$6,$7*
1,1,$1+$1,$8,$9*
0 Add four rect primitives between the rounded corners*
20,1,$1+$1,$2,$3,$4,$5,0*
20,1,$1+$1,$4,$5,$6,$7,0*
20,1,$1+$1,$6,$7,$8,$9,0*
20,1,$1+$1,$8,$9,$2,$3,0*%
%AMFreePoly0*
4,1,6,1.000000,0.000000,0.500000,-0.750000,-0.500000,-0.750000,-0.500000,0.750000,0.500000,0.750000,1.000000,0.000000,1.000000,0.000000,$1*%
%AMFreePoly1*
4,1,6,0.500000,-0.750000,-0.650000,-0.750000,-0.150000,0.000000,-0.650000,0.750000,0.500000,0.750000,0.500000,-0.750000,0.500000,-0.750000,$1*%
G04 Aperture macros list end*
%TA.AperFunction,SMDPad,CuDef*%
%ADD10FreePoly0,180.000000*%
%TD*%
%TA.AperFunction,SMDPad,CuDef*%
%ADD11FreePoly1,180.000000*%
%TD*%
%TA.AperFunction,SMDPad,CuDef*%
%ADD12FreePoly0,90.000000*%
%TD*%
%TA.AperFunction,SMDPad,CuDef*%
%ADD13FreePoly1,90.000000*%
%TD*%
%TA.AperFunction,SMDPad,CuDef*%
%ADD14RoundRect,0.250000X-0.262500X-0.450000X0.262500X-0.450000X0.262500X0.450000X-0.262500X0.450000X0*%
%TD*%
%TA.AperFunction,SMDPad,CuDef*%
%ADD15RoundRect,0.250000X0.262500X0.450000X-0.262500X0.450000X-0.262500X-0.450000X0.262500X-0.450000X0*%
%TD*%
%TA.AperFunction,SMDPad,CuDef*%
%ADD16RoundRect,0.250000X-0.250000X-0.475000X0.250000X-0.475000X0.250000X0.475000X-0.250000X0.475000X0*%
%TD*%
%TA.AperFunction,SMDPad,CuDef*%
%ADD17RoundRect,0.250000X0.450000X-0.262500X0.450000X0.262500X-0.450000X0.262500X-0.450000X-0.262500X0*%
%TD*%
%TA.AperFunction,SMDPad,CuDef*%
%ADD18RoundRect,0.250000X-0.475000X0.250000X-0.475000X-0.250000X0.475000X-0.250000X0.475000X0.250000X0*%
%TD*%
%TA.AperFunction,ComponentPad*%
%ADD19C,1.600000*%
%TD*%
%TA.AperFunction,SMDPad,CuDef*%
%ADD20RoundRect,0.250000X-0.450000X0.262500X-0.450000X-0.262500X0.450000X-0.262500X0.450000X0.262500X0*%
%TD*%
%TA.AperFunction,SMDPad,CuDef*%
%ADD21RoundRect,0.150000X-0.150000X0.587500X-0.150000X-0.587500X0.150000X-0.587500X0.150000X0.587500X0*%
%TD*%
%TA.AperFunction,ComponentPad*%
%ADD22C,1.700000*%
%TD*%
%TA.AperFunction,SMDPad,CuDef*%
%ADD23RoundRect,0.250000X0.250000X1.500000X-0.250000X1.500000X-0.250000X-1.500000X0.250000X-1.500000X0*%
%TD*%
%TA.AperFunction,SMDPad,CuDef*%
%ADD24RoundRect,0.250001X0.499999X1.449999X-0.499999X1.449999X-0.499999X-1.449999X0.499999X-1.449999X0*%
%TD*%
%TA.AperFunction,ViaPad*%
%ADD25C,1.000000*%
%TD*%
%TA.AperFunction,Conductor*%
%ADD26C,0.200000*%
%TD*%
%TA.AperFunction,Conductor*%
%ADD27C,1.000000*%
%TD*%
G04 APERTURE END LIST*
D10*
%TO.P,JP1,1,A_1*%
%TO.N,+3V3*%
X72500000Y-67750000D03*
D11*
%TO.P,JP1,2,B_2*%
%TO.N,/3V3_SWITCHED*%
X71050000Y-67750000D03*
%TD*%
D12*
%TO.P,JP2,1,A_1*%
%TO.N,/WS_AOUT*%
X82500000Y-69725000D03*
D13*
%TO.P,JP2,2,B_2*%
%TO.N,Net-(JP2-B)*%
X82500000Y-68275000D03*
%TD*%
D14*
%TO.P,R7,1*%
%TO.N,/SCL*%
X70675000Y-74250000D03*
%TO.P,R7,2*%
%TO.N,+3V3*%
X72500000Y-74250000D03*
%TD*%
%TO.P,R6,1*%
%TO.N,/SDA*%
X70675000Y-72000000D03*
%TO.P,R6,2*%
%TO.N,+3V3*%
X72500000Y-72000000D03*
%TD*%
D15*
%TO.P,R2,1*%
%TO.N,/BAT_MEAS*%
X81912500Y-50640000D03*
%TO.P,R2,2*%
%TO.N,GND*%
X80087500Y-50640000D03*
%TD*%
D16*
%TO.P,C1,2*%
%TO.N,GND*%
X81950000Y-65880000D03*
%TO.P,C1,1*%
%TO.N,Net-(JP2-B)*%
X80050000Y-65880000D03*
%TD*%
D17*
%TO.P,R5,1*%
%TO.N,/WS_AOUT*%
X80050000Y-70000000D03*
%TO.P,R5,2*%
%TO.N,Net-(JP2-B)*%
X80050000Y-68175000D03*
%TD*%
D18*
%TO.P,C2,1*%
%TO.N,/BAT_MEAS*%
X81912500Y-53800000D03*
%TO.P,C2,2*%
%TO.N,GND*%
X81912500Y-55700000D03*
%TD*%
D19*
%TO.P,U1,G,GND_G*%
%TO.N,GND*%
X77620000Y-50640000D03*
%TO.P,U1,21,GPIO21_21*%
%TO.N,unconnected-(U1-GPIO21-Pad21)*%
X62380000Y-65880000D03*
%TO.P,U1,20,GPIO20_20*%
%TO.N,/CS*%
X62380000Y-63340000D03*
%TO.P,U1,10,GPIO10_10*%
%TO.N,/RTC_INT*%
X62380000Y-60800000D03*
%TO.P,U1,9,GPIO9_9*%
%TO.N,/SCL*%
X62380000Y-58260000D03*
%TO.P,U1,8,GPIO8_8*%
%TO.N,/SDA*%
X62380000Y-55720000D03*
%TO.P,U1,7,GPIO7_7*%
%TO.N,/3V3_EN*%
X62380000Y-53180000D03*
%TO.P,U1,6,GPIO6_6*%
%TO.N,/MOSI*%
X62380000Y-50640000D03*
%TO.P,U1,5V,5V_5V*%
%TO.N,+BATT*%
X77620000Y-48100000D03*
%TO.P,U1,5,GPIO5_5*%
%TO.N,/MISO*%
X62380000Y-48001420D03*
%TO.P,U1,4,GPIO4_4*%
%TO.N,/SCK*%
X77620000Y-55720000D03*
%TO.P,U1,3.3,3V3_3.3*%
%TO.N,+3V3*%
X77620000Y-53180000D03*
%TO.P,U1,3,GPIO3_3*%
%TO.N,/MPU_INT1*%
X77620000Y-58260000D03*
%TO.P,U1,2,GPIO2_2*%
%TO.N,unconnected-(U1-GPIO2-Pad2)_1*%
X77620000Y-60800000D03*
%TO.P,U1,1,GPIO1_1*%
%TO.N,/BAT_MEAS*%
X77620000Y-63340000D03*
%TO.P,U1,0,GPIO0_0*%
%TO.N,Net-(JP2-B)*%
X77620000Y-65880000D03*
%TD*%
D14*
%TO.P,R1,2*%
%TO.N,/BAT_MEAS*%
X81912500Y-48100000D03*
%TO.P,R1,1*%
%TO.N,+BATT*%
X80087500Y-48100000D03*
%TD*%
D20*
%TO.P,R3,2*%
%TO.N,Net-(Q2-G)*%
X67950000Y-62512500D03*
%TO.P,R3,1*%
%TO.N,/3V3_EN*%
X67950000Y-60687500D03*
%TD*%
D14*
%TO.P,R4,2*%
%TO.N,+3V3*%
X72162500Y-60450000D03*
%TO.P,R4,1*%
%TO.N,Net-(Q2-G)*%
X70337500Y-60450000D03*
%TD*%
D21*
%TO.P,Q2,3,D_3*%
%TO.N,/3V3_SWITCHED*%
X71250000Y-64387500D03*
%TO.P,Q2,2,S_2*%
%TO.N,+3V3*%
X72200000Y-62512500D03*
%TO.P,Q2,1,G_1*%
%TO.N,Net-(Q2-G)*%
X70300000Y-62512500D03*
%TD*%
D22*
%TO.P,U4,1,Vcc_1*%
%TO.N,+3V3*%
X61885000Y-100920000D03*
%TO.P,U4,2,SDA_2*%
%TO.N,/SDA*%
X61885000Y-103460000D03*
%TO.P,U4,3,SCL_3*%
%TO.N,/SCL*%
X61885000Y-105920000D03*
%TO.P,U4,4,INT_4*%
%TO.N,/RTC_INT*%
X61885000Y-108540000D03*
%TO.P,U4,5,GND_5*%
%TO.N,GND*%
X61885000Y-111080000D03*
%TD*%
%TO.P,U5,1,SDO_1*%
%TO.N,unconnected-(U5-SDO-Pad1)*%
X76000000Y-119190000D03*
%TO.P,U5,2,CS_2*%
%TO.N,+3V3*%
X76000000Y-121730000D03*
%TO.P,U5,3,INT1_3*%
%TO.N,/MPU_INT1*%
X76000000Y-124270000D03*
%TO.P,U5,4,INT2_4*%
%TO.N,unconnected-(U5-INT2-Pad4)*%
X76000000Y-126810000D03*
%TO.P,U5,5,SDA_5*%
%TO.N,/SDA*%
X64570000Y-126810000D03*
%TO.P,U5,6,SCL_6*%
%TO.N,/SCL*%
X64570000Y-124270000D03*
%TO.P,U5,7,GND_7*%
%TO.N,GND*%
X64570000Y-121730000D03*
%TO.P,U5,8,Vcc_8*%
%TO.N,+3V3*%
X64570000Y-119190000D03*
%TD*%
D23*
%TO.P,J1,1,Pin_1_1*%
%TO.N,+BATT*%
X71000000Y-48100000D03*
%TO.P,J1,2,Pin_2_2*%
%TO.N,GND*%
X69000000Y-48100000D03*
D24*
%TO.P,J1,MP*%
%TO.N,N/C*%
X73350000Y-53850000D03*
X66650000Y-53850000D03*
%TD*%
D22*
%TO.P,U6,1,MISO_1*%
%TO.N,/MISO*%
X58500000Y-78300000D03*
%TO.P,U6,2,SCK_2*%
%TO.N,/SCK*%
X58500000Y-80840000D03*
%TO.P,U6,3,CS_3*%
%TO.N,/CS*%
X58500000Y-83380000D03*
%TO.P,U6,4,MOSI_4*%
%TO.N,/MOSI*%
X58500000Y-85920000D03*
%TO.P,U6,5,GND_5*%
%TO.N,GND*%
X58500000Y-88460000D03*
%TO.P,U6,6,Vcc_6*%
%TO.N,/3V3_SWITCHED*%
X58500000Y-91000000D03*
%TD*%
%TO.P,U2,1,Vcc_1*%
%TO.N,/3V3_SWITCHED*%
X59500000Y-121190000D03*
%TO.P,U2,2,GND_2*%
%TO.N,GND*%
X59500000Y-123730000D03*
%TO.P,U2,3,SCL_3*%
%TO.N,/SCL*%
X59500000Y-126270000D03*
%TO.P,U2,4,SDA_4*%
%TO.N,/SDA*%
X59500000Y-128810000D03*
%TD*%
%TO.P,U3,1,A_1*%
%TO.N,/WS_AOUT*%
X67460000Y-139500000D03*
%TO.P,U3,2,Vcc_2*%
%TO.N,/3V3_SWITCHED*%
X70000000Y-139500000D03*
%TO.P,U3,3,GND_3*%
%TO.N,GND*%
X72540000Y-139500000D03*
%TD*%
D25*
%TO.N,/3V3_EN*%
X67500000Y-58500000D03*
%TO.N,GND*%
X57500000Y-136250000D03*
X57500000Y-133750000D03*
X57500000Y-135000000D03*
X57500000Y-108750000D03*
X57500000Y-106250000D03*
X57500000Y-107500000D03*
X82500000Y-131250000D03*
X82500000Y-128750000D03*
X82500000Y-130000000D03*
X82500000Y-102500000D03*
X82500000Y-100000000D03*
X82500000Y-101250000D03*
X57500000Y-71250000D03*
X57500000Y-70000000D03*
X57500000Y-72500000D03*
X82500000Y-75000000D03*
X82500000Y-76250000D03*
X82500000Y-73750000D03*
%TO.N,/3V3_SWITCHED*%
X71250000Y-116500000D03*
%TO.N,+3V3*%
X72500000Y-119190000D03*
%TO.N,/RTC_INT*%
X65000000Y-108540000D03*
%TO.N,/SCL*%
X66250000Y-105920000D03*
%TO.N,/SDA*%
X67500000Y-103460000D03*
%TO.N,+3V3*%
X72500000Y-100920000D03*
%TO.N,/3V3_SWITCHED*%
X71250000Y-91000000D03*
%TO.N,/MOSI*%
X68750000Y-85920000D03*
%TO.N,/CS*%
X63750000Y-83380000D03*
%TO.N,/SCK*%
X73750000Y-80840000D03*
%TO.N,/MISO*%
X70000000Y-78300000D03*
%TO.N,/WS_AOUT*%
X77500000Y-70000000D03*
%TO.N,/MPU_INT1*%
X75000000Y-70000000D03*
%TO.N,/SCK*%
X73750000Y-70000000D03*
%TO.N,/CS*%
X63750000Y-70000000D03*
%TO.N,/RTC_INT*%
X65000000Y-70000000D03*
%TO.N,/SCL*%
X66250000Y-70000000D03*
%TO.N,/SDA*%
X67500000Y-70000000D03*
%TO.N,/MOSI*%
X68750000Y-70000000D03*
%TO.N,/MISO*%
X70000000Y-70000000D03*
%TO.N,+3V3*%
X72500000Y-70000000D03*
%TO.N,/BAT_MEAS*%
X81912500Y-52250000D03*
%TO.N,*%
X73350000Y-53000000D03*
X66650000Y-54500000D03*
X66650000Y-53000000D03*
X73350000Y-54500000D03*
%TO.N,/3V3_SWITCHED*%
X71250000Y-70000000D03*
%TD*%
%TO.N,Net-(JP2-B)*%
D26*
X82400000Y-68175000D02*
X82500000Y-68275000D01*
X80050000Y-68175000D02*
X82400000Y-68175000D01*
%TO.N,/WS_AOUT*%
X82225000Y-70000000D02*
X82500000Y-69725000D01*
X80050000Y-70000000D02*
X82225000Y-70000000D01*
%TO.N,/3V3_SWITCHED*%
D27*
X70668202Y-68165225D02*
X71250000Y-68747023D01*
X70668202Y-67334915D02*
X70668202Y-68165225D01*
X71250000Y-66753117D02*
X70668202Y-67334915D01*
X71250000Y-68747023D02*
X71250000Y-70000000D01*
X71250000Y-64387500D02*
X71250000Y-66753117D01*
%TO.N,/SDA*%
D26*
X67500000Y-71500000D02*
X67500000Y-70000000D01*
X68000000Y-72000000D02*
X67500000Y-71500000D01*
X70675000Y-72000000D02*
X68000000Y-72000000D01*
%TO.N,/SCL*%
X66250000Y-72500000D02*
X66250000Y-70000000D01*
X68000000Y-74250000D02*
X66250000Y-72500000D01*
X70675000Y-74250000D02*
X68000000Y-74250000D01*
%TO.N,+3V3*%
D27*
X72500000Y-70000000D02*
X72500000Y-74250000D01*
%TO.N,/WS_AOUT*%
D26*
X80050000Y-70000000D02*
X77500000Y-70000000D01*
%TO.N,Net-(JP2-B)*%
X80050000Y-65880000D02*
X80050000Y-68175000D01*
X77620000Y-65880000D02*
X80050000Y-65880000D01*
%TO.N,/3V3_EN*%
X67500000Y-58500000D02*
X67950000Y-58950000D01*
X67950000Y-58950000D02*
X67950000Y-60687500D01*
%TO.N,/BAT_MEAS*%
X81912500Y-53800000D02*
X81912500Y-52250000D01*
X81912500Y-50640000D02*
X81912500Y-52250000D01*
%TO.N,/3V3_SWITCHED*%
D27*
X61250000Y-116500000D02*
X71250000Y-116500000D01*
X59500000Y-118250000D02*
X61250000Y-116500000D01*
X59500000Y-121190000D02*
X59500000Y-118250000D01*
%TO.N,+3V3*%
X75500000Y-55300000D02*
X77620000Y-53180000D01*
X75500000Y-57112500D02*
X75500000Y-55300000D01*
X72162500Y-60450000D02*
X75500000Y-57112500D01*
X72500000Y-62812500D02*
X72500000Y-70000000D01*
X75040000Y-121730000D02*
X76000000Y-121730000D01*
X72500000Y-119190000D02*
X75040000Y-121730000D01*
X64570000Y-119190000D02*
X72500000Y-119190000D01*
%TO.N,/RTC_INT*%
D26*
X61885000Y-108540000D02*
X65000000Y-108540000D01*
%TO.N,/SCL*%
X61885000Y-105920000D02*
X66250000Y-105920000D01*
%TO.N,/SDA*%
X61885000Y-103460000D02*
X67500000Y-103460000D01*
%TO.N,+3V3*%
D27*
X61885000Y-100920000D02*
X72500000Y-100920000D01*
%TO.N,/3V3_SWITCHED*%
X58500000Y-91000000D02*
X71250000Y-91000000D01*
%TO.N,/MOSI*%
D26*
X58500000Y-85920000D02*
X68750000Y-85920000D01*
%TO.N,/CS*%
X58500000Y-83380000D02*
X63750000Y-83380000D01*
%TO.N,/SCK*%
X58500000Y-80840000D02*
X73750000Y-80840000D01*
%TO.N,/MISO*%
X58500000Y-78300000D02*
X70000000Y-78300000D01*
%TO.N,+3V3*%
D27*
X72200000Y-62512500D02*
X72500000Y-62812500D01*
X72162500Y-62475000D02*
X72200000Y-62512500D01*
X72162500Y-60450000D02*
X72162500Y-62475000D01*
%TO.N,Net-(Q2-G)*%
D26*
X70337500Y-60450000D02*
X70337500Y-62475000D01*
X70337500Y-62475000D02*
X70300000Y-62512500D01*
X67950000Y-62512500D02*
X70300000Y-62512500D01*
%TO.N,+BATT*%
D27*
X71000000Y-48100000D02*
X77620000Y-48100000D01*
%TO.N,GND*%
X80087500Y-50640000D02*
X77620000Y-50640000D01*
%TO.N,/BAT_MEAS*%
D26*
X81912500Y-48100000D02*
X81912500Y-50640000D01*
%TO.N,+BATT*%
D27*
X77620000Y-48100000D02*
X80087500Y-48100000D01*
%TD*%
%TA.AperFunction,Conductor*%
%TO.N,GND*%
G36*
X79329809Y-49120185D02*
G01*
X79350451Y-49136819D01*
X79356344Y-49142712D01*
X79505666Y-49234814D01*
X79559213Y-49252557D01*
X79616657Y-49292330D01*
X79643480Y-49356846D01*
X79631165Y-49425621D01*
X79583622Y-49476821D01*
X79559212Y-49487969D01*
X79505880Y-49505641D01*
X79505875Y-49505643D01*
X79356654Y-49597684D01*
X79232684Y-49721654D01*
X79140643Y-49870875D01*
X79140641Y-49870880D01*
X79085494Y-50037302D01*
X79085493Y-50037309D01*
X79074782Y-50142148D01*
X79048385Y-50206839D01*
X78991204Y-50246990D01*
X78921393Y-50249853D01*
X78861117Y-50214518D01*
X78833493Y-50167861D01*
X78824756Y-50140971D01*
X78731859Y-49958650D01*
X78699474Y-49914077D01*
X78699474Y-49914076D01*
X78037642Y-50575908D01*
X78011378Y-50477886D01*
X77956084Y-50382114D01*
X77877886Y-50303916D01*
X77782114Y-50248622D01*
X77684089Y-50222356D01*
X78345922Y-49560524D01*
X78345921Y-49560523D01*
X78301359Y-49528147D01*
X78301350Y-49528141D01*
X78208369Y-49480765D01*
X78157573Y-49432790D01*
X78140778Y-49364969D01*
X78163315Y-49298835D01*
X78208370Y-49259795D01*
X78212733Y-49257572D01*
X78301610Y-49212287D01*
X78422877Y-49124181D01*
X78488683Y-49100702D01*
X78495762Y-49100500D01*
X79262770Y-49100500D01*
X79329809Y-49120185D01*
G37*
%TD.AperFunction*%
%TA.AperFunction,Conductor*%
G36*
X81003032Y-45500648D02*
G01*
X81336929Y-45517052D01*
X81349037Y-45518245D01*
X81452146Y-45533539D01*
X81676699Y-45566849D01*
X81688617Y-45569219D01*
X82009951Y-45649709D01*
X82021588Y-45653240D01*
X82092806Y-45678722D01*
X82333467Y-45764832D01*
X82344688Y-45769479D01*
X82644163Y-45911120D01*
X82654871Y-45916844D01*
X82938988Y-46087137D01*
X82949103Y-46093895D01*
X83153953Y-46245822D01*
X83215170Y-46291224D01*
X83224576Y-46298944D01*
X83470013Y-46521395D01*
X83478604Y-46529986D01*
X83665755Y-46736475D01*
X83701055Y-46775423D01*
X83708775Y-46784829D01*
X83906102Y-47050893D01*
X83912862Y-47061011D01*
X84067977Y-47319806D01*
X84083148Y-47345116D01*
X84088883Y-47355844D01*
X84204356Y-47599992D01*
X84230514Y-47655297D01*
X84235170Y-47666540D01*
X84346759Y-47978411D01*
X84350292Y-47990055D01*
X84430777Y-48311369D01*
X84433151Y-48323305D01*
X84481754Y-48650962D01*
X84482947Y-48663071D01*
X84499351Y-48996966D01*
X84499500Y-49003051D01*
X84499500Y-145996948D01*
X84499351Y-146003033D01*
X84482947Y-146336928D01*
X84481754Y-146349037D01*
X84433151Y-146676694D01*
X84430777Y-146688630D01*
X84350292Y-147009944D01*
X84346759Y-147021588D01*
X84235170Y-147333459D01*
X84230514Y-147344702D01*
X84088885Y-147644151D01*
X84083148Y-147654883D01*
X83912862Y-147938988D01*
X83906102Y-147949106D01*
X83708775Y-148215170D01*
X83701055Y-148224576D01*
X83478611Y-148470006D01*
X83470006Y-148478611D01*
X83224576Y-148701055D01*
X83215170Y-148708775D01*
X82949106Y-148906102D01*
X82938988Y-148912862D01*
X82654883Y-149083148D01*
X82644151Y-149088885D01*
X82344702Y-149230514D01*
X82333459Y-149235170D01*
X82021588Y-149346759D01*
X82009944Y-149350292D01*
X81688630Y-149430777D01*
X81676694Y-149433151D01*
X81349037Y-149481754D01*
X81336928Y-149482947D01*
X81021989Y-149498419D01*
X81003031Y-149499351D01*
X80996949Y-149499500D01*
X59003051Y-149499500D01*
X58996968Y-149499351D01*
X58976900Y-149498365D01*
X58663071Y-149482947D01*
X58650962Y-149481754D01*
X58323305Y-149433151D01*
X58311369Y-149430777D01*
X57990055Y-149350292D01*
X57978411Y-149346759D01*
X57666540Y-149235170D01*
X57655301Y-149230515D01*
X57355844Y-149088883D01*
X57345121Y-149083150D01*
X57061011Y-148912862D01*
X57050893Y-148906102D01*
X56784829Y-148708775D01*
X56775423Y-148701055D01*
X56736475Y-148665755D01*
X56529986Y-148478604D01*
X56521395Y-148470013D01*
X56298944Y-148224576D01*
X56291224Y-148215170D01*
X56093897Y-147949106D01*
X56087137Y-147938988D01*
X55916844Y-147654871D01*
X55911120Y-147644163D01*
X55769479Y-147344688D01*
X55764829Y-147333459D01*
X55653240Y-147021588D01*
X55649707Y-147009944D01*
X55569219Y-146688617D01*
X55566848Y-146676695D01*
X55553690Y-146587993D01*
X55521743Y-146372619D01*
X56881466Y-146372619D01*
X56881466Y-146439471D01*
X56881466Y-146627381D01*
X56921320Y-146879008D01*
X57000046Y-147121301D01*
X57115705Y-147348297D01*
X57265451Y-147554404D01*
X57445596Y-147734549D01*
X57651703Y-147884295D01*
X57878699Y-147999954D01*
X58120992Y-148078680D01*
X58372619Y-148118534D01*
X58372620Y-148118534D01*
X58627380Y-148118534D01*
X58627381Y-148118534D01*
X58879008Y-148078680D01*
X59121301Y-147999954D01*
X59348297Y-147884295D01*
X59554404Y-147734549D01*
X59734549Y-147554404D01*
X59884295Y-147348297D01*
X59999954Y-147121301D01*
X60078680Y-146879008D01*
X60118534Y-146627381D01*
X60118534Y-146372619D01*
X79881466Y-146372619D01*
X79881466Y-146439471D01*
X79881466Y-146627381D01*
X79921320Y-146879008D01*
X80000046Y-147121301D01*
X80115705Y-147348297D01*
X80265451Y-147554404D01*
X80445596Y-147734549D01*
X80651703Y-147884295D01*
X80878699Y-147999954D01*
X81120992Y-148078680D01*
X81372619Y-148118534D01*
X81372620Y-148118534D01*
X81627380Y-148118534D01*
X81627381Y-148118534D01*
X81879008Y-148078680D01*
X82121301Y-147999954D01*
X82348297Y-147884295D01*
X82554404Y-147734549D01*
X82734549Y-147554404D01*
X82884295Y-147348297D01*
X82999954Y-147121301D01*
X83078680Y-146879008D01*
X83118534Y-146627381D01*
X83118534Y-146372619D01*
X83078680Y-146120992D01*
X82999954Y-145878699D01*
X82884295Y-145651703D01*
X82734549Y-145445596D01*
X82554404Y-145265451D01*
X82348297Y-145115705D01*
X82121301Y-145000046D01*
X81879008Y-144921320D01*
X81627381Y-144881466D01*
X81372619Y-144881466D01*
X81246805Y-144901393D01*
X81120991Y-144921320D01*
X81008574Y-144957846D01*
X80878699Y-145000046D01*
X80878696Y-145000047D01*
X80878694Y-145000048D01*
X80651701Y-145115706D01*
X80651698Y-145115708D01*
X80541149Y-145196027D01*
X80445596Y-145265451D01*
X80445594Y-145265453D01*
X80445593Y-145265453D01*
X80265453Y-145445593D01*
X80265453Y-145445594D01*
X80265451Y-145445596D01*
X80196027Y-145541149D01*
X80115708Y-145651698D01*
X80115706Y-145651701D01*
X80000048Y-145878694D01*
X80000047Y-145878696D01*
X80000046Y-145878699D01*
X79921320Y-146120992D01*
X79881466Y-146372619D01*
X60118534Y-146372619D01*
X60078680Y-146120992D01*
X59999954Y-145878699D01*
X59884295Y-145651703D01*
X59734549Y-145445596D01*
X59554404Y-145265451D01*
X59348297Y-145115705D01*
X59121301Y-145000046D01*
X58879008Y-144921320D01*
X58627381Y-144881466D01*
X58372619Y-144881466D01*
X58246805Y-144901393D01*
X58120991Y-144921320D01*
X58008574Y-144957846D01*
X57878699Y-145000046D01*
X57878696Y-145000047D01*
X57878694Y-145000048D01*
X57651701Y-145115706D01*
X57651698Y-145115708D01*
X57541149Y-145196027D01*
X57445596Y-145265451D01*
X57445594Y-145265453D01*
X57445593Y-145265453D01*
X57265453Y-145445593D01*
X57265453Y-145445594D01*
X57265451Y-145445596D01*
X57196027Y-145541149D01*
X57115708Y-145651698D01*
X57115706Y-145651701D01*
X57000048Y-145878694D01*
X57000047Y-145878696D01*
X57000046Y-145878699D01*
X56921320Y-146120992D01*
X56881466Y-146372619D01*
X55521743Y-146372619D01*
X55518245Y-146349037D01*
X55517052Y-146336927D01*
X55500649Y-146003032D01*
X55500500Y-145996948D01*
X55500500Y-139393713D01*
X66109500Y-139393713D01*
X66109500Y-139606286D01*
X66142753Y-139816239D01*
X66208444Y-140018414D01*
X66304951Y-140207820D01*
X66429890Y-140379786D01*
X66580213Y-140530109D01*
X66752179Y-140655048D01*
X66752181Y-140655049D01*
X66752184Y-140655051D01*
X66941588Y-140751557D01*
X67143757Y-140817246D01*
X67353713Y-140850500D01*
X67353714Y-140850500D01*
X67566286Y-140850500D01*
X67566287Y-140850500D01*
X67776243Y-140817246D01*
X67978412Y-140751557D01*
X68167816Y-140655051D01*
X68189789Y-140639086D01*
X68339786Y-140530109D01*
X68339788Y-140530106D01*
X68339792Y-140530104D01*
X68490104Y-140379792D01*
X68490106Y-140379788D01*
X68490109Y-140379786D01*
X68615048Y-140207820D01*
X68615047Y-140207820D01*
X68615051Y-140207816D01*
X68619514Y-140199054D01*
X68667488Y-140148259D01*
X68735308Y-140131463D01*
X68801444Y-140153999D01*
X68840486Y-140199056D01*
X68844951Y-140207820D01*
X68969890Y-140379786D01*
X69120213Y-140530109D01*
X69292179Y-140655048D01*
X69292181Y-140655049D01*
X69292184Y-140655051D01*
X69481588Y-140751557D01*
X69683757Y-140817246D01*
X69893713Y-140850500D01*
X69893714Y-140850500D01*
X70106286Y-140850500D01*
X70106287Y-140850500D01*
X70316243Y-140817246D01*
X70518412Y-140751557D01*
X70707816Y-140655051D01*
X70729789Y-140639086D01*
X70879786Y-140530109D01*
X70879788Y-140530106D01*
X70879792Y-140530104D01*
X71030104Y-140379792D01*
X71030106Y-140379788D01*
X71030109Y-140379786D01*
X71155048Y-140207820D01*
X71155051Y-140207816D01*
X71159793Y-140198508D01*
X71207763Y-140147711D01*
X71275583Y-140130911D01*
X71341719Y-140153445D01*
X71380763Y-140198500D01*
X71385377Y-140207555D01*
X71510272Y-140379459D01*
X71510276Y-140379464D01*
X71660535Y-140529723D01*
X71660540Y-140529727D01*
X71832442Y-140654620D01*
X72021782Y-140751095D01*
X72223871Y-140816757D01*
X72290000Y-140827231D01*
X72290000Y-139933012D01*
X72347007Y-139965925D01*
X72474174Y-140000000D01*
X72605826Y-140000000D01*
X72732993Y-139965925D01*
X72790000Y-139933012D01*
X72790000Y-140827230D01*
X72856126Y-140816757D01*
X72856129Y-140816757D01*
X73058217Y-140751095D01*
X73247557Y-140654620D01*
X73419459Y-140529727D01*
X73419464Y-140529723D01*
X73569723Y-140379464D01*
X73569727Y-140379459D01*
X73694620Y-140207557D01*
X73791095Y-140018217D01*
X73856757Y-139816129D01*
X73856757Y-139816126D01*
X73867231Y-139750000D01*
X72973012Y-139750000D01*
X73005925Y-139692993D01*
X73040000Y-139565826D01*
X73040000Y-139434174D01*
X73005925Y-139307007D01*
X72973012Y-139250000D01*
X73867231Y-139250000D01*
X73856757Y-139183873D01*
X73856757Y-139183870D01*
X73791095Y-138981782D01*
X73694620Y-138792442D01*
X73569727Y-138620540D01*
X73569723Y-138620535D01*
X73419464Y-138470276D01*
X73419459Y-138470272D01*
X73247557Y-138345379D01*
X73058215Y-138248903D01*
X72856124Y-138183241D01*
X72790000Y-138172768D01*
X72790000Y-139066988D01*
X72732993Y-139034075D01*
X72605826Y-139000000D01*
X72474174Y-139000000D01*
X72347007Y-139034075D01*
X72290000Y-139066988D01*
X72290000Y-138172768D01*
X72289999Y-138172768D01*
X72223875Y-138183241D01*
X72021784Y-138248903D01*
X71832442Y-138345379D01*
X71660540Y-138470272D01*
X71660535Y-138470276D01*
X71510276Y-138620535D01*
X71510272Y-138620540D01*
X71385378Y-138792443D01*
X71380762Y-138801502D01*
X71332784Y-138852295D01*
X71264963Y-138869087D01*
X71198829Y-138846546D01*
X71159794Y-138801493D01*
X71155051Y-138792184D01*
X71155049Y-138792181D01*
X71155048Y-138792179D01*
X71030109Y-138620213D01*
X70879786Y-138469890D01*
X70707820Y-138344951D01*
X70518414Y-138248444D01*
X70518413Y-138248443D01*
X70518412Y-138248443D01*
X70316243Y-138182754D01*
X70316241Y-138182753D01*
X70316240Y-138182753D01*
X70154957Y-138157208D01*
X70106287Y-138149500D01*
X69893713Y-138149500D01*
X69845042Y-138157208D01*
X69683760Y-138182753D01*
X69481585Y-138248444D01*
X69292179Y-138344951D01*
X69120213Y-138469890D01*
X68969890Y-138620213D01*
X68844949Y-138792182D01*
X68840484Y-138800946D01*
X68792509Y-138851742D01*
X68724688Y-138868536D01*
X68658553Y-138845998D01*
X68619516Y-138800946D01*
X68615050Y-138792182D01*
X68490109Y-138620213D01*
X68339786Y-138469890D01*
X68167820Y-138344951D01*
X67978414Y-138248444D01*
X67978413Y-138248443D01*
X67978412Y-138248443D01*
X67776243Y-138182754D01*
X67776241Y-138182753D01*
X67776240Y-138182753D01*
X67614957Y-138157208D01*
X67566287Y-138149500D01*
X67353713Y-138149500D01*
X67305042Y-138157208D01*
X67143760Y-138182753D01*
X66941585Y-138248444D01*
X66752179Y-138344951D01*
X66580213Y-138469890D01*
X66429890Y-138620213D01*
X66304951Y-138792179D01*
X66208444Y-138981585D01*
X66142753Y-139183760D01*
X66109500Y-139393713D01*
X55500500Y-139393713D01*
X55500500Y-121083713D01*
X58149500Y-121083713D01*
X58149500Y-121296286D01*
X58168105Y-121413757D01*
X58182754Y-121506243D01*
X58220922Y-121623713D01*
X58248444Y-121708414D01*
X58344951Y-121897820D01*
X58469890Y-122069786D01*
X58620213Y-122220109D01*
X58792179Y-122345048D01*
X58792181Y-122345049D01*
X58792184Y-122345051D01*
X58801493Y-122349794D01*
X58852290Y-122397766D01*
X58869087Y-122465587D01*
X58846552Y-122531722D01*
X58801502Y-122570762D01*
X58792443Y-122575378D01*
X58620540Y-122700272D01*
X58620535Y-122700276D01*
X58470276Y-122850535D01*
X58470272Y-122850540D01*
X58345379Y-123022442D01*
X58248904Y-123211782D01*
X58183242Y-123413870D01*
X58183242Y-123413873D01*
X58172769Y-123480000D01*
X59066988Y-123480000D01*
X59034075Y-123537007D01*
X59000000Y-123664174D01*
X59000000Y-123795826D01*
X59034075Y-123922993D01*
X59066988Y-123980000D01*
X58172769Y-123980000D01*
X58183242Y-124046126D01*
X58183242Y-124046129D01*
X58248904Y-124248217D01*
X58345379Y-124437557D01*
X58470272Y-124609459D01*
X58470276Y-124609464D01*
X58620535Y-124759723D01*
X58620540Y-124759727D01*
X58792444Y-124884622D01*
X58801495Y-124889234D01*
X58852292Y-124937208D01*
X58869087Y-125005029D01*
X58846550Y-125071164D01*
X58801499Y-125110202D01*
X58792182Y-125114949D01*
X58620213Y-125239890D01*
X58469890Y-125390213D01*
X58344951Y-125562179D01*
X58248444Y-125751585D01*
X58182753Y-125953760D01*
X58149500Y-126163713D01*
X58149500Y-126376286D01*
X58168105Y-126493757D01*
X58182754Y-126586243D01*
X58220922Y-126703713D01*
X58248444Y-126788414D01*
X58344951Y-126977820D01*
X58469890Y-127149786D01*
X58620213Y-127300109D01*
X58792182Y-127425050D01*
X58800946Y-127429516D01*
X58851742Y-127477491D01*
X58868536Y-127545312D01*
X58845998Y-127611447D01*
X58800946Y-127650484D01*
X58792182Y-127654949D01*
X58620213Y-127779890D01*
X58469890Y-127930213D01*
X58344951Y-128102179D01*
X58248444Y-128291585D01*
X58182753Y-128493760D01*
X58149500Y-128703713D01*
X58149500Y-128916286D01*
X58182753Y-129126239D01*
X58248444Y-129328414D01*
X58344951Y-129517820D01*
X58469890Y-129689786D01*
X58620213Y-129840109D01*
X58792179Y-129965048D01*
X58792181Y-129965049D01*
X58792184Y-129965051D01*
X58981588Y-130061557D01*
X59183757Y-130127246D01*
X59393713Y-130160500D01*
X59393714Y-130160500D01*
X59606286Y-130160500D01*
X59606287Y-130160500D01*
X59816243Y-130127246D01*
X60018412Y-130061557D01*
X60207816Y-129965051D01*
X60229789Y-129949086D01*
X60379786Y-129840109D01*
X60379788Y-129840106D01*
X60379792Y-129840104D01*
X60530104Y-129689792D01*
X60530106Y-129689788D01*
X60530109Y-129689786D01*
X60655048Y-129517820D01*
X60655047Y-129517820D01*
X60655051Y-129517816D01*
X60751557Y-129328412D01*
X60817246Y-129126243D01*
X60850500Y-128916287D01*
X60850500Y-128703713D01*
X60817246Y-128493757D01*
X60751557Y-128291588D01*
X60655051Y-128102184D01*
X60655049Y-128102181D01*
X60655048Y-128102179D01*
X60530109Y-127930213D01*
X60379786Y-127779890D01*
X60207820Y-127654951D01*
X60207115Y-127654591D01*
X60199054Y-127650485D01*
X60148259Y-127602512D01*
X60131463Y-127534692D01*
X60153999Y-127468556D01*
X60199054Y-127429515D01*
X60207816Y-127425051D01*
X60229789Y-127409086D01*
X60379786Y-127300109D01*
X60379788Y-127300106D01*
X60379792Y-127300104D01*
X60530104Y-127149792D01*
X60530106Y-127149788D01*
X60530109Y-127149786D01*
X60655048Y-126977820D01*
X60655047Y-126977820D01*
X60655051Y-126977816D01*
X60751557Y-126788412D01*
X60817246Y-126586243D01*
X60850500Y-126376287D01*
X60850500Y-126163713D01*
X60817246Y-125953757D01*
X60751557Y-125751588D01*
X60655051Y-125562184D01*
X60655049Y-125562181D01*
X60655048Y-125562179D01*
X60530109Y-125390213D01*
X60379786Y-125239890D01*
X60207817Y-125114949D01*
X60198504Y-125110204D01*
X60147707Y-125062230D01*
X60130912Y-124994409D01*
X60153449Y-124928274D01*
X60198507Y-124889232D01*
X60207558Y-124884620D01*
X60379459Y-124759727D01*
X60379464Y-124759723D01*
X60529723Y-124609464D01*
X60529727Y-124609459D01*
X60654620Y-124437557D01*
X60751095Y-124248217D01*
X60792586Y-124120523D01*
X60792586Y-124120522D01*
X60816756Y-124046133D01*
X60816757Y-124046126D01*
X60827231Y-123980000D01*
X59933012Y-123980000D01*
X59965925Y-123922993D01*
X60000000Y-123795826D01*
X60000000Y-123664174D01*
X59965925Y-123537007D01*
X59933012Y-123480000D01*
X60827231Y-123480000D01*
X60816757Y-123413873D01*
X60816757Y-123413870D01*
X60751095Y-123211782D01*
X60654620Y-123022442D01*
X60529727Y-122850540D01*
X60529723Y-122850535D01*
X60379464Y-122700276D01*
X60379459Y-122700272D01*
X60207555Y-122575377D01*
X60198500Y-122570763D01*
X60147706Y-122522788D01*
X60130912Y-122454966D01*
X60153451Y-122388832D01*
X60198508Y-122349793D01*
X60207816Y-122345051D01*
X60287007Y-122287515D01*
X60379786Y-122220109D01*
X60379788Y-122220106D01*
X60379792Y-122220104D01*
X60530104Y-122069792D01*
X60530106Y-122069788D01*
X60530109Y-122069786D01*
X60655048Y-121897820D01*
X60655047Y-121897820D01*
X60655051Y-121897816D01*
X60751557Y-121708412D01*
X60817246Y-121506243D01*
X60850500Y-121296287D01*
X60850500Y-121083713D01*
X60817246Y-120873757D01*
X60751557Y-120671588D01*
X60655051Y-120482184D01*
X60655049Y-120482181D01*
X60655048Y-120482179D01*
X60527241Y-120306266D01*
X60528108Y-120305635D01*
X60501641Y-120246581D01*
X60500500Y-120229800D01*
X60500500Y-119083713D01*
X63219500Y-119083713D01*
X63219500Y-119296286D01*
X63252753Y-119506239D01*
X63318444Y-119708414D01*
X63414951Y-119897820D01*
X63539890Y-120069786D01*
X63690213Y-120220109D01*
X63862179Y-120345048D01*
X63862181Y-120345049D01*
X63862184Y-120345051D01*
X63871493Y-120349794D01*
X63922290Y-120397766D01*
X63939087Y-120465587D01*
X63916552Y-120531722D01*
X63871502Y-120570762D01*
X63862443Y-120575378D01*
X63690540Y-120700272D01*
X63690535Y-120700276D01*
X63540276Y-120850535D01*
X63540272Y-120850540D01*
X63415379Y-121022442D01*
X63318904Y-121211782D01*
X63253242Y-121413870D01*
X63253242Y-121413873D01*
X63242769Y-121480000D01*
X64136988Y-121480000D01*
X64104075Y-121537007D01*
X64070000Y-121664174D01*
X64070000Y-121795826D01*
X64104075Y-121922993D01*
X64136988Y-121980000D01*
X63242769Y-121980000D01*
X63253242Y-122046126D01*
X63253242Y-122046129D01*
X63318904Y-122248217D01*
X63415379Y-122437557D01*
X63540272Y-122609459D01*
X63540276Y-122609464D01*
X63690535Y-122759723D01*
X63690540Y-122759727D01*
X63862444Y-122884622D01*
X63871495Y-122889234D01*
X63922292Y-122937208D01*
X63939087Y-123005029D01*
X63916550Y-123071164D01*
X63871499Y-123110202D01*
X63862182Y-123114949D01*
X63690213Y-123239890D01*
X63539890Y-123390213D01*
X63414951Y-123562179D01*
X63318444Y-123751585D01*
X63252753Y-123953760D01*
X63238123Y-124046133D01*
X63219500Y-124163713D01*
X63219500Y-124376287D01*
X63252754Y-124586243D01*
X63309121Y-124759723D01*
X63318444Y-124788414D01*
X63414951Y-124977820D01*
X63539890Y-125149786D01*
X63690213Y-125300109D01*
X63862182Y-125425050D01*
X63870946Y-125429516D01*
X63921742Y-125477491D01*
X63938536Y-125545312D01*
X63915998Y-125611447D01*
X63870946Y-125650484D01*
X63862182Y-125654949D01*
X63690213Y-125779890D01*
X63539890Y-125930213D01*
X63414951Y-126102179D01*
X63318444Y-126291585D01*
X63318443Y-126291587D01*
X63318443Y-126291588D01*
X63285598Y-126392672D01*
X63252753Y-126493760D01*
X63219500Y-126703713D01*
X63219500Y-126916286D01*
X63252753Y-127126239D01*
X63318444Y-127328414D01*
X63414951Y-127517820D01*
X63539890Y-127689786D01*
X63690213Y-127840109D01*
X63862179Y-127965048D01*
X63862181Y-127965049D01*
X63862184Y-127965051D01*
X64051588Y-128061557D01*
X64253757Y-128127246D01*
X64463713Y-128160500D01*
X64463714Y-128160500D01*
X64676286Y-128160500D01*
X64676287Y-128160500D01*
X64886243Y-128127246D01*
X65088412Y-128061557D01*
X65277816Y-127965051D01*
X65325774Y-127930208D01*
X65449786Y-127840109D01*
X65449788Y-127840106D01*
X65449792Y-127840104D01*
X65600104Y-127689792D01*
X65600106Y-127689788D01*
X65600109Y-127689786D01*
X65725048Y-127517820D01*
X65725047Y-127517820D01*
X65725051Y-127517816D01*
X65821557Y-127328412D01*
X65887246Y-127126243D01*
X65920500Y-126916287D01*
X65920500Y-126703713D01*
X65887246Y-126493757D01*
X65821557Y-126291588D01*
X65725051Y-126102184D01*
X65725049Y-126102181D01*
X65725048Y-126102179D01*
X65600109Y-125930213D01*
X65449786Y-125779890D01*
X65277820Y-125654951D01*
X65277115Y-125654591D01*
X65269054Y-125650485D01*
X65218259Y-125602512D01*
X65201463Y-125534692D01*
X65223999Y-125468556D01*
X65269054Y-125429515D01*
X65277816Y-125425051D01*
X65325774Y-125390208D01*
X65449786Y-125300109D01*
X65449788Y-125300106D01*
X65449792Y-125300104D01*
X65600104Y-125149792D01*
X65600106Y-125149788D01*
X65600109Y-125149786D01*
X65725048Y-124977820D01*
X65725047Y-124977820D01*
X65725051Y-124977816D01*
X65821557Y-124788412D01*
X65887246Y-124586243D01*
X65920500Y-124376287D01*
X65920500Y-124163713D01*
X65887246Y-123953757D01*
X65821557Y-123751588D01*
X65725051Y-123562184D01*
X65725049Y-123562181D01*
X65725048Y-123562179D01*
X65600109Y-123390213D01*
X65449786Y-123239890D01*
X65277817Y-123114949D01*
X65268504Y-123110204D01*
X65217707Y-123062230D01*
X65200912Y-122994409D01*
X65223449Y-122928274D01*
X65268507Y-122889232D01*
X65277558Y-122884620D01*
X65449459Y-122759727D01*
X65449464Y-122759723D01*
X65599723Y-122609464D01*
X65599727Y-122609459D01*
X65724620Y-122437557D01*
X65821095Y-122248217D01*
X65886757Y-122046129D01*
X65886757Y-122046126D01*
X65897231Y-121980000D01*
X65003012Y-121980000D01*
X65035925Y-121922993D01*
X65070000Y-121795826D01*
X65070000Y-121664174D01*
X65035925Y-121537007D01*
X65003012Y-121480000D01*
X65897231Y-121480000D01*
X65886757Y-121413873D01*
X65886757Y-121413870D01*
X65821095Y-121211782D01*
X65724620Y-121022442D01*
X65599727Y-120850540D01*
X65599723Y-120850535D01*
X65449464Y-120700276D01*
X65449459Y-120700272D01*
X65277555Y-120575377D01*
X65268500Y-120570763D01*
X65217706Y-120522788D01*
X65200912Y-120454966D01*
X65223451Y-120388832D01*
X65268508Y-120349793D01*
X65277816Y-120345051D01*
X65344175Y-120296839D01*
X65453734Y-120217241D01*
X65454364Y-120218108D01*
X65513419Y-120191641D01*
X65530200Y-120190500D01*
X72034218Y-120190500D01*
X72101257Y-120210185D01*
X72121898Y-120226818D01*
X74262860Y-122367781D01*
X74262861Y-122367782D01*
X74332636Y-122437557D01*
X74402219Y-122507140D01*
X74497438Y-122570763D01*
X74566086Y-122616632D01*
X74672745Y-122660811D01*
X74748164Y-122692051D01*
X74941454Y-122730499D01*
X74941457Y-122730500D01*
X74941459Y-122730500D01*
X75039800Y-122730500D01*
X75106839Y-122750185D01*
X75119365Y-122759493D01*
X75292182Y-122885050D01*
X75300946Y-122889516D01*
X75351742Y-122937491D01*
X75368536Y-123005312D01*
X75345998Y-123071447D01*
X75300946Y-123110484D01*
X75292182Y-123114949D01*
X75120213Y-123239890D01*
X74969890Y-123390213D01*
X74844951Y-123562179D01*
X74748444Y-123751585D01*
X74682753Y-123953760D01*
X74668123Y-124046133D01*
X74649500Y-124163713D01*
X74649500Y-124376287D01*
X74682754Y-124586243D01*
X74739121Y-124759723D01*
X74748444Y-124788414D01*
X74844951Y-124977820D01*
X74969890Y-125149786D01*
X75120213Y-125300109D01*
X75292182Y-125425050D01*
X75300946Y-125429516D01*
X75351742Y-125477491D01*
X75368536Y-125545312D01*
X75345998Y-125611447D01*
X75300946Y-125650484D01*
X75292182Y-125654949D01*
X75120213Y-125779890D01*
X74969890Y-125930213D01*
X74844951Y-126102179D01*
X74748444Y-126291585D01*
X74748443Y-126291587D01*
X74748443Y-126291588D01*
X74715598Y-126392672D01*
X74682753Y-126493760D01*
X74649500Y-126703713D01*
X74649500Y-126916286D01*
X74682753Y-127126239D01*
X74748444Y-127328414D01*
X74844951Y-127517820D01*
X74969890Y-127689786D01*
X75120213Y-127840109D01*
X75292179Y-127965048D01*
X75292181Y-127965049D01*
X75292184Y-127965051D01*
X75481588Y-128061557D01*
X75683757Y-128127246D01*
X75893713Y-128160500D01*
X75893714Y-128160500D01*
X76106286Y-128160500D01*
X76106287Y-128160500D01*
X76316243Y-128127246D01*
X76518412Y-128061557D01*
X76707816Y-127965051D01*
X76755774Y-127930208D01*
X76879786Y-127840109D01*
X76879788Y-127840106D01*
X76879792Y-127840104D01*
X77030104Y-127689792D01*
X77030106Y-127689788D01*
X77030109Y-127689786D01*
X77155048Y-127517820D01*
X77155047Y-127517820D01*
X77155051Y-127517816D01*
X77251557Y-127328412D01*
X77317246Y-127126243D01*
X77350500Y-126916287D01*
X77350500Y-126703713D01*
X77317246Y-126493757D01*
X77251557Y-126291588D01*
X77155051Y-126102184D01*
X77155049Y-126102181D01*
X77155048Y-126102179D01*
X77030109Y-125930213D01*
X76879786Y-125779890D01*
X76707820Y-125654951D01*
X76707115Y-125654591D01*
X76699054Y-125650485D01*
X76648259Y-125602512D01*
X76631463Y-125534692D01*
X76653999Y-125468556D01*
X76699054Y-125429515D01*
X76707816Y-125425051D01*
X76755774Y-125390208D01*
X76879786Y-125300109D01*
X76879788Y-125300106D01*
X76879792Y-125300104D01*
X77030104Y-125149792D01*
X77030106Y-125149788D01*
X77030109Y-125149786D01*
X77155048Y-124977820D01*
X77155047Y-124977820D01*
X77155051Y-124977816D01*
X77251557Y-124788412D01*
X77317246Y-124586243D01*
X77350500Y-124376287D01*
X77350500Y-124163713D01*
X77317246Y-123953757D01*
X77251557Y-123751588D01*
X77155051Y-123562184D01*
X77155049Y-123562181D01*
X77155048Y-123562179D01*
X77030109Y-123390213D01*
X76879786Y-123239890D01*
X76707820Y-123114951D01*
X76707115Y-123114591D01*
X76699054Y-123110485D01*
X76648259Y-123062512D01*
X76631463Y-122994692D01*
X76653999Y-122928556D01*
X76699054Y-122889515D01*
X76707816Y-122885051D01*
X76755324Y-122850535D01*
X76879786Y-122760109D01*
X76879788Y-122760106D01*
X76879792Y-122760104D01*
X77030104Y-122609792D01*
X77030106Y-122609788D01*
X77030109Y-122609786D01*
X77155048Y-122437820D01*
X77155047Y-122437820D01*
X77155051Y-122437816D01*
X77251557Y-122248412D01*
X77317246Y-122046243D01*
X77350500Y-121836287D01*
X77350500Y-121623713D01*
X77317246Y-121413757D01*
X77251557Y-121211588D01*
X77155051Y-121022184D01*
X77155049Y-121022181D01*
X77155048Y-121022179D01*
X77030109Y-120850213D01*
X76879786Y-120699890D01*
X76707820Y-120574951D01*
X76699600Y-120570763D01*
X76699054Y-120570485D01*
X76648259Y-120522512D01*
X76631463Y-120454692D01*
X76653999Y-120388556D01*
X76699054Y-120349515D01*
X76707816Y-120345051D01*
X76756934Y-120309365D01*
X76879786Y-120220109D01*
X76879788Y-120220106D01*
X76879792Y-120220104D01*
X77030104Y-120069792D01*
X77030106Y-120069788D01*
X77030109Y-120069786D01*
X77155048Y-119897820D01*
X77155047Y-119897820D01*
X77155051Y-119897816D01*
X77251557Y-119708412D01*
X77317246Y-119506243D01*
X77350500Y-119296287D01*
X77350500Y-119083713D01*
X77317246Y-118873757D01*
X77251557Y-118671588D01*
X77155051Y-118482184D01*
X77155049Y-118482181D01*
X77155048Y-118482179D01*
X77030109Y-118310213D01*
X76879786Y-118159890D01*
X76707820Y-118034951D01*
X76518414Y-117938444D01*
X76518413Y-117938443D01*
X76518412Y-117938443D01*
X76316243Y-117872754D01*
X76316241Y-117872753D01*
X76316240Y-117872753D01*
X76154957Y-117847208D01*
X76106287Y-117839500D01*
X75893713Y-117839500D01*
X75854202Y-117845757D01*
X75683759Y-117872753D01*
X75683760Y-117872753D01*
X75481585Y-117938444D01*
X75292179Y-118034951D01*
X75120213Y-118159890D01*
X74969890Y-118310213D01*
X74844951Y-118482179D01*
X74748444Y-118671585D01*
X74682753Y-118873760D01*
X74649500Y-119083713D01*
X74649500Y-119296286D01*
X74682753Y-119506240D01*
X74740501Y-119683969D01*
X74742496Y-119753810D01*
X74706416Y-119813643D01*
X74643715Y-119844471D01*
X74574300Y-119836506D01*
X74534889Y-119809968D01*
X73284209Y-118559289D01*
X73284206Y-118559285D01*
X73284206Y-118559286D01*
X73277139Y-118552219D01*
X73277139Y-118552218D01*
X73137782Y-118412861D01*
X73137781Y-118412860D01*
X73137780Y-118412859D01*
X72973920Y-118303371D01*
X72973911Y-118303366D01*
X72901315Y-118273296D01*
X72845165Y-118250038D01*
X72791836Y-118227949D01*
X72791832Y-118227948D01*
X72791828Y-118227946D01*
X72695188Y-118208724D01*
X72598544Y-118189500D01*
X72598541Y-118189500D01*
X65530200Y-118189500D01*
X65463161Y-118169815D01*
X65450634Y-118160506D01*
X65277820Y-118034951D01*
X65088414Y-117938444D01*
X65088413Y-117938443D01*
X65088412Y-117938443D01*
X64886243Y-117872754D01*
X64886241Y-117872753D01*
X64886240Y-117872753D01*
X64724957Y-117847208D01*
X64676287Y-117839500D01*
X64463713Y-117839500D01*
X64424202Y-117845757D01*
X64253759Y-117872753D01*
X64253760Y-117872753D01*
X64051585Y-117938444D01*
X63862179Y-118034951D01*
X63690213Y-118159890D01*
X63539890Y-118310213D01*
X63414951Y-118482179D01*
X63318444Y-118671585D01*
X63252753Y-118873760D01*
X63219500Y-119083713D01*
X60500500Y-119083713D01*
X60500500Y-118715782D01*
X60520185Y-118648743D01*
X60536819Y-118628101D01*
X61628102Y-117536819D01*
X61689425Y-117503334D01*
X61715783Y-117500500D01*
X71348543Y-117500500D01*
X71487500Y-117472859D01*
X71541835Y-117462051D01*
X71723914Y-117386632D01*
X71887782Y-117277139D01*
X72027139Y-117137782D01*
X72136632Y-116973914D01*
X72212051Y-116791835D01*
X72250500Y-116598541D01*
X72250500Y-116401459D01*
X72250500Y-116401456D01*
X72212052Y-116208170D01*
X72212051Y-116208169D01*
X72212051Y-116208165D01*
X72212049Y-116208160D01*
X72136635Y-116026092D01*
X72136628Y-116026079D01*
X72027139Y-115862218D01*
X72027136Y-115862214D01*
X71887785Y-115722863D01*
X71887781Y-115722860D01*
X71723920Y-115613371D01*
X71723907Y-115613364D01*
X71541839Y-115537950D01*
X71541829Y-115537947D01*
X71348543Y-115499500D01*
X71348541Y-115499500D01*
X61151459Y-115499500D01*
X61151455Y-115499500D01*
X61054812Y-115518724D01*
X60958167Y-115537947D01*
X60958161Y-115537949D01*
X60904834Y-115560037D01*
X60904834Y-115560038D01*
X60861918Y-115577814D01*
X60776084Y-115613368D01*
X60776083Y-115613368D01*
X60653045Y-115695579D01*
X60653046Y-115695580D01*
X60612218Y-115722859D01*
X60612215Y-115722862D01*
X59197298Y-117137781D01*
X58862220Y-117472859D01*
X58862218Y-117472861D01*
X58798260Y-117536819D01*
X58722859Y-117612219D01*
X58613371Y-117776079D01*
X58613364Y-117776092D01*
X58575724Y-117866964D01*
X58575720Y-117866975D01*
X58573327Y-117872754D01*
X58537949Y-117958164D01*
X58518724Y-118054812D01*
X58517569Y-118060616D01*
X58517569Y-118060618D01*
X58499500Y-118151455D01*
X58499500Y-120229800D01*
X58479815Y-120296839D01*
X58470506Y-120309365D01*
X58344951Y-120482179D01*
X58248444Y-120671585D01*
X58182753Y-120873760D01*
X58149500Y-121083713D01*
X55500500Y-121083713D01*
X55500500Y-100813713D01*
X60534500Y-100813713D01*
X60534500Y-101026286D01*
X60563888Y-101211839D01*
X60567754Y-101236243D01*
X60618982Y-101393907D01*
X60633444Y-101438414D01*
X60729951Y-101627820D01*
X60854890Y-101799786D01*
X61005213Y-101950109D01*
X61177182Y-102075050D01*
X61185946Y-102079516D01*
X61236742Y-102127491D01*
X61253536Y-102195312D01*
X61230998Y-102261447D01*
X61185946Y-102300484D01*
X61177182Y-102304949D01*
X61005213Y-102429890D01*
X60854890Y-102580213D01*
X60729951Y-102752179D01*
X60633444Y-102941585D01*
X60567753Y-103143760D01*
X60534500Y-103353713D01*
X60534500Y-103566286D01*
X60563888Y-103751839D01*
X60567754Y-103776243D01*
X60618982Y-103933907D01*
X60633444Y-103978414D01*
X60729951Y-104167820D01*
X60854890Y-104339786D01*
X61005209Y-104490105D01*
X61005214Y-104490109D01*
X61142265Y-104589682D01*
X61184931Y-104645011D01*
X61190910Y-104714625D01*
X61158305Y-104776420D01*
X61142265Y-104790318D01*
X61005214Y-104889890D01*
X61005209Y-104889894D01*
X60854890Y-105040213D01*
X60729951Y-105212179D01*
X60633444Y-105401585D01*
X60567753Y-105603760D01*
X60534500Y-105813713D01*
X60534500Y-106026286D01*
X60563888Y-106211839D01*
X60567754Y-106236243D01*
X60618982Y-106393907D01*
X60633444Y-106438414D01*
X60729951Y-106627820D01*
X60854890Y-106799786D01*
X61005213Y-106950109D01*
X61166134Y-107067023D01*
X61177184Y-107075051D01*
X61241928Y-107108040D01*
X61264449Y-107119515D01*
X61315245Y-107167490D01*
X61332040Y-107235311D01*
X61309502Y-107301446D01*
X61264449Y-107340485D01*
X61177180Y-107384951D01*
X61005213Y-107509890D01*
X60854890Y-107660213D01*
X60729951Y-107832179D01*
X60633444Y-108021585D01*
X60567753Y-108223760D01*
X60534500Y-108433713D01*
X60534500Y-108646286D01*
X60563888Y-108831839D01*
X60567754Y-108856243D01*
X60618982Y-109013907D01*
X60633444Y-109058414D01*
X60729951Y-109247820D01*
X60854890Y-109419786D01*
X61005213Y-109570109D01*
X61177179Y-109695048D01*
X61177181Y-109695049D01*
X61177184Y-109695051D01*
X61186493Y-109699794D01*
X61237290Y-109747766D01*
X61254087Y-109815587D01*
X61231552Y-109881722D01*
X61186502Y-109920762D01*
X61177443Y-109925378D01*
X61005540Y-110050272D01*
X61005535Y-110050276D01*
X60855276Y-110200535D01*
X60855272Y-110200540D01*
X60730379Y-110372442D01*
X60633904Y-110561782D01*
X60568242Y-110763870D01*
X60568242Y-110763873D01*
X60557769Y-110830000D01*
X61451988Y-110830000D01*
X61419075Y-110887007D01*
X61385000Y-111014174D01*
X61385000Y-111145826D01*
X61419075Y-111272993D01*
X61451988Y-111330000D01*
X60557769Y-111330000D01*
X60568242Y-111396126D01*
X60568242Y-111396129D01*
X60633904Y-111598217D01*
X60730379Y-111787557D01*
X60855272Y-111959459D01*
X60855276Y-111959464D01*
X61005535Y-112109723D01*
X61005540Y-112109727D01*
X61177442Y-112234620D01*
X61366782Y-112331095D01*
X61568871Y-112396757D01*
X61635000Y-112407231D01*
X61635000Y-111513012D01*
X61692007Y-111545925D01*
X61819174Y-111580000D01*
X61950826Y-111580000D01*
X62077993Y-111545925D01*
X62135000Y-111513012D01*
X62135000Y-112407230D01*
X62201126Y-112396757D01*
X62201129Y-112396757D01*
X62403217Y-112331095D01*
X62592557Y-112234620D01*
X62764459Y-112109727D01*
X62764464Y-112109723D01*
X62914723Y-111959464D01*
X62914727Y-111959459D01*
X63039620Y-111787557D01*
X63136095Y-111598217D01*
X63201757Y-111396129D01*
X63201757Y-111396126D01*
X63212231Y-111330000D01*
X62318012Y-111330000D01*
X62350925Y-111272993D01*
X62385000Y-111145826D01*
X62385000Y-111014174D01*
X62350925Y-110887007D01*
X62318012Y-110830000D01*
X63212231Y-110830000D01*
X63201757Y-110763873D01*
X63201757Y-110763870D01*
X63136095Y-110561782D01*
X63039620Y-110372442D01*
X62914727Y-110200540D01*
X62914723Y-110200535D01*
X62764464Y-110050276D01*
X62764459Y-110050272D01*
X62592555Y-109925377D01*
X62583500Y-109920763D01*
X62532706Y-109872788D01*
X62515912Y-109804966D01*
X62538451Y-109738832D01*
X62583508Y-109699793D01*
X62592816Y-109695051D01*
X62672007Y-109637515D01*
X62764786Y-109570109D01*
X62764788Y-109570106D01*
X62764792Y-109570104D01*
X62915104Y-109419792D01*
X62915106Y-109419788D01*
X62915109Y-109419786D01*
X62989687Y-109317136D01*
X63040051Y-109247816D01*
X63040349Y-109247230D01*
X63060235Y-109208205D01*
X63108209Y-109157409D01*
X63170719Y-109140500D01*
X64134216Y-109140500D01*
X64201255Y-109160185D01*
X64221897Y-109176819D01*
X64362214Y-109317136D01*
X64362218Y-109317139D01*
X64526079Y-109426628D01*
X64526092Y-109426635D01*
X64708160Y-109502049D01*
X64708165Y-109502051D01*
X64708169Y-109502051D01*
X64708170Y-109502052D01*
X64901456Y-109540500D01*
X64901459Y-109540500D01*
X65098543Y-109540500D01*
X65228582Y-109514632D01*
X65291835Y-109502051D01*
X65473914Y-109426632D01*
X65637782Y-109317139D01*
X65777139Y-109177782D01*
X65886632Y-109013914D01*
X65962051Y-108831835D01*
X65974632Y-108768582D01*
X66000500Y-108638543D01*
X66000500Y-108441456D01*
X65962052Y-108248170D01*
X65962051Y-108248169D01*
X65962051Y-108248165D01*
X65951941Y-108223757D01*
X65886635Y-108066092D01*
X65886628Y-108066079D01*
X65777139Y-107902218D01*
X65777136Y-107902214D01*
X65637785Y-107762863D01*
X65637781Y-107762860D01*
X65473920Y-107653371D01*
X65473907Y-107653364D01*
X65291839Y-107577950D01*
X65291829Y-107577947D01*
X65098543Y-107539500D01*
X65098541Y-107539500D01*
X64901459Y-107539500D01*
X64901457Y-107539500D01*
X64708170Y-107577947D01*
X64708160Y-107577950D01*
X64526092Y-107653364D01*
X64526079Y-107653371D01*
X64362218Y-107762860D01*
X64362214Y-107762863D01*
X64221897Y-107903181D01*
X64160574Y-107936666D01*
X64134216Y-107939500D01*
X63170719Y-107939500D01*
X63103680Y-107919815D01*
X63060235Y-107871795D01*
X63040052Y-107832185D01*
X63040051Y-107832184D01*
X62915109Y-107660213D01*
X62764786Y-107509890D01*
X62592820Y-107384951D01*
X62505550Y-107340485D01*
X62454754Y-107292511D01*
X62437959Y-107224690D01*
X62460496Y-107158555D01*
X62505550Y-107119515D01*
X62592816Y-107075051D01*
X62614789Y-107059086D01*
X62764786Y-106950109D01*
X62764788Y-106950106D01*
X62764792Y-106950104D01*
X62915104Y-106799792D01*
X62915106Y-106799788D01*
X62915109Y-106799786D01*
X62989687Y-106697136D01*
X63040051Y-106627816D01*
X63040349Y-106627230D01*
X63060235Y-106588205D01*
X63108209Y-106537409D01*
X63170719Y-106520500D01*
X65384216Y-106520500D01*
X65451255Y-106540185D01*
X65471897Y-106556819D01*
X65612214Y-106697136D01*
X65612218Y-106697139D01*
X65776079Y-106806628D01*
X65776092Y-106806635D01*
X65958160Y-106882049D01*
X65958165Y-106882051D01*
X65958169Y-106882051D01*
X65958170Y-106882052D01*
X66151456Y-106920500D01*
X66151459Y-106920500D01*
X66348543Y-106920500D01*
X66478582Y-106894632D01*
X66541835Y-106882051D01*
X66723914Y-106806632D01*
X66887782Y-106697139D01*
X67027139Y-106557782D01*
X67136632Y-106393914D01*
X67212051Y-106211835D01*
X67224632Y-106148582D01*
X67250500Y-106018543D01*
X67250500Y-105821456D01*
X67212052Y-105628170D01*
X67212051Y-105628169D01*
X67212051Y-105628165D01*
X67201941Y-105603757D01*
X67136635Y-105446092D01*
X67136628Y-105446079D01*
X67027139Y-105282218D01*
X67027136Y-105282214D01*
X66887785Y-105142863D01*
X66887781Y-105142860D01*
X66723920Y-105033371D01*
X66723907Y-105033364D01*
X66541839Y-104957950D01*
X66541829Y-104957947D01*
X66348543Y-104919500D01*
X66348541Y-104919500D01*
X66151459Y-104919500D01*
X66151457Y-104919500D01*
X65958170Y-104957947D01*
X65958160Y-104957950D01*
X65776092Y-105033364D01*
X65776079Y-105033371D01*
X65612218Y-105142860D01*
X65612214Y-105142863D01*
X65471897Y-105283181D01*
X65410574Y-105316666D01*
X65384216Y-105319500D01*
X63170719Y-105319500D01*
X63103680Y-105299815D01*
X63060235Y-105251795D01*
X63040052Y-105212185D01*
X63040051Y-105212184D01*
X62915109Y-105040213D01*
X62764792Y-104889896D01*
X62764784Y-104889890D01*
X62627732Y-104790317D01*
X62585068Y-104734989D01*
X62579089Y-104665376D01*
X62611694Y-104603580D01*
X62627728Y-104589685D01*
X62764792Y-104490104D01*
X62915104Y-104339792D01*
X62915106Y-104339788D01*
X62915109Y-104339786D01*
X62989687Y-104237136D01*
X63040051Y-104167816D01*
X63040349Y-104167230D01*
X63060235Y-104128205D01*
X63108209Y-104077409D01*
X63170719Y-104060500D01*
X66634216Y-104060500D01*
X66701255Y-104080185D01*
X66721897Y-104096819D01*
X66862214Y-104237136D01*
X66862218Y-104237139D01*
X67026079Y-104346628D01*
X67026092Y-104346635D01*
X67208160Y-104422049D01*
X67208165Y-104422051D01*
X67208169Y-104422051D01*
X67208170Y-104422052D01*
X67401456Y-104460500D01*
X67401459Y-104460500D01*
X67598543Y-104460500D01*
X67728582Y-104434632D01*
X67791835Y-104422051D01*
X67973914Y-104346632D01*
X68137782Y-104237139D01*
X68277139Y-104097782D01*
X68386632Y-103933914D01*
X68462051Y-103751835D01*
X68474632Y-103688582D01*
X68500500Y-103558543D01*
X68500500Y-103361456D01*
X68462052Y-103168170D01*
X68462051Y-103168169D01*
X68462051Y-103168165D01*
X68451941Y-103143757D01*
X68386635Y-102986092D01*
X68386628Y-102986079D01*
X68277139Y-102822218D01*
X68277136Y-102822214D01*
X68137785Y-102682863D01*
X68137781Y-102682860D01*
X67973920Y-102573371D01*
X67973907Y-102573364D01*
X67791839Y-102497950D01*
X67791829Y-102497947D01*
X67598543Y-102459500D01*
X67598541Y-102459500D01*
X67401459Y-102459500D01*
X67401457Y-102459500D01*
X67208170Y-102497947D01*
X67208160Y-102497950D01*
X67026092Y-102573364D01*
X67026079Y-102573371D01*
X66862218Y-102682860D01*
X66862214Y-102682863D01*
X66721897Y-102823181D01*
X66660574Y-102856666D01*
X66634216Y-102859500D01*
X63170719Y-102859500D01*
X63103680Y-102839815D01*
X63060235Y-102791795D01*
X63040052Y-102752185D01*
X63040051Y-102752184D01*
X62915109Y-102580213D01*
X62764786Y-102429890D01*
X62592820Y-102304951D01*
X62592115Y-102304591D01*
X62584054Y-102300485D01*
X62533259Y-102252512D01*
X62516463Y-102184692D01*
X62538999Y-102118556D01*
X62584054Y-102079515D01*
X62592816Y-102075051D01*
X62607769Y-102064186D01*
X62768734Y-101947241D01*
X62769364Y-101948108D01*
X62828419Y-101921641D01*
X62845200Y-101920500D01*
X72598543Y-101920500D01*
X72728582Y-101894632D01*
X72791835Y-101882051D01*
X72973914Y-101806632D01*
X73137782Y-101697139D01*
X73277139Y-101557782D01*
X73386632Y-101393914D01*
X73462051Y-101211835D01*
X73474632Y-101148582D01*
X73500500Y-101018543D01*
X73500500Y-100821456D01*
X73462052Y-100628170D01*
X73462051Y-100628169D01*
X73462051Y-100628165D01*
X73451941Y-100603757D01*
X73386635Y-100446092D01*
X73386628Y-100446079D01*
X73277139Y-100282218D01*
X73277136Y-100282214D01*
X73137785Y-100142863D01*
X73137781Y-100142860D01*
X72973920Y-100033371D01*
X72973907Y-100033364D01*
X72791839Y-99957950D01*
X72791829Y-99957947D01*
X72598543Y-99919500D01*
X72598541Y-99919500D01*
X62845200Y-99919500D01*
X62778161Y-99899815D01*
X62765634Y-99890506D01*
X62592820Y-99764951D01*
X62403414Y-99668444D01*
X62403413Y-99668443D01*
X62403412Y-99668443D01*
X62201243Y-99602754D01*
X62201241Y-99602753D01*
X62201240Y-99602753D01*
X62039957Y-99577208D01*
X61991287Y-99569500D01*
X61778713Y-99569500D01*
X61730042Y-99577208D01*
X61568760Y-99602753D01*
X61366585Y-99668444D01*
X61177179Y-99764951D01*
X61005213Y-99889890D01*
X60854890Y-100040213D01*
X60729951Y-100212179D01*
X60633444Y-100401585D01*
X60567753Y-100603760D01*
X60534500Y-100813713D01*
X55500500Y-100813713D01*
X55500500Y-78193713D01*
X57149500Y-78193713D01*
X57149500Y-78406286D01*
X57178888Y-78591839D01*
X57182754Y-78616243D01*
X57233982Y-78773907D01*
X57248444Y-78818414D01*
X57344951Y-79007820D01*
X57469890Y-79179786D01*
X57620213Y-79330109D01*
X57792182Y-79455050D01*
X57800946Y-79459516D01*
X57851742Y-79507491D01*
X57868536Y-79575312D01*
X57845998Y-79641447D01*
X57800946Y-79680484D01*
X57792182Y-79684949D01*
X57620213Y-79809890D01*
X57469890Y-79960213D01*
X57344951Y-80132179D01*
X57248444Y-80321585D01*
X57182753Y-80523760D01*
X57149500Y-80733713D01*
X57149500Y-80946286D01*
X57178888Y-81131839D01*
X57182754Y-81156243D01*
X57233982Y-81313907D01*
X57248444Y-81358414D01*
X57344951Y-81547820D01*
X57469890Y-81719786D01*
X57620213Y-81870109D01*
X57792182Y-81995050D01*
X57800946Y-81999516D01*
X57851742Y-82047491D01*
X57868536Y-82115312D01*
X57845998Y-82181447D01*
X57800946Y-82220484D01*
X57792182Y-82224949D01*
X57620213Y-82349890D01*
X57469890Y-82500213D01*
X57344951Y-82672179D01*
X57248444Y-82861585D01*
X57182753Y-83063760D01*
X57149500Y-83273713D01*
X57149500Y-83486286D01*
X57178888Y-83671839D01*
X57182754Y-83696243D01*
X57233982Y-83853907D01*
X57248444Y-83898414D01*
X57344951Y-84087820D01*
X57469890Y-84259786D01*
X57620213Y-84410109D01*
X57792182Y-84535050D01*
X57800946Y-84539516D01*
X57851742Y-84587491D01*
X57868536Y-84655312D01*
X57845998Y-84721447D01*
X57800946Y-84760484D01*
X57792182Y-84764949D01*
X57620213Y-84889890D01*
X57469890Y-85040213D01*
X57344951Y-85212179D01*
X57248444Y-85401585D01*
X57182753Y-85603760D01*
X57149500Y-85813713D01*
X57149500Y-86026286D01*
X57178888Y-86211839D01*
X57182754Y-86236243D01*
X57233982Y-86393907D01*
X57248444Y-86438414D01*
X57344951Y-86627820D01*
X57469890Y-86799786D01*
X57620213Y-86950109D01*
X57792179Y-87075048D01*
X57792181Y-87075049D01*
X57792184Y-87075051D01*
X57801493Y-87079794D01*
X57852290Y-87127766D01*
X57869087Y-87195587D01*
X57846552Y-87261722D01*
X57801502Y-87300762D01*
X57792443Y-87305378D01*
X57620540Y-87430272D01*
X57620535Y-87430276D01*
X57470276Y-87580535D01*
X57470272Y-87580540D01*
X57345379Y-87752442D01*
X57248904Y-87941782D01*
X57183242Y-88143870D01*
X57183242Y-88143873D01*
X57172769Y-88210000D01*
X58066988Y-88210000D01*
X58034075Y-88267007D01*
X58000000Y-88394174D01*
X58000000Y-88525826D01*
X58034075Y-88652993D01*
X58066988Y-88710000D01*
X57172769Y-88710000D01*
X57183242Y-88776126D01*
X57183242Y-88776129D01*
X57248904Y-88978217D01*
X57345379Y-89167557D01*
X57470272Y-89339459D01*
X57470276Y-89339464D01*
X57620535Y-89489723D01*
X57620540Y-89489727D01*
X57792444Y-89614622D01*
X57801495Y-89619234D01*
X57852292Y-89667208D01*
X57869087Y-89735029D01*
X57846550Y-89801164D01*
X57801499Y-89840202D01*
X57792182Y-89844949D01*
X57620213Y-89969890D01*
X57469890Y-90120213D01*
X57344951Y-90292179D01*
X57248444Y-90481585D01*
X57182753Y-90683760D01*
X57149500Y-90893713D01*
X57149500Y-91106286D01*
X57178888Y-91291839D01*
X57182754Y-91316243D01*
X57233982Y-91473907D01*
X57248444Y-91518414D01*
X57344951Y-91707820D01*
X57469890Y-91879786D01*
X57620213Y-92030109D01*
X57792179Y-92155048D01*
X57792181Y-92155049D01*
X57792184Y-92155051D01*
X57981588Y-92251557D01*
X58183757Y-92317246D01*
X58393713Y-92350500D01*
X58393714Y-92350500D01*
X58606286Y-92350500D01*
X58606287Y-92350500D01*
X58816243Y-92317246D01*
X59018412Y-92251557D01*
X59207816Y-92155051D01*
X59222769Y-92144186D01*
X59383734Y-92027241D01*
X59384364Y-92028108D01*
X59443419Y-92001641D01*
X59460200Y-92000500D01*
X71348543Y-92000500D01*
X71478582Y-91974632D01*
X71541835Y-91962051D01*
X71723914Y-91886632D01*
X71887782Y-91777139D01*
X72027139Y-91637782D01*
X72136632Y-91473914D01*
X72212051Y-91291835D01*
X72224632Y-91228582D01*
X72250500Y-91098543D01*
X72250500Y-90901456D01*
X72212052Y-90708170D01*
X72212051Y-90708169D01*
X72212051Y-90708165D01*
X72201941Y-90683757D01*
X72136635Y-90526092D01*
X72136628Y-90526079D01*
X72027139Y-90362218D01*
X72027136Y-90362214D01*
X71887785Y-90222863D01*
X71887781Y-90222860D01*
X71723920Y-90113371D01*
X71723907Y-90113364D01*
X71541839Y-90037950D01*
X71541829Y-90037947D01*
X71348543Y-89999500D01*
X71348541Y-89999500D01*
X59460200Y-89999500D01*
X59393161Y-89979815D01*
X59380634Y-89970506D01*
X59207817Y-89844949D01*
X59198504Y-89840204D01*
X59147707Y-89792230D01*
X59130912Y-89724409D01*
X59153449Y-89658274D01*
X59198507Y-89619232D01*
X59207558Y-89614620D01*
X59379459Y-89489727D01*
X59379464Y-89489723D01*
X59529723Y-89339464D01*
X59529727Y-89339459D01*
X59654620Y-89167557D01*
X59751095Y-88978217D01*
X59816757Y-88776129D01*
X59816757Y-88776126D01*
X59827231Y-88710000D01*
X58933012Y-88710000D01*
X58965925Y-88652993D01*
X59000000Y-88525826D01*
X59000000Y-88394174D01*
X58965925Y-88267007D01*
X58933012Y-88210000D01*
X59827231Y-88210000D01*
X59816757Y-88143873D01*
X59816757Y-88143870D01*
X59751095Y-87941782D01*
X59654620Y-87752442D01*
X59529727Y-87580540D01*
X59529723Y-87580535D01*
X59379464Y-87430276D01*
X59379459Y-87430272D01*
X59207555Y-87305377D01*
X59198500Y-87300763D01*
X59147706Y-87252788D01*
X59130912Y-87184966D01*
X59153451Y-87118832D01*
X59198508Y-87079793D01*
X59207816Y-87075051D01*
X59287007Y-87017515D01*
X59379786Y-86950109D01*
X59379788Y-86950106D01*
X59379792Y-86950104D01*
X59530104Y-86799792D01*
X59530106Y-86799788D01*
X59530109Y-86799786D01*
X59604687Y-86697136D01*
X59655051Y-86627816D01*
X59655349Y-86627230D01*
X59675235Y-86588205D01*
X59723209Y-86537409D01*
X59785719Y-86520500D01*
X67884216Y-86520500D01*
X67951255Y-86540185D01*
X67971897Y-86556819D01*
X68112214Y-86697136D01*
X68112218Y-86697139D01*
X68276079Y-86806628D01*
X68276092Y-86806635D01*
X68458160Y-86882049D01*
X68458165Y-86882051D01*
X68458169Y-86882051D01*
X68458170Y-86882052D01*
X68651456Y-86920500D01*
X68651459Y-86920500D01*
X68848543Y-86920500D01*
X68978582Y-86894632D01*
X69041835Y-86882051D01*
X69223914Y-86806632D01*
X69387782Y-86697139D01*
X69527139Y-86557782D01*
X69636632Y-86393914D01*
X69712051Y-86211835D01*
X69724632Y-86148582D01*
X69750500Y-86018543D01*
X69750500Y-85821456D01*
X69712052Y-85628170D01*
X69712051Y-85628169D01*
X69712051Y-85628165D01*
X69701941Y-85603757D01*
X69636635Y-85446092D01*
X69636628Y-85446079D01*
X69527139Y-85282218D01*
X69527136Y-85282214D01*
X69387785Y-85142863D01*
X69387781Y-85142860D01*
X69223920Y-85033371D01*
X69223907Y-85033364D01*
X69041839Y-84957950D01*
X69041829Y-84957947D01*
X68848543Y-84919500D01*
X68848541Y-84919500D01*
X68651459Y-84919500D01*
X68651457Y-84919500D01*
X68458170Y-84957947D01*
X68458160Y-84957950D01*
X68276092Y-85033364D01*
X68276079Y-85033371D01*
X68112218Y-85142860D01*
X68112214Y-85142863D01*
X67971897Y-85283181D01*
X67910574Y-85316666D01*
X67884216Y-85319500D01*
X59785719Y-85319500D01*
X59718680Y-85299815D01*
X59675235Y-85251795D01*
X59655052Y-85212185D01*
X59655051Y-85212184D01*
X59530109Y-85040213D01*
X59379786Y-84889890D01*
X59207820Y-84764951D01*
X59207115Y-84764591D01*
X59199054Y-84760485D01*
X59148259Y-84712512D01*
X59131463Y-84644692D01*
X59153999Y-84578556D01*
X59199054Y-84539515D01*
X59207816Y-84535051D01*
X59229789Y-84519086D01*
X59379786Y-84410109D01*
X59379788Y-84410106D01*
X59379792Y-84410104D01*
X59530104Y-84259792D01*
X59530106Y-84259788D01*
X59530109Y-84259786D01*
X59604687Y-84157136D01*
X59655051Y-84087816D01*
X59655349Y-84087230D01*
X59675235Y-84048205D01*
X59723209Y-83997409D01*
X59785719Y-83980500D01*
X62884216Y-83980500D01*
X62951255Y-84000185D01*
X62971897Y-84016819D01*
X63112214Y-84157136D01*
X63112218Y-84157139D01*
X63276079Y-84266628D01*
X63276092Y-84266635D01*
X63458160Y-84342049D01*
X63458165Y-84342051D01*
X63458169Y-84342051D01*
X63458170Y-84342052D01*
X63651456Y-84380500D01*
X63651459Y-84380500D01*
X63848543Y-84380500D01*
X63978582Y-84354632D01*
X64041835Y-84342051D01*
X64223914Y-84266632D01*
X64387782Y-84157139D01*
X64527139Y-84017782D01*
X64636632Y-83853914D01*
X64712051Y-83671835D01*
X64724632Y-83608582D01*
X64750500Y-83478543D01*
X64750500Y-83281456D01*
X64712052Y-83088170D01*
X64712051Y-83088169D01*
X64712051Y-83088165D01*
X64701941Y-83063757D01*
X64636635Y-82906092D01*
X64636628Y-82906079D01*
X64527139Y-82742218D01*
X64527136Y-82742214D01*
X64387785Y-82602863D01*
X64387781Y-82602860D01*
X64223920Y-82493371D01*
X64223907Y-82493364D01*
X64041839Y-82417950D01*
X64041829Y-82417947D01*
X63848543Y-82379500D01*
X63848541Y-82379500D01*
X63651459Y-82379500D01*
X63651457Y-82379500D01*
X63458170Y-82417947D01*
X63458160Y-82417950D01*
X63276092Y-82493364D01*
X63276079Y-82493371D01*
X63112218Y-82602860D01*
X63112214Y-82602863D01*
X62971897Y-82743181D01*
X62910574Y-82776666D01*
X62884216Y-82779500D01*
X59785719Y-82779500D01*
X59718680Y-82759815D01*
X59675235Y-82711795D01*
X59655052Y-82672185D01*
X59655051Y-82672184D01*
X59530109Y-82500213D01*
X59379786Y-82349890D01*
X59207820Y-82224951D01*
X59207115Y-82224591D01*
X59199054Y-82220485D01*
X59148259Y-82172512D01*
X59131463Y-82104692D01*
X59153999Y-82038556D01*
X59199054Y-81999515D01*
X59207816Y-81995051D01*
X59229789Y-81979086D01*
X59379786Y-81870109D01*
X59379788Y-81870106D01*
X59379792Y-81870104D01*
X59530104Y-81719792D01*
X59530106Y-81719788D01*
X59530109Y-81719786D01*
X59604687Y-81617136D01*
X59655051Y-81547816D01*
X59655349Y-81547230D01*
X59675235Y-81508205D01*
X59723209Y-81457409D01*
X59785719Y-81440500D01*
X72884216Y-81440500D01*
X72951255Y-81460185D01*
X72971897Y-81476819D01*
X73112214Y-81617136D01*
X73112218Y-81617139D01*
X73276079Y-81726628D01*
X73276092Y-81726635D01*
X73458160Y-81802049D01*
X73458165Y-81802051D01*
X73458169Y-81802051D01*
X73458170Y-81802052D01*
X73651456Y-81840500D01*
X73651459Y-81840500D01*
X73848543Y-81840500D01*
X73978582Y-81814632D01*
X74041835Y-81802051D01*
X74223914Y-81726632D01*
X74387782Y-81617139D01*
X74527139Y-81477782D01*
X74636632Y-81313914D01*
X74712051Y-81131835D01*
X74724632Y-81068582D01*
X74750500Y-80938543D01*
X74750500Y-80741456D01*
X74712052Y-80548170D01*
X74712051Y-80548169D01*
X74712051Y-80548165D01*
X74701941Y-80523757D01*
X74636635Y-80366092D01*
X74636628Y-80366079D01*
X74527139Y-80202218D01*
X74527136Y-80202214D01*
X74387785Y-80062863D01*
X74387781Y-80062860D01*
X74223920Y-79953371D01*
X74223907Y-79953364D01*
X74041839Y-79877950D01*
X74041829Y-79877947D01*
X73848543Y-79839500D01*
X73848541Y-79839500D01*
X73651459Y-79839500D01*
X73651457Y-79839500D01*
X73458170Y-79877947D01*
X73458160Y-79877950D01*
X73276092Y-79953364D01*
X73276079Y-79953371D01*
X73112218Y-80062860D01*
X73112214Y-80062863D01*
X72971897Y-80203181D01*
X72910574Y-80236666D01*
X72884216Y-80239500D01*
X59785719Y-80239500D01*
X59718680Y-80219815D01*
X59675235Y-80171795D01*
X59655052Y-80132185D01*
X59655051Y-80132184D01*
X59530109Y-79960213D01*
X59379786Y-79809890D01*
X59207820Y-79684951D01*
X59207115Y-79684591D01*
X59199054Y-79680485D01*
X59148259Y-79632512D01*
X59131463Y-79564692D01*
X59153999Y-79498556D01*
X59199054Y-79459515D01*
X59207816Y-79455051D01*
X59229789Y-79439086D01*
X59379786Y-79330109D01*
X59379788Y-79330106D01*
X59379792Y-79330104D01*
X59530104Y-79179792D01*
X59530106Y-79179788D01*
X59530109Y-79179786D01*
X59604687Y-79077136D01*
X59655051Y-79007816D01*
X59655349Y-79007230D01*
X59675235Y-78968205D01*
X59723209Y-78917409D01*
X59785719Y-78900500D01*
X69134216Y-78900500D01*
X69201255Y-78920185D01*
X69221897Y-78936819D01*
X69362214Y-79077136D01*
X69362218Y-79077139D01*
X69526079Y-79186628D01*
X69526092Y-79186635D01*
X69708160Y-79262049D01*
X69708165Y-79262051D01*
X69708169Y-79262051D01*
X69708170Y-79262052D01*
X69901456Y-79300500D01*
X69901459Y-79300500D01*
X70098543Y-79300500D01*
X70228582Y-79274632D01*
X70291835Y-79262051D01*
X70473914Y-79186632D01*
X70637782Y-79077139D01*
X70777139Y-78937782D01*
X70886632Y-78773914D01*
X70962051Y-78591835D01*
X70974632Y-78528582D01*
X71000500Y-78398543D01*
X71000500Y-78201456D01*
X70962052Y-78008170D01*
X70962051Y-78008169D01*
X70962051Y-78008165D01*
X70951941Y-77983757D01*
X70886635Y-77826092D01*
X70886628Y-77826079D01*
X70777139Y-77662218D01*
X70777136Y-77662214D01*
X70637785Y-77522863D01*
X70637781Y-77522860D01*
X70473920Y-77413371D01*
X70473907Y-77413364D01*
X70291839Y-77337950D01*
X70291829Y-77337947D01*
X70098543Y-77299500D01*
X70098541Y-77299500D01*
X69901459Y-77299500D01*
X69901457Y-77299500D01*
X69708170Y-77337947D01*
X69708160Y-77337950D01*
X69526092Y-77413364D01*
X69526079Y-77413371D01*
X69362218Y-77522860D01*
X69362214Y-77522863D01*
X69221897Y-77663181D01*
X69160574Y-77696666D01*
X69134216Y-77699500D01*
X59785719Y-77699500D01*
X59718680Y-77679815D01*
X59675235Y-77631795D01*
X59655052Y-77592185D01*
X59655051Y-77592184D01*
X59530109Y-77420213D01*
X59379786Y-77269890D01*
X59207820Y-77144951D01*
X59018414Y-77048444D01*
X59018413Y-77048443D01*
X59018412Y-77048443D01*
X58816243Y-76982754D01*
X58816241Y-76982753D01*
X58816240Y-76982753D01*
X58654957Y-76957208D01*
X58606287Y-76949500D01*
X58393713Y-76949500D01*
X58345042Y-76957208D01*
X58183760Y-76982753D01*
X57981585Y-77048444D01*
X57792179Y-77144951D01*
X57620213Y-77269890D01*
X57469890Y-77420213D01*
X57344951Y-77592179D01*
X57248444Y-77781585D01*
X57182753Y-77983760D01*
X57149500Y-78193713D01*
X55500500Y-78193713D01*
X55500500Y-70098543D01*
X62749499Y-70098543D01*
X62787947Y-70291829D01*
X62787950Y-70291839D01*
X62863364Y-70473907D01*
X62863371Y-70473920D01*
X62972860Y-70637781D01*
X62972863Y-70637785D01*
X63112214Y-70777136D01*
X63112218Y-70777139D01*
X63276079Y-70886628D01*
X63276092Y-70886635D01*
X63422586Y-70947314D01*
X63458165Y-70962051D01*
X63458169Y-70962051D01*
X63458170Y-70962052D01*
X63651456Y-71000500D01*
X63651459Y-71000500D01*
X63848543Y-71000500D01*
X64007830Y-70968815D01*
X64041835Y-70962051D01*
X64223914Y-70886632D01*
X64306109Y-70831711D01*
X64372786Y-70810833D01*
X64440166Y-70829317D01*
X64443891Y-70831711D01*
X64526086Y-70886632D01*
X64526088Y-70886633D01*
X64526092Y-70886635D01*
X64672586Y-70947314D01*
X64708165Y-70962051D01*
X64708169Y-70962051D01*
X64708170Y-70962052D01*
X64901456Y-71000500D01*
X64901459Y-71000500D01*
X65098543Y-71000500D01*
X65257830Y-70968815D01*
X65291835Y-70962051D01*
X65420574Y-70908726D01*
X65478048Y-70884920D01*
X65547517Y-70877451D01*
X65609996Y-70908726D01*
X65645648Y-70968815D01*
X65649500Y-70999481D01*
X65649500Y-72413330D01*
X65649499Y-72413348D01*
X65649499Y-72579054D01*
X65649498Y-72579054D01*
X65690424Y-72731789D01*
X65690425Y-72731790D01*
X65712101Y-72769333D01*
X65712102Y-72769334D01*
X65769477Y-72868712D01*
X65769481Y-72868717D01*
X65888349Y-72987585D01*
X65888354Y-72987589D01*
X67631284Y-74730520D01*
X67631286Y-74730521D01*
X67631290Y-74730524D01*
X67665040Y-74750009D01*
X67768216Y-74809577D01*
X67920943Y-74850501D01*
X67920945Y-74850501D01*
X68086654Y-74850501D01*
X68086670Y-74850500D01*
X69582199Y-74850500D01*
X69649238Y-74870185D01*
X69694993Y-74922989D01*
X69699903Y-74935492D01*
X69727686Y-75019334D01*
X69819788Y-75168656D01*
X69943844Y-75292712D01*
X70093166Y-75384814D01*
X70259703Y-75439999D01*
X70362491Y-75450500D01*
X70987508Y-75450499D01*
X70987516Y-75450498D01*
X70987519Y-75450498D01*
X71043802Y-75444748D01*
X71090297Y-75439999D01*
X71256834Y-75384814D01*
X71406156Y-75292712D01*
X71499819Y-75199049D01*
X71561142Y-75165564D01*
X71630834Y-75170548D01*
X71675181Y-75199049D01*
X71768844Y-75292712D01*
X71918166Y-75384814D01*
X72084703Y-75439999D01*
X72187491Y-75450500D01*
X72812508Y-75450499D01*
X72812516Y-75450498D01*
X72812519Y-75450498D01*
X72868802Y-75444748D01*
X72915297Y-75439999D01*
X73081834Y-75384814D01*
X73231156Y-75292712D01*
X73355212Y-75168656D01*
X73447314Y-75019334D01*
X73502499Y-74852797D01*
X73513000Y-74750009D01*
X73512999Y-73749992D01*
X73502499Y-73647203D01*
X73501811Y-73640468D01*
X73502160Y-73640432D01*
X73500500Y-73624741D01*
X73500500Y-72625259D01*
X73502161Y-72609567D01*
X73501811Y-72609532D01*
X73506914Y-72559577D01*
X73513000Y-72500009D01*
X73512999Y-71499992D01*
X73502499Y-71397203D01*
X73501811Y-71390468D01*
X73502160Y-71390432D01*
X73500500Y-71374741D01*
X73500500Y-71121567D01*
X73520185Y-71054528D01*
X73572989Y-71008773D01*
X73642147Y-70998829D01*
X73648693Y-70999950D01*
X73651458Y-71000500D01*
X73651459Y-71000500D01*
X73848543Y-71000500D01*
X74007830Y-70968815D01*
X74041835Y-70962051D01*
X74223914Y-70886632D01*
X74306109Y-70831711D01*
X74372786Y-70810833D01*
X74440166Y-70829317D01*
X74443891Y-70831711D01*
X74526086Y-70886632D01*
X74526088Y-70886633D01*
X74526092Y-70886635D01*
X74672586Y-70947314D01*
X74708165Y-70962051D01*
X74708169Y-70962051D01*
X74708170Y-70962052D01*
X74901456Y-71000500D01*
X74901459Y-71000500D01*
X75098543Y-71000500D01*
X75257830Y-70968815D01*
X75291835Y-70962051D01*
X75473914Y-70886632D01*
X75637782Y-70777139D01*
X75777139Y-70637782D01*
X75886632Y-70473914D01*
X75962051Y-70291835D01*
X76000500Y-70098541D01*
X76000500Y-69901459D01*
X76000500Y-69901456D01*
X75962052Y-69708170D01*
X75962051Y-69708169D01*
X75962051Y-69708165D01*
X75962049Y-69708160D01*
X75886635Y-69526092D01*
X75886628Y-69526079D01*
X75777139Y-69362218D01*
X75777136Y-69362214D01*
X75637785Y-69222863D01*
X75637781Y-69222860D01*
X75473920Y-69113371D01*
X75473907Y-69113364D01*
X75291839Y-69037950D01*
X75291829Y-69037947D01*
X75098543Y-68999500D01*
X75098541Y-68999500D01*
X74901459Y-68999500D01*
X74901457Y-68999500D01*
X74708170Y-69037947D01*
X74708160Y-69037950D01*
X74526093Y-69113364D01*
X74526082Y-69113370D01*
X74443890Y-69168289D01*
X74377212Y-69189166D01*
X74309832Y-69170681D01*
X74306110Y-69168289D01*
X74223917Y-69113370D01*
X74223916Y-69113369D01*
X74223914Y-69113368D01*
X74223911Y-69113366D01*
X74223906Y-69113364D01*
X74041839Y-69037950D01*
X74041829Y-69037947D01*
X73848543Y-68999500D01*
X73848541Y-68999500D01*
X73651459Y-68999500D01*
X73648689Y-69000050D01*
X73647209Y-68999918D01*
X73645396Y-69000097D01*
X73645362Y-68999753D01*
X73579098Y-68993822D01*
X73523922Y-68950959D01*
X73500678Y-68885069D01*
X73500500Y-68878433D01*
X73500500Y-68543645D01*
X73501762Y-68525999D01*
X73502031Y-68524125D01*
X73505500Y-68500000D01*
X73505500Y-67000000D01*
X73500816Y-66934505D01*
X73500500Y-66925659D01*
X73500500Y-62713956D01*
X73480028Y-62611041D01*
X73480028Y-62611040D01*
X73462052Y-62520671D01*
X73462051Y-62520664D01*
X73434800Y-62454874D01*
X73386633Y-62338588D01*
X73386628Y-62338579D01*
X73277139Y-62174718D01*
X73277136Y-62174714D01*
X73199319Y-62096897D01*
X73165834Y-62035574D01*
X73163000Y-62009216D01*
X73163000Y-61075259D01*
X73163326Y-61066271D01*
X73164110Y-61055478D01*
X73164999Y-61052797D01*
X73175500Y-60950009D01*
X73175499Y-60898771D01*
X73175825Y-60894293D01*
X73186557Y-60865617D01*
X73195182Y-60836244D01*
X73199607Y-60830752D01*
X73200317Y-60828856D01*
X73202372Y-60827320D01*
X73211813Y-60815605D01*
X76134280Y-57893141D01*
X76195603Y-57859656D01*
X76265295Y-57864640D01*
X76321228Y-57906512D01*
X76345645Y-57971976D01*
X76344434Y-58000220D01*
X76319500Y-58157648D01*
X76319500Y-58362351D01*
X76351522Y-58564534D01*
X76414781Y-58759223D01*
X76507715Y-58941613D01*
X76628028Y-59107213D01*
X76772786Y-59251971D01*
X76927749Y-59364556D01*
X76938390Y-59372287D01*
X77029840Y-59418883D01*
X77031080Y-59419515D01*
X77081876Y-59467490D01*
X77098671Y-59535311D01*
X77076134Y-59601446D01*
X77031080Y-59640485D01*
X76938386Y-59687715D01*
X76772786Y-59808028D01*
X76628028Y-59952786D01*
X76507715Y-60118386D01*
X76414781Y-60300776D01*
X76351522Y-60495465D01*
X76319500Y-60697648D01*
X76319500Y-60902351D01*
X76351522Y-61104534D01*
X76414781Y-61299223D01*
X76507715Y-61481613D01*
X76628028Y-61647213D01*
X76772786Y-61791971D01*
X76911290Y-61892598D01*
X76938390Y-61912287D01*
X77029840Y-61958883D01*
X77031080Y-61959515D01*
X77081876Y-62007490D01*
X77098671Y-62075311D01*
X77076134Y-62141446D01*
X77031080Y-62180485D01*
X76938386Y-62227715D01*
X76772786Y-62348028D01*
X76628028Y-62492786D01*
X76507715Y-62658386D01*
X76414781Y-62840776D01*
X76351522Y-63035465D01*
X76319500Y-63237648D01*
X76319500Y-63442351D01*
X76351522Y-63644534D01*
X76414781Y-63839223D01*
X76507715Y-64021613D01*
X76628028Y-64187213D01*
X76772786Y-64331971D01*
X76927749Y-64444556D01*
X76938390Y-64452287D01*
X77029840Y-64498883D01*
X77031080Y-64499515D01*
X77081876Y-64547490D01*
X77098671Y-64615311D01*
X77076134Y-64681446D01*
X77031080Y-64720485D01*
X76938386Y-64767715D01*
X76772786Y-64888028D01*
X76628028Y-65032786D01*
X76507715Y-65198386D01*
X76414781Y-65380776D01*
X76351522Y-65575465D01*
X76319500Y-65777648D01*
X76319500Y-65982351D01*
X76351522Y-66184534D01*
X76414781Y-66379223D01*
X76466385Y-66480500D01*
X76505759Y-66557776D01*
X76507715Y-66561613D01*
X76628028Y-66727213D01*
X76772786Y-66871971D01*
X76920534Y-66979314D01*
X76938390Y-66992287D01*
X77038065Y-67043074D01*
X77120776Y-67085218D01*
X77120778Y-67085218D01*
X77120781Y-67085220D01*
X77225137Y-67119127D01*
X77315465Y-67148477D01*
X77405814Y-67162787D01*
X77517648Y-67180500D01*
X77517649Y-67180500D01*
X77722351Y-67180500D01*
X77722352Y-67180500D01*
X77924534Y-67148477D01*
X78119219Y-67085220D01*
X78301610Y-66992287D01*
X78394590Y-66924732D01*
X78467213Y-66871971D01*
X78467215Y-66871968D01*
X78467219Y-66871966D01*
X78611966Y-66727219D01*
X78611968Y-66727215D01*
X78611971Y-66727213D01*
X78732284Y-66561614D01*
X78732285Y-66561613D01*
X78732287Y-66561610D01*
X78739117Y-66548204D01*
X78749566Y-66537140D01*
X78755889Y-66523297D01*
X78773068Y-66512256D01*
X78787091Y-66497409D01*
X78802772Y-66493167D01*
X78814667Y-66485523D01*
X78849602Y-66480500D01*
X78961415Y-66480500D01*
X79028454Y-66500185D01*
X79074209Y-66552989D01*
X79079118Y-66565489D01*
X79115186Y-66674334D01*
X79207288Y-66823656D01*
X79331344Y-66947712D01*
X79382582Y-66979315D01*
X79429306Y-67031261D01*
X79440530Y-67100224D01*
X79412688Y-67164306D01*
X79356491Y-67202560D01*
X79280666Y-67227686D01*
X79280663Y-67227687D01*
X79131342Y-67319789D01*
X79007289Y-67443842D01*
X78915187Y-67593163D01*
X78915186Y-67593166D01*
X78860001Y-67759703D01*
X78860001Y-67759704D01*
X78860000Y-67759704D01*
X78849500Y-67862483D01*
X78849500Y-68487501D01*
X78849501Y-68487519D01*
X78860000Y-68590296D01*
X78860001Y-68590299D01*
X78915185Y-68756831D01*
X78915186Y-68756834D01*
X78990188Y-68878433D01*
X79007289Y-68906157D01*
X79100951Y-68999819D01*
X79102468Y-69002597D01*
X79105169Y-69004250D01*
X79119103Y-69033063D01*
X79134436Y-69061142D01*
X79134210Y-69064299D01*
X79135589Y-69067150D01*
X79131734Y-69098916D01*
X79129452Y-69130834D01*
X79127439Y-69134312D01*
X79127173Y-69136511D01*
X79120326Y-69146608D01*
X79108751Y-69166616D01*
X79105052Y-69171079D01*
X79007288Y-69268844D01*
X78958491Y-69347956D01*
X78952973Y-69354616D01*
X78930888Y-69369507D01*
X78911083Y-69387321D01*
X78901107Y-69389587D01*
X78895042Y-69393678D01*
X78881827Y-69393969D01*
X78857492Y-69399500D01*
X78365784Y-69399500D01*
X78298745Y-69379815D01*
X78278103Y-69363181D01*
X78137785Y-69222863D01*
X78137781Y-69222860D01*
X77973920Y-69113371D01*
X77973907Y-69113364D01*
X77791839Y-69037950D01*
X77791829Y-69037947D01*
X77598543Y-68999500D01*
X77598541Y-68999500D01*
X77401459Y-68999500D01*
X77401457Y-68999500D01*
X77208170Y-69037947D01*
X77208160Y-69037950D01*
X77026092Y-69113364D01*
X77026079Y-69113371D01*
X76862218Y-69222860D01*
X76862214Y-69222863D01*
X76722863Y-69362214D01*
X76722860Y-69362218D01*
X76613371Y-69526079D01*
X76613364Y-69526092D01*
X76537950Y-69708160D01*
X76537947Y-69708170D01*
X76499500Y-69901456D01*
X76499500Y-69901459D01*
X76499500Y-70098541D01*
X76499500Y-70098543D01*
X76499499Y-70098543D01*
X76537947Y-70291829D01*
X76537950Y-70291839D01*
X76613364Y-70473907D01*
X76613371Y-70473920D01*
X76722860Y-70637781D01*
X76722863Y-70637785D01*
X76862214Y-70777136D01*
X76862218Y-70777139D01*
X77026079Y-70886628D01*
X77026092Y-70886635D01*
X77172586Y-70947314D01*
X77208165Y-70962051D01*
X77208169Y-70962051D01*
X77208170Y-70962052D01*
X77401456Y-71000500D01*
X77401459Y-71000500D01*
X77598543Y-71000500D01*
X77757830Y-70968815D01*
X77791835Y-70962051D01*
X77973914Y-70886632D01*
X78137782Y-70777139D01*
X78204898Y-70710023D01*
X78278103Y-70636819D01*
X78339426Y-70603334D01*
X78365784Y-70600500D01*
X78857492Y-70600500D01*
X78924531Y-70620185D01*
X78963029Y-70659401D01*
X79007288Y-70731156D01*
X79131344Y-70855212D01*
X79280666Y-70947314D01*
X79447203Y-71002499D01*
X79549991Y-71013000D01*
X80550008Y-71012999D01*
X80550016Y-71012998D01*
X80550019Y-71012998D01*
X80606302Y-71007248D01*
X80652797Y-71002499D01*
X80819334Y-70947314D01*
X80968656Y-70855212D01*
X81092712Y-70731156D01*
X81136970Y-70659402D01*
X81144556Y-70652578D01*
X81148795Y-70643297D01*
X81170094Y-70629608D01*
X81188917Y-70612679D01*
X81200552Y-70610034D01*
X81207573Y-70605523D01*
X81242508Y-70600500D01*
X81373037Y-70600500D01*
X81440076Y-70620185D01*
X81454239Y-70630786D01*
X81476706Y-70650254D01*
X81496740Y-70659403D01*
X81607580Y-70710023D01*
X81607583Y-70710023D01*
X81607584Y-70710024D01*
X81750000Y-70730500D01*
X81750003Y-70730500D01*
X83250000Y-70730500D01*
X83321940Y-70725355D01*
X83459992Y-70684819D01*
X83581032Y-70607031D01*
X83675254Y-70498294D01*
X83735024Y-70367416D01*
X83755500Y-70225000D01*
X83755500Y-69225000D01*
X83751493Y-69161478D01*
X83738659Y-69114891D01*
X83735469Y-69064318D01*
X83755500Y-68925000D01*
X83755500Y-67775000D01*
X83750355Y-67703060D01*
X83709819Y-67565008D01*
X83632031Y-67443968D01*
X83631891Y-67443847D01*
X83523299Y-67349750D01*
X83523297Y-67349748D01*
X83523294Y-67349746D01*
X83523290Y-67349744D01*
X83392419Y-67289976D01*
X83392414Y-67289975D01*
X83250000Y-67269500D01*
X82583241Y-67269500D01*
X82516202Y-67249815D01*
X82470447Y-67197011D01*
X82460503Y-67127853D01*
X82489528Y-67064297D01*
X82518144Y-67039961D01*
X82668345Y-66947315D01*
X82792315Y-66823345D01*
X82884356Y-66674124D01*
X82884358Y-66674119D01*
X82939505Y-66507697D01*
X82939506Y-66507690D01*
X82949999Y-66404986D01*
X82950000Y-66404973D01*
X82950000Y-66130000D01*
X82074000Y-66130000D01*
X82006961Y-66110315D01*
X81961206Y-66057511D01*
X81950000Y-66006000D01*
X81950000Y-65880000D01*
X81824000Y-65880000D01*
X81756961Y-65860315D01*
X81711206Y-65807511D01*
X81700000Y-65756000D01*
X81700000Y-65630000D01*
X82200000Y-65630000D01*
X82949999Y-65630000D01*
X82949999Y-65355028D01*
X82949998Y-65355013D01*
X82939505Y-65252302D01*
X82884358Y-65085880D01*
X82884356Y-65085875D01*
X82792315Y-64936654D01*
X82668345Y-64812684D01*
X82519124Y-64720643D01*
X82519119Y-64720641D01*
X82352697Y-64665494D01*
X82352690Y-64665493D01*
X82249986Y-64655000D01*
X82200000Y-64655000D01*
X82200000Y-65630000D01*
X81700000Y-65630000D01*
X81700000Y-64655000D01*
X81699999Y-64654999D01*
X81650029Y-64655000D01*
X81650011Y-64655001D01*
X81547302Y-64665494D01*
X81380880Y-64720641D01*
X81380875Y-64720643D01*
X81231654Y-64812684D01*
X81107683Y-64936655D01*
X81107679Y-64936660D01*
X81105826Y-64939665D01*
X81104018Y-64941290D01*
X81103202Y-64942323D01*
X81103025Y-64942183D01*
X81053874Y-64986385D01*
X80984911Y-64997601D01*
X80920831Y-64969752D01*
X80894753Y-64939653D01*
X80894737Y-64939628D01*
X80892712Y-64936344D01*
X80768656Y-64812288D01*
X80619334Y-64720186D01*
X80452797Y-64665001D01*
X80452795Y-64665000D01*
X80350010Y-64654500D01*
X79749998Y-64654500D01*
X79749980Y-64654501D01*
X79647203Y-64665000D01*
X79647200Y-64665001D01*
X79480668Y-64720185D01*
X79480663Y-64720187D01*
X79331342Y-64812289D01*
X79207289Y-64936342D01*
X79115187Y-65085663D01*
X79115185Y-65085668D01*
X79079121Y-65194504D01*
X79065250Y-65214536D01*
X79055128Y-65236703D01*
X79045715Y-65242751D01*
X79039348Y-65251949D01*
X79016848Y-65261303D01*
X78996350Y-65274477D01*
X78979249Y-65276935D01*
X78974833Y-65278772D01*
X78961415Y-65279500D01*
X78849602Y-65279500D01*
X78782563Y-65259815D01*
X78739117Y-65211795D01*
X78732284Y-65198385D01*
X78611971Y-65032786D01*
X78467213Y-64888028D01*
X78301614Y-64767715D01*
X78295006Y-64764348D01*
X78208917Y-64720483D01*
X78158123Y-64672511D01*
X78141328Y-64604690D01*
X78163865Y-64538555D01*
X78208917Y-64499516D01*
X78301610Y-64452287D01*
X78322770Y-64436913D01*
X78467213Y-64331971D01*
X78467215Y-64331968D01*
X78467219Y-64331966D01*
X78611966Y-64187219D01*
X78611968Y-64187215D01*
X78611971Y-64187213D01*
X78678487Y-64095660D01*
X78732287Y-64021610D01*
X78825220Y-63839219D01*
X78888477Y-63644534D01*
X78920500Y-63442352D01*
X78920500Y-63237648D01*
X78902686Y-63125179D01*
X78888477Y-63035465D01*
X78825218Y-62840776D01*
X78787543Y-62766835D01*
X78732287Y-62658390D01*
X78724556Y-62647749D01*
X78611971Y-62492786D01*
X78467213Y-62348028D01*
X78301614Y-62227715D01*
X78295006Y-62224348D01*
X78208917Y-62180483D01*
X78158123Y-62132511D01*
X78141328Y-62064690D01*
X78163865Y-61998555D01*
X78208917Y-61959516D01*
X78301610Y-61912287D01*
X78383079Y-61853097D01*
X78467213Y-61791971D01*
X78467215Y-61791968D01*
X78467219Y-61791966D01*
X78611966Y-61647219D01*
X78611968Y-61647215D01*
X78611971Y-61647213D01*
X78677756Y-61556666D01*
X78732287Y-61481610D01*
X78825220Y-61299219D01*
X78888477Y-61104534D01*
X78920500Y-60902352D01*
X78920500Y-60697648D01*
X78888477Y-60495466D01*
X78825220Y-60300781D01*
X78825218Y-60300778D01*
X78825218Y-60300776D01*
X78791503Y-60234607D01*
X78732287Y-60118390D01*
X78723040Y-60105663D01*
X78611971Y-59952786D01*
X78467213Y-59808028D01*
X78301614Y-59687715D01*
X78287783Y-59680668D01*
X78208917Y-59640483D01*
X78158123Y-59592511D01*
X78141328Y-59524690D01*
X78163865Y-59458555D01*
X78208917Y-59419516D01*
X78301610Y-59372287D01*
X78380202Y-59315187D01*
X78467213Y-59251971D01*
X78467215Y-59251968D01*
X78467219Y-59251966D01*
X78611966Y-59107219D01*
X78611968Y-59107215D01*
X78611971Y-59107213D01*
X78664732Y-59034590D01*
X78732287Y-58941610D01*
X78825220Y-58759219D01*
X78888477Y-58564534D01*
X78920500Y-58362352D01*
X78920500Y-58157648D01*
X78899661Y-58026079D01*
X78888477Y-57955465D01*
X78825218Y-57760776D01*
X78780603Y-57673215D01*
X78732287Y-57578390D01*
X78674971Y-57499500D01*
X78611971Y-57412786D01*
X78467213Y-57268028D01*
X78301614Y-57147715D01*
X78295006Y-57144348D01*
X78208917Y-57100483D01*
X78158123Y-57052511D01*
X78141328Y-56984690D01*
X78163865Y-56918555D01*
X78208917Y-56879516D01*
X78301610Y-56832287D01*
X78322770Y-56816913D01*
X78467213Y-56711971D01*
X78467215Y-56711968D01*
X78467219Y-56711966D01*
X78611966Y-56567219D01*
X78611968Y-56567215D01*
X78611971Y-56567213D01*
X78720128Y-56418345D01*
X78732287Y-56401610D01*
X78825220Y-56219219D01*
X78888477Y-56024534D01*
X78892365Y-55999986D01*
X80687501Y-55999986D01*
X80697994Y-56102697D01*
X80753141Y-56269119D01*
X80753143Y-56269124D01*
X80845184Y-56418345D01*
X80969154Y-56542315D01*
X81118375Y-56634356D01*
X81118380Y-56634358D01*
X81284802Y-56689505D01*
X81284809Y-56689506D01*
X81387519Y-56699999D01*
X81662499Y-56699999D01*
X82162500Y-56699999D01*
X82437472Y-56699999D01*
X82437486Y-56699998D01*
X82540197Y-56689505D01*
X82706619Y-56634358D01*
X82706624Y-56634356D01*
X82855845Y-56542315D01*
X82979815Y-56418345D01*
X83071856Y-56269124D01*
X83071858Y-56269119D01*
X83127005Y-56102697D01*
X83127006Y-56102690D01*
X83137499Y-55999986D01*
X83137500Y-55999973D01*
X83137500Y-55950000D01*
X82162500Y-55950000D01*
X82162500Y-56699999D01*
X81662499Y-56699999D01*
X81662500Y-56699998D01*
X81662500Y-55950000D01*
X80687501Y-55950000D01*
X80687501Y-55999986D01*
X78892365Y-55999986D01*
X78894768Y-55984813D01*
X78911490Y-55879240D01*
X78911490Y-55879239D01*
X78920500Y-55822352D01*
X78920500Y-55617648D01*
X78888477Y-55415465D01*
X78825218Y-55220776D01*
X78779413Y-55130880D01*
X78732287Y-55038390D01*
X78724556Y-55027749D01*
X78611971Y-54872786D01*
X78467213Y-54728028D01*
X78301614Y-54607715D01*
X78289214Y-54601397D01*
X78208917Y-54560483D01*
X78158123Y-54512511D01*
X78141328Y-54444690D01*
X78163865Y-54378555D01*
X78208917Y-54339516D01*
X78301610Y-54292287D01*
X78424781Y-54202799D01*
X78467213Y-54171971D01*
X78467215Y-54171968D01*
X78467219Y-54171966D01*
X78611966Y-54027219D01*
X78611968Y-54027215D01*
X78611971Y-54027213D01*
X78664732Y-53954590D01*
X78732287Y-53861610D01*
X78825220Y-53679219D01*
X78888477Y-53484534D01*
X78920500Y-53282352D01*
X78920500Y-53077648D01*
X78888477Y-52875466D01*
X78825220Y-52680781D01*
X78825218Y-52680778D01*
X78825218Y-52680776D01*
X78754420Y-52541829D01*
X78732287Y-52498390D01*
X78675133Y-52419723D01*
X78611971Y-52332786D01*
X78467213Y-52188028D01*
X78301611Y-52067713D01*
X78208369Y-52020203D01*
X78157574Y-51972229D01*
X78140779Y-51904407D01*
X78163317Y-51838273D01*
X78208371Y-51799234D01*
X78301346Y-51751861D01*
X78301347Y-51751861D01*
X78345921Y-51719474D01*
X77684090Y-51057643D01*
X77782114Y-51031378D01*
X77877886Y-50976084D01*
X77956084Y-50897886D01*
X78011378Y-50802114D01*
X78037643Y-50704090D01*
X78699474Y-51365921D01*
X78731859Y-51321349D01*
X78824756Y-51139028D01*
X78833494Y-51112136D01*
X78872930Y-51054460D01*
X78937289Y-51027261D01*
X79006135Y-51039175D01*
X79057612Y-51086418D01*
X79074783Y-51137851D01*
X79085494Y-51242697D01*
X79140641Y-51409119D01*
X79140643Y-51409124D01*
X79232684Y-51558345D01*
X79356654Y-51682315D01*
X79505875Y-51774356D01*
X79505880Y-51774358D01*
X79672302Y-51829505D01*
X79672309Y-51829506D01*
X79775019Y-51839999D01*
X79837499Y-51839998D01*
X79837500Y-51839998D01*
X79837500Y-50764000D01*
X79857185Y-50696961D01*
X79909989Y-50651206D01*
X79961500Y-50640000D01*
X80213500Y-50640000D01*
X80280539Y-50659685D01*
X80326294Y-50712489D01*
X80337500Y-50764000D01*
X80337500Y-51839999D01*
X80399972Y-51839999D01*
X80399986Y-51839998D01*
X80502697Y-51829505D01*
X80669119Y-51774358D01*
X80669124Y-51774356D01*
X80822824Y-51679553D01*
X80890216Y-51661113D01*
X80956880Y-51682035D01*
X81001650Y-51735677D01*
X81010311Y-51805008D01*
X81002482Y-51832544D01*
X80950450Y-51958160D01*
X80950447Y-51958170D01*
X80912000Y-52151456D01*
X80912000Y-52151459D01*
X80912000Y-52348541D01*
X80912000Y-52348543D01*
X80911999Y-52348543D01*
X80950447Y-52541829D01*
X80950450Y-52541839D01*
X81025864Y-52723906D01*
X81025865Y-52723907D01*
X81025868Y-52723914D01*
X81025871Y-52723918D01*
X81025873Y-52723922D01*
X81048208Y-52757350D01*
X81069085Y-52824028D01*
X81050599Y-52891408D01*
X81010203Y-52931777D01*
X80968844Y-52957287D01*
X80844789Y-53081342D01*
X80752687Y-53230663D01*
X80752686Y-53230666D01*
X80697501Y-53397203D01*
X80697501Y-53397204D01*
X80697500Y-53397204D01*
X80687000Y-53499983D01*
X80687000Y-54100001D01*
X80687001Y-54100019D01*
X80697500Y-54202796D01*
X80697501Y-54202799D01*
X80752685Y-54369331D01*
X80752687Y-54369336D01*
X80787569Y-54425888D01*
X80844788Y-54518656D01*
X80968844Y-54642712D01*
X80972128Y-54644737D01*
X80972153Y-54644753D01*
X80973945Y-54646746D01*
X80974511Y-54647193D01*
X80974434Y-54647289D01*
X81018879Y-54696699D01*
X81030103Y-54765661D01*
X81002261Y-54829744D01*
X80972165Y-54855826D01*
X80969160Y-54857679D01*
X80969155Y-54857683D01*
X80845184Y-54981654D01*
X80753143Y-55130875D01*
X80753141Y-55130880D01*
X80697994Y-55297302D01*
X80697993Y-55297309D01*
X80687500Y-55400013D01*
X80687500Y-55450000D01*
X83137499Y-55450000D01*
X83137499Y-55400028D01*
X83137498Y-55400013D01*
X83127005Y-55297302D01*
X83071858Y-55130880D01*
X83071856Y-55130875D01*
X82979815Y-54981654D01*
X82855844Y-54857683D01*
X82855841Y-54857681D01*
X82852839Y-54855829D01*
X82851213Y-54854021D01*
X82850177Y-54853202D01*
X82850317Y-54853024D01*
X82806117Y-54803880D01*
X82794897Y-54734917D01*
X82822743Y-54670836D01*
X82852844Y-54644754D01*
X82856156Y-54642712D01*
X82980212Y-54518656D01*
X83072314Y-54369334D01*
X83127499Y-54202797D01*
X83138000Y-54100009D01*
X83137999Y-53499992D01*
X83127499Y-53397203D01*
X83072314Y-53230666D01*
X82980212Y-53081344D01*
X82856156Y-52957288D01*
X82814796Y-52931777D01*
X82768073Y-52879830D01*
X82756850Y-52810867D01*
X82776793Y-52757347D01*
X82787137Y-52741865D01*
X82799132Y-52723914D01*
X82874551Y-52541835D01*
X82898841Y-52419723D01*
X82913000Y-52348543D01*
X82913000Y-52151456D01*
X82874552Y-51958170D01*
X82874551Y-51958169D01*
X82874551Y-51958165D01*
X82863442Y-51931345D01*
X82799135Y-51776092D01*
X82799128Y-51776079D01*
X82755994Y-51711525D01*
X82735116Y-51644848D01*
X82753600Y-51577468D01*
X82763706Y-51564699D01*
X82763231Y-51564324D01*
X82767707Y-51558661D01*
X82767707Y-51558660D01*
X82767712Y-51558656D01*
X82859814Y-51409334D01*
X82914999Y-51242797D01*
X82925500Y-51140009D01*
X82925499Y-50139992D01*
X82914999Y-50037203D01*
X82859814Y-49870666D01*
X82767712Y-49721344D01*
X82643656Y-49597288D01*
X82643655Y-49597287D01*
X82571902Y-49553029D01*
X82565078Y-49545442D01*
X82555797Y-49541204D01*
X82542109Y-49519905D01*
X82525178Y-49501081D01*
X82522533Y-49489444D01*
X82518023Y-49482426D01*
X82513000Y-49447491D01*
X82513000Y-49292507D01*
X82532685Y-49225468D01*
X82571903Y-49186968D01*
X82643656Y-49142712D01*
X82767712Y-49018656D01*
X82859814Y-48869334D01*
X82914999Y-48702797D01*
X82925500Y-48600009D01*
X82925499Y-47599992D01*
X82914999Y-47497203D01*
X82859814Y-47330666D01*
X82767712Y-47181344D01*
X82643656Y-47057288D01*
X82494334Y-46965186D01*
X82327797Y-46910001D01*
X82327795Y-46910000D01*
X82225010Y-46899500D01*
X81599998Y-46899500D01*
X81599980Y-46899501D01*
X81497203Y-46910000D01*
X81497200Y-46910001D01*
X81330668Y-46965185D01*
X81330663Y-46965187D01*
X81181342Y-47057289D01*
X81087681Y-47150951D01*
X81026358Y-47184436D01*
X80956666Y-47179452D01*
X80912319Y-47150951D01*
X80818657Y-47057289D01*
X80818656Y-47057288D01*
X80669334Y-46965186D01*
X80502797Y-46910001D01*
X80502795Y-46910000D01*
X80400010Y-46899500D01*
X79774998Y-46899500D01*
X79774980Y-46899501D01*
X79672203Y-46910000D01*
X79672200Y-46910001D01*
X79505668Y-46965185D01*
X79505663Y-46965187D01*
X79356342Y-47057289D01*
X79350451Y-47063181D01*
X79289128Y-47096666D01*
X79262770Y-47099500D01*
X78495762Y-47099500D01*
X78428723Y-47079815D01*
X78422877Y-47075818D01*
X78301613Y-46987715D01*
X78301612Y-46987714D01*
X78301610Y-46987713D01*
X78244653Y-46958691D01*
X78119223Y-46894781D01*
X77924534Y-46831522D01*
X77749995Y-46803878D01*
X77722352Y-46799500D01*
X77517648Y-46799500D01*
X77493329Y-46803351D01*
X77315465Y-46831522D01*
X77120776Y-46894781D01*
X76938386Y-46987715D01*
X76817123Y-47075818D01*
X76751317Y-47099298D01*
X76744238Y-47099500D01*
X72124499Y-47099500D01*
X72057460Y-47079815D01*
X72011705Y-47027011D01*
X72000499Y-46975500D01*
X72000499Y-46549998D01*
X72000498Y-46549981D01*
X71989999Y-46447203D01*
X71989998Y-46447200D01*
X71934814Y-46280666D01*
X71842712Y-46131344D01*
X71718656Y-46007288D01*
X71625888Y-45950069D01*
X71569336Y-45915187D01*
X71569331Y-45915185D01*
X71564901Y-45913717D01*
X71402797Y-45860001D01*
X71402795Y-45860000D01*
X71300010Y-45849500D01*
X70699998Y-45849500D01*
X70699980Y-45849501D01*
X70597203Y-45860000D01*
X70597200Y-45860001D01*
X70430668Y-45915185D01*
X70430663Y-45915187D01*
X70281342Y-46007289D01*
X70157288Y-46131343D01*
X70157285Y-46131347D01*
X70105244Y-46215719D01*
X70053296Y-46262444D01*
X69984334Y-46273665D01*
X69920252Y-46245822D01*
X69894167Y-46215719D01*
X69842315Y-46131654D01*
X69718345Y-46007684D01*
X69569124Y-45915643D01*
X69569119Y-45915641D01*
X69402697Y-45860494D01*
X69402690Y-45860493D01*
X69299986Y-45850000D01*
X69250000Y-45850000D01*
X69250000Y-50349999D01*
X69299972Y-50349999D01*
X69299986Y-50349998D01*
X69402697Y-50339505D01*
X69569119Y-50284358D01*
X69569124Y-50284356D01*
X69718345Y-50192315D01*
X69842317Y-50068343D01*
X69894167Y-49984281D01*
X69946115Y-49937556D01*
X70015077Y-49926333D01*
X70079159Y-49954176D01*
X70105244Y-49984279D01*
X70157288Y-50068656D01*
X70281344Y-50192712D01*
X70430666Y-50284814D01*
X70597203Y-50339999D01*
X70699991Y-50350500D01*
X71300008Y-50350499D01*
X71300016Y-50350498D01*
X71300019Y-50350498D01*
X71356302Y-50344748D01*
X71402797Y-50339999D01*
X71569334Y-50284814D01*
X71718656Y-50192712D01*
X71842712Y-50068656D01*
X71934814Y-49919334D01*
X71989999Y-49752797D01*
X72000500Y-49650009D01*
X72000500Y-49224500D01*
X72020185Y-49157461D01*
X72072989Y-49111706D01*
X72124500Y-49100500D01*
X76744238Y-49100500D01*
X76811277Y-49120185D01*
X76817119Y-49124179D01*
X76938390Y-49212287D01*
X77027267Y-49257572D01*
X77031630Y-49259795D01*
X77082426Y-49307770D01*
X77099221Y-49375591D01*
X77076684Y-49441725D01*
X77031630Y-49480765D01*
X76938644Y-49528143D01*
X76894077Y-49560523D01*
X76894077Y-49560524D01*
X77555910Y-50222356D01*
X77457886Y-50248622D01*
X77362114Y-50303916D01*
X77283916Y-50382114D01*
X77228622Y-50477886D01*
X77202356Y-50575909D01*
X76540524Y-49914077D01*
X76540523Y-49914077D01*
X76508143Y-49958644D01*
X76415244Y-50140968D01*
X76352009Y-50335582D01*
X76320000Y-50537682D01*
X76320000Y-50742317D01*
X76352009Y-50944417D01*
X76415244Y-51139031D01*
X76508141Y-51321350D01*
X76508147Y-51321359D01*
X76540523Y-51365921D01*
X76540524Y-51365922D01*
X77202356Y-50704089D01*
X77228622Y-50802114D01*
X77283916Y-50897886D01*
X77362114Y-50976084D01*
X77457886Y-51031378D01*
X77555909Y-51057643D01*
X76894076Y-51719474D01*
X76938652Y-51751861D01*
X77031628Y-51799234D01*
X77082425Y-51847208D01*
X77099220Y-51915029D01*
X77076683Y-51981164D01*
X77031630Y-52020203D01*
X76938388Y-52067713D01*
X76772786Y-52188028D01*
X76628028Y-52332786D01*
X76507715Y-52498386D01*
X76414781Y-52680778D01*
X76351522Y-52875468D01*
X76328073Y-53023515D01*
X76298143Y-53086649D01*
X76293281Y-53091797D01*
X74862220Y-54522859D01*
X74862217Y-54522862D01*
X74812180Y-54572898D01*
X74750857Y-54606382D01*
X74681165Y-54601397D01*
X74625232Y-54559525D01*
X74600816Y-54494061D01*
X74600500Y-54485216D01*
X74600500Y-52349997D01*
X74600499Y-52349984D01*
X74598741Y-52332780D01*
X74589999Y-52247203D01*
X74534814Y-52080666D01*
X74526824Y-52067713D01*
X74442713Y-51931348D01*
X74442710Y-51931344D01*
X74318655Y-51807289D01*
X74318651Y-51807286D01*
X74169337Y-51715187D01*
X74169335Y-51715186D01*
X74061801Y-51679553D01*
X74002797Y-51660001D01*
X74002795Y-51660000D01*
X73900015Y-51649500D01*
X73900008Y-51649500D01*
X72799992Y-51649500D01*
X72799984Y-51649500D01*
X72697204Y-51660000D01*
X72697203Y-51660001D01*
X72530664Y-51715186D01*
X72530662Y-51715187D01*
X72381348Y-51807286D01*
X72381344Y-51807289D01*
X72257289Y-51931344D01*
X72257286Y-51931348D01*
X72165187Y-52080662D01*
X72165186Y-52080664D01*
X72110001Y-52247203D01*
X72110000Y-52247204D01*
X72099500Y-52349984D01*
X72099500Y-55350015D01*
X72110000Y-55452795D01*
X72110001Y-55452796D01*
X72165186Y-55619335D01*
X72165187Y-55619337D01*
X72257286Y-55768651D01*
X72257289Y-55768655D01*
X72381344Y-55892710D01*
X72381348Y-55892713D01*
X72530662Y-55984812D01*
X72530664Y-55984813D01*
X72530666Y-55984814D01*
X72697203Y-56039999D01*
X72799992Y-56050500D01*
X72799997Y-56050500D01*
X73900003Y-56050500D01*
X73900008Y-56050500D01*
X74002797Y-56039999D01*
X74169334Y-55984814D01*
X74310403Y-55897800D01*
X74377795Y-55879360D01*
X74444458Y-55900282D01*
X74489228Y-55953924D01*
X74499500Y-56003339D01*
X74499500Y-56646716D01*
X74479815Y-56713755D01*
X74463181Y-56734397D01*
X71984396Y-59213181D01*
X71923073Y-59246666D01*
X71896717Y-59249500D01*
X71850000Y-59249500D01*
X71849980Y-59249501D01*
X71747203Y-59260000D01*
X71747200Y-59260001D01*
X71580668Y-59315185D01*
X71580663Y-59315187D01*
X71431342Y-59407289D01*
X71337681Y-59500951D01*
X71276358Y-59534436D01*
X71206666Y-59529452D01*
X71162319Y-59500951D01*
X71068657Y-59407289D01*
X71068656Y-59407288D01*
X70919334Y-59315186D01*
X70752797Y-59260001D01*
X70752795Y-59260000D01*
X70650010Y-59249500D01*
X70024998Y-59249500D01*
X70024980Y-59249501D01*
X69922203Y-59260000D01*
X69922200Y-59260001D01*
X69755668Y-59315185D01*
X69755663Y-59315187D01*
X69606342Y-59407289D01*
X69482289Y-59531342D01*
X69390187Y-59680663D01*
X69390185Y-59680668D01*
X69387851Y-59687713D01*
X69335001Y-59847203D01*
X69335001Y-59847204D01*
X69335000Y-59847204D01*
X69324500Y-59949983D01*
X69324500Y-60060567D01*
X69304815Y-60127606D01*
X69252011Y-60173361D01*
X69182853Y-60183305D01*
X69119297Y-60154280D01*
X69090423Y-60111015D01*
X69087864Y-60112209D01*
X69084815Y-60105670D01*
X69084814Y-60105666D01*
X68992712Y-59956344D01*
X68868656Y-59832288D01*
X68719334Y-59740186D01*
X68635495Y-59712404D01*
X68578051Y-59672632D01*
X68551228Y-59608116D01*
X68550500Y-59594699D01*
X68550500Y-58870945D01*
X68550500Y-58870943D01*
X68509577Y-58718216D01*
X68509577Y-58718215D01*
X68509577Y-58718214D01*
X68508457Y-58716275D01*
X68491983Y-58648375D01*
X68494226Y-58630079D01*
X68500500Y-58598541D01*
X68500500Y-58401456D01*
X68462052Y-58208170D01*
X68462051Y-58208169D01*
X68462051Y-58208165D01*
X68462049Y-58208160D01*
X68386635Y-58026092D01*
X68386628Y-58026079D01*
X68277139Y-57862218D01*
X68277136Y-57862214D01*
X68137785Y-57722863D01*
X68137781Y-57722860D01*
X67973920Y-57613371D01*
X67973907Y-57613364D01*
X67791839Y-57537950D01*
X67791829Y-57537947D01*
X67598543Y-57499500D01*
X67598541Y-57499500D01*
X67401459Y-57499500D01*
X67401457Y-57499500D01*
X67208170Y-57537947D01*
X67208160Y-57537950D01*
X67026092Y-57613364D01*
X67026079Y-57613371D01*
X66862218Y-57722860D01*
X66862214Y-57722863D01*
X66722863Y-57862214D01*
X66722860Y-57862218D01*
X66613371Y-58026079D01*
X66613364Y-58026092D01*
X66537950Y-58208160D01*
X66537947Y-58208170D01*
X66499500Y-58401456D01*
X66499500Y-58401459D01*
X66499500Y-58598541D01*
X66499500Y-58598543D01*
X66499499Y-58598543D01*
X66537947Y-58791829D01*
X66537950Y-58791839D01*
X66613364Y-58973907D01*
X66613371Y-58973920D01*
X66722860Y-59137781D01*
X66722863Y-59137785D01*
X66862214Y-59277136D01*
X66862218Y-59277139D01*
X67026079Y-59386628D01*
X67026092Y-59386635D01*
X67105473Y-59419515D01*
X67208165Y-59462051D01*
X67249692Y-59470311D01*
X67277821Y-59485025D01*
X67306703Y-59498215D01*
X67308559Y-59501104D01*
X67311601Y-59502695D01*
X67327309Y-59530278D01*
X67344477Y-59556993D01*
X67345137Y-59561586D01*
X67346176Y-59563410D01*
X67349500Y-59591928D01*
X67349500Y-59594699D01*
X67329815Y-59661738D01*
X67277011Y-59707493D01*
X67264507Y-59712403D01*
X67231962Y-59723188D01*
X67180668Y-59740185D01*
X67180663Y-59740187D01*
X67031342Y-59832289D01*
X66907289Y-59956342D01*
X66815187Y-60105663D01*
X66815185Y-60105668D01*
X66807916Y-60127606D01*
X66760001Y-60272203D01*
X66760001Y-60272204D01*
X66760000Y-60272204D01*
X66749500Y-60374983D01*
X66749500Y-61000001D01*
X66749501Y-61000019D01*
X66760000Y-61102796D01*
X66760001Y-61102799D01*
X66815185Y-61269331D01*
X66815187Y-61269336D01*
X66907289Y-61418657D01*
X67000951Y-61512319D01*
X67034436Y-61573642D01*
X67029452Y-61643334D01*
X67000951Y-61687681D01*
X66907289Y-61781342D01*
X66815187Y-61930663D01*
X66815186Y-61930666D01*
X66760001Y-62097203D01*
X66760001Y-62097204D01*
X66760000Y-62097204D01*
X66749500Y-62199983D01*
X66749500Y-62825001D01*
X66749501Y-62825019D01*
X66760000Y-62927796D01*
X66760001Y-62927799D01*
X66795679Y-63035466D01*
X66815186Y-63094334D01*
X66907288Y-63243656D01*
X67031344Y-63367712D01*
X67180666Y-63459814D01*
X67347203Y-63514999D01*
X67449991Y-63525500D01*
X68450008Y-63525499D01*
X68450016Y-63525498D01*
X68450019Y-63525498D01*
X68506302Y-63519748D01*
X68552797Y-63514999D01*
X68719334Y-63459814D01*
X68868656Y-63367712D01*
X68992712Y-63243656D01*
X69036970Y-63171902D01*
X69044556Y-63165078D01*
X69048795Y-63155797D01*
X69070094Y-63142108D01*
X69088917Y-63125179D01*
X69100552Y-63122534D01*
X69107573Y-63118023D01*
X69142508Y-63113000D01*
X69383278Y-63113000D01*
X69450317Y-63132685D01*
X69496072Y-63185489D01*
X69502354Y-63202405D01*
X69548254Y-63360393D01*
X69548255Y-63360396D01*
X69548256Y-63360398D01*
X69585681Y-63423681D01*
X69631917Y-63501862D01*
X69631923Y-63501870D01*
X69748129Y-63618076D01*
X69748133Y-63618079D01*
X69748135Y-63618081D01*
X69889602Y-63701744D01*
X69931224Y-63713836D01*
X70047426Y-63747597D01*
X70047429Y-63747597D01*
X70047431Y-63747598D01*
X70084306Y-63750500D01*
X70245341Y-63750500D01*
X70312380Y-63770185D01*
X70358135Y-63822989D01*
X70368079Y-63892147D01*
X70359902Y-63921952D01*
X70287950Y-64095660D01*
X70287947Y-64095670D01*
X70249500Y-64288956D01*
X70249500Y-66287334D01*
X70229815Y-66354373D01*
X70213181Y-66375015D01*
X70030422Y-66557774D01*
X70030420Y-66557776D01*
X69960740Y-66627455D01*
X69891061Y-66697134D01*
X69781573Y-66860994D01*
X69781568Y-66861004D01*
X69754787Y-66925659D01*
X69732563Y-66979314D01*
X69728240Y-66989750D01*
X69706152Y-67043074D01*
X69706150Y-67043082D01*
X69693735Y-67105498D01*
X69693735Y-67105499D01*
X69667702Y-67236371D01*
X69667702Y-68263768D01*
X69681954Y-68335414D01*
X69681954Y-68335415D01*
X69705775Y-68455173D01*
X69706150Y-68457056D01*
X69706151Y-68457062D01*
X69781566Y-68639132D01*
X69781573Y-68639145D01*
X69891062Y-68803006D01*
X69891065Y-68803010D01*
X69892639Y-68804584D01*
X69893199Y-68805611D01*
X69894928Y-68807717D01*
X69894528Y-68808044D01*
X69926124Y-68865907D01*
X69921140Y-68935599D01*
X69879268Y-68991532D01*
X69829150Y-69013882D01*
X69708170Y-69037947D01*
X69708160Y-69037950D01*
X69526093Y-69113364D01*
X69526082Y-69113370D01*
X69443890Y-69168289D01*
X69377212Y-69189166D01*
X69309832Y-69170681D01*
X69306110Y-69168289D01*
X69223917Y-69113370D01*
X69223916Y-69113369D01*
X69223914Y-69113368D01*
X69223911Y-69113366D01*
X69223906Y-69113364D01*
X69041839Y-69037950D01*
X69041829Y-69037947D01*
X68848543Y-68999500D01*
X68848541Y-68999500D01*
X68651459Y-68999500D01*
X68651457Y-68999500D01*
X68458170Y-69037947D01*
X68458160Y-69037950D01*
X68276093Y-69113364D01*
X68276082Y-69113370D01*
X68193890Y-69168289D01*
X68127212Y-69189166D01*
X68059832Y-69170681D01*
X68056110Y-69168289D01*
X67973917Y-69113370D01*
X67973916Y-69113369D01*
X67973914Y-69113368D01*
X67973911Y-69113366D01*
X67973906Y-69113364D01*
X67791839Y-69037950D01*
X67791829Y-69037947D01*
X67598543Y-68999500D01*
X67598541Y-68999500D01*
X67401459Y-68999500D01*
X67401457Y-68999500D01*
X67208170Y-69037947D01*
X67208160Y-69037950D01*
X67026093Y-69113364D01*
X67026082Y-69113370D01*
X66943890Y-69168289D01*
X66877212Y-69189166D01*
X66809832Y-69170681D01*
X66806110Y-69168289D01*
X66723917Y-69113370D01*
X66723916Y-69113369D01*
X66723914Y-69113368D01*
X66723911Y-69113366D01*
X66723906Y-69113364D01*
X66541839Y-69037950D01*
X66541829Y-69037947D01*
X66348543Y-68999500D01*
X66348541Y-68999500D01*
X66151459Y-68999500D01*
X66151457Y-68999500D01*
X65958170Y-69037947D01*
X65958160Y-69037950D01*
X65776093Y-69113364D01*
X65776082Y-69113370D01*
X65693890Y-69168289D01*
X65627212Y-69189166D01*
X65559832Y-69170681D01*
X65556110Y-69168289D01*
X65473917Y-69113370D01*
X65473916Y-69113369D01*
X65473914Y-69113368D01*
X65473911Y-69113366D01*
X65473906Y-69113364D01*
X65291839Y-69037950D01*
X65291829Y-69037947D01*
X65098543Y-68999500D01*
X65098541Y-68999500D01*
X64901459Y-68999500D01*
X64901457Y-68999500D01*
X64708170Y-69037947D01*
X64708160Y-69037950D01*
X64526093Y-69113364D01*
X64526082Y-69113370D01*
X64443890Y-69168289D01*
X64377212Y-69189166D01*
X64309832Y-69170681D01*
X64306110Y-69168289D01*
X64223917Y-69113370D01*
X64223916Y-69113369D01*
X64223914Y-69113368D01*
X64223911Y-69113366D01*
X64223906Y-69113364D01*
X64041839Y-69037950D01*
X64041829Y-69037947D01*
X63848543Y-68999500D01*
X63848541Y-68999500D01*
X63651459Y-68999500D01*
X63651457Y-68999500D01*
X63458170Y-69037947D01*
X63458160Y-69037950D01*
X63276092Y-69113364D01*
X63276079Y-69113371D01*
X63112218Y-69222860D01*
X63112214Y-69222863D01*
X62972863Y-69362214D01*
X62972860Y-69362218D01*
X62863371Y-69526079D01*
X62863364Y-69526092D01*
X62787950Y-69708160D01*
X62787947Y-69708170D01*
X62749500Y-69901456D01*
X62749500Y-69901459D01*
X62749500Y-70098541D01*
X62749500Y-70098543D01*
X62749499Y-70098543D01*
X55500500Y-70098543D01*
X55500500Y-49003051D01*
X55500649Y-48996967D01*
X55510153Y-48803504D01*
X55517052Y-48663068D01*
X55518245Y-48650962D01*
X55540543Y-48500639D01*
X55566849Y-48323296D01*
X55569218Y-48311385D01*
X55649710Y-47990043D01*
X55653232Y-47978431D01*
X55681629Y-47899068D01*
X61079500Y-47899068D01*
X61079500Y-48103771D01*
X61111522Y-48305954D01*
X61174781Y-48500643D01*
X61225415Y-48600016D01*
X61257543Y-48663071D01*
X61267715Y-48683033D01*
X61388028Y-48848633D01*
X61532786Y-48993391D01*
X61680212Y-49100500D01*
X61698390Y-49113707D01*
X61842171Y-49186967D01*
X61885122Y-49208852D01*
X61884489Y-49210093D01*
X61933996Y-49249987D01*
X61956063Y-49316280D01*
X61938786Y-49383980D01*
X61887650Y-49431592D01*
X61881736Y-49434293D01*
X61698386Y-49527715D01*
X61532786Y-49648028D01*
X61388028Y-49792786D01*
X61267715Y-49958386D01*
X61174781Y-50140776D01*
X61111522Y-50335465D01*
X61079500Y-50537648D01*
X61079500Y-50742351D01*
X61111522Y-50944534D01*
X61174781Y-51139223D01*
X61227505Y-51242697D01*
X61267585Y-51321359D01*
X61267715Y-51321613D01*
X61388028Y-51487213D01*
X61532786Y-51631971D01*
X61653226Y-51719474D01*
X61698390Y-51752287D01*
X61789840Y-51798883D01*
X61791080Y-51799515D01*
X61841876Y-51847490D01*
X61858671Y-51915311D01*
X61836134Y-51981446D01*
X61791080Y-52020485D01*
X61698386Y-52067715D01*
X61532786Y-52188028D01*
X61388028Y-52332786D01*
X61267715Y-52498386D01*
X61174781Y-52680776D01*
X61111522Y-52875465D01*
X61079500Y-53077648D01*
X61079500Y-53282351D01*
X61111522Y-53484534D01*
X61174781Y-53679223D01*
X61267715Y-53861613D01*
X61388028Y-54027213D01*
X61532786Y-54171971D01*
X61687749Y-54284556D01*
X61698390Y-54292287D01*
X61789840Y-54338883D01*
X61791080Y-54339515D01*
X61841876Y-54387490D01*
X61858671Y-54455311D01*
X61836134Y-54521446D01*
X61791080Y-54560485D01*
X61698386Y-54607715D01*
X61532786Y-54728028D01*
X61388028Y-54872786D01*
X61267715Y-55038386D01*
X61174781Y-55220776D01*
X61111522Y-55415465D01*
X61079500Y-55617648D01*
X61079500Y-55822351D01*
X61111522Y-56024534D01*
X61174781Y-56219223D01*
X61267715Y-56401613D01*
X61388028Y-56567213D01*
X61532786Y-56711971D01*
X61687749Y-56824556D01*
X61698390Y-56832287D01*
X61789840Y-56878883D01*
X61791080Y-56879515D01*
X61841876Y-56927490D01*
X61858671Y-56995311D01*
X61836134Y-57061446D01*
X61791080Y-57100485D01*
X61698386Y-57147715D01*
X61532786Y-57268028D01*
X61388028Y-57412786D01*
X61267715Y-57578386D01*
X61174781Y-57760776D01*
X61111522Y-57955465D01*
X61079500Y-58157648D01*
X61079500Y-58362351D01*
X61111522Y-58564534D01*
X61174781Y-58759223D01*
X61267715Y-58941613D01*
X61388028Y-59107213D01*
X61532786Y-59251971D01*
X61687749Y-59364556D01*
X61698390Y-59372287D01*
X61789840Y-59418883D01*
X61791080Y-59419515D01*
X61841876Y-59467490D01*
X61858671Y-59535311D01*
X61836134Y-59601446D01*
X61791080Y-59640485D01*
X61698386Y-59687715D01*
X61532786Y-59808028D01*
X61388028Y-59952786D01*
X61267715Y-60118386D01*
X61174781Y-60300776D01*
X61111522Y-60495465D01*
X61079500Y-60697648D01*
X61079500Y-60902351D01*
X61111522Y-61104534D01*
X61174781Y-61299223D01*
X61267715Y-61481613D01*
X61388028Y-61647213D01*
X61532786Y-61791971D01*
X61671290Y-61892598D01*
X61698390Y-61912287D01*
X61789840Y-61958883D01*
X61791080Y-61959515D01*
X61841876Y-62007490D01*
X61858671Y-62075311D01*
X61836134Y-62141446D01*
X61791080Y-62180485D01*
X61698386Y-62227715D01*
X61532786Y-62348028D01*
X61388028Y-62492786D01*
X61267715Y-62658386D01*
X61174781Y-62840776D01*
X61111522Y-63035465D01*
X61079500Y-63237648D01*
X61079500Y-63442351D01*
X61111522Y-63644534D01*
X61174781Y-63839223D01*
X61267715Y-64021613D01*
X61388028Y-64187213D01*
X61532786Y-64331971D01*
X61687749Y-64444556D01*
X61698390Y-64452287D01*
X61789840Y-64498883D01*
X61791080Y-64499515D01*
X61841876Y-64547490D01*
X61858671Y-64615311D01*
X61836134Y-64681446D01*
X61791080Y-64720485D01*
X61698386Y-64767715D01*
X61532786Y-64888028D01*
X61388028Y-65032786D01*
X61267715Y-65198386D01*
X61174781Y-65380776D01*
X61111522Y-65575465D01*
X61079500Y-65777648D01*
X61079500Y-65982351D01*
X61111522Y-66184534D01*
X61174781Y-66379223D01*
X61226385Y-66480500D01*
X61265759Y-66557776D01*
X61267715Y-66561613D01*
X61388028Y-66727213D01*
X61532786Y-66871971D01*
X61680534Y-66979314D01*
X61698390Y-66992287D01*
X61798065Y-67043074D01*
X61880776Y-67085218D01*
X61880778Y-67085218D01*
X61880781Y-67085220D01*
X61985137Y-67119127D01*
X62075465Y-67148477D01*
X62165814Y-67162787D01*
X62277648Y-67180500D01*
X62277649Y-67180500D01*
X62482351Y-67180500D01*
X62482352Y-67180500D01*
X62684534Y-67148477D01*
X62879219Y-67085220D01*
X63061610Y-66992287D01*
X63154590Y-66924732D01*
X63227213Y-66871971D01*
X63227215Y-66871968D01*
X63227219Y-66871966D01*
X63371966Y-66727219D01*
X63371968Y-66727215D01*
X63371971Y-66727213D01*
X63424732Y-66654590D01*
X63492287Y-66561610D01*
X63585220Y-66379219D01*
X63648477Y-66184534D01*
X63680500Y-65982352D01*
X63680500Y-65777648D01*
X63677071Y-65756000D01*
X63648477Y-65575465D01*
X63585218Y-65380776D01*
X63551503Y-65314607D01*
X63492287Y-65198390D01*
X63484556Y-65187749D01*
X63371971Y-65032786D01*
X63227213Y-64888028D01*
X63061614Y-64767715D01*
X63055006Y-64764348D01*
X62968917Y-64720483D01*
X62918123Y-64672511D01*
X62901328Y-64604690D01*
X62923865Y-64538555D01*
X62968917Y-64499516D01*
X63061610Y-64452287D01*
X63082770Y-64436913D01*
X63227213Y-64331971D01*
X63227215Y-64331968D01*
X63227219Y-64331966D01*
X63371966Y-64187219D01*
X63371968Y-64187215D01*
X63371971Y-64187213D01*
X63438487Y-64095660D01*
X63492287Y-64021610D01*
X63585220Y-63839219D01*
X63648477Y-63644534D01*
X63680500Y-63442352D01*
X63680500Y-63237648D01*
X63662686Y-63125179D01*
X63648477Y-63035465D01*
X63585218Y-62840776D01*
X63547543Y-62766835D01*
X63492287Y-62658390D01*
X63484556Y-62647749D01*
X63371971Y-62492786D01*
X63227213Y-62348028D01*
X63061614Y-62227715D01*
X63055006Y-62224348D01*
X62968917Y-62180483D01*
X62918123Y-62132511D01*
X62901328Y-62064690D01*
X62923865Y-61998555D01*
X62968917Y-61959516D01*
X63061610Y-61912287D01*
X63143079Y-61853097D01*
X63227213Y-61791971D01*
X63227215Y-61791968D01*
X63227219Y-61791966D01*
X63371966Y-61647219D01*
X63371968Y-61647215D01*
X63371971Y-61647213D01*
X63437756Y-61556666D01*
X63492287Y-61481610D01*
X63585220Y-61299219D01*
X63648477Y-61104534D01*
X63680500Y-60902352D01*
X63680500Y-60697648D01*
X63648477Y-60495466D01*
X63585220Y-60300781D01*
X63585218Y-60300778D01*
X63585218Y-60300776D01*
X63551503Y-60234607D01*
X63492287Y-60118390D01*
X63483040Y-60105663D01*
X63371971Y-59952786D01*
X63227213Y-59808028D01*
X63061614Y-59687715D01*
X63047783Y-59680668D01*
X62968917Y-59640483D01*
X62918123Y-59592511D01*
X62901328Y-59524690D01*
X62923865Y-59458555D01*
X62968917Y-59419516D01*
X63061610Y-59372287D01*
X63140202Y-59315187D01*
X63227213Y-59251971D01*
X63227215Y-59251968D01*
X63227219Y-59251966D01*
X63371966Y-59107219D01*
X63371968Y-59107215D01*
X63371971Y-59107213D01*
X63424732Y-59034590D01*
X63492287Y-58941610D01*
X63585220Y-58759219D01*
X63648477Y-58564534D01*
X63680500Y-58362352D01*
X63680500Y-58157648D01*
X63659661Y-58026079D01*
X63648477Y-57955465D01*
X63585218Y-57760776D01*
X63540603Y-57673215D01*
X63492287Y-57578390D01*
X63434971Y-57499500D01*
X63371971Y-57412786D01*
X63227213Y-57268028D01*
X63061614Y-57147715D01*
X63055006Y-57144348D01*
X62968917Y-57100483D01*
X62918123Y-57052511D01*
X62901328Y-56984690D01*
X62923865Y-56918555D01*
X62968917Y-56879516D01*
X63061610Y-56832287D01*
X63082770Y-56816913D01*
X63227213Y-56711971D01*
X63227215Y-56711968D01*
X63227219Y-56711966D01*
X63371966Y-56567219D01*
X63371968Y-56567215D01*
X63371971Y-56567213D01*
X63480128Y-56418345D01*
X63492287Y-56401610D01*
X63585220Y-56219219D01*
X63648477Y-56024534D01*
X63680500Y-55822352D01*
X63680500Y-55617648D01*
X63654390Y-55452796D01*
X63648477Y-55415465D01*
X63585218Y-55220776D01*
X63539413Y-55130880D01*
X63492287Y-55038390D01*
X63484556Y-55027749D01*
X63371971Y-54872786D01*
X63227213Y-54728028D01*
X63061614Y-54607715D01*
X63049214Y-54601397D01*
X62968917Y-54560483D01*
X62918123Y-54512511D01*
X62901328Y-54444690D01*
X62923865Y-54378555D01*
X62968917Y-54339516D01*
X63061610Y-54292287D01*
X63184781Y-54202799D01*
X63227213Y-54171971D01*
X63227215Y-54171968D01*
X63227219Y-54171966D01*
X63371966Y-54027219D01*
X63371968Y-54027215D01*
X63371971Y-54027213D01*
X63424732Y-53954590D01*
X63492287Y-53861610D01*
X63585220Y-53679219D01*
X63648477Y-53484534D01*
X63680500Y-53282352D01*
X63680500Y-53077648D01*
X63648477Y-52875466D01*
X63585220Y-52680781D01*
X63585218Y-52680778D01*
X63585218Y-52680776D01*
X63514420Y-52541829D01*
X63492287Y-52498390D01*
X63384465Y-52349984D01*
X65399500Y-52349984D01*
X65399500Y-55350015D01*
X65410000Y-55452795D01*
X65410001Y-55452796D01*
X65465186Y-55619335D01*
X65465187Y-55619337D01*
X65557286Y-55768651D01*
X65557289Y-55768655D01*
X65681344Y-55892710D01*
X65681348Y-55892713D01*
X65830662Y-55984812D01*
X65830664Y-55984813D01*
X65830666Y-55984814D01*
X65997203Y-56039999D01*
X66099992Y-56050500D01*
X66099997Y-56050500D01*
X67200003Y-56050500D01*
X67200008Y-56050500D01*
X67302797Y-56039999D01*
X67469334Y-55984814D01*
X67618655Y-55892711D01*
X67742711Y-55768655D01*
X67834814Y-55619334D01*
X67889999Y-55452797D01*
X67900500Y-55350008D01*
X67900500Y-52349992D01*
X67889999Y-52247203D01*
X67834814Y-52080666D01*
X67826824Y-52067713D01*
X67742713Y-51931348D01*
X67742710Y-51931344D01*
X67618655Y-51807289D01*
X67618651Y-51807286D01*
X67469337Y-51715187D01*
X67469335Y-51715186D01*
X67361801Y-51679553D01*
X67302797Y-51660001D01*
X67302795Y-51660000D01*
X67200015Y-51649500D01*
X67200008Y-51649500D01*
X66099992Y-51649500D01*
X66099984Y-51649500D01*
X65997204Y-51660000D01*
X65997203Y-51660001D01*
X65830664Y-51715186D01*
X65830662Y-51715187D01*
X65681348Y-51807286D01*
X65681344Y-51807289D01*
X65557289Y-51931344D01*
X65557286Y-51931348D01*
X65465187Y-52080662D01*
X65465186Y-52080664D01*
X65410001Y-52247203D01*
X65410000Y-52247204D01*
X65399500Y-52349984D01*
X63384465Y-52349984D01*
X63371966Y-52332781D01*
X63227219Y-52188034D01*
X63227213Y-52188028D01*
X63061614Y-52067715D01*
X63055006Y-52064348D01*
X62968917Y-52020483D01*
X62918123Y-51972511D01*
X62901328Y-51904690D01*
X62923865Y-51838555D01*
X62968917Y-51799516D01*
X63061610Y-51752287D01*
X63157919Y-51682315D01*
X63227213Y-51631971D01*
X63227215Y-51631968D01*
X63227219Y-51631966D01*
X63371966Y-51487219D01*
X63371968Y-51487215D01*
X63371971Y-51487213D01*
X63428705Y-51409124D01*
X63492287Y-51321610D01*
X63584814Y-51140016D01*
X63585218Y-51139223D01*
X63585218Y-51139222D01*
X63585220Y-51139219D01*
X63648477Y-50944534D01*
X63680500Y-50742352D01*
X63680500Y-50537648D01*
X63648477Y-50335465D01*
X63610960Y-50220000D01*
X63585220Y-50140781D01*
X63585218Y-50140778D01*
X63585218Y-50140776D01*
X63532498Y-50037309D01*
X63492287Y-49958390D01*
X63477150Y-49937556D01*
X63371971Y-49792786D01*
X63229171Y-49649986D01*
X68000001Y-49649986D01*
X68010494Y-49752697D01*
X68065641Y-49919119D01*
X68065643Y-49919124D01*
X68157684Y-50068345D01*
X68281654Y-50192315D01*
X68430875Y-50284356D01*
X68430880Y-50284358D01*
X68597302Y-50339505D01*
X68597309Y-50339506D01*
X68700019Y-50349999D01*
X68749999Y-50349998D01*
X68750000Y-50349998D01*
X68750000Y-48350000D01*
X68000001Y-48350000D01*
X68000001Y-49649986D01*
X63229171Y-49649986D01*
X63227213Y-49648028D01*
X63061613Y-49527715D01*
X63061612Y-49527714D01*
X63061610Y-49527713D01*
X62879219Y-49434780D01*
X62874878Y-49432568D01*
X62875511Y-49431323D01*
X62826011Y-49391444D01*
X62803937Y-49325153D01*
X62821207Y-49257451D01*
X62872337Y-49209834D01*
X62878263Y-49207127D01*
X62879219Y-49206640D01*
X63061610Y-49113707D01*
X63154590Y-49046152D01*
X63227213Y-48993391D01*
X63227215Y-48993388D01*
X63227219Y-48993386D01*
X63371966Y-48848639D01*
X63371968Y-48848635D01*
X63371971Y-48848633D01*
X63424732Y-48776010D01*
X63492287Y-48683030D01*
X63585220Y-48500639D01*
X63648477Y-48305954D01*
X63680500Y-48103772D01*
X63680500Y-47899068D01*
X63648477Y-47696886D01*
X63585220Y-47502201D01*
X63585218Y-47502198D01*
X63585218Y-47502196D01*
X63507846Y-47350347D01*
X63492287Y-47319810D01*
X63484556Y-47309169D01*
X63371971Y-47154206D01*
X63227213Y-47009448D01*
X63061613Y-46889135D01*
X63061612Y-46889134D01*
X63061610Y-46889133D01*
X63004653Y-46860111D01*
X62879223Y-46796201D01*
X62684534Y-46732942D01*
X62509995Y-46705298D01*
X62482352Y-46700920D01*
X62277648Y-46700920D01*
X62253329Y-46704771D01*
X62075465Y-46732942D01*
X61880776Y-46796201D01*
X61698386Y-46889135D01*
X61532786Y-47009448D01*
X61388028Y-47154206D01*
X61267715Y-47319806D01*
X61174781Y-47502196D01*
X61111522Y-47696885D01*
X61079500Y-47899068D01*
X55681629Y-47899068D01*
X55764837Y-47666517D01*
X55769476Y-47655318D01*
X55911124Y-47355828D01*
X55916840Y-47345136D01*
X56087145Y-47060998D01*
X56093888Y-47050905D01*
X56291232Y-46784818D01*
X56298935Y-46775433D01*
X56503244Y-46550013D01*
X68000000Y-46550013D01*
X68000000Y-47850000D01*
X68750000Y-47850000D01*
X68750000Y-45850000D01*
X68749999Y-45849999D01*
X68700029Y-45850000D01*
X68700011Y-45850001D01*
X68597302Y-45860494D01*
X68430880Y-45915641D01*
X68430875Y-45915643D01*
X68281654Y-46007684D01*
X68157684Y-46131654D01*
X68065643Y-46280875D01*
X68065641Y-46280880D01*
X68010494Y-46447302D01*
X68010493Y-46447309D01*
X68000000Y-46550013D01*
X56503244Y-46550013D01*
X56521405Y-46529975D01*
X56529975Y-46521405D01*
X56775433Y-46298935D01*
X56784818Y-46291232D01*
X57050905Y-46093888D01*
X57060998Y-46087145D01*
X57345136Y-45916840D01*
X57355828Y-45911124D01*
X57655318Y-45769476D01*
X57666525Y-45764835D01*
X57978412Y-45653239D01*
X57990043Y-45649710D01*
X58311385Y-45569218D01*
X58323296Y-45566849D01*
X58650962Y-45518244D01*
X58663068Y-45517052D01*
X58996967Y-45500648D01*
X59003051Y-45500500D01*
X59065892Y-45500500D01*
X80934108Y-45500500D01*
X80996949Y-45500500D01*
X81003032Y-45500648D01*
G37*
%TD.AperFunction*%
%TD*%
M02*
