%TF.GenerationSoftware,KiCad,Pcbnew,10.0.3*%
%TF.CreationDate,2026-05-22T03:26:30+01:00*%
%TF.ProjectId,ProjectKurinda_PCB,50726f6a-6563-4744-9b75-72696e64615f,rev?*%
%TF.SameCoordinates,Original*%
%TF.FileFunction,Drillmap*%
%TF.FilePolarity,Positive*%
%FSLAX45Y45*%
G04 Gerber Fmt 4.5, Leading zero omitted, Abs format (unit mm)*
G04 Created by KiCad (PCBNEW 10.0.3) date 2026-05-22 03:26:30*
%MOMM*%
%LPD*%
G01*
G04 APERTURE LIST*
%ADD10C,0.050000*%
%ADD11C,0.200000*%
%ADD12C,0.100000*%
G04 APERTURE END LIST*
D10*
X5961803Y-7250000D02*
G75*
G02*
X5738197Y-7250000I-111803J0D01*
G01*
X5738197Y-7250000D02*
G75*
G02*
X5961803Y-7250000I111803J0D01*
G01*
X8261803Y-7250000D02*
G75*
G02*
X8038197Y-7250000I-111803J0D01*
G01*
X8038197Y-7250000D02*
G75*
G02*
X8261803Y-7250000I111803J0D01*
G01*
X8261803Y-14650000D02*
G75*
G02*
X8038197Y-14650000I-111803J0D01*
G01*
X8038197Y-14650000D02*
G75*
G02*
X8261803Y-14650000I111803J0D01*
G01*
X5961803Y-14650000D02*
G75*
G02*
X5738197Y-14650000I-111803J0D01*
G01*
X5738197Y-14650000D02*
G75*
G02*
X5961803Y-14650000I111803J0D01*
G01*
X5500000Y-4900000D02*
X5500000Y-4900000D01*
G75*
G02*
X5900000Y-4500000I400000J0D01*
G01*
X8100000Y-4500000D01*
G75*
G02*
X8500000Y-4900000I0J-400000D01*
G01*
X8500000Y-14600000D01*
G75*
G02*
X8100000Y-15000000I-400000J0D01*
G01*
X5900000Y-15000000D01*
G75*
G02*
X5500000Y-14600000I0J400000D01*
G01*
X5500000Y-4900000D01*
D11*
D12*
X5970000Y-12470000D02*
X6030000Y-12530000D01*
X6030000Y-12470000D02*
X5970000Y-12530000D01*
X6635000Y-5270000D02*
X6695000Y-5330000D01*
X6695000Y-5270000D02*
X6635000Y-5330000D01*
X6635000Y-5420000D02*
X6695000Y-5480000D01*
X6695000Y-5420000D02*
X6635000Y-5480000D01*
X6670000Y-5970000D02*
X6730000Y-6030000D01*
X6730000Y-5970000D02*
X6670000Y-6030000D01*
X6970000Y-14470000D02*
X7030000Y-14530000D01*
X7030000Y-14470000D02*
X6970000Y-14530000D01*
X7305000Y-5270000D02*
X7365000Y-5330000D01*
X7365000Y-5270000D02*
X7305000Y-5330000D01*
X7305000Y-5420000D02*
X7365000Y-5480000D01*
X7365000Y-5420000D02*
X7305000Y-5480000D01*
X7470000Y-9470000D02*
X7530000Y-9530000D01*
X7530000Y-9470000D02*
X7470000Y-9530000D01*
X7470000Y-11470000D02*
X7530000Y-11530000D01*
X7530000Y-11470000D02*
X7470000Y-11530000D01*
X6280000Y-4800142D02*
G75*
G02*
X6196000Y-4800142I-42000J0D01*
G01*
X6196000Y-4800142D02*
G75*
G02*
X6280000Y-4800142I42000J0D01*
G01*
X6280000Y-5064000D02*
G75*
G02*
X6196000Y-5064000I-42000J0D01*
G01*
X6196000Y-5064000D02*
G75*
G02*
X6280000Y-5064000I42000J0D01*
G01*
X6280000Y-5318000D02*
G75*
G02*
X6196000Y-5318000I-42000J0D01*
G01*
X6196000Y-5318000D02*
G75*
G02*
X6280000Y-5318000I42000J0D01*
G01*
X6280000Y-5572000D02*
G75*
G02*
X6196000Y-5572000I-42000J0D01*
G01*
X6196000Y-5572000D02*
G75*
G02*
X6280000Y-5572000I42000J0D01*
G01*
X6280000Y-5826000D02*
G75*
G02*
X6196000Y-5826000I-42000J0D01*
G01*
X6196000Y-5826000D02*
G75*
G02*
X6280000Y-5826000I42000J0D01*
G01*
X6280000Y-6080000D02*
G75*
G02*
X6196000Y-6080000I-42000J0D01*
G01*
X6196000Y-6080000D02*
G75*
G02*
X6280000Y-6080000I42000J0D01*
G01*
X6280000Y-6334000D02*
G75*
G02*
X6196000Y-6334000I-42000J0D01*
G01*
X6196000Y-6334000D02*
G75*
G02*
X6280000Y-6334000I42000J0D01*
G01*
X6280000Y-6588000D02*
G75*
G02*
X6196000Y-6588000I-42000J0D01*
G01*
X6196000Y-6588000D02*
G75*
G02*
X6280000Y-6588000I42000J0D01*
G01*
X7804000Y-4810000D02*
G75*
G02*
X7720000Y-4810000I-42000J0D01*
G01*
X7720000Y-4810000D02*
G75*
G02*
X7804000Y-4810000I42000J0D01*
G01*
X7804000Y-5064000D02*
G75*
G02*
X7720000Y-5064000I-42000J0D01*
G01*
X7720000Y-5064000D02*
G75*
G02*
X7804000Y-5064000I42000J0D01*
G01*
X7804000Y-5318000D02*
G75*
G02*
X7720000Y-5318000I-42000J0D01*
G01*
X7720000Y-5318000D02*
G75*
G02*
X7804000Y-5318000I42000J0D01*
G01*
X7804000Y-5572000D02*
G75*
G02*
X7720000Y-5572000I-42000J0D01*
G01*
X7720000Y-5572000D02*
G75*
G02*
X7804000Y-5572000I42000J0D01*
G01*
X7804000Y-5826000D02*
G75*
G02*
X7720000Y-5826000I-42000J0D01*
G01*
X7720000Y-5826000D02*
G75*
G02*
X7804000Y-5826000I42000J0D01*
G01*
X7804000Y-6080000D02*
G75*
G02*
X7720000Y-6080000I-42000J0D01*
G01*
X7720000Y-6080000D02*
G75*
G02*
X7804000Y-6080000I42000J0D01*
G01*
X7804000Y-6334000D02*
G75*
G02*
X7720000Y-6334000I-42000J0D01*
G01*
X7720000Y-6334000D02*
G75*
G02*
X7804000Y-6334000I42000J0D01*
G01*
X7804000Y-6588000D02*
G75*
G02*
X7720000Y-6588000I-42000J0D01*
G01*
X7720000Y-6588000D02*
G75*
G02*
X7804000Y-6588000I42000J0D01*
G01*
X6111000Y-13250000D02*
X6111000Y-13350000D01*
X6061000Y-13300000D02*
X6161000Y-13300000D01*
X6238000Y-7800000D02*
X6238000Y-7900000D01*
X6188000Y-7850000D02*
X6288000Y-7850000D01*
X6365000Y-13250000D02*
X6365000Y-13350000D01*
X6315000Y-13300000D02*
X6415000Y-13300000D01*
X6492000Y-7800000D02*
X6492000Y-7900000D01*
X6442000Y-7850000D02*
X6542000Y-7850000D01*
X6619000Y-13250000D02*
X6619000Y-13350000D01*
X6569000Y-13300000D02*
X6669000Y-13300000D01*
X6746000Y-7800000D02*
X6746000Y-7900000D01*
X6696000Y-7850000D02*
X6796000Y-7850000D01*
X6746000Y-12250000D02*
X6746000Y-12350000D01*
X6696000Y-12300000D02*
X6796000Y-12300000D01*
X6746000Y-13900000D02*
X6746000Y-14000000D01*
X6696000Y-13950000D02*
X6796000Y-13950000D01*
X6873000Y-13250000D02*
X6873000Y-13350000D01*
X6823000Y-13300000D02*
X6923000Y-13300000D01*
X7000000Y-7800000D02*
X7000000Y-7900000D01*
X6950000Y-7850000D02*
X7050000Y-7850000D01*
X7000000Y-12250000D02*
X7000000Y-12350000D01*
X6950000Y-12300000D02*
X7050000Y-12300000D01*
X7000000Y-13900000D02*
X7000000Y-14000000D01*
X6950000Y-13950000D02*
X7050000Y-13950000D01*
X7127000Y-13250000D02*
X7127000Y-13350000D01*
X7077000Y-13300000D02*
X7177000Y-13300000D01*
X7254000Y-7800000D02*
X7254000Y-7900000D01*
X7204000Y-7850000D02*
X7304000Y-7850000D01*
X7254000Y-12250000D02*
X7254000Y-12350000D01*
X7204000Y-12300000D02*
X7304000Y-12300000D01*
X7254000Y-13900000D02*
X7254000Y-14000000D01*
X7204000Y-13950000D02*
X7304000Y-13950000D01*
X7381000Y-13250000D02*
X7381000Y-13350000D01*
X7331000Y-13300000D02*
X7431000Y-13300000D01*
X7508000Y-7800000D02*
X7508000Y-7900000D01*
X7458000Y-7850000D02*
X7558000Y-7850000D01*
X7635000Y-13250000D02*
X7635000Y-13350000D01*
X7585000Y-13300000D02*
X7685000Y-13300000D01*
X7762000Y-7800000D02*
X7762000Y-7900000D01*
X7712000Y-7850000D02*
X7812000Y-7850000D01*
X7889000Y-13250000D02*
X7889000Y-13350000D01*
X7839000Y-13300000D02*
X7939000Y-13300000D01*
D11*
X5758277Y-15313984D02*
X5758277Y-15113984D01*
X5758277Y-15113984D02*
X5805896Y-15113984D01*
X5805896Y-15113984D02*
X5834467Y-15123508D01*
X5834467Y-15123508D02*
X5853515Y-15142555D01*
X5853515Y-15142555D02*
X5863039Y-15161603D01*
X5863039Y-15161603D02*
X5872562Y-15199698D01*
X5872562Y-15199698D02*
X5872562Y-15228269D01*
X5872562Y-15228269D02*
X5863039Y-15266365D01*
X5863039Y-15266365D02*
X5853515Y-15285412D01*
X5853515Y-15285412D02*
X5834467Y-15304460D01*
X5834467Y-15304460D02*
X5805896Y-15313984D01*
X5805896Y-15313984D02*
X5758277Y-15313984D01*
X5958277Y-15313984D02*
X5958277Y-15180650D01*
X5958277Y-15218746D02*
X5967801Y-15199698D01*
X5967801Y-15199698D02*
X5977324Y-15190174D01*
X5977324Y-15190174D02*
X5996372Y-15180650D01*
X5996372Y-15180650D02*
X6015420Y-15180650D01*
X6082086Y-15313984D02*
X6082086Y-15180650D01*
X6082086Y-15113984D02*
X6072562Y-15123508D01*
X6072562Y-15123508D02*
X6082086Y-15133031D01*
X6082086Y-15133031D02*
X6091610Y-15123508D01*
X6091610Y-15123508D02*
X6082086Y-15113984D01*
X6082086Y-15113984D02*
X6082086Y-15133031D01*
X6205896Y-15313984D02*
X6186848Y-15304460D01*
X6186848Y-15304460D02*
X6177324Y-15285412D01*
X6177324Y-15285412D02*
X6177324Y-15113984D01*
X6310658Y-15313984D02*
X6291610Y-15304460D01*
X6291610Y-15304460D02*
X6282086Y-15285412D01*
X6282086Y-15285412D02*
X6282086Y-15113984D01*
X6539229Y-15313984D02*
X6539229Y-15113984D01*
X6539229Y-15113984D02*
X6605896Y-15256841D01*
X6605896Y-15256841D02*
X6672562Y-15113984D01*
X6672562Y-15113984D02*
X6672562Y-15313984D01*
X6853515Y-15313984D02*
X6853515Y-15209222D01*
X6853515Y-15209222D02*
X6843991Y-15190174D01*
X6843991Y-15190174D02*
X6824943Y-15180650D01*
X6824943Y-15180650D02*
X6786848Y-15180650D01*
X6786848Y-15180650D02*
X6767801Y-15190174D01*
X6853515Y-15304460D02*
X6834467Y-15313984D01*
X6834467Y-15313984D02*
X6786848Y-15313984D01*
X6786848Y-15313984D02*
X6767801Y-15304460D01*
X6767801Y-15304460D02*
X6758277Y-15285412D01*
X6758277Y-15285412D02*
X6758277Y-15266365D01*
X6758277Y-15266365D02*
X6767801Y-15247317D01*
X6767801Y-15247317D02*
X6786848Y-15237793D01*
X6786848Y-15237793D02*
X6834467Y-15237793D01*
X6834467Y-15237793D02*
X6853515Y-15228269D01*
X6948753Y-15180650D02*
X6948753Y-15380650D01*
X6948753Y-15190174D02*
X6967801Y-15180650D01*
X6967801Y-15180650D02*
X7005896Y-15180650D01*
X7005896Y-15180650D02*
X7024943Y-15190174D01*
X7024943Y-15190174D02*
X7034467Y-15199698D01*
X7034467Y-15199698D02*
X7043991Y-15218746D01*
X7043991Y-15218746D02*
X7043991Y-15275888D01*
X7043991Y-15275888D02*
X7034467Y-15294936D01*
X7034467Y-15294936D02*
X7024943Y-15304460D01*
X7024943Y-15304460D02*
X7005896Y-15313984D01*
X7005896Y-15313984D02*
X6967801Y-15313984D01*
X6967801Y-15313984D02*
X6948753Y-15304460D01*
X7129705Y-15294936D02*
X7139229Y-15304460D01*
X7139229Y-15304460D02*
X7129705Y-15313984D01*
X7129705Y-15313984D02*
X7120182Y-15304460D01*
X7120182Y-15304460D02*
X7129705Y-15294936D01*
X7129705Y-15294936D02*
X7129705Y-15313984D01*
X7129705Y-15190174D02*
X7139229Y-15199698D01*
X7139229Y-15199698D02*
X7129705Y-15209222D01*
X7129705Y-15209222D02*
X7120182Y-15199698D01*
X7120182Y-15199698D02*
X7129705Y-15190174D01*
X7129705Y-15190174D02*
X7129705Y-15209222D01*
D12*
X5437500Y-15612500D02*
X5497500Y-15672500D01*
X5497500Y-15612500D02*
X5437500Y-15672500D01*
D11*
X5796372Y-15533984D02*
X5815420Y-15533984D01*
X5815420Y-15533984D02*
X5834467Y-15543508D01*
X5834467Y-15543508D02*
X5843991Y-15553031D01*
X5843991Y-15553031D02*
X5853515Y-15572079D01*
X5853515Y-15572079D02*
X5863039Y-15610174D01*
X5863039Y-15610174D02*
X5863039Y-15657793D01*
X5863039Y-15657793D02*
X5853515Y-15695888D01*
X5853515Y-15695888D02*
X5843991Y-15714936D01*
X5843991Y-15714936D02*
X5834467Y-15724460D01*
X5834467Y-15724460D02*
X5815420Y-15733984D01*
X5815420Y-15733984D02*
X5796372Y-15733984D01*
X5796372Y-15733984D02*
X5777324Y-15724460D01*
X5777324Y-15724460D02*
X5767801Y-15714936D01*
X5767801Y-15714936D02*
X5758277Y-15695888D01*
X5758277Y-15695888D02*
X5748753Y-15657793D01*
X5748753Y-15657793D02*
X5748753Y-15610174D01*
X5748753Y-15610174D02*
X5758277Y-15572079D01*
X5758277Y-15572079D02*
X5767801Y-15553031D01*
X5767801Y-15553031D02*
X5777324Y-15543508D01*
X5777324Y-15543508D02*
X5796372Y-15533984D01*
X5948753Y-15714936D02*
X5958277Y-15724460D01*
X5958277Y-15724460D02*
X5948753Y-15733984D01*
X5948753Y-15733984D02*
X5939229Y-15724460D01*
X5939229Y-15724460D02*
X5948753Y-15714936D01*
X5948753Y-15714936D02*
X5948753Y-15733984D01*
X6129705Y-15533984D02*
X6091610Y-15533984D01*
X6091610Y-15533984D02*
X6072562Y-15543508D01*
X6072562Y-15543508D02*
X6063039Y-15553031D01*
X6063039Y-15553031D02*
X6043991Y-15581603D01*
X6043991Y-15581603D02*
X6034467Y-15619698D01*
X6034467Y-15619698D02*
X6034467Y-15695888D01*
X6034467Y-15695888D02*
X6043991Y-15714936D01*
X6043991Y-15714936D02*
X6053515Y-15724460D01*
X6053515Y-15724460D02*
X6072562Y-15733984D01*
X6072562Y-15733984D02*
X6110658Y-15733984D01*
X6110658Y-15733984D02*
X6129705Y-15724460D01*
X6129705Y-15724460D02*
X6139229Y-15714936D01*
X6139229Y-15714936D02*
X6148753Y-15695888D01*
X6148753Y-15695888D02*
X6148753Y-15648269D01*
X6148753Y-15648269D02*
X6139229Y-15629222D01*
X6139229Y-15629222D02*
X6129705Y-15619698D01*
X6129705Y-15619698D02*
X6110658Y-15610174D01*
X6110658Y-15610174D02*
X6072562Y-15610174D01*
X6072562Y-15610174D02*
X6053515Y-15619698D01*
X6053515Y-15619698D02*
X6043991Y-15629222D01*
X6043991Y-15629222D02*
X6034467Y-15648269D01*
X6272562Y-15533984D02*
X6291610Y-15533984D01*
X6291610Y-15533984D02*
X6310658Y-15543508D01*
X6310658Y-15543508D02*
X6320182Y-15553031D01*
X6320182Y-15553031D02*
X6329705Y-15572079D01*
X6329705Y-15572079D02*
X6339229Y-15610174D01*
X6339229Y-15610174D02*
X6339229Y-15657793D01*
X6339229Y-15657793D02*
X6329705Y-15695888D01*
X6329705Y-15695888D02*
X6320182Y-15714936D01*
X6320182Y-15714936D02*
X6310658Y-15724460D01*
X6310658Y-15724460D02*
X6291610Y-15733984D01*
X6291610Y-15733984D02*
X6272562Y-15733984D01*
X6272562Y-15733984D02*
X6253515Y-15724460D01*
X6253515Y-15724460D02*
X6243991Y-15714936D01*
X6243991Y-15714936D02*
X6234467Y-15695888D01*
X6234467Y-15695888D02*
X6224943Y-15657793D01*
X6224943Y-15657793D02*
X6224943Y-15610174D01*
X6224943Y-15610174D02*
X6234467Y-15572079D01*
X6234467Y-15572079D02*
X6243991Y-15553031D01*
X6243991Y-15553031D02*
X6253515Y-15543508D01*
X6253515Y-15543508D02*
X6272562Y-15533984D01*
X6463039Y-15533984D02*
X6482086Y-15533984D01*
X6482086Y-15533984D02*
X6501134Y-15543508D01*
X6501134Y-15543508D02*
X6510658Y-15553031D01*
X6510658Y-15553031D02*
X6520182Y-15572079D01*
X6520182Y-15572079D02*
X6529705Y-15610174D01*
X6529705Y-15610174D02*
X6529705Y-15657793D01*
X6529705Y-15657793D02*
X6520182Y-15695888D01*
X6520182Y-15695888D02*
X6510658Y-15714936D01*
X6510658Y-15714936D02*
X6501134Y-15724460D01*
X6501134Y-15724460D02*
X6482086Y-15733984D01*
X6482086Y-15733984D02*
X6463039Y-15733984D01*
X6463039Y-15733984D02*
X6443991Y-15724460D01*
X6443991Y-15724460D02*
X6434467Y-15714936D01*
X6434467Y-15714936D02*
X6424943Y-15695888D01*
X6424943Y-15695888D02*
X6415420Y-15657793D01*
X6415420Y-15657793D02*
X6415420Y-15610174D01*
X6415420Y-15610174D02*
X6424943Y-15572079D01*
X6424943Y-15572079D02*
X6434467Y-15553031D01*
X6434467Y-15553031D02*
X6443991Y-15543508D01*
X6443991Y-15543508D02*
X6463039Y-15533984D01*
X6615420Y-15733984D02*
X6615420Y-15600650D01*
X6615420Y-15619698D02*
X6624943Y-15610174D01*
X6624943Y-15610174D02*
X6643991Y-15600650D01*
X6643991Y-15600650D02*
X6672563Y-15600650D01*
X6672563Y-15600650D02*
X6691610Y-15610174D01*
X6691610Y-15610174D02*
X6701134Y-15629222D01*
X6701134Y-15629222D02*
X6701134Y-15733984D01*
X6701134Y-15629222D02*
X6710658Y-15610174D01*
X6710658Y-15610174D02*
X6729705Y-15600650D01*
X6729705Y-15600650D02*
X6758277Y-15600650D01*
X6758277Y-15600650D02*
X6777324Y-15610174D01*
X6777324Y-15610174D02*
X6786848Y-15629222D01*
X6786848Y-15629222D02*
X6786848Y-15733984D01*
X6882086Y-15733984D02*
X6882086Y-15600650D01*
X6882086Y-15619698D02*
X6891610Y-15610174D01*
X6891610Y-15610174D02*
X6910658Y-15600650D01*
X6910658Y-15600650D02*
X6939229Y-15600650D01*
X6939229Y-15600650D02*
X6958277Y-15610174D01*
X6958277Y-15610174D02*
X6967801Y-15629222D01*
X6967801Y-15629222D02*
X6967801Y-15733984D01*
X6967801Y-15629222D02*
X6977324Y-15610174D01*
X6977324Y-15610174D02*
X6996372Y-15600650D01*
X6996372Y-15600650D02*
X7024943Y-15600650D01*
X7024943Y-15600650D02*
X7043991Y-15610174D01*
X7043991Y-15610174D02*
X7053515Y-15629222D01*
X7053515Y-15629222D02*
X7053515Y-15733984D01*
X7443991Y-15524460D02*
X7272563Y-15781603D01*
X7701134Y-15533984D02*
X7720182Y-15533984D01*
X7720182Y-15533984D02*
X7739229Y-15543508D01*
X7739229Y-15543508D02*
X7748753Y-15553031D01*
X7748753Y-15553031D02*
X7758277Y-15572079D01*
X7758277Y-15572079D02*
X7767801Y-15610174D01*
X7767801Y-15610174D02*
X7767801Y-15657793D01*
X7767801Y-15657793D02*
X7758277Y-15695888D01*
X7758277Y-15695888D02*
X7748753Y-15714936D01*
X7748753Y-15714936D02*
X7739229Y-15724460D01*
X7739229Y-15724460D02*
X7720182Y-15733984D01*
X7720182Y-15733984D02*
X7701134Y-15733984D01*
X7701134Y-15733984D02*
X7682086Y-15724460D01*
X7682086Y-15724460D02*
X7672563Y-15714936D01*
X7672563Y-15714936D02*
X7663039Y-15695888D01*
X7663039Y-15695888D02*
X7653515Y-15657793D01*
X7653515Y-15657793D02*
X7653515Y-15610174D01*
X7653515Y-15610174D02*
X7663039Y-15572079D01*
X7663039Y-15572079D02*
X7672563Y-15553031D01*
X7672563Y-15553031D02*
X7682086Y-15543508D01*
X7682086Y-15543508D02*
X7701134Y-15533984D01*
X7853515Y-15714936D02*
X7863039Y-15724460D01*
X7863039Y-15724460D02*
X7853515Y-15733984D01*
X7853515Y-15733984D02*
X7843991Y-15724460D01*
X7843991Y-15724460D02*
X7853515Y-15714936D01*
X7853515Y-15714936D02*
X7853515Y-15733984D01*
X7986848Y-15533984D02*
X8005896Y-15533984D01*
X8005896Y-15533984D02*
X8024944Y-15543508D01*
X8024944Y-15543508D02*
X8034467Y-15553031D01*
X8034467Y-15553031D02*
X8043991Y-15572079D01*
X8043991Y-15572079D02*
X8053515Y-15610174D01*
X8053515Y-15610174D02*
X8053515Y-15657793D01*
X8053515Y-15657793D02*
X8043991Y-15695888D01*
X8043991Y-15695888D02*
X8034467Y-15714936D01*
X8034467Y-15714936D02*
X8024944Y-15724460D01*
X8024944Y-15724460D02*
X8005896Y-15733984D01*
X8005896Y-15733984D02*
X7986848Y-15733984D01*
X7986848Y-15733984D02*
X7967801Y-15724460D01*
X7967801Y-15724460D02*
X7958277Y-15714936D01*
X7958277Y-15714936D02*
X7948753Y-15695888D01*
X7948753Y-15695888D02*
X7939229Y-15657793D01*
X7939229Y-15657793D02*
X7939229Y-15610174D01*
X7939229Y-15610174D02*
X7948753Y-15572079D01*
X7948753Y-15572079D02*
X7958277Y-15553031D01*
X7958277Y-15553031D02*
X7967801Y-15543508D01*
X7967801Y-15543508D02*
X7986848Y-15533984D01*
X8129706Y-15553031D02*
X8139229Y-15543508D01*
X8139229Y-15543508D02*
X8158277Y-15533984D01*
X8158277Y-15533984D02*
X8205896Y-15533984D01*
X8205896Y-15533984D02*
X8224944Y-15543508D01*
X8224944Y-15543508D02*
X8234467Y-15553031D01*
X8234467Y-15553031D02*
X8243991Y-15572079D01*
X8243991Y-15572079D02*
X8243991Y-15591127D01*
X8243991Y-15591127D02*
X8234467Y-15619698D01*
X8234467Y-15619698D02*
X8120182Y-15733984D01*
X8120182Y-15733984D02*
X8243991Y-15733984D01*
X8310658Y-15533984D02*
X8434468Y-15533984D01*
X8434468Y-15533984D02*
X8367801Y-15610174D01*
X8367801Y-15610174D02*
X8396372Y-15610174D01*
X8396372Y-15610174D02*
X8415420Y-15619698D01*
X8415420Y-15619698D02*
X8424944Y-15629222D01*
X8424944Y-15629222D02*
X8434468Y-15648269D01*
X8434468Y-15648269D02*
X8434468Y-15695888D01*
X8434468Y-15695888D02*
X8424944Y-15714936D01*
X8424944Y-15714936D02*
X8415420Y-15724460D01*
X8415420Y-15724460D02*
X8396372Y-15733984D01*
X8396372Y-15733984D02*
X8339229Y-15733984D01*
X8339229Y-15733984D02*
X8320182Y-15724460D01*
X8320182Y-15724460D02*
X8310658Y-15714936D01*
X8605896Y-15533984D02*
X8567801Y-15533984D01*
X8567801Y-15533984D02*
X8548753Y-15543508D01*
X8548753Y-15543508D02*
X8539229Y-15553031D01*
X8539229Y-15553031D02*
X8520182Y-15581603D01*
X8520182Y-15581603D02*
X8510658Y-15619698D01*
X8510658Y-15619698D02*
X8510658Y-15695888D01*
X8510658Y-15695888D02*
X8520182Y-15714936D01*
X8520182Y-15714936D02*
X8529706Y-15724460D01*
X8529706Y-15724460D02*
X8548753Y-15733984D01*
X8548753Y-15733984D02*
X8586849Y-15733984D01*
X8586849Y-15733984D02*
X8605896Y-15724460D01*
X8605896Y-15724460D02*
X8615420Y-15714936D01*
X8615420Y-15714936D02*
X8624944Y-15695888D01*
X8624944Y-15695888D02*
X8624944Y-15648269D01*
X8624944Y-15648269D02*
X8615420Y-15629222D01*
X8615420Y-15629222D02*
X8605896Y-15619698D01*
X8605896Y-15619698D02*
X8586849Y-15610174D01*
X8586849Y-15610174D02*
X8548753Y-15610174D01*
X8548753Y-15610174D02*
X8529706Y-15619698D01*
X8529706Y-15619698D02*
X8520182Y-15629222D01*
X8520182Y-15629222D02*
X8510658Y-15648269D01*
X8701134Y-15533984D02*
X8701134Y-15572079D01*
X8777325Y-15533984D02*
X8777325Y-15572079D01*
X9072563Y-15810174D02*
X9063039Y-15800650D01*
X9063039Y-15800650D02*
X9043991Y-15772079D01*
X9043991Y-15772079D02*
X9034468Y-15753031D01*
X9034468Y-15753031D02*
X9024944Y-15724460D01*
X9024944Y-15724460D02*
X9015420Y-15676841D01*
X9015420Y-15676841D02*
X9015420Y-15638746D01*
X9015420Y-15638746D02*
X9024944Y-15591127D01*
X9024944Y-15591127D02*
X9034468Y-15562555D01*
X9034468Y-15562555D02*
X9043991Y-15543508D01*
X9043991Y-15543508D02*
X9063039Y-15514936D01*
X9063039Y-15514936D02*
X9072563Y-15505412D01*
X9158277Y-15733984D02*
X9196372Y-15733984D01*
X9196372Y-15733984D02*
X9215420Y-15724460D01*
X9215420Y-15724460D02*
X9224944Y-15714936D01*
X9224944Y-15714936D02*
X9243991Y-15686365D01*
X9243991Y-15686365D02*
X9253515Y-15648269D01*
X9253515Y-15648269D02*
X9253515Y-15572079D01*
X9253515Y-15572079D02*
X9243991Y-15553031D01*
X9243991Y-15553031D02*
X9234468Y-15543508D01*
X9234468Y-15543508D02*
X9215420Y-15533984D01*
X9215420Y-15533984D02*
X9177325Y-15533984D01*
X9177325Y-15533984D02*
X9158277Y-15543508D01*
X9158277Y-15543508D02*
X9148753Y-15553031D01*
X9148753Y-15553031D02*
X9139230Y-15572079D01*
X9139230Y-15572079D02*
X9139230Y-15619698D01*
X9139230Y-15619698D02*
X9148753Y-15638746D01*
X9148753Y-15638746D02*
X9158277Y-15648269D01*
X9158277Y-15648269D02*
X9177325Y-15657793D01*
X9177325Y-15657793D02*
X9215420Y-15657793D01*
X9215420Y-15657793D02*
X9234468Y-15648269D01*
X9234468Y-15648269D02*
X9243991Y-15638746D01*
X9243991Y-15638746D02*
X9253515Y-15619698D01*
X9491611Y-15733984D02*
X9491611Y-15533984D01*
X9577325Y-15733984D02*
X9577325Y-15629222D01*
X9577325Y-15629222D02*
X9567801Y-15610174D01*
X9567801Y-15610174D02*
X9548753Y-15600650D01*
X9548753Y-15600650D02*
X9520182Y-15600650D01*
X9520182Y-15600650D02*
X9501134Y-15610174D01*
X9501134Y-15610174D02*
X9491611Y-15619698D01*
X9701134Y-15733984D02*
X9682087Y-15724460D01*
X9682087Y-15724460D02*
X9672563Y-15714936D01*
X9672563Y-15714936D02*
X9663039Y-15695888D01*
X9663039Y-15695888D02*
X9663039Y-15638746D01*
X9663039Y-15638746D02*
X9672563Y-15619698D01*
X9672563Y-15619698D02*
X9682087Y-15610174D01*
X9682087Y-15610174D02*
X9701134Y-15600650D01*
X9701134Y-15600650D02*
X9729706Y-15600650D01*
X9729706Y-15600650D02*
X9748753Y-15610174D01*
X9748753Y-15610174D02*
X9758277Y-15619698D01*
X9758277Y-15619698D02*
X9767801Y-15638746D01*
X9767801Y-15638746D02*
X9767801Y-15695888D01*
X9767801Y-15695888D02*
X9758277Y-15714936D01*
X9758277Y-15714936D02*
X9748753Y-15724460D01*
X9748753Y-15724460D02*
X9729706Y-15733984D01*
X9729706Y-15733984D02*
X9701134Y-15733984D01*
X9882087Y-15733984D02*
X9863039Y-15724460D01*
X9863039Y-15724460D02*
X9853515Y-15705412D01*
X9853515Y-15705412D02*
X9853515Y-15533984D01*
X10034468Y-15724460D02*
X10015420Y-15733984D01*
X10015420Y-15733984D02*
X9977325Y-15733984D01*
X9977325Y-15733984D02*
X9958277Y-15724460D01*
X9958277Y-15724460D02*
X9948753Y-15705412D01*
X9948753Y-15705412D02*
X9948753Y-15629222D01*
X9948753Y-15629222D02*
X9958277Y-15610174D01*
X9958277Y-15610174D02*
X9977325Y-15600650D01*
X9977325Y-15600650D02*
X10015420Y-15600650D01*
X10015420Y-15600650D02*
X10034468Y-15610174D01*
X10034468Y-15610174D02*
X10043992Y-15629222D01*
X10043992Y-15629222D02*
X10043992Y-15648269D01*
X10043992Y-15648269D02*
X9948753Y-15667317D01*
X10120182Y-15724460D02*
X10139230Y-15733984D01*
X10139230Y-15733984D02*
X10177325Y-15733984D01*
X10177325Y-15733984D02*
X10196373Y-15724460D01*
X10196373Y-15724460D02*
X10205896Y-15705412D01*
X10205896Y-15705412D02*
X10205896Y-15695888D01*
X10205896Y-15695888D02*
X10196373Y-15676841D01*
X10196373Y-15676841D02*
X10177325Y-15667317D01*
X10177325Y-15667317D02*
X10148753Y-15667317D01*
X10148753Y-15667317D02*
X10129706Y-15657793D01*
X10129706Y-15657793D02*
X10120182Y-15638746D01*
X10120182Y-15638746D02*
X10120182Y-15629222D01*
X10120182Y-15629222D02*
X10129706Y-15610174D01*
X10129706Y-15610174D02*
X10148753Y-15600650D01*
X10148753Y-15600650D02*
X10177325Y-15600650D01*
X10177325Y-15600650D02*
X10196373Y-15610174D01*
X10272563Y-15810174D02*
X10282087Y-15800650D01*
X10282087Y-15800650D02*
X10301134Y-15772079D01*
X10301134Y-15772079D02*
X10310658Y-15753031D01*
X10310658Y-15753031D02*
X10320182Y-15724460D01*
X10320182Y-15724460D02*
X10329706Y-15676841D01*
X10329706Y-15676841D02*
X10329706Y-15638746D01*
X10329706Y-15638746D02*
X10320182Y-15591127D01*
X10320182Y-15591127D02*
X10310658Y-15562555D01*
X10310658Y-15562555D02*
X10301134Y-15543508D01*
X10301134Y-15543508D02*
X10282087Y-15514936D01*
X10282087Y-15514936D02*
X10272563Y-15505412D01*
D12*
X5497500Y-15906500D02*
G75*
G02*
X5413500Y-15906500I-42000J0D01*
G01*
X5413500Y-15906500D02*
G75*
G02*
X5497500Y-15906500I42000J0D01*
G01*
D11*
X5796372Y-15797984D02*
X5815420Y-15797984D01*
X5815420Y-15797984D02*
X5834467Y-15807508D01*
X5834467Y-15807508D02*
X5843991Y-15817031D01*
X5843991Y-15817031D02*
X5853515Y-15836079D01*
X5853515Y-15836079D02*
X5863039Y-15874174D01*
X5863039Y-15874174D02*
X5863039Y-15921793D01*
X5863039Y-15921793D02*
X5853515Y-15959888D01*
X5853515Y-15959888D02*
X5843991Y-15978936D01*
X5843991Y-15978936D02*
X5834467Y-15988460D01*
X5834467Y-15988460D02*
X5815420Y-15997984D01*
X5815420Y-15997984D02*
X5796372Y-15997984D01*
X5796372Y-15997984D02*
X5777324Y-15988460D01*
X5777324Y-15988460D02*
X5767801Y-15978936D01*
X5767801Y-15978936D02*
X5758277Y-15959888D01*
X5758277Y-15959888D02*
X5748753Y-15921793D01*
X5748753Y-15921793D02*
X5748753Y-15874174D01*
X5748753Y-15874174D02*
X5758277Y-15836079D01*
X5758277Y-15836079D02*
X5767801Y-15817031D01*
X5767801Y-15817031D02*
X5777324Y-15807508D01*
X5777324Y-15807508D02*
X5796372Y-15797984D01*
X5948753Y-15978936D02*
X5958277Y-15988460D01*
X5958277Y-15988460D02*
X5948753Y-15997984D01*
X5948753Y-15997984D02*
X5939229Y-15988460D01*
X5939229Y-15988460D02*
X5948753Y-15978936D01*
X5948753Y-15978936D02*
X5948753Y-15997984D01*
X6072562Y-15883698D02*
X6053515Y-15874174D01*
X6053515Y-15874174D02*
X6043991Y-15864650D01*
X6043991Y-15864650D02*
X6034467Y-15845603D01*
X6034467Y-15845603D02*
X6034467Y-15836079D01*
X6034467Y-15836079D02*
X6043991Y-15817031D01*
X6043991Y-15817031D02*
X6053515Y-15807508D01*
X6053515Y-15807508D02*
X6072562Y-15797984D01*
X6072562Y-15797984D02*
X6110658Y-15797984D01*
X6110658Y-15797984D02*
X6129705Y-15807508D01*
X6129705Y-15807508D02*
X6139229Y-15817031D01*
X6139229Y-15817031D02*
X6148753Y-15836079D01*
X6148753Y-15836079D02*
X6148753Y-15845603D01*
X6148753Y-15845603D02*
X6139229Y-15864650D01*
X6139229Y-15864650D02*
X6129705Y-15874174D01*
X6129705Y-15874174D02*
X6110658Y-15883698D01*
X6110658Y-15883698D02*
X6072562Y-15883698D01*
X6072562Y-15883698D02*
X6053515Y-15893222D01*
X6053515Y-15893222D02*
X6043991Y-15902746D01*
X6043991Y-15902746D02*
X6034467Y-15921793D01*
X6034467Y-15921793D02*
X6034467Y-15959888D01*
X6034467Y-15959888D02*
X6043991Y-15978936D01*
X6043991Y-15978936D02*
X6053515Y-15988460D01*
X6053515Y-15988460D02*
X6072562Y-15997984D01*
X6072562Y-15997984D02*
X6110658Y-15997984D01*
X6110658Y-15997984D02*
X6129705Y-15988460D01*
X6129705Y-15988460D02*
X6139229Y-15978936D01*
X6139229Y-15978936D02*
X6148753Y-15959888D01*
X6148753Y-15959888D02*
X6148753Y-15921793D01*
X6148753Y-15921793D02*
X6139229Y-15902746D01*
X6139229Y-15902746D02*
X6129705Y-15893222D01*
X6129705Y-15893222D02*
X6110658Y-15883698D01*
X6320182Y-15864650D02*
X6320182Y-15997984D01*
X6272562Y-15788460D02*
X6224943Y-15931317D01*
X6224943Y-15931317D02*
X6348753Y-15931317D01*
X6463039Y-15797984D02*
X6482086Y-15797984D01*
X6482086Y-15797984D02*
X6501134Y-15807508D01*
X6501134Y-15807508D02*
X6510658Y-15817031D01*
X6510658Y-15817031D02*
X6520182Y-15836079D01*
X6520182Y-15836079D02*
X6529705Y-15874174D01*
X6529705Y-15874174D02*
X6529705Y-15921793D01*
X6529705Y-15921793D02*
X6520182Y-15959888D01*
X6520182Y-15959888D02*
X6510658Y-15978936D01*
X6510658Y-15978936D02*
X6501134Y-15988460D01*
X6501134Y-15988460D02*
X6482086Y-15997984D01*
X6482086Y-15997984D02*
X6463039Y-15997984D01*
X6463039Y-15997984D02*
X6443991Y-15988460D01*
X6443991Y-15988460D02*
X6434467Y-15978936D01*
X6434467Y-15978936D02*
X6424943Y-15959888D01*
X6424943Y-15959888D02*
X6415420Y-15921793D01*
X6415420Y-15921793D02*
X6415420Y-15874174D01*
X6415420Y-15874174D02*
X6424943Y-15836079D01*
X6424943Y-15836079D02*
X6434467Y-15817031D01*
X6434467Y-15817031D02*
X6443991Y-15807508D01*
X6443991Y-15807508D02*
X6463039Y-15797984D01*
X6615420Y-15997984D02*
X6615420Y-15864650D01*
X6615420Y-15883698D02*
X6624943Y-15874174D01*
X6624943Y-15874174D02*
X6643991Y-15864650D01*
X6643991Y-15864650D02*
X6672563Y-15864650D01*
X6672563Y-15864650D02*
X6691610Y-15874174D01*
X6691610Y-15874174D02*
X6701134Y-15893222D01*
X6701134Y-15893222D02*
X6701134Y-15997984D01*
X6701134Y-15893222D02*
X6710658Y-15874174D01*
X6710658Y-15874174D02*
X6729705Y-15864650D01*
X6729705Y-15864650D02*
X6758277Y-15864650D01*
X6758277Y-15864650D02*
X6777324Y-15874174D01*
X6777324Y-15874174D02*
X6786848Y-15893222D01*
X6786848Y-15893222D02*
X6786848Y-15997984D01*
X6882086Y-15997984D02*
X6882086Y-15864650D01*
X6882086Y-15883698D02*
X6891610Y-15874174D01*
X6891610Y-15874174D02*
X6910658Y-15864650D01*
X6910658Y-15864650D02*
X6939229Y-15864650D01*
X6939229Y-15864650D02*
X6958277Y-15874174D01*
X6958277Y-15874174D02*
X6967801Y-15893222D01*
X6967801Y-15893222D02*
X6967801Y-15997984D01*
X6967801Y-15893222D02*
X6977324Y-15874174D01*
X6977324Y-15874174D02*
X6996372Y-15864650D01*
X6996372Y-15864650D02*
X7024943Y-15864650D01*
X7024943Y-15864650D02*
X7043991Y-15874174D01*
X7043991Y-15874174D02*
X7053515Y-15893222D01*
X7053515Y-15893222D02*
X7053515Y-15997984D01*
X7443991Y-15788460D02*
X7272563Y-16045603D01*
X7701134Y-15797984D02*
X7720182Y-15797984D01*
X7720182Y-15797984D02*
X7739229Y-15807508D01*
X7739229Y-15807508D02*
X7748753Y-15817031D01*
X7748753Y-15817031D02*
X7758277Y-15836079D01*
X7758277Y-15836079D02*
X7767801Y-15874174D01*
X7767801Y-15874174D02*
X7767801Y-15921793D01*
X7767801Y-15921793D02*
X7758277Y-15959888D01*
X7758277Y-15959888D02*
X7748753Y-15978936D01*
X7748753Y-15978936D02*
X7739229Y-15988460D01*
X7739229Y-15988460D02*
X7720182Y-15997984D01*
X7720182Y-15997984D02*
X7701134Y-15997984D01*
X7701134Y-15997984D02*
X7682086Y-15988460D01*
X7682086Y-15988460D02*
X7672563Y-15978936D01*
X7672563Y-15978936D02*
X7663039Y-15959888D01*
X7663039Y-15959888D02*
X7653515Y-15921793D01*
X7653515Y-15921793D02*
X7653515Y-15874174D01*
X7653515Y-15874174D02*
X7663039Y-15836079D01*
X7663039Y-15836079D02*
X7672563Y-15817031D01*
X7672563Y-15817031D02*
X7682086Y-15807508D01*
X7682086Y-15807508D02*
X7701134Y-15797984D01*
X7853515Y-15978936D02*
X7863039Y-15988460D01*
X7863039Y-15988460D02*
X7853515Y-15997984D01*
X7853515Y-15997984D02*
X7843991Y-15988460D01*
X7843991Y-15988460D02*
X7853515Y-15978936D01*
X7853515Y-15978936D02*
X7853515Y-15997984D01*
X7986848Y-15797984D02*
X8005896Y-15797984D01*
X8005896Y-15797984D02*
X8024944Y-15807508D01*
X8024944Y-15807508D02*
X8034467Y-15817031D01*
X8034467Y-15817031D02*
X8043991Y-15836079D01*
X8043991Y-15836079D02*
X8053515Y-15874174D01*
X8053515Y-15874174D02*
X8053515Y-15921793D01*
X8053515Y-15921793D02*
X8043991Y-15959888D01*
X8043991Y-15959888D02*
X8034467Y-15978936D01*
X8034467Y-15978936D02*
X8024944Y-15988460D01*
X8024944Y-15988460D02*
X8005896Y-15997984D01*
X8005896Y-15997984D02*
X7986848Y-15997984D01*
X7986848Y-15997984D02*
X7967801Y-15988460D01*
X7967801Y-15988460D02*
X7958277Y-15978936D01*
X7958277Y-15978936D02*
X7948753Y-15959888D01*
X7948753Y-15959888D02*
X7939229Y-15921793D01*
X7939229Y-15921793D02*
X7939229Y-15874174D01*
X7939229Y-15874174D02*
X7948753Y-15836079D01*
X7948753Y-15836079D02*
X7958277Y-15817031D01*
X7958277Y-15817031D02*
X7967801Y-15807508D01*
X7967801Y-15807508D02*
X7986848Y-15797984D01*
X8120182Y-15797984D02*
X8243991Y-15797984D01*
X8243991Y-15797984D02*
X8177325Y-15874174D01*
X8177325Y-15874174D02*
X8205896Y-15874174D01*
X8205896Y-15874174D02*
X8224944Y-15883698D01*
X8224944Y-15883698D02*
X8234467Y-15893222D01*
X8234467Y-15893222D02*
X8243991Y-15912269D01*
X8243991Y-15912269D02*
X8243991Y-15959888D01*
X8243991Y-15959888D02*
X8234467Y-15978936D01*
X8234467Y-15978936D02*
X8224944Y-15988460D01*
X8224944Y-15988460D02*
X8205896Y-15997984D01*
X8205896Y-15997984D02*
X8148753Y-15997984D01*
X8148753Y-15997984D02*
X8129706Y-15988460D01*
X8129706Y-15988460D02*
X8120182Y-15978936D01*
X8310658Y-15797984D02*
X8434468Y-15797984D01*
X8434468Y-15797984D02*
X8367801Y-15874174D01*
X8367801Y-15874174D02*
X8396372Y-15874174D01*
X8396372Y-15874174D02*
X8415420Y-15883698D01*
X8415420Y-15883698D02*
X8424944Y-15893222D01*
X8424944Y-15893222D02*
X8434468Y-15912269D01*
X8434468Y-15912269D02*
X8434468Y-15959888D01*
X8434468Y-15959888D02*
X8424944Y-15978936D01*
X8424944Y-15978936D02*
X8415420Y-15988460D01*
X8415420Y-15988460D02*
X8396372Y-15997984D01*
X8396372Y-15997984D02*
X8339229Y-15997984D01*
X8339229Y-15997984D02*
X8320182Y-15988460D01*
X8320182Y-15988460D02*
X8310658Y-15978936D01*
X8624944Y-15997984D02*
X8510658Y-15997984D01*
X8567801Y-15997984D02*
X8567801Y-15797984D01*
X8567801Y-15797984D02*
X8548753Y-15826555D01*
X8548753Y-15826555D02*
X8529706Y-15845603D01*
X8529706Y-15845603D02*
X8510658Y-15855127D01*
X8701134Y-15797984D02*
X8701134Y-15836079D01*
X8777325Y-15797984D02*
X8777325Y-15836079D01*
X9072563Y-16074174D02*
X9063039Y-16064650D01*
X9063039Y-16064650D02*
X9043991Y-16036079D01*
X9043991Y-16036079D02*
X9034468Y-16017031D01*
X9034468Y-16017031D02*
X9024944Y-15988460D01*
X9024944Y-15988460D02*
X9015420Y-15940841D01*
X9015420Y-15940841D02*
X9015420Y-15902746D01*
X9015420Y-15902746D02*
X9024944Y-15855127D01*
X9024944Y-15855127D02*
X9034468Y-15826555D01*
X9034468Y-15826555D02*
X9043991Y-15807508D01*
X9043991Y-15807508D02*
X9063039Y-15778936D01*
X9063039Y-15778936D02*
X9072563Y-15769412D01*
X9253515Y-15997984D02*
X9139230Y-15997984D01*
X9196372Y-15997984D02*
X9196372Y-15797984D01*
X9196372Y-15797984D02*
X9177325Y-15826555D01*
X9177325Y-15826555D02*
X9158277Y-15845603D01*
X9158277Y-15845603D02*
X9139230Y-15855127D01*
X9424944Y-15797984D02*
X9386849Y-15797984D01*
X9386849Y-15797984D02*
X9367801Y-15807508D01*
X9367801Y-15807508D02*
X9358277Y-15817031D01*
X9358277Y-15817031D02*
X9339230Y-15845603D01*
X9339230Y-15845603D02*
X9329706Y-15883698D01*
X9329706Y-15883698D02*
X9329706Y-15959888D01*
X9329706Y-15959888D02*
X9339230Y-15978936D01*
X9339230Y-15978936D02*
X9348753Y-15988460D01*
X9348753Y-15988460D02*
X9367801Y-15997984D01*
X9367801Y-15997984D02*
X9405896Y-15997984D01*
X9405896Y-15997984D02*
X9424944Y-15988460D01*
X9424944Y-15988460D02*
X9434468Y-15978936D01*
X9434468Y-15978936D02*
X9443991Y-15959888D01*
X9443991Y-15959888D02*
X9443991Y-15912269D01*
X9443991Y-15912269D02*
X9434468Y-15893222D01*
X9434468Y-15893222D02*
X9424944Y-15883698D01*
X9424944Y-15883698D02*
X9405896Y-15874174D01*
X9405896Y-15874174D02*
X9367801Y-15874174D01*
X9367801Y-15874174D02*
X9348753Y-15883698D01*
X9348753Y-15883698D02*
X9339230Y-15893222D01*
X9339230Y-15893222D02*
X9329706Y-15912269D01*
X9682087Y-15997984D02*
X9682087Y-15797984D01*
X9767801Y-15997984D02*
X9767801Y-15893222D01*
X9767801Y-15893222D02*
X9758277Y-15874174D01*
X9758277Y-15874174D02*
X9739230Y-15864650D01*
X9739230Y-15864650D02*
X9710658Y-15864650D01*
X9710658Y-15864650D02*
X9691611Y-15874174D01*
X9691611Y-15874174D02*
X9682087Y-15883698D01*
X9891611Y-15997984D02*
X9872563Y-15988460D01*
X9872563Y-15988460D02*
X9863039Y-15978936D01*
X9863039Y-15978936D02*
X9853515Y-15959888D01*
X9853515Y-15959888D02*
X9853515Y-15902746D01*
X9853515Y-15902746D02*
X9863039Y-15883698D01*
X9863039Y-15883698D02*
X9872563Y-15874174D01*
X9872563Y-15874174D02*
X9891611Y-15864650D01*
X9891611Y-15864650D02*
X9920182Y-15864650D01*
X9920182Y-15864650D02*
X9939230Y-15874174D01*
X9939230Y-15874174D02*
X9948753Y-15883698D01*
X9948753Y-15883698D02*
X9958277Y-15902746D01*
X9958277Y-15902746D02*
X9958277Y-15959888D01*
X9958277Y-15959888D02*
X9948753Y-15978936D01*
X9948753Y-15978936D02*
X9939230Y-15988460D01*
X9939230Y-15988460D02*
X9920182Y-15997984D01*
X9920182Y-15997984D02*
X9891611Y-15997984D01*
X10072563Y-15997984D02*
X10053515Y-15988460D01*
X10053515Y-15988460D02*
X10043992Y-15969412D01*
X10043992Y-15969412D02*
X10043992Y-15797984D01*
X10224944Y-15988460D02*
X10205896Y-15997984D01*
X10205896Y-15997984D02*
X10167801Y-15997984D01*
X10167801Y-15997984D02*
X10148753Y-15988460D01*
X10148753Y-15988460D02*
X10139230Y-15969412D01*
X10139230Y-15969412D02*
X10139230Y-15893222D01*
X10139230Y-15893222D02*
X10148753Y-15874174D01*
X10148753Y-15874174D02*
X10167801Y-15864650D01*
X10167801Y-15864650D02*
X10205896Y-15864650D01*
X10205896Y-15864650D02*
X10224944Y-15874174D01*
X10224944Y-15874174D02*
X10234468Y-15893222D01*
X10234468Y-15893222D02*
X10234468Y-15912269D01*
X10234468Y-15912269D02*
X10139230Y-15931317D01*
X10310658Y-15988460D02*
X10329706Y-15997984D01*
X10329706Y-15997984D02*
X10367801Y-15997984D01*
X10367801Y-15997984D02*
X10386849Y-15988460D01*
X10386849Y-15988460D02*
X10396373Y-15969412D01*
X10396373Y-15969412D02*
X10396373Y-15959888D01*
X10396373Y-15959888D02*
X10386849Y-15940841D01*
X10386849Y-15940841D02*
X10367801Y-15931317D01*
X10367801Y-15931317D02*
X10339230Y-15931317D01*
X10339230Y-15931317D02*
X10320182Y-15921793D01*
X10320182Y-15921793D02*
X10310658Y-15902746D01*
X10310658Y-15902746D02*
X10310658Y-15893222D01*
X10310658Y-15893222D02*
X10320182Y-15874174D01*
X10320182Y-15874174D02*
X10339230Y-15864650D01*
X10339230Y-15864650D02*
X10367801Y-15864650D01*
X10367801Y-15864650D02*
X10386849Y-15874174D01*
X10463039Y-16074174D02*
X10472563Y-16064650D01*
X10472563Y-16064650D02*
X10491611Y-16036079D01*
X10491611Y-16036079D02*
X10501134Y-16017031D01*
X10501134Y-16017031D02*
X10510658Y-15988460D01*
X10510658Y-15988460D02*
X10520182Y-15940841D01*
X10520182Y-15940841D02*
X10520182Y-15902746D01*
X10520182Y-15902746D02*
X10510658Y-15855127D01*
X10510658Y-15855127D02*
X10501134Y-15826555D01*
X10501134Y-15826555D02*
X10491611Y-15807508D01*
X10491611Y-15807508D02*
X10472563Y-15778936D01*
X10472563Y-15778936D02*
X10463039Y-15769412D01*
D12*
X5447500Y-16120500D02*
X5447500Y-16220500D01*
X5397500Y-16170500D02*
X5497500Y-16170500D01*
D11*
X5863039Y-16261984D02*
X5748753Y-16261984D01*
X5805896Y-16261984D02*
X5805896Y-16061984D01*
X5805896Y-16061984D02*
X5786848Y-16090555D01*
X5786848Y-16090555D02*
X5767801Y-16109603D01*
X5767801Y-16109603D02*
X5748753Y-16119127D01*
X5948753Y-16242936D02*
X5958277Y-16252460D01*
X5958277Y-16252460D02*
X5948753Y-16261984D01*
X5948753Y-16261984D02*
X5939229Y-16252460D01*
X5939229Y-16252460D02*
X5948753Y-16242936D01*
X5948753Y-16242936D02*
X5948753Y-16261984D01*
X6082086Y-16061984D02*
X6101134Y-16061984D01*
X6101134Y-16061984D02*
X6120182Y-16071508D01*
X6120182Y-16071508D02*
X6129705Y-16081031D01*
X6129705Y-16081031D02*
X6139229Y-16100079D01*
X6139229Y-16100079D02*
X6148753Y-16138174D01*
X6148753Y-16138174D02*
X6148753Y-16185793D01*
X6148753Y-16185793D02*
X6139229Y-16223888D01*
X6139229Y-16223888D02*
X6129705Y-16242936D01*
X6129705Y-16242936D02*
X6120182Y-16252460D01*
X6120182Y-16252460D02*
X6101134Y-16261984D01*
X6101134Y-16261984D02*
X6082086Y-16261984D01*
X6082086Y-16261984D02*
X6063039Y-16252460D01*
X6063039Y-16252460D02*
X6053515Y-16242936D01*
X6053515Y-16242936D02*
X6043991Y-16223888D01*
X6043991Y-16223888D02*
X6034467Y-16185793D01*
X6034467Y-16185793D02*
X6034467Y-16138174D01*
X6034467Y-16138174D02*
X6043991Y-16100079D01*
X6043991Y-16100079D02*
X6053515Y-16081031D01*
X6053515Y-16081031D02*
X6063039Y-16071508D01*
X6063039Y-16071508D02*
X6082086Y-16061984D01*
X6272562Y-16061984D02*
X6291610Y-16061984D01*
X6291610Y-16061984D02*
X6310658Y-16071508D01*
X6310658Y-16071508D02*
X6320182Y-16081031D01*
X6320182Y-16081031D02*
X6329705Y-16100079D01*
X6329705Y-16100079D02*
X6339229Y-16138174D01*
X6339229Y-16138174D02*
X6339229Y-16185793D01*
X6339229Y-16185793D02*
X6329705Y-16223888D01*
X6329705Y-16223888D02*
X6320182Y-16242936D01*
X6320182Y-16242936D02*
X6310658Y-16252460D01*
X6310658Y-16252460D02*
X6291610Y-16261984D01*
X6291610Y-16261984D02*
X6272562Y-16261984D01*
X6272562Y-16261984D02*
X6253515Y-16252460D01*
X6253515Y-16252460D02*
X6243991Y-16242936D01*
X6243991Y-16242936D02*
X6234467Y-16223888D01*
X6234467Y-16223888D02*
X6224943Y-16185793D01*
X6224943Y-16185793D02*
X6224943Y-16138174D01*
X6224943Y-16138174D02*
X6234467Y-16100079D01*
X6234467Y-16100079D02*
X6243991Y-16081031D01*
X6243991Y-16081031D02*
X6253515Y-16071508D01*
X6253515Y-16071508D02*
X6272562Y-16061984D01*
X6463039Y-16061984D02*
X6482086Y-16061984D01*
X6482086Y-16061984D02*
X6501134Y-16071508D01*
X6501134Y-16071508D02*
X6510658Y-16081031D01*
X6510658Y-16081031D02*
X6520182Y-16100079D01*
X6520182Y-16100079D02*
X6529705Y-16138174D01*
X6529705Y-16138174D02*
X6529705Y-16185793D01*
X6529705Y-16185793D02*
X6520182Y-16223888D01*
X6520182Y-16223888D02*
X6510658Y-16242936D01*
X6510658Y-16242936D02*
X6501134Y-16252460D01*
X6501134Y-16252460D02*
X6482086Y-16261984D01*
X6482086Y-16261984D02*
X6463039Y-16261984D01*
X6463039Y-16261984D02*
X6443991Y-16252460D01*
X6443991Y-16252460D02*
X6434467Y-16242936D01*
X6434467Y-16242936D02*
X6424943Y-16223888D01*
X6424943Y-16223888D02*
X6415420Y-16185793D01*
X6415420Y-16185793D02*
X6415420Y-16138174D01*
X6415420Y-16138174D02*
X6424943Y-16100079D01*
X6424943Y-16100079D02*
X6434467Y-16081031D01*
X6434467Y-16081031D02*
X6443991Y-16071508D01*
X6443991Y-16071508D02*
X6463039Y-16061984D01*
X6615420Y-16261984D02*
X6615420Y-16128650D01*
X6615420Y-16147698D02*
X6624943Y-16138174D01*
X6624943Y-16138174D02*
X6643991Y-16128650D01*
X6643991Y-16128650D02*
X6672563Y-16128650D01*
X6672563Y-16128650D02*
X6691610Y-16138174D01*
X6691610Y-16138174D02*
X6701134Y-16157222D01*
X6701134Y-16157222D02*
X6701134Y-16261984D01*
X6701134Y-16157222D02*
X6710658Y-16138174D01*
X6710658Y-16138174D02*
X6729705Y-16128650D01*
X6729705Y-16128650D02*
X6758277Y-16128650D01*
X6758277Y-16128650D02*
X6777324Y-16138174D01*
X6777324Y-16138174D02*
X6786848Y-16157222D01*
X6786848Y-16157222D02*
X6786848Y-16261984D01*
X6882086Y-16261984D02*
X6882086Y-16128650D01*
X6882086Y-16147698D02*
X6891610Y-16138174D01*
X6891610Y-16138174D02*
X6910658Y-16128650D01*
X6910658Y-16128650D02*
X6939229Y-16128650D01*
X6939229Y-16128650D02*
X6958277Y-16138174D01*
X6958277Y-16138174D02*
X6967801Y-16157222D01*
X6967801Y-16157222D02*
X6967801Y-16261984D01*
X6967801Y-16157222D02*
X6977324Y-16138174D01*
X6977324Y-16138174D02*
X6996372Y-16128650D01*
X6996372Y-16128650D02*
X7024943Y-16128650D01*
X7024943Y-16128650D02*
X7043991Y-16138174D01*
X7043991Y-16138174D02*
X7053515Y-16157222D01*
X7053515Y-16157222D02*
X7053515Y-16261984D01*
X7443991Y-16052460D02*
X7272563Y-16309603D01*
X7701134Y-16061984D02*
X7720182Y-16061984D01*
X7720182Y-16061984D02*
X7739229Y-16071508D01*
X7739229Y-16071508D02*
X7748753Y-16081031D01*
X7748753Y-16081031D02*
X7758277Y-16100079D01*
X7758277Y-16100079D02*
X7767801Y-16138174D01*
X7767801Y-16138174D02*
X7767801Y-16185793D01*
X7767801Y-16185793D02*
X7758277Y-16223888D01*
X7758277Y-16223888D02*
X7748753Y-16242936D01*
X7748753Y-16242936D02*
X7739229Y-16252460D01*
X7739229Y-16252460D02*
X7720182Y-16261984D01*
X7720182Y-16261984D02*
X7701134Y-16261984D01*
X7701134Y-16261984D02*
X7682086Y-16252460D01*
X7682086Y-16252460D02*
X7672563Y-16242936D01*
X7672563Y-16242936D02*
X7663039Y-16223888D01*
X7663039Y-16223888D02*
X7653515Y-16185793D01*
X7653515Y-16185793D02*
X7653515Y-16138174D01*
X7653515Y-16138174D02*
X7663039Y-16100079D01*
X7663039Y-16100079D02*
X7672563Y-16081031D01*
X7672563Y-16081031D02*
X7682086Y-16071508D01*
X7682086Y-16071508D02*
X7701134Y-16061984D01*
X7853515Y-16242936D02*
X7863039Y-16252460D01*
X7863039Y-16252460D02*
X7853515Y-16261984D01*
X7853515Y-16261984D02*
X7843991Y-16252460D01*
X7843991Y-16252460D02*
X7853515Y-16242936D01*
X7853515Y-16242936D02*
X7853515Y-16261984D01*
X7986848Y-16061984D02*
X8005896Y-16061984D01*
X8005896Y-16061984D02*
X8024944Y-16071508D01*
X8024944Y-16071508D02*
X8034467Y-16081031D01*
X8034467Y-16081031D02*
X8043991Y-16100079D01*
X8043991Y-16100079D02*
X8053515Y-16138174D01*
X8053515Y-16138174D02*
X8053515Y-16185793D01*
X8053515Y-16185793D02*
X8043991Y-16223888D01*
X8043991Y-16223888D02*
X8034467Y-16242936D01*
X8034467Y-16242936D02*
X8024944Y-16252460D01*
X8024944Y-16252460D02*
X8005896Y-16261984D01*
X8005896Y-16261984D02*
X7986848Y-16261984D01*
X7986848Y-16261984D02*
X7967801Y-16252460D01*
X7967801Y-16252460D02*
X7958277Y-16242936D01*
X7958277Y-16242936D02*
X7948753Y-16223888D01*
X7948753Y-16223888D02*
X7939229Y-16185793D01*
X7939229Y-16185793D02*
X7939229Y-16138174D01*
X7939229Y-16138174D02*
X7948753Y-16100079D01*
X7948753Y-16100079D02*
X7958277Y-16081031D01*
X7958277Y-16081031D02*
X7967801Y-16071508D01*
X7967801Y-16071508D02*
X7986848Y-16061984D01*
X8120182Y-16061984D02*
X8243991Y-16061984D01*
X8243991Y-16061984D02*
X8177325Y-16138174D01*
X8177325Y-16138174D02*
X8205896Y-16138174D01*
X8205896Y-16138174D02*
X8224944Y-16147698D01*
X8224944Y-16147698D02*
X8234467Y-16157222D01*
X8234467Y-16157222D02*
X8243991Y-16176269D01*
X8243991Y-16176269D02*
X8243991Y-16223888D01*
X8243991Y-16223888D02*
X8234467Y-16242936D01*
X8234467Y-16242936D02*
X8224944Y-16252460D01*
X8224944Y-16252460D02*
X8205896Y-16261984D01*
X8205896Y-16261984D02*
X8148753Y-16261984D01*
X8148753Y-16261984D02*
X8129706Y-16252460D01*
X8129706Y-16252460D02*
X8120182Y-16242936D01*
X8339229Y-16261984D02*
X8377325Y-16261984D01*
X8377325Y-16261984D02*
X8396372Y-16252460D01*
X8396372Y-16252460D02*
X8405896Y-16242936D01*
X8405896Y-16242936D02*
X8424944Y-16214365D01*
X8424944Y-16214365D02*
X8434468Y-16176269D01*
X8434468Y-16176269D02*
X8434468Y-16100079D01*
X8434468Y-16100079D02*
X8424944Y-16081031D01*
X8424944Y-16081031D02*
X8415420Y-16071508D01*
X8415420Y-16071508D02*
X8396372Y-16061984D01*
X8396372Y-16061984D02*
X8358277Y-16061984D01*
X8358277Y-16061984D02*
X8339229Y-16071508D01*
X8339229Y-16071508D02*
X8329706Y-16081031D01*
X8329706Y-16081031D02*
X8320182Y-16100079D01*
X8320182Y-16100079D02*
X8320182Y-16147698D01*
X8320182Y-16147698D02*
X8329706Y-16166746D01*
X8329706Y-16166746D02*
X8339229Y-16176269D01*
X8339229Y-16176269D02*
X8358277Y-16185793D01*
X8358277Y-16185793D02*
X8396372Y-16185793D01*
X8396372Y-16185793D02*
X8415420Y-16176269D01*
X8415420Y-16176269D02*
X8424944Y-16166746D01*
X8424944Y-16166746D02*
X8434468Y-16147698D01*
X8605896Y-16128650D02*
X8605896Y-16261984D01*
X8558277Y-16052460D02*
X8510658Y-16195317D01*
X8510658Y-16195317D02*
X8634468Y-16195317D01*
X8701134Y-16061984D02*
X8701134Y-16100079D01*
X8777325Y-16061984D02*
X8777325Y-16100079D01*
X9072563Y-16338174D02*
X9063039Y-16328650D01*
X9063039Y-16328650D02*
X9043991Y-16300079D01*
X9043991Y-16300079D02*
X9034468Y-16281031D01*
X9034468Y-16281031D02*
X9024944Y-16252460D01*
X9024944Y-16252460D02*
X9015420Y-16204841D01*
X9015420Y-16204841D02*
X9015420Y-16166746D01*
X9015420Y-16166746D02*
X9024944Y-16119127D01*
X9024944Y-16119127D02*
X9034468Y-16090555D01*
X9034468Y-16090555D02*
X9043991Y-16071508D01*
X9043991Y-16071508D02*
X9063039Y-16042936D01*
X9063039Y-16042936D02*
X9072563Y-16033412D01*
X9139230Y-16081031D02*
X9148753Y-16071508D01*
X9148753Y-16071508D02*
X9167801Y-16061984D01*
X9167801Y-16061984D02*
X9215420Y-16061984D01*
X9215420Y-16061984D02*
X9234468Y-16071508D01*
X9234468Y-16071508D02*
X9243991Y-16081031D01*
X9243991Y-16081031D02*
X9253515Y-16100079D01*
X9253515Y-16100079D02*
X9253515Y-16119127D01*
X9253515Y-16119127D02*
X9243991Y-16147698D01*
X9243991Y-16147698D02*
X9129706Y-16261984D01*
X9129706Y-16261984D02*
X9253515Y-16261984D01*
X9443991Y-16261984D02*
X9329706Y-16261984D01*
X9386849Y-16261984D02*
X9386849Y-16061984D01*
X9386849Y-16061984D02*
X9367801Y-16090555D01*
X9367801Y-16090555D02*
X9348753Y-16109603D01*
X9348753Y-16109603D02*
X9329706Y-16119127D01*
X9682087Y-16261984D02*
X9682087Y-16061984D01*
X9767801Y-16261984D02*
X9767801Y-16157222D01*
X9767801Y-16157222D02*
X9758277Y-16138174D01*
X9758277Y-16138174D02*
X9739230Y-16128650D01*
X9739230Y-16128650D02*
X9710658Y-16128650D01*
X9710658Y-16128650D02*
X9691611Y-16138174D01*
X9691611Y-16138174D02*
X9682087Y-16147698D01*
X9891611Y-16261984D02*
X9872563Y-16252460D01*
X9872563Y-16252460D02*
X9863039Y-16242936D01*
X9863039Y-16242936D02*
X9853515Y-16223888D01*
X9853515Y-16223888D02*
X9853515Y-16166746D01*
X9853515Y-16166746D02*
X9863039Y-16147698D01*
X9863039Y-16147698D02*
X9872563Y-16138174D01*
X9872563Y-16138174D02*
X9891611Y-16128650D01*
X9891611Y-16128650D02*
X9920182Y-16128650D01*
X9920182Y-16128650D02*
X9939230Y-16138174D01*
X9939230Y-16138174D02*
X9948753Y-16147698D01*
X9948753Y-16147698D02*
X9958277Y-16166746D01*
X9958277Y-16166746D02*
X9958277Y-16223888D01*
X9958277Y-16223888D02*
X9948753Y-16242936D01*
X9948753Y-16242936D02*
X9939230Y-16252460D01*
X9939230Y-16252460D02*
X9920182Y-16261984D01*
X9920182Y-16261984D02*
X9891611Y-16261984D01*
X10072563Y-16261984D02*
X10053515Y-16252460D01*
X10053515Y-16252460D02*
X10043992Y-16233412D01*
X10043992Y-16233412D02*
X10043992Y-16061984D01*
X10224944Y-16252460D02*
X10205896Y-16261984D01*
X10205896Y-16261984D02*
X10167801Y-16261984D01*
X10167801Y-16261984D02*
X10148753Y-16252460D01*
X10148753Y-16252460D02*
X10139230Y-16233412D01*
X10139230Y-16233412D02*
X10139230Y-16157222D01*
X10139230Y-16157222D02*
X10148753Y-16138174D01*
X10148753Y-16138174D02*
X10167801Y-16128650D01*
X10167801Y-16128650D02*
X10205896Y-16128650D01*
X10205896Y-16128650D02*
X10224944Y-16138174D01*
X10224944Y-16138174D02*
X10234468Y-16157222D01*
X10234468Y-16157222D02*
X10234468Y-16176269D01*
X10234468Y-16176269D02*
X10139230Y-16195317D01*
X10310658Y-16252460D02*
X10329706Y-16261984D01*
X10329706Y-16261984D02*
X10367801Y-16261984D01*
X10367801Y-16261984D02*
X10386849Y-16252460D01*
X10386849Y-16252460D02*
X10396373Y-16233412D01*
X10396373Y-16233412D02*
X10396373Y-16223888D01*
X10396373Y-16223888D02*
X10386849Y-16204841D01*
X10386849Y-16204841D02*
X10367801Y-16195317D01*
X10367801Y-16195317D02*
X10339230Y-16195317D01*
X10339230Y-16195317D02*
X10320182Y-16185793D01*
X10320182Y-16185793D02*
X10310658Y-16166746D01*
X10310658Y-16166746D02*
X10310658Y-16157222D01*
X10310658Y-16157222D02*
X10320182Y-16138174D01*
X10320182Y-16138174D02*
X10339230Y-16128650D01*
X10339230Y-16128650D02*
X10367801Y-16128650D01*
X10367801Y-16128650D02*
X10386849Y-16138174D01*
X10463039Y-16338174D02*
X10472563Y-16328650D01*
X10472563Y-16328650D02*
X10491611Y-16300079D01*
X10491611Y-16300079D02*
X10501134Y-16281031D01*
X10501134Y-16281031D02*
X10510658Y-16252460D01*
X10510658Y-16252460D02*
X10520182Y-16204841D01*
X10520182Y-16204841D02*
X10520182Y-16166746D01*
X10520182Y-16166746D02*
X10510658Y-16119127D01*
X10510658Y-16119127D02*
X10501134Y-16090555D01*
X10501134Y-16090555D02*
X10491611Y-16071508D01*
X10491611Y-16071508D02*
X10472563Y-16042936D01*
X10472563Y-16042936D02*
X10463039Y-16033412D01*
M02*
