%TF.GenerationSoftware,KiCad,Pcbnew,10.0.4*%
%TF.CreationDate,2026-09-23T12:25:02+01:00*%
%TF.ProjectId,ProjectKurinda_PCB,50726f6a-6563-4744-9b75-72696e64615f,rev?*%
%TF.SameCoordinates,Original*%
%TF.FileFunction,Soldermask,Bot*%
%TF.FilePolarity,Negative*%
%FSLAX46Y46*%
G04 Gerber Fmt 4.6, Leading zero omitted, Abs format (unit mm)*
G04 Created by KiCad (PCBNEW 10.0.4) date 2026-09-23 12:25:02*
%MOMM*%
%LPD*%
G01*
G04 APERTURE LIST*
G04 Aperture macros list*
%AMRoundRect*
0 Rectangle with rounded corners*
0 $1 Rounding radius*
0 $2 $3 $4 $5 $6 $7 $8 $9 X,Y pos of 4 corners*
0 Add a 4 corners polygon primitive as box body*
4,1,4,$2,$3,$4,$5,$6,$7,$8,$9,$2,$3,0*
0 Add four circle primitives for the rounded corners*
1,1,$1+$1,$2,$3*
1,1,$1+$1,$4,$5*
1,1,$1+$1,$6,$7*
1,1,$1+$1,$8,$9*
0 Add four rect primitives between the rounded corners*
20,1,$1+$1,$2,$3,$4,$5,0*
20,1,$1+$1,$4,$5,$6,$7,0*
20,1,$1+$1,$6,$7,$8,$9,0*
20,1,$1+$1,$8,$9,$2,$3,0*%
%AMFreePoly0*
4,1,6,1.000000,0.000000,0.500000,-0.750000,-0.500000,-0.750000,-0.500000,0.750000,0.500000,0.750000,1.000000,0.000000,1.000000,0.000000,$1*%
%AMFreePoly1*
4,1,6,0.500000,-0.750000,-0.650000,-0.750000,-0.150000,0.000000,-0.650000,0.750000,0.500000,0.750000,0.500000,-0.750000,0.500000,-0.750000,$1*%
G04 Aperture macros list end*
%ADD10FreePoly0,180.000000*%
%ADD11FreePoly1,180.000000*%
%ADD12FreePoly0,90.000000*%
%ADD13FreePoly1,90.000000*%
%ADD14RoundRect,0.250000X-0.262500X-0.450000X0.262500X-0.450000X0.262500X0.450000X-0.262500X0.450000X0*%
%ADD15RoundRect,0.250000X0.262500X0.450000X-0.262500X0.450000X-0.262500X-0.450000X0.262500X-0.450000X0*%
%ADD16RoundRect,0.250000X-0.250000X-0.475000X0.250000X-0.475000X0.250000X0.475000X-0.250000X0.475000X0*%
%ADD17RoundRect,0.250000X0.450000X-0.262500X0.450000X0.262500X-0.450000X0.262500X-0.450000X-0.262500X0*%
%ADD18RoundRect,0.250000X-0.475000X0.250000X-0.475000X-0.250000X0.475000X-0.250000X0.475000X0.250000X0*%
%ADD19C,1.600000*%
%ADD20RoundRect,0.250000X-0.450000X0.262500X-0.450000X-0.262500X0.450000X-0.262500X0.450000X0.262500X0*%
%ADD21RoundRect,0.150000X-0.150000X0.587500X-0.150000X-0.587500X0.150000X-0.587500X0.150000X0.587500X0*%
%ADD22C,1.700000*%
%ADD23RoundRect,0.250000X0.250000X1.500000X-0.250000X1.500000X-0.250000X-1.500000X0.250000X-1.500000X0*%
%ADD24RoundRect,0.250001X0.499999X1.449999X-0.499999X1.449999X-0.499999X-1.449999X0.499999X-1.449999X0*%
G04 APERTURE END LIST*
%TO.C,JP1*%
G36*
X70550000Y-67000000D02*
G01*
X73000000Y-67000000D01*
X73000000Y-68500000D01*
X70550000Y-68500000D01*
X70550000Y-67000000D01*
G37*
%TO.C,JP2*%
G36*
X81750000Y-67775000D02*
G01*
X83250000Y-67775000D01*
X83250000Y-70225000D01*
X81750000Y-70225000D01*
X81750000Y-67775000D01*
G37*
%TD*%
D10*
%TO.C,JP1*%
X72500000Y-67750000D03*
D11*
X71050000Y-67750000D03*
%TD*%
D12*
%TO.C,JP2*%
X82500000Y-69725000D03*
D13*
X82500000Y-68275000D03*
%TD*%
D14*
%TO.C,R7*%
X70675000Y-74250000D03*
X72500000Y-74250000D03*
%TD*%
%TO.C,R6*%
X70675000Y-72000000D03*
X72500000Y-72000000D03*
%TD*%
D15*
%TO.C,R2*%
X81912500Y-50640000D03*
X80087500Y-50640000D03*
%TD*%
D16*
%TO.C,C1*%
X81950000Y-65880000D03*
X80050000Y-65880000D03*
%TD*%
D17*
%TO.C,R5*%
X80050000Y-70000000D03*
X80050000Y-68175000D03*
%TD*%
D18*
%TO.C,C2*%
X81912500Y-53800000D03*
X81912500Y-55700000D03*
%TD*%
D19*
%TO.C,U1*%
X77620000Y-50640000D03*
X62380000Y-65880000D03*
X62380000Y-63340000D03*
X62380000Y-60800000D03*
X62380000Y-58260000D03*
X62380000Y-55720000D03*
X62380000Y-53180000D03*
X62380000Y-50640000D03*
X77620000Y-48100000D03*
X62380000Y-48001420D03*
X77620000Y-55720000D03*
X77620000Y-53180000D03*
X77620000Y-58260000D03*
X77620000Y-60800000D03*
X77620000Y-63340000D03*
X77620000Y-65880000D03*
%TD*%
D14*
%TO.C,R1*%
X81912500Y-48100000D03*
X80087500Y-48100000D03*
%TD*%
D20*
%TO.C,R3*%
X67950000Y-62512500D03*
X67950000Y-60687500D03*
%TD*%
D14*
%TO.C,R4*%
X72162500Y-60450000D03*
X70337500Y-60450000D03*
%TD*%
D21*
%TO.C,Q2*%
X71250000Y-64387500D03*
X72200000Y-62512500D03*
X70300000Y-62512500D03*
%TD*%
D22*
%TO.C,U4*%
X61885000Y-100920000D03*
X61885000Y-103460000D03*
X61885000Y-105920000D03*
X61885000Y-108540000D03*
X61885000Y-111080000D03*
%TD*%
%TO.C,U5*%
X76000000Y-119190000D03*
X76000000Y-121730000D03*
X76000000Y-124270000D03*
X76000000Y-126810000D03*
X64570000Y-126810000D03*
X64570000Y-124270000D03*
X64570000Y-121730000D03*
X64570000Y-119190000D03*
%TD*%
D23*
%TO.C,J1*%
X71000000Y-48100000D03*
X69000000Y-48100000D03*
D24*
X73350000Y-53850000D03*
X66650000Y-53850000D03*
%TD*%
D22*
%TO.C,U6*%
X58500000Y-78300000D03*
X58500000Y-80840000D03*
X58500000Y-83380000D03*
X58500000Y-85920000D03*
X58500000Y-88460000D03*
X58500000Y-91000000D03*
%TD*%
%TO.C,U2*%
X59500000Y-121190000D03*
X59500000Y-123730000D03*
X59500000Y-126270000D03*
X59500000Y-128810000D03*
%TD*%
%TO.C,U3*%
X67460000Y-139500000D03*
X70000000Y-139500000D03*
X72540000Y-139500000D03*
%TD*%
M02*
