%TF.GenerationSoftware,KiCad,Pcbnew,10.0.4*%
%TF.CreationDate,2026-09-23T12:25:15+01:00*%
%TF.ProjectId,ProjectKurinda_PCB,50726f6a-6563-4744-9b75-72696e64615f,rev?*%
%TF.SameCoordinates,Original*%
%TF.FileFunction,Drillmap*%
%TF.FilePolarity,Positive*%
%FSLAX45Y45*%
G04 Gerber Fmt 4.5, Leading zero omitted, Abs format (unit mm)*
G04 Created by KiCad (PCBNEW 10.0.4) date 2026-09-23 12:25:15*
%MOMM*%
%LPD*%
G01*
G04 APERTURE LIST*
%ADD10C,0.050000*%
%ADD11C,0.200000*%
%ADD12C,0.100000*%
G04 APERTURE END LIST*
D10*
X5500000Y-4900000D02*
X5500000Y-4900000D01*
G75*
G02*
X5900000Y-4500000I400000J0D01*
G01*
X8100000Y-4500000D01*
G75*
G02*
X8500000Y-4900000I0J-400000D01*
G01*
X8500000Y-14600000D01*
G75*
G02*
X8100000Y-15000000I-400000J0D01*
G01*
X5900000Y-15000000D01*
G75*
G02*
X5500000Y-14600000I0J400000D01*
G01*
X5500000Y-4900000D01*
X5961803Y-14650000D02*
G75*
G02*
X5738197Y-14650000I-111803J0D01*
G01*
X5738197Y-14650000D02*
G75*
G02*
X5961803Y-14650000I111803J0D01*
G01*
X8261803Y-14650000D02*
G75*
G02*
X8038197Y-14650000I-111803J0D01*
G01*
X8038197Y-14650000D02*
G75*
G02*
X8261803Y-14650000I111803J0D01*
G01*
D11*
D12*
X5725000Y-6975000D02*
X5775000Y-7025000D01*
X5775000Y-6975000D02*
X5725000Y-7025000D01*
X5725000Y-7100000D02*
X5775000Y-7150000D01*
X5775000Y-7100000D02*
X5725000Y-7150000D01*
X5725000Y-7225000D02*
X5775000Y-7275000D01*
X5775000Y-7225000D02*
X5725000Y-7275000D01*
X5725000Y-10600000D02*
X5775000Y-10650000D01*
X5775000Y-10600000D02*
X5725000Y-10650000D01*
X5725000Y-10725000D02*
X5775000Y-10775000D01*
X5775000Y-10725000D02*
X5725000Y-10775000D01*
X5725000Y-10850000D02*
X5775000Y-10900000D01*
X5775000Y-10850000D02*
X5725000Y-10900000D01*
X5725000Y-13350000D02*
X5775000Y-13400000D01*
X5775000Y-13350000D02*
X5725000Y-13400000D01*
X5725000Y-13475000D02*
X5775000Y-13525000D01*
X5775000Y-13475000D02*
X5725000Y-13525000D01*
X5725000Y-13600000D02*
X5775000Y-13650000D01*
X5775000Y-13600000D02*
X5725000Y-13650000D01*
X6350000Y-6975000D02*
X6400000Y-7025000D01*
X6400000Y-6975000D02*
X6350000Y-7025000D01*
X6350000Y-8313000D02*
X6400000Y-8363000D01*
X6400000Y-8313000D02*
X6350000Y-8363000D01*
X6475000Y-6975000D02*
X6525000Y-7025000D01*
X6525000Y-6975000D02*
X6475000Y-7025000D01*
X6475000Y-10829000D02*
X6525000Y-10879000D01*
X6525000Y-10829000D02*
X6475000Y-10879000D01*
X6600000Y-6975000D02*
X6650000Y-7025000D01*
X6650000Y-6975000D02*
X6600000Y-7025000D01*
X6600000Y-10567000D02*
X6650000Y-10617000D01*
X6650000Y-10567000D02*
X6600000Y-10617000D01*
X6725000Y-5825000D02*
X6775000Y-5875000D01*
X6775000Y-5825000D02*
X6725000Y-5875000D01*
X6725000Y-6975000D02*
X6775000Y-7025000D01*
X6775000Y-6975000D02*
X6725000Y-7025000D01*
X6725000Y-10321000D02*
X6775000Y-10371000D01*
X6775000Y-10321000D02*
X6725000Y-10371000D01*
X6850000Y-6975000D02*
X6900000Y-7025000D01*
X6900000Y-6975000D02*
X6850000Y-7025000D01*
X6850000Y-8567000D02*
X6900000Y-8617000D01*
X6900000Y-8567000D02*
X6850000Y-8617000D01*
X6975000Y-6975000D02*
X7025000Y-7025000D01*
X7025000Y-6975000D02*
X6975000Y-7025000D01*
X6975000Y-7805000D02*
X7025000Y-7855000D01*
X7025000Y-7805000D02*
X6975000Y-7855000D01*
X7100000Y-6975000D02*
X7150000Y-7025000D01*
X7150000Y-6975000D02*
X7100000Y-7025000D01*
X7100000Y-9075000D02*
X7150000Y-9125000D01*
X7150000Y-9075000D02*
X7100000Y-9125000D01*
X7100000Y-11625000D02*
X7150000Y-11675000D01*
X7150000Y-11625000D02*
X7100000Y-11675000D01*
X7225000Y-6975000D02*
X7275000Y-7025000D01*
X7275000Y-6975000D02*
X7225000Y-7025000D01*
X7225000Y-10067000D02*
X7275000Y-10117000D01*
X7275000Y-10067000D02*
X7225000Y-10117000D01*
X7225000Y-11894000D02*
X7275000Y-11944000D01*
X7275000Y-11894000D02*
X7225000Y-11944000D01*
X7350000Y-6975000D02*
X7400000Y-7025000D01*
X7400000Y-6975000D02*
X7350000Y-7025000D01*
X7350000Y-8059000D02*
X7400000Y-8109000D01*
X7400000Y-8059000D02*
X7350000Y-8109000D01*
X7475000Y-6975000D02*
X7525000Y-7025000D01*
X7525000Y-6975000D02*
X7475000Y-7025000D01*
X7725000Y-6975000D02*
X7775000Y-7025000D01*
X7775000Y-6975000D02*
X7725000Y-7025000D01*
X8166250Y-5200000D02*
X8216250Y-5250000D01*
X8216250Y-5200000D02*
X8166250Y-5250000D01*
X8225000Y-7350000D02*
X8275000Y-7400000D01*
X8275000Y-7350000D02*
X8225000Y-7400000D01*
X8225000Y-7475000D02*
X8275000Y-7525000D01*
X8275000Y-7475000D02*
X8225000Y-7525000D01*
X8225000Y-7600000D02*
X8275000Y-7650000D01*
X8275000Y-7600000D02*
X8225000Y-7650000D01*
X8225000Y-9975000D02*
X8275000Y-10025000D01*
X8275000Y-9975000D02*
X8225000Y-10025000D01*
X8225000Y-10100000D02*
X8275000Y-10150000D01*
X8275000Y-10100000D02*
X8225000Y-10150000D01*
X8225000Y-10225000D02*
X8275000Y-10275000D01*
X8275000Y-10225000D02*
X8225000Y-10275000D01*
X8225000Y-12850000D02*
X8275000Y-12900000D01*
X8275000Y-12850000D02*
X8225000Y-12900000D01*
X8225000Y-12975000D02*
X8275000Y-13025000D01*
X8275000Y-12975000D02*
X8225000Y-13025000D01*
X8225000Y-13100000D02*
X8275000Y-13150000D01*
X8275000Y-13100000D02*
X8225000Y-13150000D01*
X6695000Y-5300000D02*
G75*
G02*
X6635000Y-5300000I-30000J0D01*
G01*
X6635000Y-5300000D02*
G75*
G02*
X6695000Y-5300000I30000J0D01*
G01*
X6695000Y-5450000D02*
G75*
G02*
X6635000Y-5450000I-30000J0D01*
G01*
X6635000Y-5450000D02*
G75*
G02*
X6695000Y-5450000I30000J0D01*
G01*
X7365000Y-5300000D02*
G75*
G02*
X7305000Y-5300000I-30000J0D01*
G01*
X7305000Y-5300000D02*
G75*
G02*
X7365000Y-5300000I30000J0D01*
G01*
X7365000Y-5450000D02*
G75*
G02*
X7305000Y-5450000I-30000J0D01*
G01*
X7305000Y-5450000D02*
G75*
G02*
X7365000Y-5450000I30000J0D01*
G01*
X6238000Y-4758142D02*
X6238000Y-4842142D01*
X6196000Y-4800142D02*
X6280000Y-4800142D01*
X6238000Y-5022000D02*
X6238000Y-5106000D01*
X6196000Y-5064000D02*
X6280000Y-5064000D01*
X6238000Y-5276000D02*
X6238000Y-5360000D01*
X6196000Y-5318000D02*
X6280000Y-5318000D01*
X6238000Y-5530000D02*
X6238000Y-5614000D01*
X6196000Y-5572000D02*
X6280000Y-5572000D01*
X6238000Y-5784000D02*
X6238000Y-5868000D01*
X6196000Y-5826000D02*
X6280000Y-5826000D01*
X6238000Y-6038000D02*
X6238000Y-6122000D01*
X6196000Y-6080000D02*
X6280000Y-6080000D01*
X6238000Y-6292000D02*
X6238000Y-6376000D01*
X6196000Y-6334000D02*
X6280000Y-6334000D01*
X6238000Y-6546000D02*
X6238000Y-6630000D01*
X6196000Y-6588000D02*
X6280000Y-6588000D01*
X7762000Y-4768000D02*
X7762000Y-4852000D01*
X7720000Y-4810000D02*
X7804000Y-4810000D01*
X7762000Y-5022000D02*
X7762000Y-5106000D01*
X7720000Y-5064000D02*
X7804000Y-5064000D01*
X7762000Y-5276000D02*
X7762000Y-5360000D01*
X7720000Y-5318000D02*
X7804000Y-5318000D01*
X7762000Y-5530000D02*
X7762000Y-5614000D01*
X7720000Y-5572000D02*
X7804000Y-5572000D01*
X7762000Y-5784000D02*
X7762000Y-5868000D01*
X7720000Y-5826000D02*
X7804000Y-5826000D01*
X7762000Y-6038000D02*
X7762000Y-6122000D01*
X7720000Y-6080000D02*
X7804000Y-6080000D01*
X7762000Y-6292000D02*
X7762000Y-6376000D01*
X7720000Y-6334000D02*
X7804000Y-6334000D01*
X7762000Y-6546000D02*
X7762000Y-6630000D01*
X7720000Y-6588000D02*
X7804000Y-6588000D01*
X5885356Y-7865356D02*
X5885356Y-7794644D01*
X5814644Y-7794644D01*
X5814644Y-7865356D01*
X5885356Y-7865356D01*
X5885356Y-8119356D02*
X5885356Y-8048644D01*
X5814644Y-8048644D01*
X5814644Y-8119356D01*
X5885356Y-8119356D01*
X5885356Y-8373356D02*
X5885356Y-8302644D01*
X5814644Y-8302644D01*
X5814644Y-8373356D01*
X5885356Y-8373356D01*
X5885356Y-8627356D02*
X5885356Y-8556644D01*
X5814644Y-8556644D01*
X5814644Y-8627356D01*
X5885356Y-8627356D01*
X5885356Y-8881356D02*
X5885356Y-8810644D01*
X5814644Y-8810644D01*
X5814644Y-8881356D01*
X5885356Y-8881356D01*
X5885356Y-9135356D02*
X5885356Y-9064644D01*
X5814644Y-9064644D01*
X5814644Y-9135356D01*
X5885356Y-9135356D01*
X5985356Y-12154356D02*
X5985356Y-12083644D01*
X5914644Y-12083644D01*
X5914644Y-12154356D01*
X5985356Y-12154356D01*
X5985356Y-12408356D02*
X5985356Y-12337644D01*
X5914644Y-12337644D01*
X5914644Y-12408356D01*
X5985356Y-12408356D01*
X5985356Y-12662356D02*
X5985356Y-12591644D01*
X5914644Y-12591644D01*
X5914644Y-12662356D01*
X5985356Y-12662356D01*
X5985356Y-12916356D02*
X5985356Y-12845644D01*
X5914644Y-12845644D01*
X5914644Y-12916356D01*
X5985356Y-12916356D01*
X6223856Y-10127356D02*
X6223856Y-10056644D01*
X6153144Y-10056644D01*
X6153144Y-10127356D01*
X6223856Y-10127356D01*
X6223856Y-10381356D02*
X6223856Y-10310644D01*
X6153144Y-10310644D01*
X6153144Y-10381356D01*
X6223856Y-10381356D01*
X6223856Y-10627356D02*
X6223856Y-10556644D01*
X6153144Y-10556644D01*
X6153144Y-10627356D01*
X6223856Y-10627356D01*
X6223856Y-10889356D02*
X6223856Y-10818644D01*
X6153144Y-10818644D01*
X6153144Y-10889356D01*
X6223856Y-10889356D01*
X6223856Y-11143356D02*
X6223856Y-11072644D01*
X6153144Y-11072644D01*
X6153144Y-11143356D01*
X6223856Y-11143356D01*
X6492356Y-11954356D02*
X6492356Y-11883644D01*
X6421644Y-11883644D01*
X6421644Y-11954356D01*
X6492356Y-11954356D01*
X6492356Y-12208356D02*
X6492356Y-12137644D01*
X6421644Y-12137644D01*
X6421644Y-12208356D01*
X6492356Y-12208356D01*
X6492356Y-12462356D02*
X6492356Y-12391644D01*
X6421644Y-12391644D01*
X6421644Y-12462356D01*
X6492356Y-12462356D01*
X6492356Y-12716356D02*
X6492356Y-12645644D01*
X6421644Y-12645644D01*
X6421644Y-12716356D01*
X6492356Y-12716356D01*
X6781356Y-13985356D02*
X6781356Y-13914644D01*
X6710644Y-13914644D01*
X6710644Y-13985356D01*
X6781356Y-13985356D01*
X7035356Y-13985356D02*
X7035356Y-13914644D01*
X6964644Y-13914644D01*
X6964644Y-13985356D01*
X7035356Y-13985356D01*
X7289356Y-13985356D02*
X7289356Y-13914644D01*
X7218644Y-13914644D01*
X7218644Y-13985356D01*
X7289356Y-13985356D01*
X7635356Y-11954356D02*
X7635356Y-11883644D01*
X7564644Y-11883644D01*
X7564644Y-11954356D01*
X7635356Y-11954356D01*
X7635356Y-12208356D02*
X7635356Y-12137644D01*
X7564644Y-12137644D01*
X7564644Y-12208356D01*
X7635356Y-12208356D01*
X7635356Y-12462356D02*
X7635356Y-12391644D01*
X7564644Y-12391644D01*
X7564644Y-12462356D01*
X7635356Y-12462356D01*
X7635356Y-12716356D02*
X7635356Y-12645644D01*
X7564644Y-12645644D01*
X7564644Y-12716356D01*
X7635356Y-12716356D01*
D11*
X5758277Y-15313984D02*
X5758277Y-15113984D01*
X5758277Y-15113984D02*
X5805896Y-15113984D01*
X5805896Y-15113984D02*
X5834467Y-15123508D01*
X5834467Y-15123508D02*
X5853515Y-15142555D01*
X5853515Y-15142555D02*
X5863039Y-15161603D01*
X5863039Y-15161603D02*
X5872562Y-15199698D01*
X5872562Y-15199698D02*
X5872562Y-15228269D01*
X5872562Y-15228269D02*
X5863039Y-15266365D01*
X5863039Y-15266365D02*
X5853515Y-15285412D01*
X5853515Y-15285412D02*
X5834467Y-15304460D01*
X5834467Y-15304460D02*
X5805896Y-15313984D01*
X5805896Y-15313984D02*
X5758277Y-15313984D01*
X5958277Y-15313984D02*
X5958277Y-15180650D01*
X5958277Y-15218746D02*
X5967801Y-15199698D01*
X5967801Y-15199698D02*
X5977324Y-15190174D01*
X5977324Y-15190174D02*
X5996372Y-15180650D01*
X5996372Y-15180650D02*
X6015420Y-15180650D01*
X6082086Y-15313984D02*
X6082086Y-15180650D01*
X6082086Y-15113984D02*
X6072562Y-15123508D01*
X6072562Y-15123508D02*
X6082086Y-15133031D01*
X6082086Y-15133031D02*
X6091610Y-15123508D01*
X6091610Y-15123508D02*
X6082086Y-15113984D01*
X6082086Y-15113984D02*
X6082086Y-15133031D01*
X6205896Y-15313984D02*
X6186848Y-15304460D01*
X6186848Y-15304460D02*
X6177324Y-15285412D01*
X6177324Y-15285412D02*
X6177324Y-15113984D01*
X6310658Y-15313984D02*
X6291610Y-15304460D01*
X6291610Y-15304460D02*
X6282086Y-15285412D01*
X6282086Y-15285412D02*
X6282086Y-15113984D01*
X6539229Y-15313984D02*
X6539229Y-15113984D01*
X6539229Y-15113984D02*
X6605896Y-15256841D01*
X6605896Y-15256841D02*
X6672562Y-15113984D01*
X6672562Y-15113984D02*
X6672562Y-15313984D01*
X6853515Y-15313984D02*
X6853515Y-15209222D01*
X6853515Y-15209222D02*
X6843991Y-15190174D01*
X6843991Y-15190174D02*
X6824943Y-15180650D01*
X6824943Y-15180650D02*
X6786848Y-15180650D01*
X6786848Y-15180650D02*
X6767801Y-15190174D01*
X6853515Y-15304460D02*
X6834467Y-15313984D01*
X6834467Y-15313984D02*
X6786848Y-15313984D01*
X6786848Y-15313984D02*
X6767801Y-15304460D01*
X6767801Y-15304460D02*
X6758277Y-15285412D01*
X6758277Y-15285412D02*
X6758277Y-15266365D01*
X6758277Y-15266365D02*
X6767801Y-15247317D01*
X6767801Y-15247317D02*
X6786848Y-15237793D01*
X6786848Y-15237793D02*
X6834467Y-15237793D01*
X6834467Y-15237793D02*
X6853515Y-15228269D01*
X6948753Y-15180650D02*
X6948753Y-15380650D01*
X6948753Y-15190174D02*
X6967801Y-15180650D01*
X6967801Y-15180650D02*
X7005896Y-15180650D01*
X7005896Y-15180650D02*
X7024943Y-15190174D01*
X7024943Y-15190174D02*
X7034467Y-15199698D01*
X7034467Y-15199698D02*
X7043991Y-15218746D01*
X7043991Y-15218746D02*
X7043991Y-15275888D01*
X7043991Y-15275888D02*
X7034467Y-15294936D01*
X7034467Y-15294936D02*
X7024943Y-15304460D01*
X7024943Y-15304460D02*
X7005896Y-15313984D01*
X7005896Y-15313984D02*
X6967801Y-15313984D01*
X6967801Y-15313984D02*
X6948753Y-15304460D01*
X7129705Y-15294936D02*
X7139229Y-15304460D01*
X7139229Y-15304460D02*
X7129705Y-15313984D01*
X7129705Y-15313984D02*
X7120182Y-15304460D01*
X7120182Y-15304460D02*
X7129705Y-15294936D01*
X7129705Y-15294936D02*
X7129705Y-15313984D01*
X7129705Y-15190174D02*
X7139229Y-15199698D01*
X7139229Y-15199698D02*
X7129705Y-15209222D01*
X7129705Y-15209222D02*
X7120182Y-15199698D01*
X7120182Y-15199698D02*
X7129705Y-15190174D01*
X7129705Y-15190174D02*
X7129705Y-15209222D01*
D12*
X5447500Y-15617500D02*
X5497500Y-15667500D01*
X5497500Y-15617500D02*
X5447500Y-15667500D01*
D11*
X5796372Y-15533984D02*
X5815420Y-15533984D01*
X5815420Y-15533984D02*
X5834467Y-15543508D01*
X5834467Y-15543508D02*
X5843991Y-15553031D01*
X5843991Y-15553031D02*
X5853515Y-15572079D01*
X5853515Y-15572079D02*
X5863039Y-15610174D01*
X5863039Y-15610174D02*
X5863039Y-15657793D01*
X5863039Y-15657793D02*
X5853515Y-15695888D01*
X5853515Y-15695888D02*
X5843991Y-15714936D01*
X5843991Y-15714936D02*
X5834467Y-15724460D01*
X5834467Y-15724460D02*
X5815420Y-15733984D01*
X5815420Y-15733984D02*
X5796372Y-15733984D01*
X5796372Y-15733984D02*
X5777324Y-15724460D01*
X5777324Y-15724460D02*
X5767801Y-15714936D01*
X5767801Y-15714936D02*
X5758277Y-15695888D01*
X5758277Y-15695888D02*
X5748753Y-15657793D01*
X5748753Y-15657793D02*
X5748753Y-15610174D01*
X5748753Y-15610174D02*
X5758277Y-15572079D01*
X5758277Y-15572079D02*
X5767801Y-15553031D01*
X5767801Y-15553031D02*
X5777324Y-15543508D01*
X5777324Y-15543508D02*
X5796372Y-15533984D01*
X5948753Y-15714936D02*
X5958277Y-15724460D01*
X5958277Y-15724460D02*
X5948753Y-15733984D01*
X5948753Y-15733984D02*
X5939229Y-15724460D01*
X5939229Y-15724460D02*
X5948753Y-15714936D01*
X5948753Y-15714936D02*
X5948753Y-15733984D01*
X6139229Y-15533984D02*
X6043991Y-15533984D01*
X6043991Y-15533984D02*
X6034467Y-15629222D01*
X6034467Y-15629222D02*
X6043991Y-15619698D01*
X6043991Y-15619698D02*
X6063039Y-15610174D01*
X6063039Y-15610174D02*
X6110658Y-15610174D01*
X6110658Y-15610174D02*
X6129705Y-15619698D01*
X6129705Y-15619698D02*
X6139229Y-15629222D01*
X6139229Y-15629222D02*
X6148753Y-15648269D01*
X6148753Y-15648269D02*
X6148753Y-15695888D01*
X6148753Y-15695888D02*
X6139229Y-15714936D01*
X6139229Y-15714936D02*
X6129705Y-15724460D01*
X6129705Y-15724460D02*
X6110658Y-15733984D01*
X6110658Y-15733984D02*
X6063039Y-15733984D01*
X6063039Y-15733984D02*
X6043991Y-15724460D01*
X6043991Y-15724460D02*
X6034467Y-15714936D01*
X6272562Y-15533984D02*
X6291610Y-15533984D01*
X6291610Y-15533984D02*
X6310658Y-15543508D01*
X6310658Y-15543508D02*
X6320182Y-15553031D01*
X6320182Y-15553031D02*
X6329705Y-15572079D01*
X6329705Y-15572079D02*
X6339229Y-15610174D01*
X6339229Y-15610174D02*
X6339229Y-15657793D01*
X6339229Y-15657793D02*
X6329705Y-15695888D01*
X6329705Y-15695888D02*
X6320182Y-15714936D01*
X6320182Y-15714936D02*
X6310658Y-15724460D01*
X6310658Y-15724460D02*
X6291610Y-15733984D01*
X6291610Y-15733984D02*
X6272562Y-15733984D01*
X6272562Y-15733984D02*
X6253515Y-15724460D01*
X6253515Y-15724460D02*
X6243991Y-15714936D01*
X6243991Y-15714936D02*
X6234467Y-15695888D01*
X6234467Y-15695888D02*
X6224943Y-15657793D01*
X6224943Y-15657793D02*
X6224943Y-15610174D01*
X6224943Y-15610174D02*
X6234467Y-15572079D01*
X6234467Y-15572079D02*
X6243991Y-15553031D01*
X6243991Y-15553031D02*
X6253515Y-15543508D01*
X6253515Y-15543508D02*
X6272562Y-15533984D01*
X6463039Y-15533984D02*
X6482086Y-15533984D01*
X6482086Y-15533984D02*
X6501134Y-15543508D01*
X6501134Y-15543508D02*
X6510658Y-15553031D01*
X6510658Y-15553031D02*
X6520182Y-15572079D01*
X6520182Y-15572079D02*
X6529705Y-15610174D01*
X6529705Y-15610174D02*
X6529705Y-15657793D01*
X6529705Y-15657793D02*
X6520182Y-15695888D01*
X6520182Y-15695888D02*
X6510658Y-15714936D01*
X6510658Y-15714936D02*
X6501134Y-15724460D01*
X6501134Y-15724460D02*
X6482086Y-15733984D01*
X6482086Y-15733984D02*
X6463039Y-15733984D01*
X6463039Y-15733984D02*
X6443991Y-15724460D01*
X6443991Y-15724460D02*
X6434467Y-15714936D01*
X6434467Y-15714936D02*
X6424943Y-15695888D01*
X6424943Y-15695888D02*
X6415420Y-15657793D01*
X6415420Y-15657793D02*
X6415420Y-15610174D01*
X6415420Y-15610174D02*
X6424943Y-15572079D01*
X6424943Y-15572079D02*
X6434467Y-15553031D01*
X6434467Y-15553031D02*
X6443991Y-15543508D01*
X6443991Y-15543508D02*
X6463039Y-15533984D01*
X6615420Y-15733984D02*
X6615420Y-15600650D01*
X6615420Y-15619698D02*
X6624943Y-15610174D01*
X6624943Y-15610174D02*
X6643991Y-15600650D01*
X6643991Y-15600650D02*
X6672563Y-15600650D01*
X6672563Y-15600650D02*
X6691610Y-15610174D01*
X6691610Y-15610174D02*
X6701134Y-15629222D01*
X6701134Y-15629222D02*
X6701134Y-15733984D01*
X6701134Y-15629222D02*
X6710658Y-15610174D01*
X6710658Y-15610174D02*
X6729705Y-15600650D01*
X6729705Y-15600650D02*
X6758277Y-15600650D01*
X6758277Y-15600650D02*
X6777324Y-15610174D01*
X6777324Y-15610174D02*
X6786848Y-15629222D01*
X6786848Y-15629222D02*
X6786848Y-15733984D01*
X6882086Y-15733984D02*
X6882086Y-15600650D01*
X6882086Y-15619698D02*
X6891610Y-15610174D01*
X6891610Y-15610174D02*
X6910658Y-15600650D01*
X6910658Y-15600650D02*
X6939229Y-15600650D01*
X6939229Y-15600650D02*
X6958277Y-15610174D01*
X6958277Y-15610174D02*
X6967801Y-15629222D01*
X6967801Y-15629222D02*
X6967801Y-15733984D01*
X6967801Y-15629222D02*
X6977324Y-15610174D01*
X6977324Y-15610174D02*
X6996372Y-15600650D01*
X6996372Y-15600650D02*
X7024943Y-15600650D01*
X7024943Y-15600650D02*
X7043991Y-15610174D01*
X7043991Y-15610174D02*
X7053515Y-15629222D01*
X7053515Y-15629222D02*
X7053515Y-15733984D01*
X7443991Y-15524460D02*
X7272563Y-15781603D01*
X7701134Y-15533984D02*
X7720182Y-15533984D01*
X7720182Y-15533984D02*
X7739229Y-15543508D01*
X7739229Y-15543508D02*
X7748753Y-15553031D01*
X7748753Y-15553031D02*
X7758277Y-15572079D01*
X7758277Y-15572079D02*
X7767801Y-15610174D01*
X7767801Y-15610174D02*
X7767801Y-15657793D01*
X7767801Y-15657793D02*
X7758277Y-15695888D01*
X7758277Y-15695888D02*
X7748753Y-15714936D01*
X7748753Y-15714936D02*
X7739229Y-15724460D01*
X7739229Y-15724460D02*
X7720182Y-15733984D01*
X7720182Y-15733984D02*
X7701134Y-15733984D01*
X7701134Y-15733984D02*
X7682086Y-15724460D01*
X7682086Y-15724460D02*
X7672563Y-15714936D01*
X7672563Y-15714936D02*
X7663039Y-15695888D01*
X7663039Y-15695888D02*
X7653515Y-15657793D01*
X7653515Y-15657793D02*
X7653515Y-15610174D01*
X7653515Y-15610174D02*
X7663039Y-15572079D01*
X7663039Y-15572079D02*
X7672563Y-15553031D01*
X7672563Y-15553031D02*
X7682086Y-15543508D01*
X7682086Y-15543508D02*
X7701134Y-15533984D01*
X7853515Y-15714936D02*
X7863039Y-15724460D01*
X7863039Y-15724460D02*
X7853515Y-15733984D01*
X7853515Y-15733984D02*
X7843991Y-15724460D01*
X7843991Y-15724460D02*
X7853515Y-15714936D01*
X7853515Y-15714936D02*
X7853515Y-15733984D01*
X7986848Y-15533984D02*
X8005896Y-15533984D01*
X8005896Y-15533984D02*
X8024944Y-15543508D01*
X8024944Y-15543508D02*
X8034467Y-15553031D01*
X8034467Y-15553031D02*
X8043991Y-15572079D01*
X8043991Y-15572079D02*
X8053515Y-15610174D01*
X8053515Y-15610174D02*
X8053515Y-15657793D01*
X8053515Y-15657793D02*
X8043991Y-15695888D01*
X8043991Y-15695888D02*
X8034467Y-15714936D01*
X8034467Y-15714936D02*
X8024944Y-15724460D01*
X8024944Y-15724460D02*
X8005896Y-15733984D01*
X8005896Y-15733984D02*
X7986848Y-15733984D01*
X7986848Y-15733984D02*
X7967801Y-15724460D01*
X7967801Y-15724460D02*
X7958277Y-15714936D01*
X7958277Y-15714936D02*
X7948753Y-15695888D01*
X7948753Y-15695888D02*
X7939229Y-15657793D01*
X7939229Y-15657793D02*
X7939229Y-15610174D01*
X7939229Y-15610174D02*
X7948753Y-15572079D01*
X7948753Y-15572079D02*
X7958277Y-15553031D01*
X7958277Y-15553031D02*
X7967801Y-15543508D01*
X7967801Y-15543508D02*
X7986848Y-15533984D01*
X8243991Y-15733984D02*
X8129706Y-15733984D01*
X8186848Y-15733984D02*
X8186848Y-15533984D01*
X8186848Y-15533984D02*
X8167801Y-15562555D01*
X8167801Y-15562555D02*
X8148753Y-15581603D01*
X8148753Y-15581603D02*
X8129706Y-15591127D01*
X8339229Y-15733984D02*
X8377325Y-15733984D01*
X8377325Y-15733984D02*
X8396372Y-15724460D01*
X8396372Y-15724460D02*
X8405896Y-15714936D01*
X8405896Y-15714936D02*
X8424944Y-15686365D01*
X8424944Y-15686365D02*
X8434468Y-15648269D01*
X8434468Y-15648269D02*
X8434468Y-15572079D01*
X8434468Y-15572079D02*
X8424944Y-15553031D01*
X8424944Y-15553031D02*
X8415420Y-15543508D01*
X8415420Y-15543508D02*
X8396372Y-15533984D01*
X8396372Y-15533984D02*
X8358277Y-15533984D01*
X8358277Y-15533984D02*
X8339229Y-15543508D01*
X8339229Y-15543508D02*
X8329706Y-15553031D01*
X8329706Y-15553031D02*
X8320182Y-15572079D01*
X8320182Y-15572079D02*
X8320182Y-15619698D01*
X8320182Y-15619698D02*
X8329706Y-15638746D01*
X8329706Y-15638746D02*
X8339229Y-15648269D01*
X8339229Y-15648269D02*
X8358277Y-15657793D01*
X8358277Y-15657793D02*
X8396372Y-15657793D01*
X8396372Y-15657793D02*
X8415420Y-15648269D01*
X8415420Y-15648269D02*
X8424944Y-15638746D01*
X8424944Y-15638746D02*
X8434468Y-15619698D01*
X8501134Y-15533984D02*
X8634468Y-15533984D01*
X8634468Y-15533984D02*
X8548753Y-15733984D01*
X8701134Y-15533984D02*
X8701134Y-15572079D01*
X8777325Y-15533984D02*
X8777325Y-15572079D01*
X9072563Y-15810174D02*
X9063039Y-15800650D01*
X9063039Y-15800650D02*
X9043991Y-15772079D01*
X9043991Y-15772079D02*
X9034468Y-15753031D01*
X9034468Y-15753031D02*
X9024944Y-15724460D01*
X9024944Y-15724460D02*
X9015420Y-15676841D01*
X9015420Y-15676841D02*
X9015420Y-15638746D01*
X9015420Y-15638746D02*
X9024944Y-15591127D01*
X9024944Y-15591127D02*
X9034468Y-15562555D01*
X9034468Y-15562555D02*
X9043991Y-15543508D01*
X9043991Y-15543508D02*
X9063039Y-15514936D01*
X9063039Y-15514936D02*
X9072563Y-15505412D01*
X9234468Y-15600650D02*
X9234468Y-15733984D01*
X9186849Y-15524460D02*
X9139230Y-15667317D01*
X9139230Y-15667317D02*
X9263039Y-15667317D01*
X9329706Y-15553031D02*
X9339230Y-15543508D01*
X9339230Y-15543508D02*
X9358277Y-15533984D01*
X9358277Y-15533984D02*
X9405896Y-15533984D01*
X9405896Y-15533984D02*
X9424944Y-15543508D01*
X9424944Y-15543508D02*
X9434468Y-15553031D01*
X9434468Y-15553031D02*
X9443991Y-15572079D01*
X9443991Y-15572079D02*
X9443991Y-15591127D01*
X9443991Y-15591127D02*
X9434468Y-15619698D01*
X9434468Y-15619698D02*
X9320182Y-15733984D01*
X9320182Y-15733984D02*
X9443991Y-15733984D01*
X9682087Y-15733984D02*
X9682087Y-15533984D01*
X9767801Y-15733984D02*
X9767801Y-15629222D01*
X9767801Y-15629222D02*
X9758277Y-15610174D01*
X9758277Y-15610174D02*
X9739230Y-15600650D01*
X9739230Y-15600650D02*
X9710658Y-15600650D01*
X9710658Y-15600650D02*
X9691611Y-15610174D01*
X9691611Y-15610174D02*
X9682087Y-15619698D01*
X9891611Y-15733984D02*
X9872563Y-15724460D01*
X9872563Y-15724460D02*
X9863039Y-15714936D01*
X9863039Y-15714936D02*
X9853515Y-15695888D01*
X9853515Y-15695888D02*
X9853515Y-15638746D01*
X9853515Y-15638746D02*
X9863039Y-15619698D01*
X9863039Y-15619698D02*
X9872563Y-15610174D01*
X9872563Y-15610174D02*
X9891611Y-15600650D01*
X9891611Y-15600650D02*
X9920182Y-15600650D01*
X9920182Y-15600650D02*
X9939230Y-15610174D01*
X9939230Y-15610174D02*
X9948753Y-15619698D01*
X9948753Y-15619698D02*
X9958277Y-15638746D01*
X9958277Y-15638746D02*
X9958277Y-15695888D01*
X9958277Y-15695888D02*
X9948753Y-15714936D01*
X9948753Y-15714936D02*
X9939230Y-15724460D01*
X9939230Y-15724460D02*
X9920182Y-15733984D01*
X9920182Y-15733984D02*
X9891611Y-15733984D01*
X10072563Y-15733984D02*
X10053515Y-15724460D01*
X10053515Y-15724460D02*
X10043992Y-15705412D01*
X10043992Y-15705412D02*
X10043992Y-15533984D01*
X10224944Y-15724460D02*
X10205896Y-15733984D01*
X10205896Y-15733984D02*
X10167801Y-15733984D01*
X10167801Y-15733984D02*
X10148753Y-15724460D01*
X10148753Y-15724460D02*
X10139230Y-15705412D01*
X10139230Y-15705412D02*
X10139230Y-15629222D01*
X10139230Y-15629222D02*
X10148753Y-15610174D01*
X10148753Y-15610174D02*
X10167801Y-15600650D01*
X10167801Y-15600650D02*
X10205896Y-15600650D01*
X10205896Y-15600650D02*
X10224944Y-15610174D01*
X10224944Y-15610174D02*
X10234468Y-15629222D01*
X10234468Y-15629222D02*
X10234468Y-15648269D01*
X10234468Y-15648269D02*
X10139230Y-15667317D01*
X10310658Y-15724460D02*
X10329706Y-15733984D01*
X10329706Y-15733984D02*
X10367801Y-15733984D01*
X10367801Y-15733984D02*
X10386849Y-15724460D01*
X10386849Y-15724460D02*
X10396373Y-15705412D01*
X10396373Y-15705412D02*
X10396373Y-15695888D01*
X10396373Y-15695888D02*
X10386849Y-15676841D01*
X10386849Y-15676841D02*
X10367801Y-15667317D01*
X10367801Y-15667317D02*
X10339230Y-15667317D01*
X10339230Y-15667317D02*
X10320182Y-15657793D01*
X10320182Y-15657793D02*
X10310658Y-15638746D01*
X10310658Y-15638746D02*
X10310658Y-15629222D01*
X10310658Y-15629222D02*
X10320182Y-15610174D01*
X10320182Y-15610174D02*
X10339230Y-15600650D01*
X10339230Y-15600650D02*
X10367801Y-15600650D01*
X10367801Y-15600650D02*
X10386849Y-15610174D01*
X10463039Y-15810174D02*
X10472563Y-15800650D01*
X10472563Y-15800650D02*
X10491611Y-15772079D01*
X10491611Y-15772079D02*
X10501134Y-15753031D01*
X10501134Y-15753031D02*
X10510658Y-15724460D01*
X10510658Y-15724460D02*
X10520182Y-15676841D01*
X10520182Y-15676841D02*
X10520182Y-15638746D01*
X10520182Y-15638746D02*
X10510658Y-15591127D01*
X10510658Y-15591127D02*
X10501134Y-15562555D01*
X10501134Y-15562555D02*
X10491611Y-15543508D01*
X10491611Y-15543508D02*
X10472563Y-15514936D01*
X10472563Y-15514936D02*
X10463039Y-15505412D01*
D12*
X5497500Y-15906500D02*
G75*
G02*
X5437500Y-15906500I-30000J0D01*
G01*
X5437500Y-15906500D02*
G75*
G02*
X5497500Y-15906500I30000J0D01*
G01*
D11*
X5796372Y-15797984D02*
X5815420Y-15797984D01*
X5815420Y-15797984D02*
X5834467Y-15807508D01*
X5834467Y-15807508D02*
X5843991Y-15817031D01*
X5843991Y-15817031D02*
X5853515Y-15836079D01*
X5853515Y-15836079D02*
X5863039Y-15874174D01*
X5863039Y-15874174D02*
X5863039Y-15921793D01*
X5863039Y-15921793D02*
X5853515Y-15959888D01*
X5853515Y-15959888D02*
X5843991Y-15978936D01*
X5843991Y-15978936D02*
X5834467Y-15988460D01*
X5834467Y-15988460D02*
X5815420Y-15997984D01*
X5815420Y-15997984D02*
X5796372Y-15997984D01*
X5796372Y-15997984D02*
X5777324Y-15988460D01*
X5777324Y-15988460D02*
X5767801Y-15978936D01*
X5767801Y-15978936D02*
X5758277Y-15959888D01*
X5758277Y-15959888D02*
X5748753Y-15921793D01*
X5748753Y-15921793D02*
X5748753Y-15874174D01*
X5748753Y-15874174D02*
X5758277Y-15836079D01*
X5758277Y-15836079D02*
X5767801Y-15817031D01*
X5767801Y-15817031D02*
X5777324Y-15807508D01*
X5777324Y-15807508D02*
X5796372Y-15797984D01*
X5948753Y-15978936D02*
X5958277Y-15988460D01*
X5958277Y-15988460D02*
X5948753Y-15997984D01*
X5948753Y-15997984D02*
X5939229Y-15988460D01*
X5939229Y-15988460D02*
X5948753Y-15978936D01*
X5948753Y-15978936D02*
X5948753Y-15997984D01*
X6129705Y-15797984D02*
X6091610Y-15797984D01*
X6091610Y-15797984D02*
X6072562Y-15807508D01*
X6072562Y-15807508D02*
X6063039Y-15817031D01*
X6063039Y-15817031D02*
X6043991Y-15845603D01*
X6043991Y-15845603D02*
X6034467Y-15883698D01*
X6034467Y-15883698D02*
X6034467Y-15959888D01*
X6034467Y-15959888D02*
X6043991Y-15978936D01*
X6043991Y-15978936D02*
X6053515Y-15988460D01*
X6053515Y-15988460D02*
X6072562Y-15997984D01*
X6072562Y-15997984D02*
X6110658Y-15997984D01*
X6110658Y-15997984D02*
X6129705Y-15988460D01*
X6129705Y-15988460D02*
X6139229Y-15978936D01*
X6139229Y-15978936D02*
X6148753Y-15959888D01*
X6148753Y-15959888D02*
X6148753Y-15912269D01*
X6148753Y-15912269D02*
X6139229Y-15893222D01*
X6139229Y-15893222D02*
X6129705Y-15883698D01*
X6129705Y-15883698D02*
X6110658Y-15874174D01*
X6110658Y-15874174D02*
X6072562Y-15874174D01*
X6072562Y-15874174D02*
X6053515Y-15883698D01*
X6053515Y-15883698D02*
X6043991Y-15893222D01*
X6043991Y-15893222D02*
X6034467Y-15912269D01*
X6272562Y-15797984D02*
X6291610Y-15797984D01*
X6291610Y-15797984D02*
X6310658Y-15807508D01*
X6310658Y-15807508D02*
X6320182Y-15817031D01*
X6320182Y-15817031D02*
X6329705Y-15836079D01*
X6329705Y-15836079D02*
X6339229Y-15874174D01*
X6339229Y-15874174D02*
X6339229Y-15921793D01*
X6339229Y-15921793D02*
X6329705Y-15959888D01*
X6329705Y-15959888D02*
X6320182Y-15978936D01*
X6320182Y-15978936D02*
X6310658Y-15988460D01*
X6310658Y-15988460D02*
X6291610Y-15997984D01*
X6291610Y-15997984D02*
X6272562Y-15997984D01*
X6272562Y-15997984D02*
X6253515Y-15988460D01*
X6253515Y-15988460D02*
X6243991Y-15978936D01*
X6243991Y-15978936D02*
X6234467Y-15959888D01*
X6234467Y-15959888D02*
X6224943Y-15921793D01*
X6224943Y-15921793D02*
X6224943Y-15874174D01*
X6224943Y-15874174D02*
X6234467Y-15836079D01*
X6234467Y-15836079D02*
X6243991Y-15817031D01*
X6243991Y-15817031D02*
X6253515Y-15807508D01*
X6253515Y-15807508D02*
X6272562Y-15797984D01*
X6463039Y-15797984D02*
X6482086Y-15797984D01*
X6482086Y-15797984D02*
X6501134Y-15807508D01*
X6501134Y-15807508D02*
X6510658Y-15817031D01*
X6510658Y-15817031D02*
X6520182Y-15836079D01*
X6520182Y-15836079D02*
X6529705Y-15874174D01*
X6529705Y-15874174D02*
X6529705Y-15921793D01*
X6529705Y-15921793D02*
X6520182Y-15959888D01*
X6520182Y-15959888D02*
X6510658Y-15978936D01*
X6510658Y-15978936D02*
X6501134Y-15988460D01*
X6501134Y-15988460D02*
X6482086Y-15997984D01*
X6482086Y-15997984D02*
X6463039Y-15997984D01*
X6463039Y-15997984D02*
X6443991Y-15988460D01*
X6443991Y-15988460D02*
X6434467Y-15978936D01*
X6434467Y-15978936D02*
X6424943Y-15959888D01*
X6424943Y-15959888D02*
X6415420Y-15921793D01*
X6415420Y-15921793D02*
X6415420Y-15874174D01*
X6415420Y-15874174D02*
X6424943Y-15836079D01*
X6424943Y-15836079D02*
X6434467Y-15817031D01*
X6434467Y-15817031D02*
X6443991Y-15807508D01*
X6443991Y-15807508D02*
X6463039Y-15797984D01*
X6615420Y-15997984D02*
X6615420Y-15864650D01*
X6615420Y-15883698D02*
X6624943Y-15874174D01*
X6624943Y-15874174D02*
X6643991Y-15864650D01*
X6643991Y-15864650D02*
X6672563Y-15864650D01*
X6672563Y-15864650D02*
X6691610Y-15874174D01*
X6691610Y-15874174D02*
X6701134Y-15893222D01*
X6701134Y-15893222D02*
X6701134Y-15997984D01*
X6701134Y-15893222D02*
X6710658Y-15874174D01*
X6710658Y-15874174D02*
X6729705Y-15864650D01*
X6729705Y-15864650D02*
X6758277Y-15864650D01*
X6758277Y-15864650D02*
X6777324Y-15874174D01*
X6777324Y-15874174D02*
X6786848Y-15893222D01*
X6786848Y-15893222D02*
X6786848Y-15997984D01*
X6882086Y-15997984D02*
X6882086Y-15864650D01*
X6882086Y-15883698D02*
X6891610Y-15874174D01*
X6891610Y-15874174D02*
X6910658Y-15864650D01*
X6910658Y-15864650D02*
X6939229Y-15864650D01*
X6939229Y-15864650D02*
X6958277Y-15874174D01*
X6958277Y-15874174D02*
X6967801Y-15893222D01*
X6967801Y-15893222D02*
X6967801Y-15997984D01*
X6967801Y-15893222D02*
X6977324Y-15874174D01*
X6977324Y-15874174D02*
X6996372Y-15864650D01*
X6996372Y-15864650D02*
X7024943Y-15864650D01*
X7024943Y-15864650D02*
X7043991Y-15874174D01*
X7043991Y-15874174D02*
X7053515Y-15893222D01*
X7053515Y-15893222D02*
X7053515Y-15997984D01*
X7443991Y-15788460D02*
X7272563Y-16045603D01*
X7701134Y-15797984D02*
X7720182Y-15797984D01*
X7720182Y-15797984D02*
X7739229Y-15807508D01*
X7739229Y-15807508D02*
X7748753Y-15817031D01*
X7748753Y-15817031D02*
X7758277Y-15836079D01*
X7758277Y-15836079D02*
X7767801Y-15874174D01*
X7767801Y-15874174D02*
X7767801Y-15921793D01*
X7767801Y-15921793D02*
X7758277Y-15959888D01*
X7758277Y-15959888D02*
X7748753Y-15978936D01*
X7748753Y-15978936D02*
X7739229Y-15988460D01*
X7739229Y-15988460D02*
X7720182Y-15997984D01*
X7720182Y-15997984D02*
X7701134Y-15997984D01*
X7701134Y-15997984D02*
X7682086Y-15988460D01*
X7682086Y-15988460D02*
X7672563Y-15978936D01*
X7672563Y-15978936D02*
X7663039Y-15959888D01*
X7663039Y-15959888D02*
X7653515Y-15921793D01*
X7653515Y-15921793D02*
X7653515Y-15874174D01*
X7653515Y-15874174D02*
X7663039Y-15836079D01*
X7663039Y-15836079D02*
X7672563Y-15817031D01*
X7672563Y-15817031D02*
X7682086Y-15807508D01*
X7682086Y-15807508D02*
X7701134Y-15797984D01*
X7853515Y-15978936D02*
X7863039Y-15988460D01*
X7863039Y-15988460D02*
X7853515Y-15997984D01*
X7853515Y-15997984D02*
X7843991Y-15988460D01*
X7843991Y-15988460D02*
X7853515Y-15978936D01*
X7853515Y-15978936D02*
X7853515Y-15997984D01*
X7986848Y-15797984D02*
X8005896Y-15797984D01*
X8005896Y-15797984D02*
X8024944Y-15807508D01*
X8024944Y-15807508D02*
X8034467Y-15817031D01*
X8034467Y-15817031D02*
X8043991Y-15836079D01*
X8043991Y-15836079D02*
X8053515Y-15874174D01*
X8053515Y-15874174D02*
X8053515Y-15921793D01*
X8053515Y-15921793D02*
X8043991Y-15959888D01*
X8043991Y-15959888D02*
X8034467Y-15978936D01*
X8034467Y-15978936D02*
X8024944Y-15988460D01*
X8024944Y-15988460D02*
X8005896Y-15997984D01*
X8005896Y-15997984D02*
X7986848Y-15997984D01*
X7986848Y-15997984D02*
X7967801Y-15988460D01*
X7967801Y-15988460D02*
X7958277Y-15978936D01*
X7958277Y-15978936D02*
X7948753Y-15959888D01*
X7948753Y-15959888D02*
X7939229Y-15921793D01*
X7939229Y-15921793D02*
X7939229Y-15874174D01*
X7939229Y-15874174D02*
X7948753Y-15836079D01*
X7948753Y-15836079D02*
X7958277Y-15817031D01*
X7958277Y-15817031D02*
X7967801Y-15807508D01*
X7967801Y-15807508D02*
X7986848Y-15797984D01*
X8129706Y-15817031D02*
X8139229Y-15807508D01*
X8139229Y-15807508D02*
X8158277Y-15797984D01*
X8158277Y-15797984D02*
X8205896Y-15797984D01*
X8205896Y-15797984D02*
X8224944Y-15807508D01*
X8224944Y-15807508D02*
X8234467Y-15817031D01*
X8234467Y-15817031D02*
X8243991Y-15836079D01*
X8243991Y-15836079D02*
X8243991Y-15855127D01*
X8243991Y-15855127D02*
X8234467Y-15883698D01*
X8234467Y-15883698D02*
X8120182Y-15997984D01*
X8120182Y-15997984D02*
X8243991Y-15997984D01*
X8310658Y-15797984D02*
X8434468Y-15797984D01*
X8434468Y-15797984D02*
X8367801Y-15874174D01*
X8367801Y-15874174D02*
X8396372Y-15874174D01*
X8396372Y-15874174D02*
X8415420Y-15883698D01*
X8415420Y-15883698D02*
X8424944Y-15893222D01*
X8424944Y-15893222D02*
X8434468Y-15912269D01*
X8434468Y-15912269D02*
X8434468Y-15959888D01*
X8434468Y-15959888D02*
X8424944Y-15978936D01*
X8424944Y-15978936D02*
X8415420Y-15988460D01*
X8415420Y-15988460D02*
X8396372Y-15997984D01*
X8396372Y-15997984D02*
X8339229Y-15997984D01*
X8339229Y-15997984D02*
X8320182Y-15988460D01*
X8320182Y-15988460D02*
X8310658Y-15978936D01*
X8605896Y-15797984D02*
X8567801Y-15797984D01*
X8567801Y-15797984D02*
X8548753Y-15807508D01*
X8548753Y-15807508D02*
X8539229Y-15817031D01*
X8539229Y-15817031D02*
X8520182Y-15845603D01*
X8520182Y-15845603D02*
X8510658Y-15883698D01*
X8510658Y-15883698D02*
X8510658Y-15959888D01*
X8510658Y-15959888D02*
X8520182Y-15978936D01*
X8520182Y-15978936D02*
X8529706Y-15988460D01*
X8529706Y-15988460D02*
X8548753Y-15997984D01*
X8548753Y-15997984D02*
X8586849Y-15997984D01*
X8586849Y-15997984D02*
X8605896Y-15988460D01*
X8605896Y-15988460D02*
X8615420Y-15978936D01*
X8615420Y-15978936D02*
X8624944Y-15959888D01*
X8624944Y-15959888D02*
X8624944Y-15912269D01*
X8624944Y-15912269D02*
X8615420Y-15893222D01*
X8615420Y-15893222D02*
X8605896Y-15883698D01*
X8605896Y-15883698D02*
X8586849Y-15874174D01*
X8586849Y-15874174D02*
X8548753Y-15874174D01*
X8548753Y-15874174D02*
X8529706Y-15883698D01*
X8529706Y-15883698D02*
X8520182Y-15893222D01*
X8520182Y-15893222D02*
X8510658Y-15912269D01*
X8701134Y-15797984D02*
X8701134Y-15836079D01*
X8777325Y-15797984D02*
X8777325Y-15836079D01*
X9072563Y-16074174D02*
X9063039Y-16064650D01*
X9063039Y-16064650D02*
X9043991Y-16036079D01*
X9043991Y-16036079D02*
X9034468Y-16017031D01*
X9034468Y-16017031D02*
X9024944Y-15988460D01*
X9024944Y-15988460D02*
X9015420Y-15940841D01*
X9015420Y-15940841D02*
X9015420Y-15902746D01*
X9015420Y-15902746D02*
X9024944Y-15855127D01*
X9024944Y-15855127D02*
X9034468Y-15826555D01*
X9034468Y-15826555D02*
X9043991Y-15807508D01*
X9043991Y-15807508D02*
X9063039Y-15778936D01*
X9063039Y-15778936D02*
X9072563Y-15769412D01*
X9234468Y-15864650D02*
X9234468Y-15997984D01*
X9186849Y-15788460D02*
X9139230Y-15931317D01*
X9139230Y-15931317D02*
X9263039Y-15931317D01*
X9491611Y-15997984D02*
X9491611Y-15797984D01*
X9577325Y-15997984D02*
X9577325Y-15893222D01*
X9577325Y-15893222D02*
X9567801Y-15874174D01*
X9567801Y-15874174D02*
X9548753Y-15864650D01*
X9548753Y-15864650D02*
X9520182Y-15864650D01*
X9520182Y-15864650D02*
X9501134Y-15874174D01*
X9501134Y-15874174D02*
X9491611Y-15883698D01*
X9701134Y-15997984D02*
X9682087Y-15988460D01*
X9682087Y-15988460D02*
X9672563Y-15978936D01*
X9672563Y-15978936D02*
X9663039Y-15959888D01*
X9663039Y-15959888D02*
X9663039Y-15902746D01*
X9663039Y-15902746D02*
X9672563Y-15883698D01*
X9672563Y-15883698D02*
X9682087Y-15874174D01*
X9682087Y-15874174D02*
X9701134Y-15864650D01*
X9701134Y-15864650D02*
X9729706Y-15864650D01*
X9729706Y-15864650D02*
X9748753Y-15874174D01*
X9748753Y-15874174D02*
X9758277Y-15883698D01*
X9758277Y-15883698D02*
X9767801Y-15902746D01*
X9767801Y-15902746D02*
X9767801Y-15959888D01*
X9767801Y-15959888D02*
X9758277Y-15978936D01*
X9758277Y-15978936D02*
X9748753Y-15988460D01*
X9748753Y-15988460D02*
X9729706Y-15997984D01*
X9729706Y-15997984D02*
X9701134Y-15997984D01*
X9882087Y-15997984D02*
X9863039Y-15988460D01*
X9863039Y-15988460D02*
X9853515Y-15969412D01*
X9853515Y-15969412D02*
X9853515Y-15797984D01*
X10034468Y-15988460D02*
X10015420Y-15997984D01*
X10015420Y-15997984D02*
X9977325Y-15997984D01*
X9977325Y-15997984D02*
X9958277Y-15988460D01*
X9958277Y-15988460D02*
X9948753Y-15969412D01*
X9948753Y-15969412D02*
X9948753Y-15893222D01*
X9948753Y-15893222D02*
X9958277Y-15874174D01*
X9958277Y-15874174D02*
X9977325Y-15864650D01*
X9977325Y-15864650D02*
X10015420Y-15864650D01*
X10015420Y-15864650D02*
X10034468Y-15874174D01*
X10034468Y-15874174D02*
X10043992Y-15893222D01*
X10043992Y-15893222D02*
X10043992Y-15912269D01*
X10043992Y-15912269D02*
X9948753Y-15931317D01*
X10120182Y-15988460D02*
X10139230Y-15997984D01*
X10139230Y-15997984D02*
X10177325Y-15997984D01*
X10177325Y-15997984D02*
X10196373Y-15988460D01*
X10196373Y-15988460D02*
X10205896Y-15969412D01*
X10205896Y-15969412D02*
X10205896Y-15959888D01*
X10205896Y-15959888D02*
X10196373Y-15940841D01*
X10196373Y-15940841D02*
X10177325Y-15931317D01*
X10177325Y-15931317D02*
X10148753Y-15931317D01*
X10148753Y-15931317D02*
X10129706Y-15921793D01*
X10129706Y-15921793D02*
X10120182Y-15902746D01*
X10120182Y-15902746D02*
X10120182Y-15893222D01*
X10120182Y-15893222D02*
X10129706Y-15874174D01*
X10129706Y-15874174D02*
X10148753Y-15864650D01*
X10148753Y-15864650D02*
X10177325Y-15864650D01*
X10177325Y-15864650D02*
X10196373Y-15874174D01*
X10272563Y-16074174D02*
X10282087Y-16064650D01*
X10282087Y-16064650D02*
X10301134Y-16036079D01*
X10301134Y-16036079D02*
X10310658Y-16017031D01*
X10310658Y-16017031D02*
X10320182Y-15988460D01*
X10320182Y-15988460D02*
X10329706Y-15940841D01*
X10329706Y-15940841D02*
X10329706Y-15902746D01*
X10329706Y-15902746D02*
X10320182Y-15855127D01*
X10320182Y-15855127D02*
X10310658Y-15826555D01*
X10310658Y-15826555D02*
X10301134Y-15807508D01*
X10301134Y-15807508D02*
X10282087Y-15778936D01*
X10282087Y-15778936D02*
X10272563Y-15769412D01*
D12*
X5455500Y-16128500D02*
X5455500Y-16212500D01*
X5413500Y-16170500D02*
X5497500Y-16170500D01*
D11*
X5796372Y-16061984D02*
X5815420Y-16061984D01*
X5815420Y-16061984D02*
X5834467Y-16071508D01*
X5834467Y-16071508D02*
X5843991Y-16081031D01*
X5843991Y-16081031D02*
X5853515Y-16100079D01*
X5853515Y-16100079D02*
X5863039Y-16138174D01*
X5863039Y-16138174D02*
X5863039Y-16185793D01*
X5863039Y-16185793D02*
X5853515Y-16223888D01*
X5853515Y-16223888D02*
X5843991Y-16242936D01*
X5843991Y-16242936D02*
X5834467Y-16252460D01*
X5834467Y-16252460D02*
X5815420Y-16261984D01*
X5815420Y-16261984D02*
X5796372Y-16261984D01*
X5796372Y-16261984D02*
X5777324Y-16252460D01*
X5777324Y-16252460D02*
X5767801Y-16242936D01*
X5767801Y-16242936D02*
X5758277Y-16223888D01*
X5758277Y-16223888D02*
X5748753Y-16185793D01*
X5748753Y-16185793D02*
X5748753Y-16138174D01*
X5748753Y-16138174D02*
X5758277Y-16100079D01*
X5758277Y-16100079D02*
X5767801Y-16081031D01*
X5767801Y-16081031D02*
X5777324Y-16071508D01*
X5777324Y-16071508D02*
X5796372Y-16061984D01*
X5948753Y-16242936D02*
X5958277Y-16252460D01*
X5958277Y-16252460D02*
X5948753Y-16261984D01*
X5948753Y-16261984D02*
X5939229Y-16252460D01*
X5939229Y-16252460D02*
X5948753Y-16242936D01*
X5948753Y-16242936D02*
X5948753Y-16261984D01*
X6072562Y-16147698D02*
X6053515Y-16138174D01*
X6053515Y-16138174D02*
X6043991Y-16128650D01*
X6043991Y-16128650D02*
X6034467Y-16109603D01*
X6034467Y-16109603D02*
X6034467Y-16100079D01*
X6034467Y-16100079D02*
X6043991Y-16081031D01*
X6043991Y-16081031D02*
X6053515Y-16071508D01*
X6053515Y-16071508D02*
X6072562Y-16061984D01*
X6072562Y-16061984D02*
X6110658Y-16061984D01*
X6110658Y-16061984D02*
X6129705Y-16071508D01*
X6129705Y-16071508D02*
X6139229Y-16081031D01*
X6139229Y-16081031D02*
X6148753Y-16100079D01*
X6148753Y-16100079D02*
X6148753Y-16109603D01*
X6148753Y-16109603D02*
X6139229Y-16128650D01*
X6139229Y-16128650D02*
X6129705Y-16138174D01*
X6129705Y-16138174D02*
X6110658Y-16147698D01*
X6110658Y-16147698D02*
X6072562Y-16147698D01*
X6072562Y-16147698D02*
X6053515Y-16157222D01*
X6053515Y-16157222D02*
X6043991Y-16166746D01*
X6043991Y-16166746D02*
X6034467Y-16185793D01*
X6034467Y-16185793D02*
X6034467Y-16223888D01*
X6034467Y-16223888D02*
X6043991Y-16242936D01*
X6043991Y-16242936D02*
X6053515Y-16252460D01*
X6053515Y-16252460D02*
X6072562Y-16261984D01*
X6072562Y-16261984D02*
X6110658Y-16261984D01*
X6110658Y-16261984D02*
X6129705Y-16252460D01*
X6129705Y-16252460D02*
X6139229Y-16242936D01*
X6139229Y-16242936D02*
X6148753Y-16223888D01*
X6148753Y-16223888D02*
X6148753Y-16185793D01*
X6148753Y-16185793D02*
X6139229Y-16166746D01*
X6139229Y-16166746D02*
X6129705Y-16157222D01*
X6129705Y-16157222D02*
X6110658Y-16147698D01*
X6320182Y-16128650D02*
X6320182Y-16261984D01*
X6272562Y-16052460D02*
X6224943Y-16195317D01*
X6224943Y-16195317D02*
X6348753Y-16195317D01*
X6463039Y-16061984D02*
X6482086Y-16061984D01*
X6482086Y-16061984D02*
X6501134Y-16071508D01*
X6501134Y-16071508D02*
X6510658Y-16081031D01*
X6510658Y-16081031D02*
X6520182Y-16100079D01*
X6520182Y-16100079D02*
X6529705Y-16138174D01*
X6529705Y-16138174D02*
X6529705Y-16185793D01*
X6529705Y-16185793D02*
X6520182Y-16223888D01*
X6520182Y-16223888D02*
X6510658Y-16242936D01*
X6510658Y-16242936D02*
X6501134Y-16252460D01*
X6501134Y-16252460D02*
X6482086Y-16261984D01*
X6482086Y-16261984D02*
X6463039Y-16261984D01*
X6463039Y-16261984D02*
X6443991Y-16252460D01*
X6443991Y-16252460D02*
X6434467Y-16242936D01*
X6434467Y-16242936D02*
X6424943Y-16223888D01*
X6424943Y-16223888D02*
X6415420Y-16185793D01*
X6415420Y-16185793D02*
X6415420Y-16138174D01*
X6415420Y-16138174D02*
X6424943Y-16100079D01*
X6424943Y-16100079D02*
X6434467Y-16081031D01*
X6434467Y-16081031D02*
X6443991Y-16071508D01*
X6443991Y-16071508D02*
X6463039Y-16061984D01*
X6615420Y-16261984D02*
X6615420Y-16128650D01*
X6615420Y-16147698D02*
X6624943Y-16138174D01*
X6624943Y-16138174D02*
X6643991Y-16128650D01*
X6643991Y-16128650D02*
X6672563Y-16128650D01*
X6672563Y-16128650D02*
X6691610Y-16138174D01*
X6691610Y-16138174D02*
X6701134Y-16157222D01*
X6701134Y-16157222D02*
X6701134Y-16261984D01*
X6701134Y-16157222D02*
X6710658Y-16138174D01*
X6710658Y-16138174D02*
X6729705Y-16128650D01*
X6729705Y-16128650D02*
X6758277Y-16128650D01*
X6758277Y-16128650D02*
X6777324Y-16138174D01*
X6777324Y-16138174D02*
X6786848Y-16157222D01*
X6786848Y-16157222D02*
X6786848Y-16261984D01*
X6882086Y-16261984D02*
X6882086Y-16128650D01*
X6882086Y-16147698D02*
X6891610Y-16138174D01*
X6891610Y-16138174D02*
X6910658Y-16128650D01*
X6910658Y-16128650D02*
X6939229Y-16128650D01*
X6939229Y-16128650D02*
X6958277Y-16138174D01*
X6958277Y-16138174D02*
X6967801Y-16157222D01*
X6967801Y-16157222D02*
X6967801Y-16261984D01*
X6967801Y-16157222D02*
X6977324Y-16138174D01*
X6977324Y-16138174D02*
X6996372Y-16128650D01*
X6996372Y-16128650D02*
X7024943Y-16128650D01*
X7024943Y-16128650D02*
X7043991Y-16138174D01*
X7043991Y-16138174D02*
X7053515Y-16157222D01*
X7053515Y-16157222D02*
X7053515Y-16261984D01*
X7443991Y-16052460D02*
X7272563Y-16309603D01*
X7701134Y-16061984D02*
X7720182Y-16061984D01*
X7720182Y-16061984D02*
X7739229Y-16071508D01*
X7739229Y-16071508D02*
X7748753Y-16081031D01*
X7748753Y-16081031D02*
X7758277Y-16100079D01*
X7758277Y-16100079D02*
X7767801Y-16138174D01*
X7767801Y-16138174D02*
X7767801Y-16185793D01*
X7767801Y-16185793D02*
X7758277Y-16223888D01*
X7758277Y-16223888D02*
X7748753Y-16242936D01*
X7748753Y-16242936D02*
X7739229Y-16252460D01*
X7739229Y-16252460D02*
X7720182Y-16261984D01*
X7720182Y-16261984D02*
X7701134Y-16261984D01*
X7701134Y-16261984D02*
X7682086Y-16252460D01*
X7682086Y-16252460D02*
X7672563Y-16242936D01*
X7672563Y-16242936D02*
X7663039Y-16223888D01*
X7663039Y-16223888D02*
X7653515Y-16185793D01*
X7653515Y-16185793D02*
X7653515Y-16138174D01*
X7653515Y-16138174D02*
X7663039Y-16100079D01*
X7663039Y-16100079D02*
X7672563Y-16081031D01*
X7672563Y-16081031D02*
X7682086Y-16071508D01*
X7682086Y-16071508D02*
X7701134Y-16061984D01*
X7853515Y-16242936D02*
X7863039Y-16252460D01*
X7863039Y-16252460D02*
X7853515Y-16261984D01*
X7853515Y-16261984D02*
X7843991Y-16252460D01*
X7843991Y-16252460D02*
X7853515Y-16242936D01*
X7853515Y-16242936D02*
X7853515Y-16261984D01*
X7986848Y-16061984D02*
X8005896Y-16061984D01*
X8005896Y-16061984D02*
X8024944Y-16071508D01*
X8024944Y-16071508D02*
X8034467Y-16081031D01*
X8034467Y-16081031D02*
X8043991Y-16100079D01*
X8043991Y-16100079D02*
X8053515Y-16138174D01*
X8053515Y-16138174D02*
X8053515Y-16185793D01*
X8053515Y-16185793D02*
X8043991Y-16223888D01*
X8043991Y-16223888D02*
X8034467Y-16242936D01*
X8034467Y-16242936D02*
X8024944Y-16252460D01*
X8024944Y-16252460D02*
X8005896Y-16261984D01*
X8005896Y-16261984D02*
X7986848Y-16261984D01*
X7986848Y-16261984D02*
X7967801Y-16252460D01*
X7967801Y-16252460D02*
X7958277Y-16242936D01*
X7958277Y-16242936D02*
X7948753Y-16223888D01*
X7948753Y-16223888D02*
X7939229Y-16185793D01*
X7939229Y-16185793D02*
X7939229Y-16138174D01*
X7939229Y-16138174D02*
X7948753Y-16100079D01*
X7948753Y-16100079D02*
X7958277Y-16081031D01*
X7958277Y-16081031D02*
X7967801Y-16071508D01*
X7967801Y-16071508D02*
X7986848Y-16061984D01*
X8120182Y-16061984D02*
X8243991Y-16061984D01*
X8243991Y-16061984D02*
X8177325Y-16138174D01*
X8177325Y-16138174D02*
X8205896Y-16138174D01*
X8205896Y-16138174D02*
X8224944Y-16147698D01*
X8224944Y-16147698D02*
X8234467Y-16157222D01*
X8234467Y-16157222D02*
X8243991Y-16176269D01*
X8243991Y-16176269D02*
X8243991Y-16223888D01*
X8243991Y-16223888D02*
X8234467Y-16242936D01*
X8234467Y-16242936D02*
X8224944Y-16252460D01*
X8224944Y-16252460D02*
X8205896Y-16261984D01*
X8205896Y-16261984D02*
X8148753Y-16261984D01*
X8148753Y-16261984D02*
X8129706Y-16252460D01*
X8129706Y-16252460D02*
X8120182Y-16242936D01*
X8310658Y-16061984D02*
X8434468Y-16061984D01*
X8434468Y-16061984D02*
X8367801Y-16138174D01*
X8367801Y-16138174D02*
X8396372Y-16138174D01*
X8396372Y-16138174D02*
X8415420Y-16147698D01*
X8415420Y-16147698D02*
X8424944Y-16157222D01*
X8424944Y-16157222D02*
X8434468Y-16176269D01*
X8434468Y-16176269D02*
X8434468Y-16223888D01*
X8434468Y-16223888D02*
X8424944Y-16242936D01*
X8424944Y-16242936D02*
X8415420Y-16252460D01*
X8415420Y-16252460D02*
X8396372Y-16261984D01*
X8396372Y-16261984D02*
X8339229Y-16261984D01*
X8339229Y-16261984D02*
X8320182Y-16252460D01*
X8320182Y-16252460D02*
X8310658Y-16242936D01*
X8624944Y-16261984D02*
X8510658Y-16261984D01*
X8567801Y-16261984D02*
X8567801Y-16061984D01*
X8567801Y-16061984D02*
X8548753Y-16090555D01*
X8548753Y-16090555D02*
X8529706Y-16109603D01*
X8529706Y-16109603D02*
X8510658Y-16119127D01*
X8701134Y-16061984D02*
X8701134Y-16100079D01*
X8777325Y-16061984D02*
X8777325Y-16100079D01*
X9072563Y-16338174D02*
X9063039Y-16328650D01*
X9063039Y-16328650D02*
X9043991Y-16300079D01*
X9043991Y-16300079D02*
X9034468Y-16281031D01*
X9034468Y-16281031D02*
X9024944Y-16252460D01*
X9024944Y-16252460D02*
X9015420Y-16204841D01*
X9015420Y-16204841D02*
X9015420Y-16166746D01*
X9015420Y-16166746D02*
X9024944Y-16119127D01*
X9024944Y-16119127D02*
X9034468Y-16090555D01*
X9034468Y-16090555D02*
X9043991Y-16071508D01*
X9043991Y-16071508D02*
X9063039Y-16042936D01*
X9063039Y-16042936D02*
X9072563Y-16033412D01*
X9253515Y-16261984D02*
X9139230Y-16261984D01*
X9196372Y-16261984D02*
X9196372Y-16061984D01*
X9196372Y-16061984D02*
X9177325Y-16090555D01*
X9177325Y-16090555D02*
X9158277Y-16109603D01*
X9158277Y-16109603D02*
X9139230Y-16119127D01*
X9424944Y-16061984D02*
X9386849Y-16061984D01*
X9386849Y-16061984D02*
X9367801Y-16071508D01*
X9367801Y-16071508D02*
X9358277Y-16081031D01*
X9358277Y-16081031D02*
X9339230Y-16109603D01*
X9339230Y-16109603D02*
X9329706Y-16147698D01*
X9329706Y-16147698D02*
X9329706Y-16223888D01*
X9329706Y-16223888D02*
X9339230Y-16242936D01*
X9339230Y-16242936D02*
X9348753Y-16252460D01*
X9348753Y-16252460D02*
X9367801Y-16261984D01*
X9367801Y-16261984D02*
X9405896Y-16261984D01*
X9405896Y-16261984D02*
X9424944Y-16252460D01*
X9424944Y-16252460D02*
X9434468Y-16242936D01*
X9434468Y-16242936D02*
X9443991Y-16223888D01*
X9443991Y-16223888D02*
X9443991Y-16176269D01*
X9443991Y-16176269D02*
X9434468Y-16157222D01*
X9434468Y-16157222D02*
X9424944Y-16147698D01*
X9424944Y-16147698D02*
X9405896Y-16138174D01*
X9405896Y-16138174D02*
X9367801Y-16138174D01*
X9367801Y-16138174D02*
X9348753Y-16147698D01*
X9348753Y-16147698D02*
X9339230Y-16157222D01*
X9339230Y-16157222D02*
X9329706Y-16176269D01*
X9682087Y-16261984D02*
X9682087Y-16061984D01*
X9767801Y-16261984D02*
X9767801Y-16157222D01*
X9767801Y-16157222D02*
X9758277Y-16138174D01*
X9758277Y-16138174D02*
X9739230Y-16128650D01*
X9739230Y-16128650D02*
X9710658Y-16128650D01*
X9710658Y-16128650D02*
X9691611Y-16138174D01*
X9691611Y-16138174D02*
X9682087Y-16147698D01*
X9891611Y-16261984D02*
X9872563Y-16252460D01*
X9872563Y-16252460D02*
X9863039Y-16242936D01*
X9863039Y-16242936D02*
X9853515Y-16223888D01*
X9853515Y-16223888D02*
X9853515Y-16166746D01*
X9853515Y-16166746D02*
X9863039Y-16147698D01*
X9863039Y-16147698D02*
X9872563Y-16138174D01*
X9872563Y-16138174D02*
X9891611Y-16128650D01*
X9891611Y-16128650D02*
X9920182Y-16128650D01*
X9920182Y-16128650D02*
X9939230Y-16138174D01*
X9939230Y-16138174D02*
X9948753Y-16147698D01*
X9948753Y-16147698D02*
X9958277Y-16166746D01*
X9958277Y-16166746D02*
X9958277Y-16223888D01*
X9958277Y-16223888D02*
X9948753Y-16242936D01*
X9948753Y-16242936D02*
X9939230Y-16252460D01*
X9939230Y-16252460D02*
X9920182Y-16261984D01*
X9920182Y-16261984D02*
X9891611Y-16261984D01*
X10072563Y-16261984D02*
X10053515Y-16252460D01*
X10053515Y-16252460D02*
X10043992Y-16233412D01*
X10043992Y-16233412D02*
X10043992Y-16061984D01*
X10224944Y-16252460D02*
X10205896Y-16261984D01*
X10205896Y-16261984D02*
X10167801Y-16261984D01*
X10167801Y-16261984D02*
X10148753Y-16252460D01*
X10148753Y-16252460D02*
X10139230Y-16233412D01*
X10139230Y-16233412D02*
X10139230Y-16157222D01*
X10139230Y-16157222D02*
X10148753Y-16138174D01*
X10148753Y-16138174D02*
X10167801Y-16128650D01*
X10167801Y-16128650D02*
X10205896Y-16128650D01*
X10205896Y-16128650D02*
X10224944Y-16138174D01*
X10224944Y-16138174D02*
X10234468Y-16157222D01*
X10234468Y-16157222D02*
X10234468Y-16176269D01*
X10234468Y-16176269D02*
X10139230Y-16195317D01*
X10310658Y-16252460D02*
X10329706Y-16261984D01*
X10329706Y-16261984D02*
X10367801Y-16261984D01*
X10367801Y-16261984D02*
X10386849Y-16252460D01*
X10386849Y-16252460D02*
X10396373Y-16233412D01*
X10396373Y-16233412D02*
X10396373Y-16223888D01*
X10396373Y-16223888D02*
X10386849Y-16204841D01*
X10386849Y-16204841D02*
X10367801Y-16195317D01*
X10367801Y-16195317D02*
X10339230Y-16195317D01*
X10339230Y-16195317D02*
X10320182Y-16185793D01*
X10320182Y-16185793D02*
X10310658Y-16166746D01*
X10310658Y-16166746D02*
X10310658Y-16157222D01*
X10310658Y-16157222D02*
X10320182Y-16138174D01*
X10320182Y-16138174D02*
X10339230Y-16128650D01*
X10339230Y-16128650D02*
X10367801Y-16128650D01*
X10367801Y-16128650D02*
X10386849Y-16138174D01*
X10463039Y-16338174D02*
X10472563Y-16328650D01*
X10472563Y-16328650D02*
X10491611Y-16300079D01*
X10491611Y-16300079D02*
X10501134Y-16281031D01*
X10501134Y-16281031D02*
X10510658Y-16252460D01*
X10510658Y-16252460D02*
X10520182Y-16204841D01*
X10520182Y-16204841D02*
X10520182Y-16166746D01*
X10520182Y-16166746D02*
X10510658Y-16119127D01*
X10510658Y-16119127D02*
X10501134Y-16090555D01*
X10501134Y-16090555D02*
X10491611Y-16071508D01*
X10491611Y-16071508D02*
X10472563Y-16042936D01*
X10472563Y-16042936D02*
X10463039Y-16033412D01*
D12*
X5482856Y-16469856D02*
X5482856Y-16399144D01*
X5412144Y-16399144D01*
X5412144Y-16469856D01*
X5482856Y-16469856D01*
D11*
X5863039Y-16525984D02*
X5748753Y-16525984D01*
X5805896Y-16525984D02*
X5805896Y-16325984D01*
X5805896Y-16325984D02*
X5786848Y-16354555D01*
X5786848Y-16354555D02*
X5767801Y-16373603D01*
X5767801Y-16373603D02*
X5748753Y-16383127D01*
X5948753Y-16506936D02*
X5958277Y-16516460D01*
X5958277Y-16516460D02*
X5948753Y-16525984D01*
X5948753Y-16525984D02*
X5939229Y-16516460D01*
X5939229Y-16516460D02*
X5948753Y-16506936D01*
X5948753Y-16506936D02*
X5948753Y-16525984D01*
X6082086Y-16325984D02*
X6101134Y-16325984D01*
X6101134Y-16325984D02*
X6120182Y-16335508D01*
X6120182Y-16335508D02*
X6129705Y-16345031D01*
X6129705Y-16345031D02*
X6139229Y-16364079D01*
X6139229Y-16364079D02*
X6148753Y-16402174D01*
X6148753Y-16402174D02*
X6148753Y-16449793D01*
X6148753Y-16449793D02*
X6139229Y-16487888D01*
X6139229Y-16487888D02*
X6129705Y-16506936D01*
X6129705Y-16506936D02*
X6120182Y-16516460D01*
X6120182Y-16516460D02*
X6101134Y-16525984D01*
X6101134Y-16525984D02*
X6082086Y-16525984D01*
X6082086Y-16525984D02*
X6063039Y-16516460D01*
X6063039Y-16516460D02*
X6053515Y-16506936D01*
X6053515Y-16506936D02*
X6043991Y-16487888D01*
X6043991Y-16487888D02*
X6034467Y-16449793D01*
X6034467Y-16449793D02*
X6034467Y-16402174D01*
X6034467Y-16402174D02*
X6043991Y-16364079D01*
X6043991Y-16364079D02*
X6053515Y-16345031D01*
X6053515Y-16345031D02*
X6063039Y-16335508D01*
X6063039Y-16335508D02*
X6082086Y-16325984D01*
X6272562Y-16325984D02*
X6291610Y-16325984D01*
X6291610Y-16325984D02*
X6310658Y-16335508D01*
X6310658Y-16335508D02*
X6320182Y-16345031D01*
X6320182Y-16345031D02*
X6329705Y-16364079D01*
X6329705Y-16364079D02*
X6339229Y-16402174D01*
X6339229Y-16402174D02*
X6339229Y-16449793D01*
X6339229Y-16449793D02*
X6329705Y-16487888D01*
X6329705Y-16487888D02*
X6320182Y-16506936D01*
X6320182Y-16506936D02*
X6310658Y-16516460D01*
X6310658Y-16516460D02*
X6291610Y-16525984D01*
X6291610Y-16525984D02*
X6272562Y-16525984D01*
X6272562Y-16525984D02*
X6253515Y-16516460D01*
X6253515Y-16516460D02*
X6243991Y-16506936D01*
X6243991Y-16506936D02*
X6234467Y-16487888D01*
X6234467Y-16487888D02*
X6224943Y-16449793D01*
X6224943Y-16449793D02*
X6224943Y-16402174D01*
X6224943Y-16402174D02*
X6234467Y-16364079D01*
X6234467Y-16364079D02*
X6243991Y-16345031D01*
X6243991Y-16345031D02*
X6253515Y-16335508D01*
X6253515Y-16335508D02*
X6272562Y-16325984D01*
X6463039Y-16325984D02*
X6482086Y-16325984D01*
X6482086Y-16325984D02*
X6501134Y-16335508D01*
X6501134Y-16335508D02*
X6510658Y-16345031D01*
X6510658Y-16345031D02*
X6520182Y-16364079D01*
X6520182Y-16364079D02*
X6529705Y-16402174D01*
X6529705Y-16402174D02*
X6529705Y-16449793D01*
X6529705Y-16449793D02*
X6520182Y-16487888D01*
X6520182Y-16487888D02*
X6510658Y-16506936D01*
X6510658Y-16506936D02*
X6501134Y-16516460D01*
X6501134Y-16516460D02*
X6482086Y-16525984D01*
X6482086Y-16525984D02*
X6463039Y-16525984D01*
X6463039Y-16525984D02*
X6443991Y-16516460D01*
X6443991Y-16516460D02*
X6434467Y-16506936D01*
X6434467Y-16506936D02*
X6424943Y-16487888D01*
X6424943Y-16487888D02*
X6415420Y-16449793D01*
X6415420Y-16449793D02*
X6415420Y-16402174D01*
X6415420Y-16402174D02*
X6424943Y-16364079D01*
X6424943Y-16364079D02*
X6434467Y-16345031D01*
X6434467Y-16345031D02*
X6443991Y-16335508D01*
X6443991Y-16335508D02*
X6463039Y-16325984D01*
X6615420Y-16525984D02*
X6615420Y-16392650D01*
X6615420Y-16411698D02*
X6624943Y-16402174D01*
X6624943Y-16402174D02*
X6643991Y-16392650D01*
X6643991Y-16392650D02*
X6672563Y-16392650D01*
X6672563Y-16392650D02*
X6691610Y-16402174D01*
X6691610Y-16402174D02*
X6701134Y-16421222D01*
X6701134Y-16421222D02*
X6701134Y-16525984D01*
X6701134Y-16421222D02*
X6710658Y-16402174D01*
X6710658Y-16402174D02*
X6729705Y-16392650D01*
X6729705Y-16392650D02*
X6758277Y-16392650D01*
X6758277Y-16392650D02*
X6777324Y-16402174D01*
X6777324Y-16402174D02*
X6786848Y-16421222D01*
X6786848Y-16421222D02*
X6786848Y-16525984D01*
X6882086Y-16525984D02*
X6882086Y-16392650D01*
X6882086Y-16411698D02*
X6891610Y-16402174D01*
X6891610Y-16402174D02*
X6910658Y-16392650D01*
X6910658Y-16392650D02*
X6939229Y-16392650D01*
X6939229Y-16392650D02*
X6958277Y-16402174D01*
X6958277Y-16402174D02*
X6967801Y-16421222D01*
X6967801Y-16421222D02*
X6967801Y-16525984D01*
X6967801Y-16421222D02*
X6977324Y-16402174D01*
X6977324Y-16402174D02*
X6996372Y-16392650D01*
X6996372Y-16392650D02*
X7024943Y-16392650D01*
X7024943Y-16392650D02*
X7043991Y-16402174D01*
X7043991Y-16402174D02*
X7053515Y-16421222D01*
X7053515Y-16421222D02*
X7053515Y-16525984D01*
X7443991Y-16316460D02*
X7272563Y-16573603D01*
X7701134Y-16325984D02*
X7720182Y-16325984D01*
X7720182Y-16325984D02*
X7739229Y-16335508D01*
X7739229Y-16335508D02*
X7748753Y-16345031D01*
X7748753Y-16345031D02*
X7758277Y-16364079D01*
X7758277Y-16364079D02*
X7767801Y-16402174D01*
X7767801Y-16402174D02*
X7767801Y-16449793D01*
X7767801Y-16449793D02*
X7758277Y-16487888D01*
X7758277Y-16487888D02*
X7748753Y-16506936D01*
X7748753Y-16506936D02*
X7739229Y-16516460D01*
X7739229Y-16516460D02*
X7720182Y-16525984D01*
X7720182Y-16525984D02*
X7701134Y-16525984D01*
X7701134Y-16525984D02*
X7682086Y-16516460D01*
X7682086Y-16516460D02*
X7672563Y-16506936D01*
X7672563Y-16506936D02*
X7663039Y-16487888D01*
X7663039Y-16487888D02*
X7653515Y-16449793D01*
X7653515Y-16449793D02*
X7653515Y-16402174D01*
X7653515Y-16402174D02*
X7663039Y-16364079D01*
X7663039Y-16364079D02*
X7672563Y-16345031D01*
X7672563Y-16345031D02*
X7682086Y-16335508D01*
X7682086Y-16335508D02*
X7701134Y-16325984D01*
X7853515Y-16506936D02*
X7863039Y-16516460D01*
X7863039Y-16516460D02*
X7853515Y-16525984D01*
X7853515Y-16525984D02*
X7843991Y-16516460D01*
X7843991Y-16516460D02*
X7853515Y-16506936D01*
X7853515Y-16506936D02*
X7853515Y-16525984D01*
X7986848Y-16325984D02*
X8005896Y-16325984D01*
X8005896Y-16325984D02*
X8024944Y-16335508D01*
X8024944Y-16335508D02*
X8034467Y-16345031D01*
X8034467Y-16345031D02*
X8043991Y-16364079D01*
X8043991Y-16364079D02*
X8053515Y-16402174D01*
X8053515Y-16402174D02*
X8053515Y-16449793D01*
X8053515Y-16449793D02*
X8043991Y-16487888D01*
X8043991Y-16487888D02*
X8034467Y-16506936D01*
X8034467Y-16506936D02*
X8024944Y-16516460D01*
X8024944Y-16516460D02*
X8005896Y-16525984D01*
X8005896Y-16525984D02*
X7986848Y-16525984D01*
X7986848Y-16525984D02*
X7967801Y-16516460D01*
X7967801Y-16516460D02*
X7958277Y-16506936D01*
X7958277Y-16506936D02*
X7948753Y-16487888D01*
X7948753Y-16487888D02*
X7939229Y-16449793D01*
X7939229Y-16449793D02*
X7939229Y-16402174D01*
X7939229Y-16402174D02*
X7948753Y-16364079D01*
X7948753Y-16364079D02*
X7958277Y-16345031D01*
X7958277Y-16345031D02*
X7967801Y-16335508D01*
X7967801Y-16335508D02*
X7986848Y-16325984D01*
X8120182Y-16325984D02*
X8243991Y-16325984D01*
X8243991Y-16325984D02*
X8177325Y-16402174D01*
X8177325Y-16402174D02*
X8205896Y-16402174D01*
X8205896Y-16402174D02*
X8224944Y-16411698D01*
X8224944Y-16411698D02*
X8234467Y-16421222D01*
X8234467Y-16421222D02*
X8243991Y-16440269D01*
X8243991Y-16440269D02*
X8243991Y-16487888D01*
X8243991Y-16487888D02*
X8234467Y-16506936D01*
X8234467Y-16506936D02*
X8224944Y-16516460D01*
X8224944Y-16516460D02*
X8205896Y-16525984D01*
X8205896Y-16525984D02*
X8148753Y-16525984D01*
X8148753Y-16525984D02*
X8129706Y-16516460D01*
X8129706Y-16516460D02*
X8120182Y-16506936D01*
X8339229Y-16525984D02*
X8377325Y-16525984D01*
X8377325Y-16525984D02*
X8396372Y-16516460D01*
X8396372Y-16516460D02*
X8405896Y-16506936D01*
X8405896Y-16506936D02*
X8424944Y-16478365D01*
X8424944Y-16478365D02*
X8434468Y-16440269D01*
X8434468Y-16440269D02*
X8434468Y-16364079D01*
X8434468Y-16364079D02*
X8424944Y-16345031D01*
X8424944Y-16345031D02*
X8415420Y-16335508D01*
X8415420Y-16335508D02*
X8396372Y-16325984D01*
X8396372Y-16325984D02*
X8358277Y-16325984D01*
X8358277Y-16325984D02*
X8339229Y-16335508D01*
X8339229Y-16335508D02*
X8329706Y-16345031D01*
X8329706Y-16345031D02*
X8320182Y-16364079D01*
X8320182Y-16364079D02*
X8320182Y-16411698D01*
X8320182Y-16411698D02*
X8329706Y-16430746D01*
X8329706Y-16430746D02*
X8339229Y-16440269D01*
X8339229Y-16440269D02*
X8358277Y-16449793D01*
X8358277Y-16449793D02*
X8396372Y-16449793D01*
X8396372Y-16449793D02*
X8415420Y-16440269D01*
X8415420Y-16440269D02*
X8424944Y-16430746D01*
X8424944Y-16430746D02*
X8434468Y-16411698D01*
X8605896Y-16392650D02*
X8605896Y-16525984D01*
X8558277Y-16316460D02*
X8510658Y-16459317D01*
X8510658Y-16459317D02*
X8634468Y-16459317D01*
X8701134Y-16325984D02*
X8701134Y-16364079D01*
X8777325Y-16325984D02*
X8777325Y-16364079D01*
X9072563Y-16602174D02*
X9063039Y-16592650D01*
X9063039Y-16592650D02*
X9043991Y-16564079D01*
X9043991Y-16564079D02*
X9034468Y-16545031D01*
X9034468Y-16545031D02*
X9024944Y-16516460D01*
X9024944Y-16516460D02*
X9015420Y-16468841D01*
X9015420Y-16468841D02*
X9015420Y-16430746D01*
X9015420Y-16430746D02*
X9024944Y-16383127D01*
X9024944Y-16383127D02*
X9034468Y-16354555D01*
X9034468Y-16354555D02*
X9043991Y-16335508D01*
X9043991Y-16335508D02*
X9063039Y-16306936D01*
X9063039Y-16306936D02*
X9072563Y-16297412D01*
X9139230Y-16345031D02*
X9148753Y-16335508D01*
X9148753Y-16335508D02*
X9167801Y-16325984D01*
X9167801Y-16325984D02*
X9215420Y-16325984D01*
X9215420Y-16325984D02*
X9234468Y-16335508D01*
X9234468Y-16335508D02*
X9243991Y-16345031D01*
X9243991Y-16345031D02*
X9253515Y-16364079D01*
X9253515Y-16364079D02*
X9253515Y-16383127D01*
X9253515Y-16383127D02*
X9243991Y-16411698D01*
X9243991Y-16411698D02*
X9129706Y-16525984D01*
X9129706Y-16525984D02*
X9253515Y-16525984D01*
X9424944Y-16325984D02*
X9386849Y-16325984D01*
X9386849Y-16325984D02*
X9367801Y-16335508D01*
X9367801Y-16335508D02*
X9358277Y-16345031D01*
X9358277Y-16345031D02*
X9339230Y-16373603D01*
X9339230Y-16373603D02*
X9329706Y-16411698D01*
X9329706Y-16411698D02*
X9329706Y-16487888D01*
X9329706Y-16487888D02*
X9339230Y-16506936D01*
X9339230Y-16506936D02*
X9348753Y-16516460D01*
X9348753Y-16516460D02*
X9367801Y-16525984D01*
X9367801Y-16525984D02*
X9405896Y-16525984D01*
X9405896Y-16525984D02*
X9424944Y-16516460D01*
X9424944Y-16516460D02*
X9434468Y-16506936D01*
X9434468Y-16506936D02*
X9443991Y-16487888D01*
X9443991Y-16487888D02*
X9443991Y-16440269D01*
X9443991Y-16440269D02*
X9434468Y-16421222D01*
X9434468Y-16421222D02*
X9424944Y-16411698D01*
X9424944Y-16411698D02*
X9405896Y-16402174D01*
X9405896Y-16402174D02*
X9367801Y-16402174D01*
X9367801Y-16402174D02*
X9348753Y-16411698D01*
X9348753Y-16411698D02*
X9339230Y-16421222D01*
X9339230Y-16421222D02*
X9329706Y-16440269D01*
X9682087Y-16525984D02*
X9682087Y-16325984D01*
X9767801Y-16525984D02*
X9767801Y-16421222D01*
X9767801Y-16421222D02*
X9758277Y-16402174D01*
X9758277Y-16402174D02*
X9739230Y-16392650D01*
X9739230Y-16392650D02*
X9710658Y-16392650D01*
X9710658Y-16392650D02*
X9691611Y-16402174D01*
X9691611Y-16402174D02*
X9682087Y-16411698D01*
X9891611Y-16525984D02*
X9872563Y-16516460D01*
X9872563Y-16516460D02*
X9863039Y-16506936D01*
X9863039Y-16506936D02*
X9853515Y-16487888D01*
X9853515Y-16487888D02*
X9853515Y-16430746D01*
X9853515Y-16430746D02*
X9863039Y-16411698D01*
X9863039Y-16411698D02*
X9872563Y-16402174D01*
X9872563Y-16402174D02*
X9891611Y-16392650D01*
X9891611Y-16392650D02*
X9920182Y-16392650D01*
X9920182Y-16392650D02*
X9939230Y-16402174D01*
X9939230Y-16402174D02*
X9948753Y-16411698D01*
X9948753Y-16411698D02*
X9958277Y-16430746D01*
X9958277Y-16430746D02*
X9958277Y-16487888D01*
X9958277Y-16487888D02*
X9948753Y-16506936D01*
X9948753Y-16506936D02*
X9939230Y-16516460D01*
X9939230Y-16516460D02*
X9920182Y-16525984D01*
X9920182Y-16525984D02*
X9891611Y-16525984D01*
X10072563Y-16525984D02*
X10053515Y-16516460D01*
X10053515Y-16516460D02*
X10043992Y-16497412D01*
X10043992Y-16497412D02*
X10043992Y-16325984D01*
X10224944Y-16516460D02*
X10205896Y-16525984D01*
X10205896Y-16525984D02*
X10167801Y-16525984D01*
X10167801Y-16525984D02*
X10148753Y-16516460D01*
X10148753Y-16516460D02*
X10139230Y-16497412D01*
X10139230Y-16497412D02*
X10139230Y-16421222D01*
X10139230Y-16421222D02*
X10148753Y-16402174D01*
X10148753Y-16402174D02*
X10167801Y-16392650D01*
X10167801Y-16392650D02*
X10205896Y-16392650D01*
X10205896Y-16392650D02*
X10224944Y-16402174D01*
X10224944Y-16402174D02*
X10234468Y-16421222D01*
X10234468Y-16421222D02*
X10234468Y-16440269D01*
X10234468Y-16440269D02*
X10139230Y-16459317D01*
X10310658Y-16516460D02*
X10329706Y-16525984D01*
X10329706Y-16525984D02*
X10367801Y-16525984D01*
X10367801Y-16525984D02*
X10386849Y-16516460D01*
X10386849Y-16516460D02*
X10396373Y-16497412D01*
X10396373Y-16497412D02*
X10396373Y-16487888D01*
X10396373Y-16487888D02*
X10386849Y-16468841D01*
X10386849Y-16468841D02*
X10367801Y-16459317D01*
X10367801Y-16459317D02*
X10339230Y-16459317D01*
X10339230Y-16459317D02*
X10320182Y-16449793D01*
X10320182Y-16449793D02*
X10310658Y-16430746D01*
X10310658Y-16430746D02*
X10310658Y-16421222D01*
X10310658Y-16421222D02*
X10320182Y-16402174D01*
X10320182Y-16402174D02*
X10339230Y-16392650D01*
X10339230Y-16392650D02*
X10367801Y-16392650D01*
X10367801Y-16392650D02*
X10386849Y-16402174D01*
X10463039Y-16602174D02*
X10472563Y-16592650D01*
X10472563Y-16592650D02*
X10491611Y-16564079D01*
X10491611Y-16564079D02*
X10501134Y-16545031D01*
X10501134Y-16545031D02*
X10510658Y-16516460D01*
X10510658Y-16516460D02*
X10520182Y-16468841D01*
X10520182Y-16468841D02*
X10520182Y-16430746D01*
X10520182Y-16430746D02*
X10510658Y-16383127D01*
X10510658Y-16383127D02*
X10501134Y-16354555D01*
X10501134Y-16354555D02*
X10491611Y-16335508D01*
X10491611Y-16335508D02*
X10472563Y-16306936D01*
X10472563Y-16306936D02*
X10463039Y-16297412D01*
M02*
