%TF.GenerationSoftware,KiCad,Pcbnew,10.0.4*%
%TF.CreationDate,2026-09-23T12:25:02+01:00*%
%TF.ProjectId,ProjectKurinda_PCB,50726f6a-6563-4744-9b75-72696e64615f,rev?*%
%TF.SameCoordinates,Original*%
%TF.FileFunction,Legend,Bot*%
%TF.FilePolarity,Positive*%
%FSLAX46Y46*%
G04 Gerber Fmt 4.6, Leading zero omitted, Abs format (unit mm)*
G04 Created by KiCad (PCBNEW 10.0.4) date 2026-09-23 12:25:02*
%MOMM*%
%LPD*%
G01*
G04 APERTURE LIST*
%ADD10C,0.200000*%
%ADD11C,0.150000*%
%ADD12C,0.120000*%
%ADD13C,0.100000*%
%ADD14C,0.000000*%
G04 APERTURE END LIST*
D10*
X69130326Y-73617219D02*
X69130326Y-72950552D01*
X69130326Y-72617219D02*
X69177945Y-72664838D01*
X69177945Y-72664838D02*
X69130326Y-72712457D01*
X69130326Y-72712457D02*
X69082707Y-72664838D01*
X69082707Y-72664838D02*
X69130326Y-72617219D01*
X69130326Y-72617219D02*
X69130326Y-72712457D01*
X68701755Y-72712457D02*
X68654136Y-72664838D01*
X68654136Y-72664838D02*
X68558898Y-72617219D01*
X68558898Y-72617219D02*
X68320803Y-72617219D01*
X68320803Y-72617219D02*
X68225565Y-72664838D01*
X68225565Y-72664838D02*
X68177946Y-72712457D01*
X68177946Y-72712457D02*
X68130327Y-72807695D01*
X68130327Y-72807695D02*
X68130327Y-72902933D01*
X68130327Y-72902933D02*
X68177946Y-73045790D01*
X68177946Y-73045790D02*
X68749374Y-73617219D01*
X68749374Y-73617219D02*
X68130327Y-73617219D01*
X67273184Y-73569600D02*
X67368422Y-73617219D01*
X67368422Y-73617219D02*
X67558898Y-73617219D01*
X67558898Y-73617219D02*
X67654136Y-73569600D01*
X67654136Y-73569600D02*
X67701755Y-73521980D01*
X67701755Y-73521980D02*
X67749374Y-73426742D01*
X67749374Y-73426742D02*
X67749374Y-73141028D01*
X67749374Y-73141028D02*
X67701755Y-73045790D01*
X67701755Y-73045790D02*
X67654136Y-72998171D01*
X67654136Y-72998171D02*
X67558898Y-72950552D01*
X67558898Y-72950552D02*
X67368422Y-72950552D01*
X67368422Y-72950552D02*
X67273184Y-72998171D01*
X66082707Y-72950552D02*
X66082707Y-73950552D01*
X66082707Y-72998171D02*
X65987469Y-72950552D01*
X65987469Y-72950552D02*
X65796993Y-72950552D01*
X65796993Y-72950552D02*
X65701755Y-72998171D01*
X65701755Y-72998171D02*
X65654136Y-73045790D01*
X65654136Y-73045790D02*
X65606517Y-73141028D01*
X65606517Y-73141028D02*
X65606517Y-73426742D01*
X65606517Y-73426742D02*
X65654136Y-73521980D01*
X65654136Y-73521980D02*
X65701755Y-73569600D01*
X65701755Y-73569600D02*
X65796993Y-73617219D01*
X65796993Y-73617219D02*
X65987469Y-73617219D01*
X65987469Y-73617219D02*
X66082707Y-73569600D01*
X64749374Y-72950552D02*
X64749374Y-73617219D01*
X65177945Y-72950552D02*
X65177945Y-73474361D01*
X65177945Y-73474361D02*
X65130326Y-73569600D01*
X65130326Y-73569600D02*
X65035088Y-73617219D01*
X65035088Y-73617219D02*
X64892231Y-73617219D01*
X64892231Y-73617219D02*
X64796993Y-73569600D01*
X64796993Y-73569600D02*
X64749374Y-73521980D01*
X64130326Y-73617219D02*
X64225564Y-73569600D01*
X64225564Y-73569600D02*
X64273183Y-73474361D01*
X64273183Y-73474361D02*
X64273183Y-72617219D01*
X63606516Y-73617219D02*
X63701754Y-73569600D01*
X63701754Y-73569600D02*
X63749373Y-73474361D01*
X63749373Y-73474361D02*
X63749373Y-72617219D01*
X63225563Y-73236266D02*
X62463659Y-73236266D01*
X61558897Y-72950552D02*
X61558897Y-73617219D01*
X61987468Y-72950552D02*
X61987468Y-73474361D01*
X61987468Y-73474361D02*
X61939849Y-73569600D01*
X61939849Y-73569600D02*
X61844611Y-73617219D01*
X61844611Y-73617219D02*
X61701754Y-73617219D01*
X61701754Y-73617219D02*
X61606516Y-73569600D01*
X61606516Y-73569600D02*
X61558897Y-73521980D01*
X61082706Y-72950552D02*
X61082706Y-73950552D01*
X61082706Y-72998171D02*
X60987468Y-72950552D01*
X60987468Y-72950552D02*
X60796992Y-72950552D01*
X60796992Y-72950552D02*
X60701754Y-72998171D01*
X60701754Y-72998171D02*
X60654135Y-73045790D01*
X60654135Y-73045790D02*
X60606516Y-73141028D01*
X60606516Y-73141028D02*
X60606516Y-73426742D01*
X60606516Y-73426742D02*
X60654135Y-73521980D01*
X60654135Y-73521980D02*
X60701754Y-73569600D01*
X60701754Y-73569600D02*
X60796992Y-73617219D01*
X60796992Y-73617219D02*
X60987468Y-73617219D01*
X60987468Y-73617219D02*
X61082706Y-73569600D01*
X60225563Y-73569600D02*
X60130325Y-73617219D01*
X60130325Y-73617219D02*
X59939849Y-73617219D01*
X59939849Y-73617219D02*
X59844611Y-73569600D01*
X59844611Y-73569600D02*
X59796992Y-73474361D01*
X59796992Y-73474361D02*
X59796992Y-73426742D01*
X59796992Y-73426742D02*
X59844611Y-73331504D01*
X59844611Y-73331504D02*
X59939849Y-73283885D01*
X59939849Y-73283885D02*
X60082706Y-73283885D01*
X60082706Y-73283885D02*
X60177944Y-73236266D01*
X60177944Y-73236266D02*
X60225563Y-73141028D01*
X60225563Y-73141028D02*
X60225563Y-73093409D01*
X60225563Y-73093409D02*
X60177944Y-72998171D01*
X60177944Y-72998171D02*
X60082706Y-72950552D01*
X60082706Y-72950552D02*
X59939849Y-72950552D01*
X59939849Y-72950552D02*
X59844611Y-72998171D01*
X83678572Y-106391112D02*
X83678572Y-104891112D01*
X82964286Y-105391112D02*
X82964286Y-106391112D01*
X82964286Y-105533969D02*
X82892857Y-105462541D01*
X82892857Y-105462541D02*
X82750000Y-105391112D01*
X82750000Y-105391112D02*
X82535714Y-105391112D01*
X82535714Y-105391112D02*
X82392857Y-105462541D01*
X82392857Y-105462541D02*
X82321429Y-105605398D01*
X82321429Y-105605398D02*
X82321429Y-106391112D01*
X81678571Y-106319684D02*
X81535714Y-106391112D01*
X81535714Y-106391112D02*
X81250000Y-106391112D01*
X81250000Y-106391112D02*
X81107143Y-106319684D01*
X81107143Y-106319684D02*
X81035714Y-106176826D01*
X81035714Y-106176826D02*
X81035714Y-106105398D01*
X81035714Y-106105398D02*
X81107143Y-105962541D01*
X81107143Y-105962541D02*
X81250000Y-105891112D01*
X81250000Y-105891112D02*
X81464286Y-105891112D01*
X81464286Y-105891112D02*
X81607143Y-105819684D01*
X81607143Y-105819684D02*
X81678571Y-105676826D01*
X81678571Y-105676826D02*
X81678571Y-105605398D01*
X81678571Y-105605398D02*
X81607143Y-105462541D01*
X81607143Y-105462541D02*
X81464286Y-105391112D01*
X81464286Y-105391112D02*
X81250000Y-105391112D01*
X81250000Y-105391112D02*
X81107143Y-105462541D01*
X80607142Y-105391112D02*
X80035714Y-105391112D01*
X80392857Y-104891112D02*
X80392857Y-106176826D01*
X80392857Y-106176826D02*
X80321428Y-106319684D01*
X80321428Y-106319684D02*
X80178571Y-106391112D01*
X80178571Y-106391112D02*
X80035714Y-106391112D01*
X79535714Y-106391112D02*
X79535714Y-105391112D01*
X79535714Y-105676826D02*
X79464285Y-105533969D01*
X79464285Y-105533969D02*
X79392857Y-105462541D01*
X79392857Y-105462541D02*
X79249999Y-105391112D01*
X79249999Y-105391112D02*
X79107142Y-105391112D01*
X77964286Y-105391112D02*
X77964286Y-106391112D01*
X78607143Y-105391112D02*
X78607143Y-106176826D01*
X78607143Y-106176826D02*
X78535714Y-106319684D01*
X78535714Y-106319684D02*
X78392857Y-106391112D01*
X78392857Y-106391112D02*
X78178571Y-106391112D01*
X78178571Y-106391112D02*
X78035714Y-106319684D01*
X78035714Y-106319684D02*
X77964286Y-106248255D01*
X76607143Y-106319684D02*
X76750000Y-106391112D01*
X76750000Y-106391112D02*
X77035714Y-106391112D01*
X77035714Y-106391112D02*
X77178571Y-106319684D01*
X77178571Y-106319684D02*
X77250000Y-106248255D01*
X77250000Y-106248255D02*
X77321428Y-106105398D01*
X77321428Y-106105398D02*
X77321428Y-105676826D01*
X77321428Y-105676826D02*
X77250000Y-105533969D01*
X77250000Y-105533969D02*
X77178571Y-105462541D01*
X77178571Y-105462541D02*
X77035714Y-105391112D01*
X77035714Y-105391112D02*
X76750000Y-105391112D01*
X76750000Y-105391112D02*
X76607143Y-105462541D01*
X76178571Y-105391112D02*
X75607143Y-105391112D01*
X75964286Y-104891112D02*
X75964286Y-106176826D01*
X75964286Y-106176826D02*
X75892857Y-106319684D01*
X75892857Y-106319684D02*
X75750000Y-106391112D01*
X75750000Y-106391112D02*
X75607143Y-106391112D01*
X75107143Y-106391112D02*
X75107143Y-105391112D01*
X75107143Y-104891112D02*
X75178571Y-104962541D01*
X75178571Y-104962541D02*
X75107143Y-105033969D01*
X75107143Y-105033969D02*
X75035714Y-104962541D01*
X75035714Y-104962541D02*
X75107143Y-104891112D01*
X75107143Y-104891112D02*
X75107143Y-105033969D01*
X74178571Y-106391112D02*
X74321428Y-106319684D01*
X74321428Y-106319684D02*
X74392857Y-106248255D01*
X74392857Y-106248255D02*
X74464285Y-106105398D01*
X74464285Y-106105398D02*
X74464285Y-105676826D01*
X74464285Y-105676826D02*
X74392857Y-105533969D01*
X74392857Y-105533969D02*
X74321428Y-105462541D01*
X74321428Y-105462541D02*
X74178571Y-105391112D01*
X74178571Y-105391112D02*
X73964285Y-105391112D01*
X73964285Y-105391112D02*
X73821428Y-105462541D01*
X73821428Y-105462541D02*
X73750000Y-105533969D01*
X73750000Y-105533969D02*
X73678571Y-105676826D01*
X73678571Y-105676826D02*
X73678571Y-106105398D01*
X73678571Y-106105398D02*
X73750000Y-106248255D01*
X73750000Y-106248255D02*
X73821428Y-106319684D01*
X73821428Y-106319684D02*
X73964285Y-106391112D01*
X73964285Y-106391112D02*
X74178571Y-106391112D01*
X73035714Y-105391112D02*
X73035714Y-106391112D01*
X73035714Y-105533969D02*
X72964285Y-105462541D01*
X72964285Y-105462541D02*
X72821428Y-105391112D01*
X72821428Y-105391112D02*
X72607142Y-105391112D01*
X72607142Y-105391112D02*
X72464285Y-105462541D01*
X72464285Y-105462541D02*
X72392857Y-105605398D01*
X72392857Y-105605398D02*
X72392857Y-106391112D01*
X71749999Y-106319684D02*
X71607142Y-106391112D01*
X71607142Y-106391112D02*
X71321428Y-106391112D01*
X71321428Y-106391112D02*
X71178571Y-106319684D01*
X71178571Y-106319684D02*
X71107142Y-106176826D01*
X71107142Y-106176826D02*
X71107142Y-106105398D01*
X71107142Y-106105398D02*
X71178571Y-105962541D01*
X71178571Y-105962541D02*
X71321428Y-105891112D01*
X71321428Y-105891112D02*
X71535714Y-105891112D01*
X71535714Y-105891112D02*
X71678571Y-105819684D01*
X71678571Y-105819684D02*
X71749999Y-105676826D01*
X71749999Y-105676826D02*
X71749999Y-105605398D01*
X71749999Y-105605398D02*
X71678571Y-105462541D01*
X71678571Y-105462541D02*
X71535714Y-105391112D01*
X71535714Y-105391112D02*
X71321428Y-105391112D01*
X71321428Y-105391112D02*
X71178571Y-105462541D01*
X68678571Y-106391112D02*
X68678571Y-105605398D01*
X68678571Y-105605398D02*
X68749999Y-105462541D01*
X68749999Y-105462541D02*
X68892856Y-105391112D01*
X68892856Y-105391112D02*
X69178571Y-105391112D01*
X69178571Y-105391112D02*
X69321428Y-105462541D01*
X68678571Y-106319684D02*
X68821428Y-106391112D01*
X68821428Y-106391112D02*
X69178571Y-106391112D01*
X69178571Y-106391112D02*
X69321428Y-106319684D01*
X69321428Y-106319684D02*
X69392856Y-106176826D01*
X69392856Y-106176826D02*
X69392856Y-106033969D01*
X69392856Y-106033969D02*
X69321428Y-105891112D01*
X69321428Y-105891112D02*
X69178571Y-105819684D01*
X69178571Y-105819684D02*
X68821428Y-105819684D01*
X68821428Y-105819684D02*
X68678571Y-105748255D01*
X68178570Y-105391112D02*
X67607142Y-105391112D01*
X67964285Y-104891112D02*
X67964285Y-106176826D01*
X67964285Y-106176826D02*
X67892856Y-106319684D01*
X67892856Y-106319684D02*
X67749999Y-106391112D01*
X67749999Y-106391112D02*
X67607142Y-106391112D01*
X83142857Y-108806028D02*
X83142857Y-107306028D01*
X83000000Y-108234600D02*
X82571428Y-108806028D01*
X82571428Y-107806028D02*
X83142857Y-108377457D01*
X81285714Y-107806028D02*
X81285714Y-108806028D01*
X81928571Y-107806028D02*
X81928571Y-108591742D01*
X81928571Y-108591742D02*
X81857142Y-108734600D01*
X81857142Y-108734600D02*
X81714285Y-108806028D01*
X81714285Y-108806028D02*
X81499999Y-108806028D01*
X81499999Y-108806028D02*
X81357142Y-108734600D01*
X81357142Y-108734600D02*
X81285714Y-108663171D01*
X80571428Y-108806028D02*
X80571428Y-107806028D01*
X80571428Y-108091742D02*
X80499999Y-107948885D01*
X80499999Y-107948885D02*
X80428571Y-107877457D01*
X80428571Y-107877457D02*
X80285713Y-107806028D01*
X80285713Y-107806028D02*
X80142856Y-107806028D01*
X79642857Y-108806028D02*
X79642857Y-107806028D01*
X79642857Y-107306028D02*
X79714285Y-107377457D01*
X79714285Y-107377457D02*
X79642857Y-107448885D01*
X79642857Y-107448885D02*
X79571428Y-107377457D01*
X79571428Y-107377457D02*
X79642857Y-107306028D01*
X79642857Y-107306028D02*
X79642857Y-107448885D01*
X78928571Y-107806028D02*
X78928571Y-108806028D01*
X78928571Y-107948885D02*
X78857142Y-107877457D01*
X78857142Y-107877457D02*
X78714285Y-107806028D01*
X78714285Y-107806028D02*
X78499999Y-107806028D01*
X78499999Y-107806028D02*
X78357142Y-107877457D01*
X78357142Y-107877457D02*
X78285714Y-108020314D01*
X78285714Y-108020314D02*
X78285714Y-108806028D01*
X76928571Y-108806028D02*
X76928571Y-107306028D01*
X76928571Y-108734600D02*
X77071428Y-108806028D01*
X77071428Y-108806028D02*
X77357142Y-108806028D01*
X77357142Y-108806028D02*
X77499999Y-108734600D01*
X77499999Y-108734600D02*
X77571428Y-108663171D01*
X77571428Y-108663171D02*
X77642856Y-108520314D01*
X77642856Y-108520314D02*
X77642856Y-108091742D01*
X77642856Y-108091742D02*
X77571428Y-107948885D01*
X77571428Y-107948885D02*
X77499999Y-107877457D01*
X77499999Y-107877457D02*
X77357142Y-107806028D01*
X77357142Y-107806028D02*
X77071428Y-107806028D01*
X77071428Y-107806028D02*
X76928571Y-107877457D01*
X75571428Y-108806028D02*
X75571428Y-108020314D01*
X75571428Y-108020314D02*
X75642856Y-107877457D01*
X75642856Y-107877457D02*
X75785713Y-107806028D01*
X75785713Y-107806028D02*
X76071428Y-107806028D01*
X76071428Y-107806028D02*
X76214285Y-107877457D01*
X75571428Y-108734600D02*
X75714285Y-108806028D01*
X75714285Y-108806028D02*
X76071428Y-108806028D01*
X76071428Y-108806028D02*
X76214285Y-108734600D01*
X76214285Y-108734600D02*
X76285713Y-108591742D01*
X76285713Y-108591742D02*
X76285713Y-108448885D01*
X76285713Y-108448885D02*
X76214285Y-108306028D01*
X76214285Y-108306028D02*
X76071428Y-108234600D01*
X76071428Y-108234600D02*
X75714285Y-108234600D01*
X75714285Y-108234600D02*
X75571428Y-108163171D01*
X74857142Y-108663171D02*
X74785713Y-108734600D01*
X74785713Y-108734600D02*
X74857142Y-108806028D01*
X74857142Y-108806028D02*
X74928570Y-108734600D01*
X74928570Y-108734600D02*
X74857142Y-108663171D01*
X74857142Y-108663171D02*
X74857142Y-108806028D01*
X74214284Y-108734600D02*
X74071427Y-108806028D01*
X74071427Y-108806028D02*
X73785713Y-108806028D01*
X73785713Y-108806028D02*
X73642856Y-108734600D01*
X73642856Y-108734600D02*
X73571427Y-108591742D01*
X73571427Y-108591742D02*
X73571427Y-108520314D01*
X73571427Y-108520314D02*
X73642856Y-108377457D01*
X73642856Y-108377457D02*
X73785713Y-108306028D01*
X73785713Y-108306028D02*
X73999999Y-108306028D01*
X73999999Y-108306028D02*
X74142856Y-108234600D01*
X74142856Y-108234600D02*
X74214284Y-108091742D01*
X74214284Y-108091742D02*
X74214284Y-108020314D01*
X74214284Y-108020314D02*
X74142856Y-107877457D01*
X74142856Y-107877457D02*
X73999999Y-107806028D01*
X73999999Y-107806028D02*
X73785713Y-107806028D01*
X73785713Y-107806028D02*
X73642856Y-107877457D01*
X72928570Y-107806028D02*
X72928570Y-109306028D01*
X72928570Y-107877457D02*
X72785713Y-107806028D01*
X72785713Y-107806028D02*
X72499998Y-107806028D01*
X72499998Y-107806028D02*
X72357141Y-107877457D01*
X72357141Y-107877457D02*
X72285713Y-107948885D01*
X72285713Y-107948885D02*
X72214284Y-108091742D01*
X72214284Y-108091742D02*
X72214284Y-108520314D01*
X72214284Y-108520314D02*
X72285713Y-108663171D01*
X72285713Y-108663171D02*
X72357141Y-108734600D01*
X72357141Y-108734600D02*
X72499998Y-108806028D01*
X72499998Y-108806028D02*
X72785713Y-108806028D01*
X72785713Y-108806028D02*
X72928570Y-108734600D01*
X70928570Y-108806028D02*
X70928570Y-108020314D01*
X70928570Y-108020314D02*
X70999998Y-107877457D01*
X70999998Y-107877457D02*
X71142855Y-107806028D01*
X71142855Y-107806028D02*
X71428570Y-107806028D01*
X71428570Y-107806028D02*
X71571427Y-107877457D01*
X70928570Y-108734600D02*
X71071427Y-108806028D01*
X71071427Y-108806028D02*
X71428570Y-108806028D01*
X71428570Y-108806028D02*
X71571427Y-108734600D01*
X71571427Y-108734600D02*
X71642855Y-108591742D01*
X71642855Y-108591742D02*
X71642855Y-108448885D01*
X71642855Y-108448885D02*
X71571427Y-108306028D01*
X71571427Y-108306028D02*
X71428570Y-108234600D01*
X71428570Y-108234600D02*
X71071427Y-108234600D01*
X71071427Y-108234600D02*
X70928570Y-108163171D01*
X69571427Y-108734600D02*
X69714284Y-108806028D01*
X69714284Y-108806028D02*
X69999998Y-108806028D01*
X69999998Y-108806028D02*
X70142855Y-108734600D01*
X70142855Y-108734600D02*
X70214284Y-108663171D01*
X70214284Y-108663171D02*
X70285712Y-108520314D01*
X70285712Y-108520314D02*
X70285712Y-108091742D01*
X70285712Y-108091742D02*
X70214284Y-107948885D01*
X70214284Y-107948885D02*
X70142855Y-107877457D01*
X70142855Y-107877457D02*
X69999998Y-107806028D01*
X69999998Y-107806028D02*
X69714284Y-107806028D01*
X69714284Y-107806028D02*
X69571427Y-107877457D01*
X68357141Y-108734600D02*
X68499998Y-108806028D01*
X68499998Y-108806028D02*
X68785713Y-108806028D01*
X68785713Y-108806028D02*
X68928570Y-108734600D01*
X68928570Y-108734600D02*
X68999998Y-108591742D01*
X68999998Y-108591742D02*
X68999998Y-108020314D01*
X68999998Y-108020314D02*
X68928570Y-107877457D01*
X68928570Y-107877457D02*
X68785713Y-107806028D01*
X68785713Y-107806028D02*
X68499998Y-107806028D01*
X68499998Y-107806028D02*
X68357141Y-107877457D01*
X68357141Y-107877457D02*
X68285713Y-108020314D01*
X68285713Y-108020314D02*
X68285713Y-108163171D01*
X68285713Y-108163171D02*
X68999998Y-108306028D01*
X74333334Y-57093409D02*
X74190477Y-57141028D01*
X74190477Y-57141028D02*
X74142858Y-57188647D01*
X74142858Y-57188647D02*
X74095239Y-57283885D01*
X74095239Y-57283885D02*
X74095239Y-57426742D01*
X74095239Y-57426742D02*
X74142858Y-57521980D01*
X74142858Y-57521980D02*
X74190477Y-57569600D01*
X74190477Y-57569600D02*
X74285715Y-57617219D01*
X74285715Y-57617219D02*
X74666667Y-57617219D01*
X74666667Y-57617219D02*
X74666667Y-56617219D01*
X74666667Y-56617219D02*
X74333334Y-56617219D01*
X74333334Y-56617219D02*
X74238096Y-56664838D01*
X74238096Y-56664838D02*
X74190477Y-56712457D01*
X74190477Y-56712457D02*
X74142858Y-56807695D01*
X74142858Y-56807695D02*
X74142858Y-56902933D01*
X74142858Y-56902933D02*
X74190477Y-56998171D01*
X74190477Y-56998171D02*
X74238096Y-57045790D01*
X74238096Y-57045790D02*
X74333334Y-57093409D01*
X74333334Y-57093409D02*
X74666667Y-57093409D01*
X73238096Y-57617219D02*
X73238096Y-57093409D01*
X73238096Y-57093409D02*
X73285715Y-56998171D01*
X73285715Y-56998171D02*
X73380953Y-56950552D01*
X73380953Y-56950552D02*
X73571429Y-56950552D01*
X73571429Y-56950552D02*
X73666667Y-56998171D01*
X73238096Y-57569600D02*
X73333334Y-57617219D01*
X73333334Y-57617219D02*
X73571429Y-57617219D01*
X73571429Y-57617219D02*
X73666667Y-57569600D01*
X73666667Y-57569600D02*
X73714286Y-57474361D01*
X73714286Y-57474361D02*
X73714286Y-57379123D01*
X73714286Y-57379123D02*
X73666667Y-57283885D01*
X73666667Y-57283885D02*
X73571429Y-57236266D01*
X73571429Y-57236266D02*
X73333334Y-57236266D01*
X73333334Y-57236266D02*
X73238096Y-57188647D01*
X72904762Y-56950552D02*
X72523810Y-56950552D01*
X72761905Y-56617219D02*
X72761905Y-57474361D01*
X72761905Y-57474361D02*
X72714286Y-57569600D01*
X72714286Y-57569600D02*
X72619048Y-57617219D01*
X72619048Y-57617219D02*
X72523810Y-57617219D01*
X72333333Y-56950552D02*
X71952381Y-56950552D01*
X72190476Y-56617219D02*
X72190476Y-57474361D01*
X72190476Y-57474361D02*
X72142857Y-57569600D01*
X72142857Y-57569600D02*
X72047619Y-57617219D01*
X72047619Y-57617219D02*
X71952381Y-57617219D01*
X71238095Y-57569600D02*
X71333333Y-57617219D01*
X71333333Y-57617219D02*
X71523809Y-57617219D01*
X71523809Y-57617219D02*
X71619047Y-57569600D01*
X71619047Y-57569600D02*
X71666666Y-57474361D01*
X71666666Y-57474361D02*
X71666666Y-57093409D01*
X71666666Y-57093409D02*
X71619047Y-56998171D01*
X71619047Y-56998171D02*
X71523809Y-56950552D01*
X71523809Y-56950552D02*
X71333333Y-56950552D01*
X71333333Y-56950552D02*
X71238095Y-56998171D01*
X71238095Y-56998171D02*
X71190476Y-57093409D01*
X71190476Y-57093409D02*
X71190476Y-57188647D01*
X71190476Y-57188647D02*
X71666666Y-57283885D01*
X70761904Y-57617219D02*
X70761904Y-56950552D01*
X70761904Y-57141028D02*
X70714285Y-57045790D01*
X70714285Y-57045790D02*
X70666666Y-56998171D01*
X70666666Y-56998171D02*
X70571428Y-56950552D01*
X70571428Y-56950552D02*
X70476190Y-56950552D01*
X70238094Y-56950552D02*
X69999999Y-57617219D01*
X69761904Y-56950552D02*
X69999999Y-57617219D01*
X69999999Y-57617219D02*
X70095237Y-57855314D01*
X70095237Y-57855314D02*
X70142856Y-57902933D01*
X70142856Y-57902933D02*
X70238094Y-57950552D01*
X68619046Y-57617219D02*
X68619046Y-56950552D01*
X68619046Y-56617219D02*
X68666665Y-56664838D01*
X68666665Y-56664838D02*
X68619046Y-56712457D01*
X68619046Y-56712457D02*
X68571427Y-56664838D01*
X68571427Y-56664838D02*
X68619046Y-56617219D01*
X68619046Y-56617219D02*
X68619046Y-56712457D01*
X68142856Y-56950552D02*
X68142856Y-57617219D01*
X68142856Y-57045790D02*
X68095237Y-56998171D01*
X68095237Y-56998171D02*
X67999999Y-56950552D01*
X67999999Y-56950552D02*
X67857142Y-56950552D01*
X67857142Y-56950552D02*
X67761904Y-56998171D01*
X67761904Y-56998171D02*
X67714285Y-57093409D01*
X67714285Y-57093409D02*
X67714285Y-57617219D01*
X67238094Y-56950552D02*
X67238094Y-57950552D01*
X67238094Y-56998171D02*
X67142856Y-56950552D01*
X67142856Y-56950552D02*
X66952380Y-56950552D01*
X66952380Y-56950552D02*
X66857142Y-56998171D01*
X66857142Y-56998171D02*
X66809523Y-57045790D01*
X66809523Y-57045790D02*
X66761904Y-57141028D01*
X66761904Y-57141028D02*
X66761904Y-57426742D01*
X66761904Y-57426742D02*
X66809523Y-57521980D01*
X66809523Y-57521980D02*
X66857142Y-57569600D01*
X66857142Y-57569600D02*
X66952380Y-57617219D01*
X66952380Y-57617219D02*
X67142856Y-57617219D01*
X67142856Y-57617219D02*
X67238094Y-57569600D01*
X65904761Y-56950552D02*
X65904761Y-57617219D01*
X66333332Y-56950552D02*
X66333332Y-57474361D01*
X66333332Y-57474361D02*
X66285713Y-57569600D01*
X66285713Y-57569600D02*
X66190475Y-57617219D01*
X66190475Y-57617219D02*
X66047618Y-57617219D01*
X66047618Y-57617219D02*
X65952380Y-57569600D01*
X65952380Y-57569600D02*
X65904761Y-57521980D01*
X65571427Y-56950552D02*
X65190475Y-56950552D01*
X65428570Y-56617219D02*
X65428570Y-57474361D01*
X65428570Y-57474361D02*
X65380951Y-57569600D01*
X65380951Y-57569600D02*
X65285713Y-57617219D01*
X65285713Y-57617219D02*
X65190475Y-57617219D01*
X69107142Y-63757275D02*
X68488095Y-63757275D01*
X68488095Y-63757275D02*
X68821428Y-64138227D01*
X68821428Y-64138227D02*
X68678571Y-64138227D01*
X68678571Y-64138227D02*
X68583333Y-64185846D01*
X68583333Y-64185846D02*
X68535714Y-64233465D01*
X68535714Y-64233465D02*
X68488095Y-64328703D01*
X68488095Y-64328703D02*
X68488095Y-64566798D01*
X68488095Y-64566798D02*
X68535714Y-64662036D01*
X68535714Y-64662036D02*
X68583333Y-64709656D01*
X68583333Y-64709656D02*
X68678571Y-64757275D01*
X68678571Y-64757275D02*
X68964285Y-64757275D01*
X68964285Y-64757275D02*
X69059523Y-64709656D01*
X69059523Y-64709656D02*
X69107142Y-64662036D01*
X68059523Y-64662036D02*
X68011904Y-64709656D01*
X68011904Y-64709656D02*
X68059523Y-64757275D01*
X68059523Y-64757275D02*
X68107142Y-64709656D01*
X68107142Y-64709656D02*
X68059523Y-64662036D01*
X68059523Y-64662036D02*
X68059523Y-64757275D01*
X67678571Y-63757275D02*
X67059524Y-63757275D01*
X67059524Y-63757275D02*
X67392857Y-64138227D01*
X67392857Y-64138227D02*
X67250000Y-64138227D01*
X67250000Y-64138227D02*
X67154762Y-64185846D01*
X67154762Y-64185846D02*
X67107143Y-64233465D01*
X67107143Y-64233465D02*
X67059524Y-64328703D01*
X67059524Y-64328703D02*
X67059524Y-64566798D01*
X67059524Y-64566798D02*
X67107143Y-64662036D01*
X67107143Y-64662036D02*
X67154762Y-64709656D01*
X67154762Y-64709656D02*
X67250000Y-64757275D01*
X67250000Y-64757275D02*
X67535714Y-64757275D01*
X67535714Y-64757275D02*
X67630952Y-64709656D01*
X67630952Y-64709656D02*
X67678571Y-64662036D01*
X66011904Y-63757275D02*
X65678571Y-64757275D01*
X65678571Y-64757275D02*
X65345238Y-63757275D01*
X69392856Y-66319600D02*
X69297618Y-66367219D01*
X69297618Y-66367219D02*
X69107142Y-66367219D01*
X69107142Y-66367219D02*
X69011904Y-66319600D01*
X69011904Y-66319600D02*
X68964285Y-66224361D01*
X68964285Y-66224361D02*
X68964285Y-66176742D01*
X68964285Y-66176742D02*
X69011904Y-66081504D01*
X69011904Y-66081504D02*
X69107142Y-66033885D01*
X69107142Y-66033885D02*
X69249999Y-66033885D01*
X69249999Y-66033885D02*
X69345237Y-65986266D01*
X69345237Y-65986266D02*
X69392856Y-65891028D01*
X69392856Y-65891028D02*
X69392856Y-65843409D01*
X69392856Y-65843409D02*
X69345237Y-65748171D01*
X69345237Y-65748171D02*
X69249999Y-65700552D01*
X69249999Y-65700552D02*
X69107142Y-65700552D01*
X69107142Y-65700552D02*
X69011904Y-65748171D01*
X68630951Y-65700552D02*
X68440475Y-66367219D01*
X68440475Y-66367219D02*
X68249999Y-65891028D01*
X68249999Y-65891028D02*
X68059523Y-66367219D01*
X68059523Y-66367219D02*
X67869047Y-65700552D01*
X67488094Y-66367219D02*
X67488094Y-65700552D01*
X67488094Y-65367219D02*
X67535713Y-65414838D01*
X67535713Y-65414838D02*
X67488094Y-65462457D01*
X67488094Y-65462457D02*
X67440475Y-65414838D01*
X67440475Y-65414838D02*
X67488094Y-65367219D01*
X67488094Y-65367219D02*
X67488094Y-65462457D01*
X67154761Y-65700552D02*
X66773809Y-65700552D01*
X67011904Y-65367219D02*
X67011904Y-66224361D01*
X67011904Y-66224361D02*
X66964285Y-66319600D01*
X66964285Y-66319600D02*
X66869047Y-66367219D01*
X66869047Y-66367219D02*
X66773809Y-66367219D01*
X66011904Y-66319600D02*
X66107142Y-66367219D01*
X66107142Y-66367219D02*
X66297618Y-66367219D01*
X66297618Y-66367219D02*
X66392856Y-66319600D01*
X66392856Y-66319600D02*
X66440475Y-66271980D01*
X66440475Y-66271980D02*
X66488094Y-66176742D01*
X66488094Y-66176742D02*
X66488094Y-65891028D01*
X66488094Y-65891028D02*
X66440475Y-65795790D01*
X66440475Y-65795790D02*
X66392856Y-65748171D01*
X66392856Y-65748171D02*
X66297618Y-65700552D01*
X66297618Y-65700552D02*
X66107142Y-65700552D01*
X66107142Y-65700552D02*
X66011904Y-65748171D01*
X65583332Y-66367219D02*
X65583332Y-65367219D01*
X65154761Y-66367219D02*
X65154761Y-65843409D01*
X65154761Y-65843409D02*
X65202380Y-65748171D01*
X65202380Y-65748171D02*
X65297618Y-65700552D01*
X65297618Y-65700552D02*
X65440475Y-65700552D01*
X65440475Y-65700552D02*
X65535713Y-65748171D01*
X65535713Y-65748171D02*
X65583332Y-65795790D01*
X83906590Y-59046993D02*
X83858971Y-58904136D01*
X83858971Y-58904136D02*
X83811352Y-58856517D01*
X83811352Y-58856517D02*
X83716114Y-58808898D01*
X83716114Y-58808898D02*
X83573257Y-58808898D01*
X83573257Y-58808898D02*
X83478019Y-58856517D01*
X83478019Y-58856517D02*
X83430400Y-58904136D01*
X83430400Y-58904136D02*
X83382780Y-58999374D01*
X83382780Y-58999374D02*
X83382780Y-59380326D01*
X83382780Y-59380326D02*
X84382780Y-59380326D01*
X84382780Y-59380326D02*
X84382780Y-59046993D01*
X84382780Y-59046993D02*
X84335161Y-58951755D01*
X84335161Y-58951755D02*
X84287542Y-58904136D01*
X84287542Y-58904136D02*
X84192304Y-58856517D01*
X84192304Y-58856517D02*
X84097066Y-58856517D01*
X84097066Y-58856517D02*
X84001828Y-58904136D01*
X84001828Y-58904136D02*
X83954209Y-58951755D01*
X83954209Y-58951755D02*
X83906590Y-59046993D01*
X83906590Y-59046993D02*
X83906590Y-59380326D01*
X83382780Y-57951755D02*
X83906590Y-57951755D01*
X83906590Y-57951755D02*
X84001828Y-57999374D01*
X84001828Y-57999374D02*
X84049447Y-58094612D01*
X84049447Y-58094612D02*
X84049447Y-58285088D01*
X84049447Y-58285088D02*
X84001828Y-58380326D01*
X83430400Y-57951755D02*
X83382780Y-58046993D01*
X83382780Y-58046993D02*
X83382780Y-58285088D01*
X83382780Y-58285088D02*
X83430400Y-58380326D01*
X83430400Y-58380326D02*
X83525638Y-58427945D01*
X83525638Y-58427945D02*
X83620876Y-58427945D01*
X83620876Y-58427945D02*
X83716114Y-58380326D01*
X83716114Y-58380326D02*
X83763733Y-58285088D01*
X83763733Y-58285088D02*
X83763733Y-58046993D01*
X83763733Y-58046993D02*
X83811352Y-57951755D01*
X84049447Y-57618421D02*
X84049447Y-57237469D01*
X84382780Y-57475564D02*
X83525638Y-57475564D01*
X83525638Y-57475564D02*
X83430400Y-57427945D01*
X83430400Y-57427945D02*
X83382780Y-57332707D01*
X83382780Y-57332707D02*
X83382780Y-57237469D01*
X84049447Y-57046992D02*
X84049447Y-56666040D01*
X84382780Y-56904135D02*
X83525638Y-56904135D01*
X83525638Y-56904135D02*
X83430400Y-56856516D01*
X83430400Y-56856516D02*
X83382780Y-56761278D01*
X83382780Y-56761278D02*
X83382780Y-56666040D01*
X83430400Y-55951754D02*
X83382780Y-56046992D01*
X83382780Y-56046992D02*
X83382780Y-56237468D01*
X83382780Y-56237468D02*
X83430400Y-56332706D01*
X83430400Y-56332706D02*
X83525638Y-56380325D01*
X83525638Y-56380325D02*
X83906590Y-56380325D01*
X83906590Y-56380325D02*
X84001828Y-56332706D01*
X84001828Y-56332706D02*
X84049447Y-56237468D01*
X84049447Y-56237468D02*
X84049447Y-56046992D01*
X84049447Y-56046992D02*
X84001828Y-55951754D01*
X84001828Y-55951754D02*
X83906590Y-55904135D01*
X83906590Y-55904135D02*
X83811352Y-55904135D01*
X83811352Y-55904135D02*
X83716114Y-56380325D01*
X83382780Y-55475563D02*
X84049447Y-55475563D01*
X83858971Y-55475563D02*
X83954209Y-55427944D01*
X83954209Y-55427944D02*
X84001828Y-55380325D01*
X84001828Y-55380325D02*
X84049447Y-55285087D01*
X84049447Y-55285087D02*
X84049447Y-55189849D01*
X84049447Y-54951753D02*
X83382780Y-54713658D01*
X84049447Y-54475563D02*
X83382780Y-54713658D01*
X83382780Y-54713658D02*
X83144685Y-54808896D01*
X83144685Y-54808896D02*
X83097066Y-54856515D01*
X83097066Y-54856515D02*
X83049447Y-54951753D01*
X83382780Y-53332705D02*
X84049447Y-53332705D01*
X83954209Y-53332705D02*
X84001828Y-53285086D01*
X84001828Y-53285086D02*
X84049447Y-53189848D01*
X84049447Y-53189848D02*
X84049447Y-53046991D01*
X84049447Y-53046991D02*
X84001828Y-52951753D01*
X84001828Y-52951753D02*
X83906590Y-52904134D01*
X83906590Y-52904134D02*
X83382780Y-52904134D01*
X83906590Y-52904134D02*
X84001828Y-52856515D01*
X84001828Y-52856515D02*
X84049447Y-52761277D01*
X84049447Y-52761277D02*
X84049447Y-52618420D01*
X84049447Y-52618420D02*
X84001828Y-52523181D01*
X84001828Y-52523181D02*
X83906590Y-52475562D01*
X83906590Y-52475562D02*
X83382780Y-52475562D01*
X83382780Y-51856515D02*
X83430400Y-51951753D01*
X83430400Y-51951753D02*
X83478019Y-51999372D01*
X83478019Y-51999372D02*
X83573257Y-52046991D01*
X83573257Y-52046991D02*
X83858971Y-52046991D01*
X83858971Y-52046991D02*
X83954209Y-51999372D01*
X83954209Y-51999372D02*
X84001828Y-51951753D01*
X84001828Y-51951753D02*
X84049447Y-51856515D01*
X84049447Y-51856515D02*
X84049447Y-51713658D01*
X84049447Y-51713658D02*
X84001828Y-51618420D01*
X84001828Y-51618420D02*
X83954209Y-51570801D01*
X83954209Y-51570801D02*
X83858971Y-51523182D01*
X83858971Y-51523182D02*
X83573257Y-51523182D01*
X83573257Y-51523182D02*
X83478019Y-51570801D01*
X83478019Y-51570801D02*
X83430400Y-51618420D01*
X83430400Y-51618420D02*
X83382780Y-51713658D01*
X83382780Y-51713658D02*
X83382780Y-51856515D01*
X84049447Y-51094610D02*
X83382780Y-51094610D01*
X83954209Y-51094610D02*
X84001828Y-51046991D01*
X84001828Y-51046991D02*
X84049447Y-50951753D01*
X84049447Y-50951753D02*
X84049447Y-50808896D01*
X84049447Y-50808896D02*
X84001828Y-50713658D01*
X84001828Y-50713658D02*
X83906590Y-50666039D01*
X83906590Y-50666039D02*
X83382780Y-50666039D01*
X83382780Y-50189848D02*
X84049447Y-50189848D01*
X84382780Y-50189848D02*
X84335161Y-50237467D01*
X84335161Y-50237467D02*
X84287542Y-50189848D01*
X84287542Y-50189848D02*
X84335161Y-50142229D01*
X84335161Y-50142229D02*
X84382780Y-50189848D01*
X84382780Y-50189848D02*
X84287542Y-50189848D01*
X84049447Y-49856515D02*
X84049447Y-49475563D01*
X84382780Y-49713658D02*
X83525638Y-49713658D01*
X83525638Y-49713658D02*
X83430400Y-49666039D01*
X83430400Y-49666039D02*
X83382780Y-49570801D01*
X83382780Y-49570801D02*
X83382780Y-49475563D01*
X83382780Y-48999372D02*
X83430400Y-49094610D01*
X83430400Y-49094610D02*
X83478019Y-49142229D01*
X83478019Y-49142229D02*
X83573257Y-49189848D01*
X83573257Y-49189848D02*
X83858971Y-49189848D01*
X83858971Y-49189848D02*
X83954209Y-49142229D01*
X83954209Y-49142229D02*
X84001828Y-49094610D01*
X84001828Y-49094610D02*
X84049447Y-48999372D01*
X84049447Y-48999372D02*
X84049447Y-48856515D01*
X84049447Y-48856515D02*
X84001828Y-48761277D01*
X84001828Y-48761277D02*
X83954209Y-48713658D01*
X83954209Y-48713658D02*
X83858971Y-48666039D01*
X83858971Y-48666039D02*
X83573257Y-48666039D01*
X83573257Y-48666039D02*
X83478019Y-48713658D01*
X83478019Y-48713658D02*
X83430400Y-48761277D01*
X83430400Y-48761277D02*
X83382780Y-48856515D01*
X83382780Y-48856515D02*
X83382780Y-48999372D01*
X83382780Y-48237467D02*
X84049447Y-48237467D01*
X83858971Y-48237467D02*
X83954209Y-48189848D01*
X83954209Y-48189848D02*
X84001828Y-48142229D01*
X84001828Y-48142229D02*
X84049447Y-48046991D01*
X84049447Y-48046991D02*
X84049447Y-47951753D01*
X75095238Y-111831504D02*
X74619048Y-111831504D01*
X75190476Y-112117219D02*
X74857143Y-111117219D01*
X74857143Y-111117219D02*
X74523810Y-112117219D01*
X73761905Y-112069600D02*
X73857143Y-112117219D01*
X73857143Y-112117219D02*
X74047619Y-112117219D01*
X74047619Y-112117219D02*
X74142857Y-112069600D01*
X74142857Y-112069600D02*
X74190476Y-112021980D01*
X74190476Y-112021980D02*
X74238095Y-111926742D01*
X74238095Y-111926742D02*
X74238095Y-111641028D01*
X74238095Y-111641028D02*
X74190476Y-111545790D01*
X74190476Y-111545790D02*
X74142857Y-111498171D01*
X74142857Y-111498171D02*
X74047619Y-111450552D01*
X74047619Y-111450552D02*
X73857143Y-111450552D01*
X73857143Y-111450552D02*
X73761905Y-111498171D01*
X72904762Y-112069600D02*
X73000000Y-112117219D01*
X73000000Y-112117219D02*
X73190476Y-112117219D01*
X73190476Y-112117219D02*
X73285714Y-112069600D01*
X73285714Y-112069600D02*
X73333333Y-112021980D01*
X73333333Y-112021980D02*
X73380952Y-111926742D01*
X73380952Y-111926742D02*
X73380952Y-111641028D01*
X73380952Y-111641028D02*
X73333333Y-111545790D01*
X73333333Y-111545790D02*
X73285714Y-111498171D01*
X73285714Y-111498171D02*
X73190476Y-111450552D01*
X73190476Y-111450552D02*
X73000000Y-111450552D01*
X73000000Y-111450552D02*
X72904762Y-111498171D01*
X72095238Y-112069600D02*
X72190476Y-112117219D01*
X72190476Y-112117219D02*
X72380952Y-112117219D01*
X72380952Y-112117219D02*
X72476190Y-112069600D01*
X72476190Y-112069600D02*
X72523809Y-111974361D01*
X72523809Y-111974361D02*
X72523809Y-111593409D01*
X72523809Y-111593409D02*
X72476190Y-111498171D01*
X72476190Y-111498171D02*
X72380952Y-111450552D01*
X72380952Y-111450552D02*
X72190476Y-111450552D01*
X72190476Y-111450552D02*
X72095238Y-111498171D01*
X72095238Y-111498171D02*
X72047619Y-111593409D01*
X72047619Y-111593409D02*
X72047619Y-111688647D01*
X72047619Y-111688647D02*
X72523809Y-111783885D01*
X71476190Y-112117219D02*
X71571428Y-112069600D01*
X71571428Y-112069600D02*
X71619047Y-111974361D01*
X71619047Y-111974361D02*
X71619047Y-111117219D01*
X70714285Y-112069600D02*
X70809523Y-112117219D01*
X70809523Y-112117219D02*
X70999999Y-112117219D01*
X70999999Y-112117219D02*
X71095237Y-112069600D01*
X71095237Y-112069600D02*
X71142856Y-111974361D01*
X71142856Y-111974361D02*
X71142856Y-111593409D01*
X71142856Y-111593409D02*
X71095237Y-111498171D01*
X71095237Y-111498171D02*
X70999999Y-111450552D01*
X70999999Y-111450552D02*
X70809523Y-111450552D01*
X70809523Y-111450552D02*
X70714285Y-111498171D01*
X70714285Y-111498171D02*
X70666666Y-111593409D01*
X70666666Y-111593409D02*
X70666666Y-111688647D01*
X70666666Y-111688647D02*
X71142856Y-111783885D01*
X70238094Y-112117219D02*
X70238094Y-111450552D01*
X70238094Y-111641028D02*
X70190475Y-111545790D01*
X70190475Y-111545790D02*
X70142856Y-111498171D01*
X70142856Y-111498171D02*
X70047618Y-111450552D01*
X70047618Y-111450552D02*
X69952380Y-111450552D01*
X69476189Y-112117219D02*
X69571427Y-112069600D01*
X69571427Y-112069600D02*
X69619046Y-112021980D01*
X69619046Y-112021980D02*
X69666665Y-111926742D01*
X69666665Y-111926742D02*
X69666665Y-111641028D01*
X69666665Y-111641028D02*
X69619046Y-111545790D01*
X69619046Y-111545790D02*
X69571427Y-111498171D01*
X69571427Y-111498171D02*
X69476189Y-111450552D01*
X69476189Y-111450552D02*
X69333332Y-111450552D01*
X69333332Y-111450552D02*
X69238094Y-111498171D01*
X69238094Y-111498171D02*
X69190475Y-111545790D01*
X69190475Y-111545790D02*
X69142856Y-111641028D01*
X69142856Y-111641028D02*
X69142856Y-111926742D01*
X69142856Y-111926742D02*
X69190475Y-112021980D01*
X69190475Y-112021980D02*
X69238094Y-112069600D01*
X69238094Y-112069600D02*
X69333332Y-112117219D01*
X69333332Y-112117219D02*
X69476189Y-112117219D01*
X68714284Y-112117219D02*
X68714284Y-111450552D01*
X68714284Y-111545790D02*
X68666665Y-111498171D01*
X68666665Y-111498171D02*
X68571427Y-111450552D01*
X68571427Y-111450552D02*
X68428570Y-111450552D01*
X68428570Y-111450552D02*
X68333332Y-111498171D01*
X68333332Y-111498171D02*
X68285713Y-111593409D01*
X68285713Y-111593409D02*
X68285713Y-112117219D01*
X68285713Y-111593409D02*
X68238094Y-111498171D01*
X68238094Y-111498171D02*
X68142856Y-111450552D01*
X68142856Y-111450552D02*
X67999999Y-111450552D01*
X67999999Y-111450552D02*
X67904760Y-111498171D01*
X67904760Y-111498171D02*
X67857141Y-111593409D01*
X67857141Y-111593409D02*
X67857141Y-112117219D01*
X66999999Y-112069600D02*
X67095237Y-112117219D01*
X67095237Y-112117219D02*
X67285713Y-112117219D01*
X67285713Y-112117219D02*
X67380951Y-112069600D01*
X67380951Y-112069600D02*
X67428570Y-111974361D01*
X67428570Y-111974361D02*
X67428570Y-111593409D01*
X67428570Y-111593409D02*
X67380951Y-111498171D01*
X67380951Y-111498171D02*
X67285713Y-111450552D01*
X67285713Y-111450552D02*
X67095237Y-111450552D01*
X67095237Y-111450552D02*
X66999999Y-111498171D01*
X66999999Y-111498171D02*
X66952380Y-111593409D01*
X66952380Y-111593409D02*
X66952380Y-111688647D01*
X66952380Y-111688647D02*
X67428570Y-111783885D01*
X66666665Y-111450552D02*
X66285713Y-111450552D01*
X66523808Y-111117219D02*
X66523808Y-111974361D01*
X66523808Y-111974361D02*
X66476189Y-112069600D01*
X66476189Y-112069600D02*
X66380951Y-112117219D01*
X66380951Y-112117219D02*
X66285713Y-112117219D01*
X65571427Y-112069600D02*
X65666665Y-112117219D01*
X65666665Y-112117219D02*
X65857141Y-112117219D01*
X65857141Y-112117219D02*
X65952379Y-112069600D01*
X65952379Y-112069600D02*
X65999998Y-111974361D01*
X65999998Y-111974361D02*
X65999998Y-111593409D01*
X65999998Y-111593409D02*
X65952379Y-111498171D01*
X65952379Y-111498171D02*
X65857141Y-111450552D01*
X65857141Y-111450552D02*
X65666665Y-111450552D01*
X65666665Y-111450552D02*
X65571427Y-111498171D01*
X65571427Y-111498171D02*
X65523808Y-111593409D01*
X65523808Y-111593409D02*
X65523808Y-111688647D01*
X65523808Y-111688647D02*
X65999998Y-111783885D01*
X65095236Y-112117219D02*
X65095236Y-111450552D01*
X65095236Y-111641028D02*
X65047617Y-111545790D01*
X65047617Y-111545790D02*
X64999998Y-111498171D01*
X64999998Y-111498171D02*
X64904760Y-111450552D01*
X64904760Y-111450552D02*
X64809522Y-111450552D01*
D11*
X67139411Y-45917438D02*
X67234649Y-45869819D01*
X67234649Y-45869819D02*
X67377506Y-45869819D01*
X67377506Y-45869819D02*
X67520363Y-45917438D01*
X67520363Y-45917438D02*
X67615601Y-46012676D01*
X67615601Y-46012676D02*
X67663220Y-46107914D01*
X67663220Y-46107914D02*
X67710839Y-46298390D01*
X67710839Y-46298390D02*
X67710839Y-46441247D01*
X67710839Y-46441247D02*
X67663220Y-46631723D01*
X67663220Y-46631723D02*
X67615601Y-46726961D01*
X67615601Y-46726961D02*
X67520363Y-46822200D01*
X67520363Y-46822200D02*
X67377506Y-46869819D01*
X67377506Y-46869819D02*
X67282268Y-46869819D01*
X67282268Y-46869819D02*
X67139411Y-46822200D01*
X67139411Y-46822200D02*
X67091792Y-46774580D01*
X67091792Y-46774580D02*
X67091792Y-46441247D01*
X67091792Y-46441247D02*
X67282268Y-46441247D01*
X66663220Y-46869819D02*
X66663220Y-45869819D01*
X66663220Y-45869819D02*
X66091792Y-46869819D01*
X66091792Y-46869819D02*
X66091792Y-45869819D01*
X65615601Y-46869819D02*
X65615601Y-45869819D01*
X65615601Y-45869819D02*
X65377506Y-45869819D01*
X65377506Y-45869819D02*
X65234649Y-45917438D01*
X65234649Y-45917438D02*
X65139411Y-46012676D01*
X65139411Y-46012676D02*
X65091792Y-46107914D01*
X65091792Y-46107914D02*
X65044173Y-46298390D01*
X65044173Y-46298390D02*
X65044173Y-46441247D01*
X65044173Y-46441247D02*
X65091792Y-46631723D01*
X65091792Y-46631723D02*
X65139411Y-46726961D01*
X65139411Y-46726961D02*
X65234649Y-46822200D01*
X65234649Y-46822200D02*
X65377506Y-46869819D01*
X65377506Y-46869819D02*
X65615601Y-46869819D01*
X75163220Y-46488866D02*
X74401316Y-46488866D01*
X74782268Y-46869819D02*
X74782268Y-46107914D01*
X73448935Y-45869819D02*
X73925125Y-45869819D01*
X73925125Y-45869819D02*
X73972744Y-46346009D01*
X73972744Y-46346009D02*
X73925125Y-46298390D01*
X73925125Y-46298390D02*
X73829887Y-46250771D01*
X73829887Y-46250771D02*
X73591792Y-46250771D01*
X73591792Y-46250771D02*
X73496554Y-46298390D01*
X73496554Y-46298390D02*
X73448935Y-46346009D01*
X73448935Y-46346009D02*
X73401316Y-46441247D01*
X73401316Y-46441247D02*
X73401316Y-46679342D01*
X73401316Y-46679342D02*
X73448935Y-46774580D01*
X73448935Y-46774580D02*
X73496554Y-46822200D01*
X73496554Y-46822200D02*
X73591792Y-46869819D01*
X73591792Y-46869819D02*
X73829887Y-46869819D01*
X73829887Y-46869819D02*
X73925125Y-46822200D01*
X73925125Y-46822200D02*
X73972744Y-46774580D01*
X73115601Y-45869819D02*
X72782268Y-46869819D01*
X72782268Y-46869819D02*
X72448935Y-45869819D01*
D10*
X80464287Y-76914838D02*
X80559525Y-76867219D01*
X80559525Y-76867219D02*
X80702382Y-76867219D01*
X80702382Y-76867219D02*
X80845239Y-76914838D01*
X80845239Y-76914838D02*
X80940477Y-77010076D01*
X80940477Y-77010076D02*
X80988096Y-77105314D01*
X80988096Y-77105314D02*
X81035715Y-77295790D01*
X81035715Y-77295790D02*
X81035715Y-77438647D01*
X81035715Y-77438647D02*
X80988096Y-77629123D01*
X80988096Y-77629123D02*
X80940477Y-77724361D01*
X80940477Y-77724361D02*
X80845239Y-77819600D01*
X80845239Y-77819600D02*
X80702382Y-77867219D01*
X80702382Y-77867219D02*
X80607144Y-77867219D01*
X80607144Y-77867219D02*
X80464287Y-77819600D01*
X80464287Y-77819600D02*
X80416668Y-77771980D01*
X80416668Y-77771980D02*
X80416668Y-77438647D01*
X80416668Y-77438647D02*
X80607144Y-77438647D01*
X79607144Y-77819600D02*
X79702382Y-77867219D01*
X79702382Y-77867219D02*
X79892858Y-77867219D01*
X79892858Y-77867219D02*
X79988096Y-77819600D01*
X79988096Y-77819600D02*
X80035715Y-77724361D01*
X80035715Y-77724361D02*
X80035715Y-77343409D01*
X80035715Y-77343409D02*
X79988096Y-77248171D01*
X79988096Y-77248171D02*
X79892858Y-77200552D01*
X79892858Y-77200552D02*
X79702382Y-77200552D01*
X79702382Y-77200552D02*
X79607144Y-77248171D01*
X79607144Y-77248171D02*
X79559525Y-77343409D01*
X79559525Y-77343409D02*
X79559525Y-77438647D01*
X79559525Y-77438647D02*
X80035715Y-77533885D01*
X79130953Y-77200552D02*
X79130953Y-77867219D01*
X79130953Y-77295790D02*
X79083334Y-77248171D01*
X79083334Y-77248171D02*
X78988096Y-77200552D01*
X78988096Y-77200552D02*
X78845239Y-77200552D01*
X78845239Y-77200552D02*
X78750001Y-77248171D01*
X78750001Y-77248171D02*
X78702382Y-77343409D01*
X78702382Y-77343409D02*
X78702382Y-77867219D01*
X77845239Y-77819600D02*
X77940477Y-77867219D01*
X77940477Y-77867219D02*
X78130953Y-77867219D01*
X78130953Y-77867219D02*
X78226191Y-77819600D01*
X78226191Y-77819600D02*
X78273810Y-77724361D01*
X78273810Y-77724361D02*
X78273810Y-77343409D01*
X78273810Y-77343409D02*
X78226191Y-77248171D01*
X78226191Y-77248171D02*
X78130953Y-77200552D01*
X78130953Y-77200552D02*
X77940477Y-77200552D01*
X77940477Y-77200552D02*
X77845239Y-77248171D01*
X77845239Y-77248171D02*
X77797620Y-77343409D01*
X77797620Y-77343409D02*
X77797620Y-77438647D01*
X77797620Y-77438647D02*
X78273810Y-77533885D01*
X77369048Y-77867219D02*
X77369048Y-77200552D01*
X77369048Y-77391028D02*
X77321429Y-77295790D01*
X77321429Y-77295790D02*
X77273810Y-77248171D01*
X77273810Y-77248171D02*
X77178572Y-77200552D01*
X77178572Y-77200552D02*
X77083334Y-77200552D01*
X76607143Y-77867219D02*
X76702381Y-77819600D01*
X76702381Y-77819600D02*
X76750000Y-77771980D01*
X76750000Y-77771980D02*
X76797619Y-77676742D01*
X76797619Y-77676742D02*
X76797619Y-77391028D01*
X76797619Y-77391028D02*
X76750000Y-77295790D01*
X76750000Y-77295790D02*
X76702381Y-77248171D01*
X76702381Y-77248171D02*
X76607143Y-77200552D01*
X76607143Y-77200552D02*
X76464286Y-77200552D01*
X76464286Y-77200552D02*
X76369048Y-77248171D01*
X76369048Y-77248171D02*
X76321429Y-77295790D01*
X76321429Y-77295790D02*
X76273810Y-77391028D01*
X76273810Y-77391028D02*
X76273810Y-77676742D01*
X76273810Y-77676742D02*
X76321429Y-77771980D01*
X76321429Y-77771980D02*
X76369048Y-77819600D01*
X76369048Y-77819600D02*
X76464286Y-77867219D01*
X76464286Y-77867219D02*
X76607143Y-77867219D01*
X75416667Y-77200552D02*
X75416667Y-77867219D01*
X75845238Y-77200552D02*
X75845238Y-77724361D01*
X75845238Y-77724361D02*
X75797619Y-77819600D01*
X75797619Y-77819600D02*
X75702381Y-77867219D01*
X75702381Y-77867219D02*
X75559524Y-77867219D01*
X75559524Y-77867219D02*
X75464286Y-77819600D01*
X75464286Y-77819600D02*
X75416667Y-77771980D01*
X74988095Y-77819600D02*
X74892857Y-77867219D01*
X74892857Y-77867219D02*
X74702381Y-77867219D01*
X74702381Y-77867219D02*
X74607143Y-77819600D01*
X74607143Y-77819600D02*
X74559524Y-77724361D01*
X74559524Y-77724361D02*
X74559524Y-77676742D01*
X74559524Y-77676742D02*
X74607143Y-77581504D01*
X74607143Y-77581504D02*
X74702381Y-77533885D01*
X74702381Y-77533885D02*
X74845238Y-77533885D01*
X74845238Y-77533885D02*
X74940476Y-77486266D01*
X74940476Y-77486266D02*
X74988095Y-77391028D01*
X74988095Y-77391028D02*
X74988095Y-77343409D01*
X74988095Y-77343409D02*
X74940476Y-77248171D01*
X74940476Y-77248171D02*
X74845238Y-77200552D01*
X74845238Y-77200552D02*
X74702381Y-77200552D01*
X74702381Y-77200552D02*
X74607143Y-77248171D01*
X73988095Y-77867219D02*
X74083333Y-77819600D01*
X74083333Y-77819600D02*
X74130952Y-77724361D01*
X74130952Y-77724361D02*
X74130952Y-76867219D01*
X73702380Y-77200552D02*
X73464285Y-77867219D01*
X73226190Y-77200552D02*
X73464285Y-77867219D01*
X73464285Y-77867219D02*
X73559523Y-78105314D01*
X73559523Y-78105314D02*
X73607142Y-78152933D01*
X73607142Y-78152933D02*
X73702380Y-78200552D01*
X72130951Y-77819600D02*
X72035713Y-77867219D01*
X72035713Y-77867219D02*
X71845237Y-77867219D01*
X71845237Y-77867219D02*
X71749999Y-77819600D01*
X71749999Y-77819600D02*
X71702380Y-77724361D01*
X71702380Y-77724361D02*
X71702380Y-77676742D01*
X71702380Y-77676742D02*
X71749999Y-77581504D01*
X71749999Y-77581504D02*
X71845237Y-77533885D01*
X71845237Y-77533885D02*
X71988094Y-77533885D01*
X71988094Y-77533885D02*
X72083332Y-77486266D01*
X72083332Y-77486266D02*
X72130951Y-77391028D01*
X72130951Y-77391028D02*
X72130951Y-77343409D01*
X72130951Y-77343409D02*
X72083332Y-77248171D01*
X72083332Y-77248171D02*
X71988094Y-77200552D01*
X71988094Y-77200552D02*
X71845237Y-77200552D01*
X71845237Y-77200552D02*
X71749999Y-77248171D01*
X71273808Y-77200552D02*
X71273808Y-78200552D01*
X71273808Y-77248171D02*
X71178570Y-77200552D01*
X71178570Y-77200552D02*
X70988094Y-77200552D01*
X70988094Y-77200552D02*
X70892856Y-77248171D01*
X70892856Y-77248171D02*
X70845237Y-77295790D01*
X70845237Y-77295790D02*
X70797618Y-77391028D01*
X70797618Y-77391028D02*
X70797618Y-77676742D01*
X70797618Y-77676742D02*
X70845237Y-77771980D01*
X70845237Y-77771980D02*
X70892856Y-77819600D01*
X70892856Y-77819600D02*
X70988094Y-77867219D01*
X70988094Y-77867219D02*
X71178570Y-77867219D01*
X71178570Y-77867219D02*
X71273808Y-77819600D01*
X70226189Y-77867219D02*
X70321427Y-77819600D01*
X70321427Y-77819600D02*
X70369046Y-77771980D01*
X70369046Y-77771980D02*
X70416665Y-77676742D01*
X70416665Y-77676742D02*
X70416665Y-77391028D01*
X70416665Y-77391028D02*
X70369046Y-77295790D01*
X70369046Y-77295790D02*
X70321427Y-77248171D01*
X70321427Y-77248171D02*
X70226189Y-77200552D01*
X70226189Y-77200552D02*
X70083332Y-77200552D01*
X70083332Y-77200552D02*
X69988094Y-77248171D01*
X69988094Y-77248171D02*
X69940475Y-77295790D01*
X69940475Y-77295790D02*
X69892856Y-77391028D01*
X69892856Y-77391028D02*
X69892856Y-77676742D01*
X69892856Y-77676742D02*
X69940475Y-77771980D01*
X69940475Y-77771980D02*
X69988094Y-77819600D01*
X69988094Y-77819600D02*
X70083332Y-77867219D01*
X70083332Y-77867219D02*
X70226189Y-77867219D01*
X69464284Y-77200552D02*
X69464284Y-77867219D01*
X69464284Y-77295790D02*
X69416665Y-77248171D01*
X69416665Y-77248171D02*
X69321427Y-77200552D01*
X69321427Y-77200552D02*
X69178570Y-77200552D01*
X69178570Y-77200552D02*
X69083332Y-77248171D01*
X69083332Y-77248171D02*
X69035713Y-77343409D01*
X69035713Y-77343409D02*
X69035713Y-77867219D01*
X68607141Y-77819600D02*
X68511903Y-77867219D01*
X68511903Y-77867219D02*
X68321427Y-77867219D01*
X68321427Y-77867219D02*
X68226189Y-77819600D01*
X68226189Y-77819600D02*
X68178570Y-77724361D01*
X68178570Y-77724361D02*
X68178570Y-77676742D01*
X68178570Y-77676742D02*
X68226189Y-77581504D01*
X68226189Y-77581504D02*
X68321427Y-77533885D01*
X68321427Y-77533885D02*
X68464284Y-77533885D01*
X68464284Y-77533885D02*
X68559522Y-77486266D01*
X68559522Y-77486266D02*
X68607141Y-77391028D01*
X68607141Y-77391028D02*
X68607141Y-77343409D01*
X68607141Y-77343409D02*
X68559522Y-77248171D01*
X68559522Y-77248171D02*
X68464284Y-77200552D01*
X68464284Y-77200552D02*
X68321427Y-77200552D01*
X68321427Y-77200552D02*
X68226189Y-77248171D01*
X67607141Y-77867219D02*
X67702379Y-77819600D01*
X67702379Y-77819600D02*
X67749998Y-77771980D01*
X67749998Y-77771980D02*
X67797617Y-77676742D01*
X67797617Y-77676742D02*
X67797617Y-77391028D01*
X67797617Y-77391028D02*
X67749998Y-77295790D01*
X67749998Y-77295790D02*
X67702379Y-77248171D01*
X67702379Y-77248171D02*
X67607141Y-77200552D01*
X67607141Y-77200552D02*
X67464284Y-77200552D01*
X67464284Y-77200552D02*
X67369046Y-77248171D01*
X67369046Y-77248171D02*
X67321427Y-77295790D01*
X67321427Y-77295790D02*
X67273808Y-77391028D01*
X67273808Y-77391028D02*
X67273808Y-77676742D01*
X67273808Y-77676742D02*
X67321427Y-77771980D01*
X67321427Y-77771980D02*
X67369046Y-77819600D01*
X67369046Y-77819600D02*
X67464284Y-77867219D01*
X67464284Y-77867219D02*
X67607141Y-77867219D01*
X66845236Y-77867219D02*
X66845236Y-77200552D01*
X66845236Y-77391028D02*
X66797617Y-77295790D01*
X66797617Y-77295790D02*
X66749998Y-77248171D01*
X66749998Y-77248171D02*
X66654760Y-77200552D01*
X66654760Y-77200552D02*
X66559522Y-77200552D01*
X65845236Y-77819600D02*
X65940474Y-77867219D01*
X65940474Y-77867219D02*
X66130950Y-77867219D01*
X66130950Y-77867219D02*
X66226188Y-77819600D01*
X66226188Y-77819600D02*
X66273807Y-77724361D01*
X66273807Y-77724361D02*
X66273807Y-77343409D01*
X66273807Y-77343409D02*
X66226188Y-77248171D01*
X66226188Y-77248171D02*
X66130950Y-77200552D01*
X66130950Y-77200552D02*
X65940474Y-77200552D01*
X65940474Y-77200552D02*
X65845236Y-77248171D01*
X65845236Y-77248171D02*
X65797617Y-77343409D01*
X65797617Y-77343409D02*
X65797617Y-77438647D01*
X65797617Y-77438647D02*
X66273807Y-77533885D01*
X64940474Y-77867219D02*
X64940474Y-76867219D01*
X64940474Y-77819600D02*
X65035712Y-77867219D01*
X65035712Y-77867219D02*
X65226188Y-77867219D01*
X65226188Y-77867219D02*
X65321426Y-77819600D01*
X65321426Y-77819600D02*
X65369045Y-77771980D01*
X65369045Y-77771980D02*
X65416664Y-77676742D01*
X65416664Y-77676742D02*
X65416664Y-77391028D01*
X65416664Y-77391028D02*
X65369045Y-77295790D01*
X65369045Y-77295790D02*
X65321426Y-77248171D01*
X65321426Y-77248171D02*
X65226188Y-77200552D01*
X65226188Y-77200552D02*
X65035712Y-77200552D01*
X65035712Y-77200552D02*
X64940474Y-77248171D01*
X63702378Y-77867219D02*
X63702378Y-76867219D01*
X63702378Y-77248171D02*
X63607140Y-77200552D01*
X63607140Y-77200552D02*
X63416664Y-77200552D01*
X63416664Y-77200552D02*
X63321426Y-77248171D01*
X63321426Y-77248171D02*
X63273807Y-77295790D01*
X63273807Y-77295790D02*
X63226188Y-77391028D01*
X63226188Y-77391028D02*
X63226188Y-77676742D01*
X63226188Y-77676742D02*
X63273807Y-77771980D01*
X63273807Y-77771980D02*
X63321426Y-77819600D01*
X63321426Y-77819600D02*
X63416664Y-77867219D01*
X63416664Y-77867219D02*
X63607140Y-77867219D01*
X63607140Y-77867219D02*
X63702378Y-77819600D01*
X62892854Y-77200552D02*
X62654759Y-77867219D01*
X62416664Y-77200552D02*
X62654759Y-77867219D01*
X62654759Y-77867219D02*
X62749997Y-78105314D01*
X62749997Y-78105314D02*
X62797616Y-78152933D01*
X62797616Y-78152933D02*
X62892854Y-78200552D01*
D11*
X69583333Y-67454819D02*
X69583333Y-68169104D01*
X69583333Y-68169104D02*
X69630952Y-68311961D01*
X69630952Y-68311961D02*
X69726190Y-68407200D01*
X69726190Y-68407200D02*
X69869047Y-68454819D01*
X69869047Y-68454819D02*
X69964285Y-68454819D01*
X69107142Y-68454819D02*
X69107142Y-67454819D01*
X69107142Y-67454819D02*
X68726190Y-67454819D01*
X68726190Y-67454819D02*
X68630952Y-67502438D01*
X68630952Y-67502438D02*
X68583333Y-67550057D01*
X68583333Y-67550057D02*
X68535714Y-67645295D01*
X68535714Y-67645295D02*
X68535714Y-67788152D01*
X68535714Y-67788152D02*
X68583333Y-67883390D01*
X68583333Y-67883390D02*
X68630952Y-67931009D01*
X68630952Y-67931009D02*
X68726190Y-67978628D01*
X68726190Y-67978628D02*
X69107142Y-67978628D01*
X67583333Y-68454819D02*
X68154761Y-68454819D01*
X67869047Y-68454819D02*
X67869047Y-67454819D01*
X67869047Y-67454819D02*
X67964285Y-67597676D01*
X67964285Y-67597676D02*
X68059523Y-67692914D01*
X68059523Y-67692914D02*
X68154761Y-67740533D01*
X83333333Y-70954819D02*
X83333333Y-71669104D01*
X83333333Y-71669104D02*
X83380952Y-71811961D01*
X83380952Y-71811961D02*
X83476190Y-71907200D01*
X83476190Y-71907200D02*
X83619047Y-71954819D01*
X83619047Y-71954819D02*
X83714285Y-71954819D01*
X82857142Y-71954819D02*
X82857142Y-70954819D01*
X82857142Y-70954819D02*
X82476190Y-70954819D01*
X82476190Y-70954819D02*
X82380952Y-71002438D01*
X82380952Y-71002438D02*
X82333333Y-71050057D01*
X82333333Y-71050057D02*
X82285714Y-71145295D01*
X82285714Y-71145295D02*
X82285714Y-71288152D01*
X82285714Y-71288152D02*
X82333333Y-71383390D01*
X82333333Y-71383390D02*
X82380952Y-71431009D01*
X82380952Y-71431009D02*
X82476190Y-71478628D01*
X82476190Y-71478628D02*
X82857142Y-71478628D01*
X81904761Y-71050057D02*
X81857142Y-71002438D01*
X81857142Y-71002438D02*
X81761904Y-70954819D01*
X81761904Y-70954819D02*
X81523809Y-70954819D01*
X81523809Y-70954819D02*
X81428571Y-71002438D01*
X81428571Y-71002438D02*
X81380952Y-71050057D01*
X81380952Y-71050057D02*
X81333333Y-71145295D01*
X81333333Y-71145295D02*
X81333333Y-71240533D01*
X81333333Y-71240533D02*
X81380952Y-71383390D01*
X81380952Y-71383390D02*
X81952380Y-71954819D01*
X81952380Y-71954819D02*
X81333333Y-71954819D01*
X74666666Y-74704819D02*
X74999999Y-74228628D01*
X75238094Y-74704819D02*
X75238094Y-73704819D01*
X75238094Y-73704819D02*
X74857142Y-73704819D01*
X74857142Y-73704819D02*
X74761904Y-73752438D01*
X74761904Y-73752438D02*
X74714285Y-73800057D01*
X74714285Y-73800057D02*
X74666666Y-73895295D01*
X74666666Y-73895295D02*
X74666666Y-74038152D01*
X74666666Y-74038152D02*
X74714285Y-74133390D01*
X74714285Y-74133390D02*
X74761904Y-74181009D01*
X74761904Y-74181009D02*
X74857142Y-74228628D01*
X74857142Y-74228628D02*
X75238094Y-74228628D01*
X74333332Y-73704819D02*
X73666666Y-73704819D01*
X73666666Y-73704819D02*
X74095237Y-74704819D01*
X74666666Y-72454819D02*
X74999999Y-71978628D01*
X75238094Y-72454819D02*
X75238094Y-71454819D01*
X75238094Y-71454819D02*
X74857142Y-71454819D01*
X74857142Y-71454819D02*
X74761904Y-71502438D01*
X74761904Y-71502438D02*
X74714285Y-71550057D01*
X74714285Y-71550057D02*
X74666666Y-71645295D01*
X74666666Y-71645295D02*
X74666666Y-71788152D01*
X74666666Y-71788152D02*
X74714285Y-71883390D01*
X74714285Y-71883390D02*
X74761904Y-71931009D01*
X74761904Y-71931009D02*
X74857142Y-71978628D01*
X74857142Y-71978628D02*
X75238094Y-71978628D01*
X73809523Y-71454819D02*
X73999999Y-71454819D01*
X73999999Y-71454819D02*
X74095237Y-71502438D01*
X74095237Y-71502438D02*
X74142856Y-71550057D01*
X74142856Y-71550057D02*
X74238094Y-71692914D01*
X74238094Y-71692914D02*
X74285713Y-71883390D01*
X74285713Y-71883390D02*
X74285713Y-72264342D01*
X74285713Y-72264342D02*
X74238094Y-72359580D01*
X74238094Y-72359580D02*
X74190475Y-72407200D01*
X74190475Y-72407200D02*
X74095237Y-72454819D01*
X74095237Y-72454819D02*
X73904761Y-72454819D01*
X73904761Y-72454819D02*
X73809523Y-72407200D01*
X73809523Y-72407200D02*
X73761904Y-72359580D01*
X73761904Y-72359580D02*
X73714285Y-72264342D01*
X73714285Y-72264342D02*
X73714285Y-72026247D01*
X73714285Y-72026247D02*
X73761904Y-71931009D01*
X73761904Y-71931009D02*
X73809523Y-71883390D01*
X73809523Y-71883390D02*
X73904761Y-71835771D01*
X73904761Y-71835771D02*
X74095237Y-71835771D01*
X74095237Y-71835771D02*
X74190475Y-71883390D01*
X74190475Y-71883390D02*
X74238094Y-71931009D01*
X74238094Y-71931009D02*
X74285713Y-72026247D01*
X81166666Y-46954819D02*
X81499999Y-46478628D01*
X81738094Y-46954819D02*
X81738094Y-45954819D01*
X81738094Y-45954819D02*
X81357142Y-45954819D01*
X81357142Y-45954819D02*
X81261904Y-46002438D01*
X81261904Y-46002438D02*
X81214285Y-46050057D01*
X81214285Y-46050057D02*
X81166666Y-46145295D01*
X81166666Y-46145295D02*
X81166666Y-46288152D01*
X81166666Y-46288152D02*
X81214285Y-46383390D01*
X81214285Y-46383390D02*
X81261904Y-46431009D01*
X81261904Y-46431009D02*
X81357142Y-46478628D01*
X81357142Y-46478628D02*
X81738094Y-46478628D01*
X80785713Y-46050057D02*
X80738094Y-46002438D01*
X80738094Y-46002438D02*
X80642856Y-45954819D01*
X80642856Y-45954819D02*
X80404761Y-45954819D01*
X80404761Y-45954819D02*
X80309523Y-46002438D01*
X80309523Y-46002438D02*
X80261904Y-46050057D01*
X80261904Y-46050057D02*
X80214285Y-46145295D01*
X80214285Y-46145295D02*
X80214285Y-46240533D01*
X80214285Y-46240533D02*
X80261904Y-46383390D01*
X80261904Y-46383390D02*
X80833332Y-46954819D01*
X80833332Y-46954819D02*
X80214285Y-46954819D01*
X81666666Y-64359580D02*
X81714285Y-64407200D01*
X81714285Y-64407200D02*
X81857142Y-64454819D01*
X81857142Y-64454819D02*
X81952380Y-64454819D01*
X81952380Y-64454819D02*
X82095237Y-64407200D01*
X82095237Y-64407200D02*
X82190475Y-64311961D01*
X82190475Y-64311961D02*
X82238094Y-64216723D01*
X82238094Y-64216723D02*
X82285713Y-64026247D01*
X82285713Y-64026247D02*
X82285713Y-63883390D01*
X82285713Y-63883390D02*
X82238094Y-63692914D01*
X82238094Y-63692914D02*
X82190475Y-63597676D01*
X82190475Y-63597676D02*
X82095237Y-63502438D01*
X82095237Y-63502438D02*
X81952380Y-63454819D01*
X81952380Y-63454819D02*
X81857142Y-63454819D01*
X81857142Y-63454819D02*
X81714285Y-63502438D01*
X81714285Y-63502438D02*
X81666666Y-63550057D01*
X80714285Y-64454819D02*
X81285713Y-64454819D01*
X80999999Y-64454819D02*
X80999999Y-63454819D01*
X80999999Y-63454819D02*
X81095237Y-63597676D01*
X81095237Y-63597676D02*
X81190475Y-63692914D01*
X81190475Y-63692914D02*
X81285713Y-63740533D01*
X78416666Y-68704819D02*
X78749999Y-68228628D01*
X78988094Y-68704819D02*
X78988094Y-67704819D01*
X78988094Y-67704819D02*
X78607142Y-67704819D01*
X78607142Y-67704819D02*
X78511904Y-67752438D01*
X78511904Y-67752438D02*
X78464285Y-67800057D01*
X78464285Y-67800057D02*
X78416666Y-67895295D01*
X78416666Y-67895295D02*
X78416666Y-68038152D01*
X78416666Y-68038152D02*
X78464285Y-68133390D01*
X78464285Y-68133390D02*
X78511904Y-68181009D01*
X78511904Y-68181009D02*
X78607142Y-68228628D01*
X78607142Y-68228628D02*
X78988094Y-68228628D01*
X77511904Y-67704819D02*
X77988094Y-67704819D01*
X77988094Y-67704819D02*
X78035713Y-68181009D01*
X78035713Y-68181009D02*
X77988094Y-68133390D01*
X77988094Y-68133390D02*
X77892856Y-68085771D01*
X77892856Y-68085771D02*
X77654761Y-68085771D01*
X77654761Y-68085771D02*
X77559523Y-68133390D01*
X77559523Y-68133390D02*
X77511904Y-68181009D01*
X77511904Y-68181009D02*
X77464285Y-68276247D01*
X77464285Y-68276247D02*
X77464285Y-68514342D01*
X77464285Y-68514342D02*
X77511904Y-68609580D01*
X77511904Y-68609580D02*
X77559523Y-68657200D01*
X77559523Y-68657200D02*
X77654761Y-68704819D01*
X77654761Y-68704819D02*
X77892856Y-68704819D01*
X77892856Y-68704819D02*
X77988094Y-68657200D01*
X77988094Y-68657200D02*
X78035713Y-68609580D01*
X81666666Y-57609580D02*
X81714285Y-57657200D01*
X81714285Y-57657200D02*
X81857142Y-57704819D01*
X81857142Y-57704819D02*
X81952380Y-57704819D01*
X81952380Y-57704819D02*
X82095237Y-57657200D01*
X82095237Y-57657200D02*
X82190475Y-57561961D01*
X82190475Y-57561961D02*
X82238094Y-57466723D01*
X82238094Y-57466723D02*
X82285713Y-57276247D01*
X82285713Y-57276247D02*
X82285713Y-57133390D01*
X82285713Y-57133390D02*
X82238094Y-56942914D01*
X82238094Y-56942914D02*
X82190475Y-56847676D01*
X82190475Y-56847676D02*
X82095237Y-56752438D01*
X82095237Y-56752438D02*
X81952380Y-56704819D01*
X81952380Y-56704819D02*
X81857142Y-56704819D01*
X81857142Y-56704819D02*
X81714285Y-56752438D01*
X81714285Y-56752438D02*
X81666666Y-56800057D01*
X81285713Y-56800057D02*
X81238094Y-56752438D01*
X81238094Y-56752438D02*
X81142856Y-56704819D01*
X81142856Y-56704819D02*
X80904761Y-56704819D01*
X80904761Y-56704819D02*
X80809523Y-56752438D01*
X80809523Y-56752438D02*
X80761904Y-56800057D01*
X80761904Y-56800057D02*
X80714285Y-56895295D01*
X80714285Y-56895295D02*
X80714285Y-56990533D01*
X80714285Y-56990533D02*
X80761904Y-57133390D01*
X80761904Y-57133390D02*
X81333332Y-57704819D01*
X81333332Y-57704819D02*
X80714285Y-57704819D01*
X80416666Y-52704819D02*
X80749999Y-52228628D01*
X80988094Y-52704819D02*
X80988094Y-51704819D01*
X80988094Y-51704819D02*
X80607142Y-51704819D01*
X80607142Y-51704819D02*
X80511904Y-51752438D01*
X80511904Y-51752438D02*
X80464285Y-51800057D01*
X80464285Y-51800057D02*
X80416666Y-51895295D01*
X80416666Y-51895295D02*
X80416666Y-52038152D01*
X80416666Y-52038152D02*
X80464285Y-52133390D01*
X80464285Y-52133390D02*
X80511904Y-52181009D01*
X80511904Y-52181009D02*
X80607142Y-52228628D01*
X80607142Y-52228628D02*
X80988094Y-52228628D01*
X79464285Y-52704819D02*
X80035713Y-52704819D01*
X79749999Y-52704819D02*
X79749999Y-51704819D01*
X79749999Y-51704819D02*
X79845237Y-51847676D01*
X79845237Y-51847676D02*
X79940475Y-51942914D01*
X79940475Y-51942914D02*
X80035713Y-51990533D01*
X65916666Y-62054819D02*
X66249999Y-61578628D01*
X66488094Y-62054819D02*
X66488094Y-61054819D01*
X66488094Y-61054819D02*
X66107142Y-61054819D01*
X66107142Y-61054819D02*
X66011904Y-61102438D01*
X66011904Y-61102438D02*
X65964285Y-61150057D01*
X65964285Y-61150057D02*
X65916666Y-61245295D01*
X65916666Y-61245295D02*
X65916666Y-61388152D01*
X65916666Y-61388152D02*
X65964285Y-61483390D01*
X65964285Y-61483390D02*
X66011904Y-61531009D01*
X66011904Y-61531009D02*
X66107142Y-61578628D01*
X66107142Y-61578628D02*
X66488094Y-61578628D01*
X65583332Y-61054819D02*
X64964285Y-61054819D01*
X64964285Y-61054819D02*
X65297618Y-61435771D01*
X65297618Y-61435771D02*
X65154761Y-61435771D01*
X65154761Y-61435771D02*
X65059523Y-61483390D01*
X65059523Y-61483390D02*
X65011904Y-61531009D01*
X65011904Y-61531009D02*
X64964285Y-61626247D01*
X64964285Y-61626247D02*
X64964285Y-61864342D01*
X64964285Y-61864342D02*
X65011904Y-61959580D01*
X65011904Y-61959580D02*
X65059523Y-62007200D01*
X65059523Y-62007200D02*
X65154761Y-62054819D01*
X65154761Y-62054819D02*
X65440475Y-62054819D01*
X65440475Y-62054819D02*
X65535713Y-62007200D01*
X65535713Y-62007200D02*
X65583332Y-61959580D01*
X74416666Y-60954819D02*
X74749999Y-60478628D01*
X74988094Y-60954819D02*
X74988094Y-59954819D01*
X74988094Y-59954819D02*
X74607142Y-59954819D01*
X74607142Y-59954819D02*
X74511904Y-60002438D01*
X74511904Y-60002438D02*
X74464285Y-60050057D01*
X74464285Y-60050057D02*
X74416666Y-60145295D01*
X74416666Y-60145295D02*
X74416666Y-60288152D01*
X74416666Y-60288152D02*
X74464285Y-60383390D01*
X74464285Y-60383390D02*
X74511904Y-60431009D01*
X74511904Y-60431009D02*
X74607142Y-60478628D01*
X74607142Y-60478628D02*
X74988094Y-60478628D01*
X73559523Y-60288152D02*
X73559523Y-60954819D01*
X73797618Y-59907200D02*
X74035713Y-60621485D01*
X74035713Y-60621485D02*
X73416666Y-60621485D01*
X74345238Y-63300057D02*
X74440476Y-63252438D01*
X74440476Y-63252438D02*
X74535714Y-63157200D01*
X74535714Y-63157200D02*
X74678571Y-63014342D01*
X74678571Y-63014342D02*
X74773809Y-62966723D01*
X74773809Y-62966723D02*
X74869047Y-62966723D01*
X74821428Y-63204819D02*
X74916666Y-63157200D01*
X74916666Y-63157200D02*
X75011904Y-63061961D01*
X75011904Y-63061961D02*
X75059523Y-62871485D01*
X75059523Y-62871485D02*
X75059523Y-62538152D01*
X75059523Y-62538152D02*
X75011904Y-62347676D01*
X75011904Y-62347676D02*
X74916666Y-62252438D01*
X74916666Y-62252438D02*
X74821428Y-62204819D01*
X74821428Y-62204819D02*
X74630952Y-62204819D01*
X74630952Y-62204819D02*
X74535714Y-62252438D01*
X74535714Y-62252438D02*
X74440476Y-62347676D01*
X74440476Y-62347676D02*
X74392857Y-62538152D01*
X74392857Y-62538152D02*
X74392857Y-62871485D01*
X74392857Y-62871485D02*
X74440476Y-63061961D01*
X74440476Y-63061961D02*
X74535714Y-63157200D01*
X74535714Y-63157200D02*
X74630952Y-63204819D01*
X74630952Y-63204819D02*
X74821428Y-63204819D01*
X74011904Y-62300057D02*
X73964285Y-62252438D01*
X73964285Y-62252438D02*
X73869047Y-62204819D01*
X73869047Y-62204819D02*
X73630952Y-62204819D01*
X73630952Y-62204819D02*
X73535714Y-62252438D01*
X73535714Y-62252438D02*
X73488095Y-62300057D01*
X73488095Y-62300057D02*
X73440476Y-62395295D01*
X73440476Y-62395295D02*
X73440476Y-62490533D01*
X73440476Y-62490533D02*
X73488095Y-62633390D01*
X73488095Y-62633390D02*
X74059523Y-63204819D01*
X74059523Y-63204819D02*
X73440476Y-63204819D01*
X79511904Y-131704819D02*
X79511904Y-132514342D01*
X79511904Y-132514342D02*
X79464285Y-132609580D01*
X79464285Y-132609580D02*
X79416666Y-132657200D01*
X79416666Y-132657200D02*
X79321428Y-132704819D01*
X79321428Y-132704819D02*
X79130952Y-132704819D01*
X79130952Y-132704819D02*
X79035714Y-132657200D01*
X79035714Y-132657200D02*
X78988095Y-132609580D01*
X78988095Y-132609580D02*
X78940476Y-132514342D01*
X78940476Y-132514342D02*
X78940476Y-131704819D01*
X77988095Y-131704819D02*
X78464285Y-131704819D01*
X78464285Y-131704819D02*
X78511904Y-132181009D01*
X78511904Y-132181009D02*
X78464285Y-132133390D01*
X78464285Y-132133390D02*
X78369047Y-132085771D01*
X78369047Y-132085771D02*
X78130952Y-132085771D01*
X78130952Y-132085771D02*
X78035714Y-132133390D01*
X78035714Y-132133390D02*
X77988095Y-132181009D01*
X77988095Y-132181009D02*
X77940476Y-132276247D01*
X77940476Y-132276247D02*
X77940476Y-132514342D01*
X77940476Y-132514342D02*
X77988095Y-132609580D01*
X77988095Y-132609580D02*
X78035714Y-132657200D01*
X78035714Y-132657200D02*
X78130952Y-132704819D01*
X78130952Y-132704819D02*
X78369047Y-132704819D01*
X78369047Y-132704819D02*
X78464285Y-132657200D01*
X78464285Y-132657200D02*
X78511904Y-132609580D01*
X65083333Y-50704819D02*
X65083333Y-51419104D01*
X65083333Y-51419104D02*
X65130952Y-51561961D01*
X65130952Y-51561961D02*
X65226190Y-51657200D01*
X65226190Y-51657200D02*
X65369047Y-51704819D01*
X65369047Y-51704819D02*
X65464285Y-51704819D01*
X64083333Y-51704819D02*
X64654761Y-51704819D01*
X64369047Y-51704819D02*
X64369047Y-50704819D01*
X64369047Y-50704819D02*
X64464285Y-50847676D01*
X64464285Y-50847676D02*
X64559523Y-50942914D01*
X64559523Y-50942914D02*
X64654761Y-50990533D01*
X82011904Y-133954819D02*
X82011904Y-134764342D01*
X82011904Y-134764342D02*
X81964285Y-134859580D01*
X81964285Y-134859580D02*
X81916666Y-134907200D01*
X81916666Y-134907200D02*
X81821428Y-134954819D01*
X81821428Y-134954819D02*
X81630952Y-134954819D01*
X81630952Y-134954819D02*
X81535714Y-134907200D01*
X81535714Y-134907200D02*
X81488095Y-134859580D01*
X81488095Y-134859580D02*
X81440476Y-134764342D01*
X81440476Y-134764342D02*
X81440476Y-133954819D01*
X81059523Y-133954819D02*
X80440476Y-133954819D01*
X80440476Y-133954819D02*
X80773809Y-134335771D01*
X80773809Y-134335771D02*
X80630952Y-134335771D01*
X80630952Y-134335771D02*
X80535714Y-134383390D01*
X80535714Y-134383390D02*
X80488095Y-134431009D01*
X80488095Y-134431009D02*
X80440476Y-134526247D01*
X80440476Y-134526247D02*
X80440476Y-134764342D01*
X80440476Y-134764342D02*
X80488095Y-134859580D01*
X80488095Y-134859580D02*
X80535714Y-134907200D01*
X80535714Y-134907200D02*
X80630952Y-134954819D01*
X80630952Y-134954819D02*
X80916666Y-134954819D01*
X80916666Y-134954819D02*
X81011904Y-134907200D01*
X81011904Y-134907200D02*
X81059523Y-134859580D01*
D10*
X74809524Y-133952219D02*
X74571429Y-134952219D01*
X74571429Y-134952219D02*
X74380953Y-134237933D01*
X74380953Y-134237933D02*
X74190477Y-134952219D01*
X74190477Y-134952219D02*
X73952382Y-133952219D01*
X73142858Y-134952219D02*
X73142858Y-134428409D01*
X73142858Y-134428409D02*
X73190477Y-134333171D01*
X73190477Y-134333171D02*
X73285715Y-134285552D01*
X73285715Y-134285552D02*
X73476191Y-134285552D01*
X73476191Y-134285552D02*
X73571429Y-134333171D01*
X73142858Y-134904600D02*
X73238096Y-134952219D01*
X73238096Y-134952219D02*
X73476191Y-134952219D01*
X73476191Y-134952219D02*
X73571429Y-134904600D01*
X73571429Y-134904600D02*
X73619048Y-134809361D01*
X73619048Y-134809361D02*
X73619048Y-134714123D01*
X73619048Y-134714123D02*
X73571429Y-134618885D01*
X73571429Y-134618885D02*
X73476191Y-134571266D01*
X73476191Y-134571266D02*
X73238096Y-134571266D01*
X73238096Y-134571266D02*
X73142858Y-134523647D01*
X72809524Y-134285552D02*
X72428572Y-134285552D01*
X72666667Y-133952219D02*
X72666667Y-134809361D01*
X72666667Y-134809361D02*
X72619048Y-134904600D01*
X72619048Y-134904600D02*
X72523810Y-134952219D01*
X72523810Y-134952219D02*
X72428572Y-134952219D01*
X71714286Y-134904600D02*
X71809524Y-134952219D01*
X71809524Y-134952219D02*
X72000000Y-134952219D01*
X72000000Y-134952219D02*
X72095238Y-134904600D01*
X72095238Y-134904600D02*
X72142857Y-134809361D01*
X72142857Y-134809361D02*
X72142857Y-134428409D01*
X72142857Y-134428409D02*
X72095238Y-134333171D01*
X72095238Y-134333171D02*
X72000000Y-134285552D01*
X72000000Y-134285552D02*
X71809524Y-134285552D01*
X71809524Y-134285552D02*
X71714286Y-134333171D01*
X71714286Y-134333171D02*
X71666667Y-134428409D01*
X71666667Y-134428409D02*
X71666667Y-134523647D01*
X71666667Y-134523647D02*
X72142857Y-134618885D01*
X71238095Y-134952219D02*
X71238095Y-134285552D01*
X71238095Y-134476028D02*
X71190476Y-134380790D01*
X71190476Y-134380790D02*
X71142857Y-134333171D01*
X71142857Y-134333171D02*
X71047619Y-134285552D01*
X71047619Y-134285552D02*
X70952381Y-134285552D01*
X69904761Y-134904600D02*
X69761904Y-134952219D01*
X69761904Y-134952219D02*
X69523809Y-134952219D01*
X69523809Y-134952219D02*
X69428571Y-134904600D01*
X69428571Y-134904600D02*
X69380952Y-134856980D01*
X69380952Y-134856980D02*
X69333333Y-134761742D01*
X69333333Y-134761742D02*
X69333333Y-134666504D01*
X69333333Y-134666504D02*
X69380952Y-134571266D01*
X69380952Y-134571266D02*
X69428571Y-134523647D01*
X69428571Y-134523647D02*
X69523809Y-134476028D01*
X69523809Y-134476028D02*
X69714285Y-134428409D01*
X69714285Y-134428409D02*
X69809523Y-134380790D01*
X69809523Y-134380790D02*
X69857142Y-134333171D01*
X69857142Y-134333171D02*
X69904761Y-134237933D01*
X69904761Y-134237933D02*
X69904761Y-134142695D01*
X69904761Y-134142695D02*
X69857142Y-134047457D01*
X69857142Y-134047457D02*
X69809523Y-133999838D01*
X69809523Y-133999838D02*
X69714285Y-133952219D01*
X69714285Y-133952219D02*
X69476190Y-133952219D01*
X69476190Y-133952219D02*
X69333333Y-133999838D01*
X68523809Y-134904600D02*
X68619047Y-134952219D01*
X68619047Y-134952219D02*
X68809523Y-134952219D01*
X68809523Y-134952219D02*
X68904761Y-134904600D01*
X68904761Y-134904600D02*
X68952380Y-134809361D01*
X68952380Y-134809361D02*
X68952380Y-134428409D01*
X68952380Y-134428409D02*
X68904761Y-134333171D01*
X68904761Y-134333171D02*
X68809523Y-134285552D01*
X68809523Y-134285552D02*
X68619047Y-134285552D01*
X68619047Y-134285552D02*
X68523809Y-134333171D01*
X68523809Y-134333171D02*
X68476190Y-134428409D01*
X68476190Y-134428409D02*
X68476190Y-134523647D01*
X68476190Y-134523647D02*
X68952380Y-134618885D01*
X68047618Y-134285552D02*
X68047618Y-134952219D01*
X68047618Y-134380790D02*
X67999999Y-134333171D01*
X67999999Y-134333171D02*
X67904761Y-134285552D01*
X67904761Y-134285552D02*
X67761904Y-134285552D01*
X67761904Y-134285552D02*
X67666666Y-134333171D01*
X67666666Y-134333171D02*
X67619047Y-134428409D01*
X67619047Y-134428409D02*
X67619047Y-134952219D01*
X67190475Y-134904600D02*
X67095237Y-134952219D01*
X67095237Y-134952219D02*
X66904761Y-134952219D01*
X66904761Y-134952219D02*
X66809523Y-134904600D01*
X66809523Y-134904600D02*
X66761904Y-134809361D01*
X66761904Y-134809361D02*
X66761904Y-134761742D01*
X66761904Y-134761742D02*
X66809523Y-134666504D01*
X66809523Y-134666504D02*
X66904761Y-134618885D01*
X66904761Y-134618885D02*
X67047618Y-134618885D01*
X67047618Y-134618885D02*
X67142856Y-134571266D01*
X67142856Y-134571266D02*
X67190475Y-134476028D01*
X67190475Y-134476028D02*
X67190475Y-134428409D01*
X67190475Y-134428409D02*
X67142856Y-134333171D01*
X67142856Y-134333171D02*
X67047618Y-134285552D01*
X67047618Y-134285552D02*
X66904761Y-134285552D01*
X66904761Y-134285552D02*
X66809523Y-134333171D01*
X66190475Y-134952219D02*
X66285713Y-134904600D01*
X66285713Y-134904600D02*
X66333332Y-134856980D01*
X66333332Y-134856980D02*
X66380951Y-134761742D01*
X66380951Y-134761742D02*
X66380951Y-134476028D01*
X66380951Y-134476028D02*
X66333332Y-134380790D01*
X66333332Y-134380790D02*
X66285713Y-134333171D01*
X66285713Y-134333171D02*
X66190475Y-134285552D01*
X66190475Y-134285552D02*
X66047618Y-134285552D01*
X66047618Y-134285552D02*
X65952380Y-134333171D01*
X65952380Y-134333171D02*
X65904761Y-134380790D01*
X65904761Y-134380790D02*
X65857142Y-134476028D01*
X65857142Y-134476028D02*
X65857142Y-134761742D01*
X65857142Y-134761742D02*
X65904761Y-134856980D01*
X65904761Y-134856980D02*
X65952380Y-134904600D01*
X65952380Y-134904600D02*
X66047618Y-134952219D01*
X66047618Y-134952219D02*
X66190475Y-134952219D01*
X65428570Y-134952219D02*
X65428570Y-134285552D01*
X65428570Y-134476028D02*
X65380951Y-134380790D01*
X65380951Y-134380790D02*
X65333332Y-134333171D01*
X65333332Y-134333171D02*
X65238094Y-134285552D01*
X65238094Y-134285552D02*
X65142856Y-134285552D01*
%TO.C,JP1*%
D12*
X73175000Y-66750000D02*
X70375000Y-66750000D01*
X73175000Y-68750000D02*
X73175000Y-66750000D01*
X70375000Y-66750000D02*
X70375000Y-68750000D01*
X70375000Y-68750000D02*
X73175000Y-68750000D01*
%TO.C,JP2*%
X83500000Y-70400000D02*
X83500000Y-67600000D01*
X81500000Y-70400000D02*
X83500000Y-70400000D01*
X83500000Y-67600000D02*
X81500000Y-67600000D01*
X81500000Y-67600000D02*
X81500000Y-70400000D01*
%TO.C,R7*%
X71360436Y-74985000D02*
X71814564Y-74985000D01*
X71360436Y-73515000D02*
X71814564Y-73515000D01*
%TO.C,R6*%
X71360436Y-72735000D02*
X71814564Y-72735000D01*
X71360436Y-71265000D02*
X71814564Y-71265000D01*
%TO.C,R2*%
X81227064Y-51375000D02*
X80772936Y-51375000D01*
X81227064Y-49905000D02*
X80772936Y-49905000D01*
%TO.C,C1*%
X80738748Y-65145000D02*
X81261252Y-65145000D01*
X80738748Y-66615000D02*
X81261252Y-66615000D01*
%TO.C,R5*%
X80785000Y-69314564D02*
X80785000Y-68860436D01*
X79315000Y-69314564D02*
X79315000Y-68860436D01*
%TO.C,C2*%
X81177500Y-54488748D02*
X81177500Y-55011252D01*
X82647500Y-54488748D02*
X82647500Y-55011252D01*
%TO.C,R1*%
X80772936Y-47365000D02*
X81227064Y-47365000D01*
X80772936Y-48835000D02*
X81227064Y-48835000D01*
%TO.C,R3*%
X68685000Y-61372936D02*
X68685000Y-61827064D01*
X67215000Y-61372936D02*
X67215000Y-61827064D01*
%TO.C,R4*%
X71022936Y-61185000D02*
X71477064Y-61185000D01*
X71022936Y-59715000D02*
X71477064Y-59715000D01*
%TO.C,Q2*%
X70870000Y-62150000D02*
X71200000Y-62390000D01*
X71200000Y-61910000D01*
X70870000Y-62150000D01*
G36*
X71200000Y-62390000D02*
G01*
X70870000Y-62150000D01*
X71200000Y-61910000D01*
X71200000Y-62390000D01*
G37*
X72810000Y-64210000D02*
X72810000Y-62690000D01*
X72810000Y-62690000D02*
X72760000Y-62690000D01*
X71810000Y-64210000D02*
X72810000Y-64210000D01*
X71640000Y-62690000D02*
X70860000Y-62690000D01*
X69740000Y-62690000D02*
X69690000Y-62690000D01*
X69690000Y-64210000D02*
X70690000Y-64210000D01*
X69690000Y-62690000D02*
X69690000Y-64210000D01*
%TO.C,U5*%
D13*
X62500000Y-113000000D02*
X77500000Y-113000000D01*
X77500000Y-133000000D01*
X62500000Y-133000000D01*
X62500000Y-113000000D01*
%TO.C,J1*%
D12*
X65940000Y-47640000D02*
X66960000Y-47640000D01*
X65940000Y-51890000D02*
X65940000Y-47640000D01*
X66960000Y-47640000D02*
X66960000Y-49240000D01*
X66960000Y-49240000D02*
X68240000Y-49240000D01*
X71760000Y-49240000D02*
X71760000Y-46350000D01*
X72340000Y-55460000D02*
X67660000Y-55460000D01*
X73040000Y-47640000D02*
X73040000Y-49240000D01*
X73040000Y-49240000D02*
X71760000Y-49240000D01*
X74060000Y-47640000D02*
X73040000Y-47640000D01*
X74060000Y-51890000D02*
X74060000Y-47640000D01*
D14*
%TO.C,G\u002A\u002A\u002A*%
G36*
X67502414Y-85522109D02*
G01*
X67502414Y-87745678D01*
X67217341Y-87745678D01*
X66932268Y-87745678D01*
X66932268Y-85522109D01*
X66932268Y-83298540D01*
X67217341Y-83298540D01*
X67502414Y-83298540D01*
X67502414Y-85522109D01*
G37*
G36*
X70495680Y-84253534D02*
G01*
X70495680Y-85208529D01*
X70210607Y-85208529D01*
X69925534Y-85208529D01*
X69925534Y-84253534D01*
X69925534Y-83298540D01*
X70210607Y-83298540D01*
X70495680Y-83298540D01*
X70495680Y-84253534D01*
G37*
G36*
X74572223Y-93048035D02*
G01*
X74572223Y-93418630D01*
X74280023Y-93418523D01*
X74121150Y-93413373D01*
X73969747Y-93390545D01*
X73862546Y-93345412D01*
X73793484Y-93273594D01*
X73756494Y-93170709D01*
X73745512Y-93032375D01*
X73746672Y-92993599D01*
X73767634Y-92900705D01*
X73823907Y-92818913D01*
X73836632Y-92805723D01*
X73888048Y-92805723D01*
X73902302Y-92819977D01*
X73916555Y-92805723D01*
X73902302Y-92791469D01*
X73888048Y-92805723D01*
X73836632Y-92805723D01*
X73843508Y-92798596D01*
X73922375Y-92742279D01*
X74026474Y-92705249D01*
X74166036Y-92684773D01*
X74351292Y-92678120D01*
X74572223Y-92677440D01*
X74572223Y-92805723D01*
X74572223Y-93048035D01*
G37*
G36*
X81756061Y-88999999D02*
G01*
X81756061Y-89163708D01*
X81756061Y-89384848D01*
X81756061Y-89990419D01*
X81756061Y-90525139D01*
X81756061Y-90795837D01*
X81756061Y-91643842D01*
X81756061Y-93519075D01*
X81756061Y-99006060D01*
X71750001Y-99006060D01*
X61743940Y-99006060D01*
X61743940Y-94075710D01*
X65173552Y-94075710D01*
X65206727Y-94261732D01*
X65243614Y-94358570D01*
X65346883Y-94514435D01*
X65488626Y-94636919D01*
X65658684Y-94715816D01*
X65736727Y-94733880D01*
X65895474Y-94751718D01*
X66067322Y-94753469D01*
X66229611Y-94739336D01*
X66359684Y-94709523D01*
X66405120Y-94691252D01*
X66556488Y-94592448D01*
X66680785Y-94447515D01*
X66774579Y-94261304D01*
X66834437Y-94038664D01*
X66853091Y-93931761D01*
X66678875Y-93931761D01*
X66504659Y-93931761D01*
X66504659Y-94027260D01*
X66504619Y-94030715D01*
X66480755Y-94128577D01*
X66421846Y-94235757D01*
X66354562Y-94316610D01*
X66341080Y-94332811D01*
X66251647Y-94400293D01*
X66215969Y-94417179D01*
X66052819Y-94460765D01*
X65886645Y-94457384D01*
X65731459Y-94408832D01*
X65601274Y-94316906D01*
X65600984Y-94316610D01*
X65763469Y-94316610D01*
X65777723Y-94330863D01*
X65791976Y-94316610D01*
X65777723Y-94302356D01*
X65763469Y-94316610D01*
X65600984Y-94316610D01*
X65583574Y-94298842D01*
X65534077Y-94236272D01*
X65511971Y-94170306D01*
X65506903Y-94074332D01*
X65513966Y-93981798D01*
X65541154Y-93904372D01*
X65595717Y-93841318D01*
X65684887Y-93786806D01*
X65815898Y-93735005D01*
X65995982Y-93680085D01*
X66028935Y-93670705D01*
X66256569Y-93599550D01*
X66433828Y-93529157D01*
X66566303Y-93454695D01*
X66659582Y-93371332D01*
X66719254Y-93274237D01*
X66750906Y-93158579D01*
X66760129Y-93019528D01*
X66758467Y-92958712D01*
X66728076Y-92779764D01*
X66655889Y-92631210D01*
X66537254Y-92502256D01*
X66485352Y-92461159D01*
X66362631Y-92392367D01*
X66818239Y-92392367D01*
X66818239Y-92534904D01*
X66818239Y-92677440D01*
X67074804Y-92677440D01*
X67331370Y-92677440D01*
X67331370Y-93689449D01*
X67331370Y-93931761D01*
X67331370Y-94701458D01*
X67502414Y-94701458D01*
X67673458Y-94701458D01*
X67673458Y-93690519D01*
X67673458Y-92679580D01*
X67937150Y-92671383D01*
X68200843Y-92663187D01*
X68209531Y-92527777D01*
X68343379Y-92527777D01*
X68343379Y-92663187D01*
X68464535Y-92671952D01*
X68585691Y-92680718D01*
X68585691Y-93550732D01*
X68585691Y-94420745D01*
X68464535Y-94411959D01*
X68343379Y-94403174D01*
X68343379Y-94553900D01*
X68343379Y-94704627D01*
X68737738Y-94710169D01*
X68783615Y-94710733D01*
X68921848Y-94711377D01*
X69035100Y-94710330D01*
X69112698Y-94707761D01*
X69143967Y-94703834D01*
X69147876Y-94692201D01*
X69153590Y-94636841D01*
X69155837Y-94554170D01*
X69155837Y-94416385D01*
X69027554Y-94416385D01*
X68899271Y-94416385D01*
X68899271Y-93546913D01*
X68899271Y-92677440D01*
X69027554Y-92677440D01*
X69155837Y-92677440D01*
X69155837Y-92534904D01*
X69155837Y-92392367D01*
X68770989Y-92392367D01*
X68734982Y-92392367D01*
X68596002Y-92392367D01*
X68480525Y-92392367D01*
X68399720Y-92392367D01*
X68364760Y-92392367D01*
X68357689Y-92400021D01*
X68347417Y-92448820D01*
X68343379Y-92527777D01*
X68209531Y-92527777D01*
X68218220Y-92392367D01*
X67518230Y-92392367D01*
X66818239Y-92392367D01*
X66362631Y-92392367D01*
X66354455Y-92387784D01*
X66318136Y-92378114D01*
X69526354Y-92378114D01*
X69526361Y-92534904D01*
X69526393Y-93220216D01*
X69526763Y-93420755D01*
X69528549Y-93646955D01*
X69532066Y-93827586D01*
X69537594Y-93969220D01*
X69545410Y-94078427D01*
X69555795Y-94161778D01*
X69569025Y-94225845D01*
X69619550Y-94377545D01*
X69706925Y-94528645D01*
X69825348Y-94638745D01*
X69980500Y-94714594D01*
X70062833Y-94734992D01*
X70194270Y-94752117D01*
X70338856Y-94758473D01*
X70520260Y-94745620D01*
X70703260Y-94694650D01*
X70851556Y-94602798D01*
X70969978Y-94467842D01*
X70997506Y-94423754D01*
X71033311Y-94351905D01*
X71061787Y-94269458D01*
X71083722Y-94169785D01*
X71099904Y-94046261D01*
X71111120Y-93892258D01*
X71113532Y-93826750D01*
X71407913Y-93826750D01*
X71411251Y-93848856D01*
X71422528Y-93913443D01*
X71439016Y-94004016D01*
X71501476Y-94222960D01*
X71602712Y-94416795D01*
X71736816Y-94573281D01*
X71898756Y-94684964D01*
X71907539Y-94689300D01*
X72011021Y-94731565D01*
X72115815Y-94752705D01*
X72249364Y-94758473D01*
X72296279Y-94757398D01*
X72503522Y-94722735D01*
X72648764Y-94655201D01*
X73331850Y-94655201D01*
X73347207Y-94685362D01*
X73406675Y-94698550D01*
X73516651Y-94701458D01*
X73591874Y-94701306D01*
X73655779Y-94695816D01*
X73698672Y-94676425D01*
X73725651Y-94634545D01*
X73741817Y-94561590D01*
X73752268Y-94448971D01*
X73762103Y-94288102D01*
X73762441Y-94282472D01*
X73777419Y-94092318D01*
X73800747Y-93951614D01*
X73839348Y-93853000D01*
X73900144Y-93789113D01*
X73990060Y-93752593D01*
X74116018Y-93736079D01*
X74284943Y-93732210D01*
X74541132Y-93732210D01*
X74558973Y-93827311D01*
X74560197Y-93834904D01*
X74565772Y-93907320D01*
X74568991Y-94020271D01*
X74569612Y-94159807D01*
X74567392Y-94311976D01*
X74557969Y-94701539D01*
X74721886Y-94701499D01*
X74885803Y-94701458D01*
X74885803Y-94416385D01*
X75256398Y-94416385D01*
X75256398Y-94558922D01*
X75256398Y-94701458D01*
X75669754Y-94701458D01*
X76083110Y-94701458D01*
X76083110Y-94558922D01*
X76083110Y-94416385D01*
X75954827Y-94416385D01*
X75826544Y-94416385D01*
X75826544Y-93900165D01*
X76245980Y-93900165D01*
X76264375Y-94037119D01*
X76282023Y-94117863D01*
X76320926Y-94236783D01*
X76369919Y-94352031D01*
X76468531Y-94507124D01*
X76611409Y-94636953D01*
X76792919Y-94725444D01*
X76854807Y-94740032D01*
X76977478Y-94752484D01*
X77117872Y-94754324D01*
X77253229Y-94745527D01*
X77360787Y-94726067D01*
X77361926Y-94725732D01*
X77430350Y-94691268D01*
X77518141Y-94628392D01*
X77606595Y-94550468D01*
X77697305Y-94448110D01*
X77804443Y-94271270D01*
X77878765Y-94061202D01*
X77922051Y-93812330D01*
X77936084Y-93519075D01*
X77931071Y-93364961D01*
X77893914Y-93093390D01*
X77822607Y-92858559D01*
X77719597Y-92662995D01*
X77587334Y-92509223D01*
X77428266Y-92399767D01*
X77244841Y-92337153D01*
X77039507Y-92323907D01*
X76814714Y-92362553D01*
X76701943Y-92410217D01*
X76562912Y-92514231D01*
X76545185Y-92534904D01*
X76442492Y-92654666D01*
X76350208Y-92819858D01*
X76295585Y-92998147D01*
X76276316Y-93105050D01*
X76446020Y-93105050D01*
X76615724Y-93105050D01*
X76649503Y-92992305D01*
X76697335Y-92877341D01*
X76787580Y-92755841D01*
X76900566Y-92671356D01*
X77026960Y-92628412D01*
X77157432Y-92631533D01*
X77282649Y-92685245D01*
X77312407Y-92706300D01*
X77410049Y-92796502D01*
X77482733Y-92907376D01*
X77533945Y-93047738D01*
X77567172Y-93226407D01*
X77585900Y-93452199D01*
X77588516Y-93523214D01*
X77579040Y-93787552D01*
X77538149Y-94013106D01*
X77466845Y-94197073D01*
X77380590Y-94316610D01*
X77366128Y-94336652D01*
X77236999Y-94429040D01*
X77230543Y-94432034D01*
X77089186Y-94466473D01*
X76945218Y-94447022D01*
X76809361Y-94375035D01*
X76768858Y-94342247D01*
X76745088Y-94316610D01*
X77194894Y-94316610D01*
X77209148Y-94330863D01*
X77223402Y-94316610D01*
X77209148Y-94302356D01*
X77194894Y-94316610D01*
X76745088Y-94316610D01*
X76699455Y-94267392D01*
X76650863Y-94175231D01*
X76611146Y-94045953D01*
X76578497Y-93917508D01*
X76412239Y-93908836D01*
X76245980Y-93900165D01*
X75826544Y-93900165D01*
X75826544Y-93546913D01*
X75826544Y-92677440D01*
X75954827Y-92677440D01*
X76083110Y-92677440D01*
X76083110Y-92534904D01*
X76083110Y-92392367D01*
X75669754Y-92392367D01*
X75256398Y-92392367D01*
X75256398Y-92534904D01*
X75256398Y-92677440D01*
X75384681Y-92677440D01*
X75512964Y-92677440D01*
X75512964Y-93546913D01*
X75512964Y-94416385D01*
X75384681Y-94416385D01*
X75256398Y-94416385D01*
X74885803Y-94416385D01*
X74885803Y-93546913D01*
X74885803Y-92392367D01*
X74375927Y-92392367D01*
X74333319Y-92392372D01*
X74161506Y-92392820D01*
X74034396Y-92394876D01*
X73941810Y-92399764D01*
X73873570Y-92408709D01*
X73819496Y-92422938D01*
X73769410Y-92443673D01*
X73713133Y-92472142D01*
X73644243Y-92513364D01*
X73525230Y-92625659D01*
X73448793Y-92771675D01*
X73411693Y-92956617D01*
X73413887Y-93145995D01*
X73462601Y-93323009D01*
X73559908Y-93471552D01*
X73606620Y-93524424D01*
X73621883Y-93546913D01*
X73634472Y-93565461D01*
X73630620Y-93590513D01*
X73599030Y-93614029D01*
X73560709Y-93646206D01*
X73517905Y-93715265D01*
X73486002Y-93818957D01*
X73462933Y-93964676D01*
X73446634Y-94159820D01*
X73443282Y-94210692D01*
X73427390Y-94376892D01*
X73406692Y-94491549D01*
X73380481Y-94558922D01*
X73354209Y-94601373D01*
X73331850Y-94655201D01*
X72648764Y-94655201D01*
X72681288Y-94640078D01*
X72828776Y-94510570D01*
X72945182Y-94335356D01*
X73029702Y-94115579D01*
X73081534Y-93852383D01*
X73099875Y-93546913D01*
X73094502Y-93336840D01*
X73071022Y-93133346D01*
X73025859Y-92951158D01*
X72955681Y-92772382D01*
X72952386Y-92765281D01*
X72845329Y-92598431D01*
X72704674Y-92469742D01*
X72539629Y-92380611D01*
X72359399Y-92332438D01*
X72173192Y-92326620D01*
X71990216Y-92364554D01*
X71933127Y-92392367D01*
X71819675Y-92447639D01*
X71670779Y-92577274D01*
X71620035Y-92646375D01*
X71610402Y-92663187D01*
X71564005Y-92744166D01*
X71513331Y-92851216D01*
X71474166Y-92953085D01*
X71452667Y-93035334D01*
X71454989Y-93083523D01*
X71471585Y-93091741D01*
X71532377Y-93101318D01*
X71619528Y-93105050D01*
X71770762Y-93105050D01*
X71819742Y-92976799D01*
X71872595Y-92867522D01*
X71970986Y-92744371D01*
X72088142Y-92663255D01*
X72215620Y-92626163D01*
X72344980Y-92635079D01*
X72467778Y-92691993D01*
X72575574Y-92798890D01*
X72626020Y-92878262D01*
X72705100Y-93069032D01*
X72753418Y-93293403D01*
X72769101Y-93540648D01*
X72750277Y-93800035D01*
X72715204Y-93971750D01*
X72645309Y-94158202D01*
X72550276Y-94305725D01*
X72433810Y-94408874D01*
X72299616Y-94462205D01*
X72269793Y-94466216D01*
X72144066Y-94450036D01*
X72024571Y-94385179D01*
X71918392Y-94278343D01*
X71832615Y-94136228D01*
X71774325Y-93965534D01*
X71740209Y-93817732D01*
X71574061Y-93817732D01*
X71500858Y-93818660D01*
X71433784Y-93821932D01*
X71407913Y-93826750D01*
X71113532Y-93826750D01*
X71118156Y-93701149D01*
X71121801Y-93466309D01*
X71122840Y-93181110D01*
X71122840Y-92663187D01*
X71521943Y-92663187D01*
X71536196Y-92677440D01*
X71550450Y-92663187D01*
X71536196Y-92648933D01*
X71521943Y-92663187D01*
X71122840Y-92663187D01*
X71122840Y-92392367D01*
X70968585Y-92392367D01*
X70814329Y-92392367D01*
X70803771Y-93240459D01*
X70802255Y-93355646D01*
X70798444Y-93586535D01*
X70793948Y-93769533D01*
X70788394Y-93911026D01*
X70781407Y-94017398D01*
X70772611Y-94095037D01*
X70761633Y-94150328D01*
X70748099Y-94189658D01*
X70691847Y-94284772D01*
X70583415Y-94387950D01*
X70452115Y-94450605D01*
X70309499Y-94469864D01*
X70167119Y-94442851D01*
X70036526Y-94366694D01*
X70003740Y-94338296D01*
X69961601Y-94295899D01*
X69928204Y-94248988D01*
X69902432Y-94191000D01*
X69883168Y-94115374D01*
X69869298Y-94015546D01*
X69859704Y-93884955D01*
X69853271Y-93717036D01*
X69848883Y-93505229D01*
X69845423Y-93242970D01*
X69835594Y-92397388D01*
X69680974Y-92387751D01*
X69526354Y-92378114D01*
X66318136Y-92378114D01*
X66203629Y-92347626D01*
X66016727Y-92335512D01*
X65952027Y-92336895D01*
X65734991Y-92366117D01*
X65558918Y-92433875D01*
X65422275Y-92540948D01*
X65323527Y-92688117D01*
X65299540Y-92744354D01*
X65262960Y-92859215D01*
X65244772Y-92959307D01*
X65236084Y-93084383D01*
X65389655Y-93087589D01*
X65543227Y-93090796D01*
X65577677Y-92955369D01*
X65622514Y-92830861D01*
X65699597Y-92728594D01*
X65812441Y-92659252D01*
X65829534Y-92652592D01*
X65951434Y-92625999D01*
X66083920Y-92623299D01*
X66196349Y-92645582D01*
X66263225Y-92680249D01*
X66354538Y-92765834D01*
X66414751Y-92873466D01*
X66436739Y-92988367D01*
X66413376Y-93095755D01*
X66413346Y-93095816D01*
X66370779Y-93161859D01*
X66308950Y-93216415D01*
X66218570Y-93264416D01*
X66090353Y-93310798D01*
X65915009Y-93360494D01*
X65758608Y-93404376D01*
X65749819Y-93406842D01*
X65673836Y-93432884D01*
X65561476Y-93471394D01*
X65419659Y-93537758D01*
X65318288Y-93608933D01*
X65251284Y-93687918D01*
X65224192Y-93739281D01*
X65179776Y-93896377D01*
X65173552Y-94075710D01*
X61743940Y-94075710D01*
X61743940Y-93432884D01*
X65392874Y-93432884D01*
X65407128Y-93447137D01*
X65421381Y-93432884D01*
X65407128Y-93418630D01*
X65392874Y-93432884D01*
X61743940Y-93432884D01*
X61743940Y-93404376D01*
X65335859Y-93404376D01*
X65350113Y-93418630D01*
X65364367Y-93404376D01*
X65350113Y-93390123D01*
X65335859Y-93404376D01*
X61743940Y-93404376D01*
X61743940Y-91565656D01*
X64081538Y-91565656D01*
X64081538Y-91651178D01*
X64081538Y-91736699D01*
X71062501Y-91736699D01*
X71775490Y-91736703D01*
X72467486Y-91736726D01*
X73106590Y-91736784D01*
X73694911Y-91736896D01*
X74234556Y-91737077D01*
X74727634Y-91737346D01*
X75176252Y-91737719D01*
X75582519Y-91738213D01*
X75948541Y-91738846D01*
X76276428Y-91739635D01*
X76568286Y-91740595D01*
X76826225Y-91741746D01*
X77052351Y-91743103D01*
X77248774Y-91744684D01*
X77417600Y-91746506D01*
X77560937Y-91748586D01*
X77680894Y-91750940D01*
X77779579Y-91753587D01*
X77859099Y-91756543D01*
X77921562Y-91759826D01*
X77969077Y-91763451D01*
X78003750Y-91767437D01*
X78027691Y-91771801D01*
X78043007Y-91776559D01*
X78051805Y-91781728D01*
X78056195Y-91787327D01*
X78058283Y-91793371D01*
X78087861Y-91838796D01*
X78148986Y-91878893D01*
X78197613Y-91887677D01*
X78294242Y-91895709D01*
X78427254Y-91902063D01*
X78586100Y-91906240D01*
X78760233Y-91907743D01*
X78789026Y-91907742D01*
X78987066Y-91907018D01*
X79135977Y-91902945D01*
X79242764Y-91892590D01*
X79314429Y-91873017D01*
X79357978Y-91841291D01*
X79380413Y-91794476D01*
X79388737Y-91729638D01*
X79389956Y-91643842D01*
X79389935Y-91614147D01*
X79387567Y-91541177D01*
X79376385Y-91486484D01*
X79349503Y-91447434D01*
X79300035Y-91421392D01*
X79221097Y-91405724D01*
X79105801Y-91397794D01*
X78947262Y-91394968D01*
X78738595Y-91394612D01*
X78719686Y-91394616D01*
X78523340Y-91395478D01*
X78375531Y-91398213D01*
X78268449Y-91403378D01*
X78194284Y-91411526D01*
X78145228Y-91423212D01*
X78113471Y-91438989D01*
X78071541Y-91478722D01*
X78050113Y-91524511D01*
X78049705Y-91525792D01*
X78041081Y-91530139D01*
X78019727Y-91534166D01*
X77983631Y-91537884D01*
X77930779Y-91541306D01*
X77859158Y-91544442D01*
X77766757Y-91547304D01*
X77651561Y-91549906D01*
X77511558Y-91552258D01*
X77344734Y-91554372D01*
X77149077Y-91556260D01*
X76922575Y-91557935D01*
X76663213Y-91559407D01*
X76368979Y-91560689D01*
X76037860Y-91561793D01*
X75667843Y-91562730D01*
X75256915Y-91563513D01*
X74803063Y-91564152D01*
X74304275Y-91564661D01*
X73758536Y-91565051D01*
X73163835Y-91565333D01*
X72518158Y-91565520D01*
X71819493Y-91565624D01*
X71065826Y-91565656D01*
X64081538Y-91565656D01*
X61743940Y-91565656D01*
X61743940Y-90738944D01*
X64081538Y-90738944D01*
X64081538Y-90824466D01*
X64081538Y-90909988D01*
X71065826Y-90909988D01*
X71685591Y-90910048D01*
X72503029Y-90910330D01*
X73264686Y-90910845D01*
X73970474Y-90911592D01*
X74620306Y-90912570D01*
X75214093Y-90913779D01*
X75751747Y-90915218D01*
X76233180Y-90916888D01*
X76658304Y-90918788D01*
X77027031Y-90920918D01*
X77339272Y-90923276D01*
X77594940Y-90925864D01*
X77793946Y-90928680D01*
X77936202Y-90931724D01*
X78021621Y-90934996D01*
X78050113Y-90938495D01*
X78065273Y-90972962D01*
X78107128Y-91024017D01*
X78108260Y-91025144D01*
X78131647Y-91044648D01*
X78162181Y-91058953D01*
X78208170Y-91068810D01*
X78277927Y-91074970D01*
X78379761Y-91078184D01*
X78521985Y-91079204D01*
X78712908Y-91078781D01*
X78722476Y-91078739D01*
X78895144Y-91077140D01*
X79049299Y-91074190D01*
X79175316Y-91070191D01*
X79263569Y-91065445D01*
X79304434Y-91060253D01*
X79336324Y-91044068D01*
X79368814Y-91004218D01*
X79384951Y-90934586D01*
X79389519Y-90821757D01*
X79389551Y-90795837D01*
X79387130Y-90720874D01*
X79375569Y-90664464D01*
X79348028Y-90623969D01*
X79297668Y-90596751D01*
X79217651Y-90580172D01*
X79101136Y-90571596D01*
X78941286Y-90568385D01*
X78731260Y-90567900D01*
X78724120Y-90567901D01*
X78526345Y-90568697D01*
X78377457Y-90571381D01*
X78269590Y-90576515D01*
X78194880Y-90584666D01*
X78145462Y-90596399D01*
X78113471Y-90612278D01*
X78071541Y-90652011D01*
X78050113Y-90697800D01*
X78049705Y-90699080D01*
X78041081Y-90703428D01*
X78019727Y-90707455D01*
X77983631Y-90711173D01*
X77930779Y-90714594D01*
X77859158Y-90717730D01*
X77766757Y-90720593D01*
X77651561Y-90723194D01*
X77511558Y-90725546D01*
X77344734Y-90727660D01*
X77149077Y-90729549D01*
X76922575Y-90731223D01*
X76663213Y-90732696D01*
X76368979Y-90733978D01*
X76037860Y-90735081D01*
X75667843Y-90736019D01*
X75256915Y-90736801D01*
X74803063Y-90737441D01*
X74304275Y-90737950D01*
X73758536Y-90738339D01*
X73163835Y-90738622D01*
X72518158Y-90738809D01*
X71819493Y-90738912D01*
X71065826Y-90738944D01*
X64081538Y-90738944D01*
X61743940Y-90738944D01*
X61743940Y-90525139D01*
X78306679Y-90525139D01*
X78320932Y-90539393D01*
X78335186Y-90525139D01*
X78320932Y-90510886D01*
X78306679Y-90525139D01*
X61743940Y-90525139D01*
X61743940Y-89912233D01*
X64062906Y-89912233D01*
X64075458Y-89997754D01*
X64088010Y-90083276D01*
X71069061Y-90083276D01*
X71184352Y-90083279D01*
X71808551Y-90083406D01*
X72417196Y-90083712D01*
X73007849Y-90084190D01*
X73578070Y-90084830D01*
X74125421Y-90085626D01*
X74647464Y-90086568D01*
X75141758Y-90087650D01*
X75605866Y-90088863D01*
X76037348Y-90090198D01*
X76433765Y-90091648D01*
X76792679Y-90093205D01*
X77111651Y-90094860D01*
X77388241Y-90096606D01*
X77620011Y-90098434D01*
X77804523Y-90100336D01*
X77939336Y-90102305D01*
X78022012Y-90104331D01*
X78050113Y-90106408D01*
X78066638Y-90140261D01*
X78108238Y-90191930D01*
X78117288Y-90201353D01*
X78140373Y-90220328D01*
X78171339Y-90234133D01*
X78218373Y-90243588D01*
X78289665Y-90249514D01*
X78393405Y-90252731D01*
X78537780Y-90254060D01*
X78730980Y-90254320D01*
X78812924Y-90254305D01*
X79004078Y-90253252D01*
X79147532Y-90248560D01*
X79250132Y-90237485D01*
X79318726Y-90217287D01*
X79360158Y-90185223D01*
X79381277Y-90138551D01*
X79388927Y-90074531D01*
X79389956Y-89990419D01*
X79389925Y-89956793D01*
X79387351Y-89885055D01*
X79375728Y-89831307D01*
X79348205Y-89792952D01*
X79297929Y-89767393D01*
X79218048Y-89752034D01*
X79101710Y-89744278D01*
X78942062Y-89741528D01*
X78732252Y-89741189D01*
X78695696Y-89741196D01*
X78509797Y-89741690D01*
X78371402Y-89743497D01*
X78272372Y-89747359D01*
X78204568Y-89754019D01*
X78159852Y-89764218D01*
X78130084Y-89778698D01*
X78107128Y-89798203D01*
X78068513Y-89844398D01*
X78050113Y-89883725D01*
X78035065Y-89886289D01*
X77965196Y-89889621D01*
X77838465Y-89892726D01*
X77654959Y-89895603D01*
X77414768Y-89898252D01*
X77117977Y-89900672D01*
X76764677Y-89902864D01*
X76354953Y-89904826D01*
X75888896Y-89906559D01*
X75366591Y-89908062D01*
X74788128Y-89909335D01*
X74153594Y-89910377D01*
X73463077Y-89911188D01*
X72716665Y-89911768D01*
X71914447Y-89912116D01*
X71056509Y-89912233D01*
X64062906Y-89912233D01*
X61743940Y-89912233D01*
X61743940Y-89085521D01*
X64081538Y-89085521D01*
X64081538Y-89171043D01*
X64081538Y-89256565D01*
X71065826Y-89256565D01*
X71283180Y-89256567D01*
X72021195Y-89256618D01*
X72704774Y-89256744D01*
X73335930Y-89256956D01*
X73916676Y-89257268D01*
X74449024Y-89257690D01*
X74934988Y-89258234D01*
X75376580Y-89258913D01*
X75775814Y-89259737D01*
X76134703Y-89260720D01*
X76455258Y-89261873D01*
X76739495Y-89263207D01*
X76989424Y-89264735D01*
X77207060Y-89266468D01*
X77394415Y-89268419D01*
X77553502Y-89270599D01*
X77686334Y-89273020D01*
X77794925Y-89275693D01*
X77881286Y-89278632D01*
X77947432Y-89281846D01*
X77995374Y-89285350D01*
X78027127Y-89289154D01*
X78044702Y-89293269D01*
X78050113Y-89297709D01*
X78066073Y-89336117D01*
X78113471Y-89383231D01*
X78115217Y-89384429D01*
X78147966Y-89399947D01*
X78198578Y-89411392D01*
X78274882Y-89419324D01*
X78384704Y-89424298D01*
X78535872Y-89426874D01*
X78736213Y-89427609D01*
X78808793Y-89427597D01*
X79001139Y-89426606D01*
X79145537Y-89422024D01*
X79248861Y-89411074D01*
X79317985Y-89390983D01*
X79325997Y-89384848D01*
X79418463Y-89384848D01*
X79432717Y-89399101D01*
X79446971Y-89384848D01*
X79432717Y-89370594D01*
X79418463Y-89384848D01*
X79325997Y-89384848D01*
X79359783Y-89358976D01*
X79381128Y-89312277D01*
X79388895Y-89248113D01*
X79389956Y-89163708D01*
X79389925Y-89130081D01*
X79387351Y-89058344D01*
X79375728Y-89004595D01*
X79348205Y-88966240D01*
X79297929Y-88940681D01*
X79218048Y-88925322D01*
X79101710Y-88917566D01*
X78942062Y-88914817D01*
X78732252Y-88914477D01*
X78695696Y-88914484D01*
X78509797Y-88914979D01*
X78371402Y-88916786D01*
X78272372Y-88920648D01*
X78204568Y-88927307D01*
X78159852Y-88937506D01*
X78130084Y-88951987D01*
X78107128Y-88971492D01*
X78068513Y-89017686D01*
X78050113Y-89057014D01*
X78035492Y-89059543D01*
X77966215Y-89062880D01*
X77840075Y-89065989D01*
X77657160Y-89068869D01*
X77417558Y-89071522D01*
X77121358Y-89073945D01*
X76768648Y-89076140D01*
X76359515Y-89078105D01*
X75894048Y-89079840D01*
X75372335Y-89081345D01*
X74794464Y-89082620D01*
X74160524Y-89083663D01*
X73470602Y-89084475D01*
X72724786Y-89085056D01*
X71923164Y-89085405D01*
X71065826Y-89085521D01*
X64081538Y-89085521D01*
X61743940Y-89085521D01*
X61743940Y-88999999D01*
X61743940Y-84458183D01*
X66336444Y-84458183D01*
X66337066Y-84777601D01*
X66338315Y-85146107D01*
X66339890Y-85567665D01*
X66340849Y-85846767D01*
X66342077Y-86225113D01*
X66343342Y-86553081D01*
X66344993Y-86834669D01*
X66347379Y-87073875D01*
X66350848Y-87274695D01*
X66355748Y-87441129D01*
X66362430Y-87577172D01*
X66371240Y-87686823D01*
X66382529Y-87774079D01*
X66396644Y-87842938D01*
X66413935Y-87897397D01*
X66434749Y-87941453D01*
X66459437Y-87979105D01*
X66488346Y-88014349D01*
X66521825Y-88051184D01*
X66560223Y-88093606D01*
X66610689Y-88144766D01*
X66721304Y-88234518D01*
X66831895Y-88302527D01*
X66900448Y-88332415D01*
X67107859Y-88384309D01*
X67319950Y-88385676D01*
X67524913Y-88337352D01*
X67541012Y-88328942D01*
X69184344Y-88328942D01*
X69203081Y-88334194D01*
X69268388Y-88339444D01*
X69369492Y-88343014D01*
X69494829Y-88344331D01*
X69805314Y-88344331D01*
X69858297Y-88223175D01*
X69870487Y-88192141D01*
X69881710Y-88152553D01*
X69890846Y-88101842D01*
X69898171Y-88034273D01*
X69903963Y-87944109D01*
X69908499Y-87825614D01*
X69912056Y-87673050D01*
X69914912Y-87480681D01*
X69917342Y-87242771D01*
X69919625Y-86953583D01*
X69927970Y-85805147D01*
X70204698Y-85813291D01*
X70481426Y-85821436D01*
X70488850Y-87082884D01*
X70496273Y-88344331D01*
X70795303Y-88344331D01*
X71094333Y-88344331D01*
X71094333Y-87704166D01*
X72163357Y-87704166D01*
X72257000Y-87894358D01*
X72274564Y-87928698D01*
X72384479Y-88092530D01*
X72524237Y-88218762D01*
X72706623Y-88319481D01*
X72885951Y-88376827D01*
X73097342Y-88390284D01*
X73312186Y-88347063D01*
X73529713Y-88247231D01*
X73531946Y-88245918D01*
X73662621Y-88148132D01*
X73770452Y-88018271D01*
X73865812Y-87843884D01*
X73930809Y-87702917D01*
X73930809Y-85194275D01*
X73930809Y-82685633D01*
X73631482Y-82685633D01*
X73332156Y-82685633D01*
X73324875Y-85215656D01*
X73317594Y-87745678D01*
X73047083Y-87745678D01*
X72776572Y-87745678D01*
X72769291Y-85215656D01*
X72762010Y-82685633D01*
X72462683Y-82685633D01*
X72163357Y-82685633D01*
X72163357Y-85194900D01*
X72163357Y-85507855D01*
X72163357Y-87704166D01*
X71094333Y-87704166D01*
X71094333Y-85507855D01*
X71094333Y-82671380D01*
X74997904Y-82671380D01*
X75005995Y-82977833D01*
X75014086Y-83284286D01*
X75591359Y-83292004D01*
X76168632Y-83299721D01*
X76168632Y-84254125D01*
X76168632Y-85194275D01*
X76168632Y-85208529D01*
X75725804Y-85208529D01*
X75282977Y-85208529D01*
X75291068Y-85510746D01*
X75299159Y-85812963D01*
X75733895Y-85808791D01*
X76168632Y-85804619D01*
X76168632Y-86775148D01*
X76168632Y-87745678D01*
X75584232Y-87745678D01*
X74999833Y-87745678D01*
X74999833Y-88045005D01*
X74999833Y-88344331D01*
X75665270Y-88344331D01*
X75673227Y-88344331D01*
X75883918Y-88344087D01*
X76046038Y-88342914D01*
X76167758Y-88340127D01*
X76257250Y-88335041D01*
X76322683Y-88326971D01*
X76372230Y-88315230D01*
X76414061Y-88299136D01*
X76456348Y-88278001D01*
X76492404Y-88256273D01*
X76588914Y-88178344D01*
X76667509Y-88090259D01*
X76753031Y-87968847D01*
X76760632Y-85545773D01*
X76768232Y-83122699D01*
X76695794Y-82989688D01*
X76633565Y-82896299D01*
X76500747Y-82774773D01*
X76336965Y-82699110D01*
X76324077Y-82696317D01*
X76250703Y-82688365D01*
X76133557Y-82681511D01*
X75982600Y-82676139D01*
X75807791Y-82672634D01*
X75619090Y-82671380D01*
X74997904Y-82671380D01*
X71094333Y-82671380D01*
X70474111Y-82671380D01*
X70411920Y-82671517D01*
X70226778Y-82673548D01*
X70058764Y-82677708D01*
X69917849Y-82683612D01*
X69814004Y-82690875D01*
X69757200Y-82699110D01*
X69655073Y-82738953D01*
X69509053Y-82842977D01*
X69477159Y-82885184D01*
X69455616Y-82913692D01*
X69398846Y-82988818D01*
X69326881Y-83120958D01*
X69326881Y-84165659D01*
X69326993Y-84367548D01*
X69327893Y-84624080D01*
X69330275Y-84832903D01*
X69334819Y-84999583D01*
X69342207Y-85129686D01*
X69353117Y-85228779D01*
X69368231Y-85302427D01*
X69388228Y-85356196D01*
X69413789Y-85395652D01*
X69445594Y-85426361D01*
X69484324Y-85453890D01*
X69549052Y-85496301D01*
X69561008Y-85504135D01*
X69484479Y-85559882D01*
X69422519Y-85618931D01*
X69374730Y-85690025D01*
X69369899Y-85706529D01*
X69360410Y-85777951D01*
X69351929Y-85899906D01*
X69344405Y-86073690D01*
X69337787Y-86300598D01*
X69332025Y-86581925D01*
X69327069Y-86918967D01*
X69324230Y-87142596D01*
X69320807Y-87390131D01*
X69317402Y-87590744D01*
X69313664Y-87750160D01*
X69309238Y-87874105D01*
X69303773Y-87968305D01*
X69296914Y-88038486D01*
X69288309Y-88090373D01*
X69277604Y-88129693D01*
X69264448Y-88162171D01*
X69248486Y-88193532D01*
X69227953Y-88232767D01*
X69196665Y-88296845D01*
X69184344Y-88328942D01*
X67541012Y-88328942D01*
X67710940Y-88240175D01*
X67818964Y-88148397D01*
X67929934Y-88020930D01*
X68018283Y-87884298D01*
X68070360Y-87756856D01*
X68073942Y-87735056D01*
X68080326Y-87650612D01*
X68085848Y-87510810D01*
X68090511Y-87315417D01*
X68094320Y-87064195D01*
X68097277Y-86756908D01*
X68099385Y-86393321D01*
X68100647Y-85973197D01*
X68101067Y-85496301D01*
X68101051Y-85167836D01*
X68100927Y-84810968D01*
X68100587Y-84503703D01*
X68099923Y-84241946D01*
X68098827Y-84021604D01*
X68097191Y-83838583D01*
X68094907Y-83688790D01*
X68091867Y-83568130D01*
X68087962Y-83472509D01*
X68083085Y-83397834D01*
X68077127Y-83340012D01*
X68069981Y-83294947D01*
X68061538Y-83258546D01*
X68051691Y-83226716D01*
X68040331Y-83195363D01*
X68034463Y-83180130D01*
X67934621Y-82998809D01*
X67854966Y-82913692D01*
X68015545Y-82913692D01*
X68029799Y-82927945D01*
X68044053Y-82913692D01*
X68029799Y-82899438D01*
X68015545Y-82913692D01*
X67854966Y-82913692D01*
X67828287Y-82885184D01*
X69383895Y-82885184D01*
X69398149Y-82899438D01*
X69412403Y-82885184D01*
X69398149Y-82870931D01*
X69383895Y-82885184D01*
X67828287Y-82885184D01*
X67798315Y-82853157D01*
X67634075Y-82744570D01*
X67450430Y-82674445D01*
X67255910Y-82644180D01*
X67059046Y-82655170D01*
X66868366Y-82708812D01*
X66692402Y-82806504D01*
X66539683Y-82949641D01*
X66523056Y-82969496D01*
X66488000Y-83011423D01*
X66457504Y-83050916D01*
X66431264Y-83091938D01*
X66408978Y-83138453D01*
X66390345Y-83194424D01*
X66375060Y-83263813D01*
X66362822Y-83350585D01*
X66353329Y-83458702D01*
X66346278Y-83592128D01*
X66341367Y-83754826D01*
X66338292Y-83950759D01*
X66336752Y-84183890D01*
X66336444Y-84458183D01*
X61743940Y-84458183D01*
X61743940Y-78993939D01*
X71750001Y-78993939D01*
X81756061Y-78993939D01*
X81756061Y-83122699D01*
X81756061Y-88999999D01*
G37*
%TO.C,U3*%
D13*
X59500000Y-137500000D02*
X59500000Y-143500000D01*
X59500000Y-143500000D02*
X63000000Y-146000000D01*
X63000000Y-146000000D02*
X63000000Y-148500000D01*
X77000000Y-146000000D02*
X77000000Y-148500000D01*
X77000000Y-148500000D02*
X63000000Y-148500000D01*
X80500000Y-137500000D02*
X59500000Y-137500000D01*
X80500000Y-137500000D02*
X80500000Y-143500000D01*
X80500000Y-143500000D02*
X77000000Y-146000000D01*
X58000000Y-135500000D02*
X82000000Y-135500000D01*
X82000000Y-149500000D01*
X58000000Y-149500000D01*
X58000000Y-135500000D01*
%TD*%
M02*
