%TF.GenerationSoftware,KiCad,Pcbnew,10.0.3*%
%TF.CreationDate,2026-05-22T03:26:28+01:00*%
%TF.ProjectId,ProjectKurinda_PCB,50726f6a-6563-4744-9b75-72696e64615f,rev?*%
%TF.SameCoordinates,Original*%
%TF.FileFunction,Soldermask,Bot*%
%TF.FilePolarity,Negative*%
%FSLAX46Y46*%
G04 Gerber Fmt 4.6, Leading zero omitted, Abs format (unit mm)*
G04 Created by KiCad (PCBNEW 10.0.3) date 2026-05-22 03:26:28*
%MOMM*%
%LPD*%
G01*
G04 APERTURE LIST*
G04 Aperture macros list*
%AMRoundRect*
0 Rectangle with rounded corners*
0 $1 Rounding radius*
0 $2 $3 $4 $5 $6 $7 $8 $9 X,Y pos of 4 corners*
0 Add a 4 corners polygon primitive as box body*
4,1,4,$2,$3,$4,$5,$6,$7,$8,$9,$2,$3,0*
0 Add four circle primitives for the rounded corners*
1,1,$1+$1,$2,$3*
1,1,$1+$1,$4,$5*
1,1,$1+$1,$6,$7*
1,1,$1+$1,$8,$9*
0 Add four rect primitives between the rounded corners*
20,1,$1+$1,$2,$3,$4,$5,0*
20,1,$1+$1,$4,$5,$6,$7,0*
20,1,$1+$1,$6,$7,$8,$9,0*
20,1,$1+$1,$8,$9,$2,$3,0*%
G04 Aperture macros list end*
%ADD10C,1.600000*%
%ADD11C,1.700000*%
%ADD12RoundRect,0.250000X0.250000X1.500000X-0.250000X1.500000X-0.250000X-1.500000X0.250000X-1.500000X0*%
%ADD13RoundRect,0.250001X0.499999X1.449999X-0.499999X1.449999X-0.499999X-1.449999X0.499999X-1.449999X0*%
G04 APERTURE END LIST*
D10*
%TO.C,U1*%
X77620000Y-50640000D03*
X62380000Y-65880000D03*
X62380000Y-63340000D03*
X62380000Y-60800000D03*
X62380000Y-58260000D03*
X62380000Y-55720000D03*
X62380000Y-53180000D03*
X62380000Y-50640000D03*
X77620000Y-48100000D03*
X62380000Y-48001420D03*
X77620000Y-55720000D03*
X77620000Y-53180000D03*
X77620000Y-58260000D03*
X77620000Y-60800000D03*
X77620000Y-63340000D03*
X77620000Y-65880000D03*
%TD*%
D11*
%TO.C,U5*%
X78890000Y-133000000D03*
X76350000Y-133000000D03*
X73810000Y-133000000D03*
X71270000Y-133000000D03*
X68730000Y-133000000D03*
X66190000Y-133000000D03*
X63650000Y-133000000D03*
X61110000Y-133000000D03*
%TD*%
%TO.C,U2*%
X67460000Y-123000000D03*
X70000000Y-123000000D03*
X72540000Y-123000000D03*
%TD*%
%TO.C,U4*%
X77620000Y-78500000D03*
X75080000Y-78500000D03*
X72540000Y-78500000D03*
X70000000Y-78500000D03*
X67460000Y-78500000D03*
X64920000Y-78500000D03*
X62380000Y-78500000D03*
%TD*%
%TO.C,U3*%
X67460000Y-139500000D03*
X70000000Y-139500000D03*
X72540000Y-139500000D03*
%TD*%
D12*
%TO.C,J1*%
X71000000Y-48100000D03*
X69000000Y-48100000D03*
D13*
X73350000Y-53850000D03*
X66650000Y-53850000D03*
%TD*%
M02*
